<svg width="272" height="206" viewBox="0 0 272 206" fill="none" xmlns="http://www.w3.org/2000/svg">
<path d="M136 200.657C157.716 200.71 178.619 200.124 196.206 198.903C213.744 197.685 228.134 195.827 236.734 193.288C246.711 190.362 255.801 183.299 258.709 175.605C261.357 168.774 263.338 157.833 264.676 145.029C266.02 132.17 266.732 117.269 266.779 102.433C266.826 87.5968 266.209 72.7916 264.888 60.1242C263.573 47.522 261.543 36.8313 258.672 30.3563C255.409 22.914 246.875 15.5455 236.698 12.7528L236.694 12.7518L236.69 12.7507C218.069 7.72571 177.534 5.34088 136 5.34088C94.4681 5.34088 53.935 7.72548 35.3128 12.75C25.0385 15.4926 16.5842 22.9265 13.3271 30.3591C10.4566 36.8342 8.42703 47.5235 7.11262 60.1242C5.79122 72.7916 5.17413 87.5968 5.22126 102.433C5.26839 117.269 5.97995 132.17 7.32406 145.029C8.66292 157.839 10.6445 168.784 13.2951 175.614H13.2952C16.2741 183.289 25.2749 190.358 35.2689 193.288C43.9039 195.827 58.2921 197.685 75.8225 198.903C93.3999 200.124 114.284 200.71 136 200.657ZM136 200.657C135.999 200.657 135.997 200.657 135.996 200.657L136 198.785L136.005 200.657C136.003 200.657 136.002 200.657 136 200.657Z" stroke="#34323C" stroke-width="10"/>
</svg>
