<svg width="700" height="509" viewBox="0 0 700 509" fill="none" xmlns="http://www.w3.org/2000/svg">
<path d="M24.0736 62.8661L24.0783 62.8533C31.4807 42.8406 50.7254 26.609 69.5093 20.5025C77.9701 17.7204 92.0371 15.4284 109.903 13.5147C127.904 11.5863 150.155 10.0051 175.215 8.75781C225.342 6.26287 286.894 5.09526 348.541 5.1844C410.189 5.27357 471.991 6.61961 522.62 9.1587C547.931 10.4281 570.489 11.9976 588.858 13.8625C607.111 15.7155 621.539 17.8884 630.427 20.4441C649.851 25.8882 668.267 43.165 676.006 62.741M24.0736 62.8661L671.36 64.5879M24.0736 62.8661L24.0689 62.8788M24.0736 62.8661L24.0689 62.8788M676.006 62.741C676.007 62.7442 676.009 62.7473 676.01 62.7504L671.36 64.5879M676.006 62.741C676.006 62.7404 676.006 62.7397 676.005 62.739L671.36 64.5879M676.006 62.741C682.616 79.3509 687.384 106.91 690.499 140.187C693.628 173.622 695.127 213.329 694.992 254.555M671.36 64.5879C684.008 96.3678 690.263 172.326 689.991 254.555M694.992 254.555C694.992 254.549 694.991 254.544 694.991 254.538L689.991 254.555M694.992 254.555C695.127 295.781 693.628 335.452 690.499 368.869C687.384 402.13 682.616 429.682 676.01 446.359M694.992 254.555C694.992 254.56 694.991 254.566 694.991 254.571L689.991 254.555M689.991 254.555L676.01 446.359M676.01 446.359C668.262 465.967 649.83 483.078 630.448 488.659L629.065 483.856M676.01 446.359L629.065 483.856M24.0689 62.8788C17.5128 80.9035 12.7796 109.234 9.66261 142.593C6.53396 176.076 4.99999 215.034 4.99999 254.555C4.99999 294.075 6.53397 333.033 9.66262 366.517C12.7791 399.87 17.5114 428.197 24.066 446.222C31.3419 466.439 50.7657 482.514 69.5096 488.607C77.9704 491.389 92.0373 493.681 109.903 495.595C127.904 497.523 150.155 499.104 175.215 500.352C225.342 502.846 286.894 504.014 348.541 503.925C410.189 503.836 471.991 502.49 522.62 499.951C547.931 498.681 570.489 497.112 588.859 495.247C607.125 493.392 621.562 491.218 630.448 488.659L629.065 483.856M24.0689 62.8788L629.065 483.856" stroke="#34323C" stroke-width="10"/>
</svg>
