<svg width="800" height="800" viewBox="0 0 800 800" fill="none" xmlns="http://www.w3.org/2000/svg">
<g clip-path="url(#clip0)">
<path d="M78.6546 320.279C78.0058 319.032 77.7639 317.149 76.9025 315.696C76.0447 314.453 75.3922 312.996 74.5344 311.753C73.6767 310.509 72.8189 309.266 71.9574 307.813C71.0997 306.57 70.0329 305.33 69.3841 304.083C68.5263 302.84 67.4596 301.601 66.6018 300.357C65.7441 299.114 65.3005 297.654 64.4428 296.411C63.585 295.167 62.5182 293.928 61.8694 292.681C61.0116 291.437 60.5681 289.977 59.7103 288.734C58.8526 287.491 58.4127 286.24 57.5549 284.997C59.014 284.762 60.0551 284.534 61.5141 284.299C62.9731 284.063 64.2086 282.993 65.4586 282.762C66.9177 282.527 68.582 282.078 69.832 281.847C70.6898 283.09 70.9354 285.183 71.7968 286.636C72.6546 287.879 73.725 289.328 74.3738 290.575C75.2352 292.028 75.884 293.275 76.7455 294.728C77.6069 296.181 78.8789 297.207 79.5314 298.664C80.3929 300.117 80.8364 301.577 81.6942 302.82C82.5556 304.273 83.2081 305.729 84.0658 306.973C84.2492 305.502 84.0073 303.618 84.1906 302.147C84.374 300.676 85.6021 299.187 85.7818 297.506C85.9651 296.035 85.5179 294.365 85.6976 292.684C85.8809 291.213 86.4785 289.525 86.6619 288.054C86.8452 286.583 86.8159 284.906 86.9956 283.225C87.179 281.754 87.5676 280.069 87.7509 278.598C89.001 278.366 90.2438 277.716 91.6991 277.271C92.9492 277.039 94.4155 277.223 95.8746 276.988C97.3336 276.753 98.7816 275.889 100.032 275.657C100.893 277.11 101.755 278.563 102.616 280.016C103.477 281.469 103.712 282.933 104.573 284.386C105.226 285.842 106.084 287.086 106.945 288.539C107.598 289.995 108.664 291.235 109.526 292.688C110.178 294.144 110.211 296.031 110.86 297.278C111.509 298.525 112.572 299.555 113.221 300.802C113.4 299.121 113.591 298.069 113.771 296.388C113.95 294.708 114.97 293.222 115.362 291.747C115.542 290.066 115.725 288.595 115.905 286.914C116.084 285.233 115.846 283.56 116.029 282.089C116.209 280.408 116.183 278.941 116.363 277.26C116.543 275.579 117.144 274.1 117.533 272.416C119.406 271.964 121.067 271.306 122.94 270.854C124.813 270.402 126.694 270.369 128.567 269.917C128.387 271.597 127.999 273.282 127.815 274.753C127.636 276.434 127.665 278.111 127.485 279.792C127.306 281.473 127.126 283.153 126.946 284.834C126.767 286.515 125.956 287.997 125.777 289.678C125.597 291.359 124.996 292.837 124.607 294.521C124.218 296.206 124.248 297.883 123.855 299.358C123.467 301.042 123.287 302.723 122.895 304.198C122.506 305.882 122.536 307.559 122.143 309.034C121.755 310.719 120.728 311.785 120.548 313.466C119.298 313.698 118.261 314.135 117.011 314.367C115.761 314.598 114.298 314.624 113.044 314.645C111.794 314.877 110.746 314.686 109.496 314.917C108.843 313.461 108.194 312.214 107.542 310.757C106.89 309.301 105.617 308.274 104.965 306.818C104.313 305.361 103.246 304.121 102.593 302.665C101.941 301.208 101.703 299.535 101.05 298.078C100.398 296.622 99.5362 295.169 98.8874 293.922C98.2386 292.675 96.9556 291.02 96.3031 289.563C96.1197 291.034 95.7348 292.928 95.5514 294.4C95.3681 295.871 95.3974 297.548 95.214 299.019C95.0307 300.49 94.4294 301.969 94.0408 303.653C93.8575 305.124 94.3046 306.794 94.125 308.475C93.9416 309.946 92.9225 311.432 92.7391 312.903C92.5558 314.374 92.5851 316.051 92.4017 317.522C90.9427 317.757 89.48 317.783 88.2299 318.015C86.7709 318.25 85.5282 318.901 84.0655 318.926C81.7853 320.014 80.1173 320.253 78.6546 320.279Z" fill="#34323C"/>
<path d="M129.814 269.475C131.688 269.023 133.993 269.402 135.867 268.95C137.74 268.498 139.404 268.049 141.278 267.597C141.725 269.267 141.959 270.731 142.198 272.404C142.645 274.074 143.092 275.744 143.543 277.623C143.781 279.297 144.434 280.753 144.672 282.427C146.34 282.188 147.799 281.953 149.258 281.718C150.926 281.479 152.586 280.821 154.045 280.586C155.713 280.347 157.385 280.318 159.053 280.079C160.721 279.84 162.393 279.811 164.061 279.572C165.729 279.333 167.602 278.881 169.266 278.433C169.024 276.55 167.947 274.681 167.499 273.011C167.258 271.128 166.81 269.458 166.36 267.579C165.909 265.699 166.51 264.221 166.059 262.341C167.932 261.889 169.597 261.441 171.474 261.198C173.351 260.956 175.015 260.507 177.097 260.051C177.332 261.515 177.981 262.762 178.424 264.222C178.659 265.686 178.688 267.363 179.131 268.824C179.366 270.287 179.601 271.751 179.839 273.425C180.073 274.889 180.935 276.342 181.169 277.805C181.404 279.269 180.806 280.957 181.041 282.421C181.275 283.885 182.137 285.338 182.372 286.802C182.606 288.266 182.426 289.947 182.87 291.407C183.104 292.871 183.548 294.331 183.786 296.004C184.021 297.468 184.05 299.145 184.285 300.609C184.519 302.073 184.97 303.952 185.205 305.416C183.328 305.659 181.026 305.489 179.149 305.732C177.272 305.974 175.197 306.849 173.111 307.095C172.876 305.632 172.429 303.962 172.195 302.498C171.96 301.034 172.143 299.563 171.909 298.099C171.674 296.635 171.44 295.171 171.205 293.707C170.97 292.244 170.534 291.203 170.3 289.739C168.632 289.978 167.158 289.374 165.494 289.823C163.826 290.061 162.385 291.345 160.717 291.584C159.049 291.823 157.381 292.061 155.713 292.3C154.045 292.539 152.366 292.149 150.698 292.388C149.03 292.627 147.157 293.079 145.493 293.527C145.727 294.991 146.38 296.448 146.614 297.911C146.849 299.375 147.289 300.626 147.523 302.09C147.758 303.554 147.366 305.028 147.6 306.492C147.835 307.956 148.282 309.626 148.513 310.88C146.636 311.123 144.337 311.163 142.46 311.405C140.583 311.648 138.706 311.89 136.621 312.136C136.382 310.463 135.939 309.002 135.704 307.539C135.47 306.075 135.023 304.405 134.788 302.941C134.553 301.477 134.733 299.796 134.495 298.123C135.089 296.225 135.059 294.548 134.825 293.084C134.59 291.62 134.143 289.95 133.909 288.487C133.674 287.023 133.227 285.353 132.992 283.889C132.758 282.425 132.311 280.755 131.867 279.295C131.632 277.831 132.017 275.937 131.783 274.473C131.336 272.804 130.258 270.935 129.814 269.475Z" fill="#34323C"/>
<path d="M223.207 291.121C221.748 291.356 220.275 290.752 218.816 290.988C217.357 291.223 215.901 291.668 214.439 291.693C212.98 291.928 211.524 292.373 210.065 292.608C208.606 292.843 207.151 293.288 205.692 293.523C204.233 293.759 202.986 294.2 201.527 294.435C201.135 295.91 200.739 297.175 200.347 298.65C199.955 300.124 199.775 301.805 199.383 303.28C198.132 303.512 196.457 303.331 195.207 303.563C193.957 303.794 192.491 303.61 191.241 303.842C189.991 304.073 188.744 304.514 187.494 304.746C187.886 303.271 187.652 301.807 188.044 300.332C188.436 298.858 188.62 297.386 189.012 295.912C189.404 294.437 190.636 293.157 191.028 291.682C191.421 290.207 191.604 288.736 191.787 287.265C192.18 285.79 192.572 284.316 192.964 282.841C193.357 281.366 193.118 279.692 193.302 278.221C193.694 276.747 194.086 275.272 194.479 273.797C194.871 272.322 195.054 270.851 195.446 269.376C195.839 267.901 195.392 266.232 195.784 264.757C195.967 263.286 197.199 262.006 197.588 260.321C197.771 258.85 197.529 256.967 197.712 255.496C199.377 255.048 201.257 255.015 202.925 254.776C204.59 254.327 206.254 253.879 207.918 253.43C209.583 252.982 211.254 252.953 212.922 252.714C213.78 253.957 215.056 255.193 215.913 256.437C216.771 257.68 217.218 259.35 218.08 260.803C218.938 262.046 220.419 263.069 221.28 264.521C222.138 265.765 222.999 267.218 223.857 268.461C224.718 269.914 225.162 271.374 226.023 272.827C226.885 274.28 227.743 275.523 228.604 276.976C229.465 278.429 230.529 279.459 231.39 280.912C232.251 282.365 232.281 284.042 233.142 285.495C234.004 286.948 235.481 287.761 236.342 289.214C237.204 290.667 237.856 292.123 238.714 293.366C239.575 294.819 239.597 296.077 240.459 297.53C238.787 297.559 237.951 297.574 236.489 297.599C235.03 297.835 233.787 298.485 232.328 298.721C230.869 298.956 229.41 299.191 227.951 299.426C227.089 297.973 226.642 296.303 225.781 294.85C225.132 293.603 224.069 292.573 223.207 291.121ZM207.276 264.556C207.093 266.027 206.279 267.3 205.887 268.775C205.495 270.249 205.315 271.93 205.132 273.401C204.739 274.876 204.769 276.553 204.38 278.238C203.988 279.712 204.017 281.39 203.625 282.864C205.084 282.629 206.535 281.975 208.203 281.736C209.662 281.501 211.334 281.472 213.002 281.233C214.67 280.994 215.711 280.766 217.375 280.318C216.514 278.865 216.074 277.614 215.216 276.371C214.355 274.918 213.702 273.461 212.841 272.008C211.98 270.556 211.122 269.312 210.26 267.859C209.399 266.406 208.138 266.009 207.276 264.556Z" fill="#34323C"/>
<path d="M243.327 258.473C241.659 258.712 239.981 258.322 238.107 258.774C236.439 259.013 234.566 259.465 232.902 259.913C231.234 260.152 229.573 260.81 227.905 261.049C227.454 259.17 227.007 257.5 226.556 255.62C226.105 253.741 225.442 251.655 224.991 249.776C226.659 249.537 228.536 249.295 230.2 248.846C231.865 248.398 233.32 247.953 234.984 247.504C236.652 247.266 238.324 247.236 239.779 246.792C241.447 246.553 243.119 246.524 244.574 246.079C246.242 245.84 247.698 245.395 249.362 244.947C251.03 244.708 252.474 243.634 253.93 243.189C255.598 242.95 257.053 242.506 258.717 242.057C260.385 241.818 262.064 242.208 263.732 241.97C265.4 241.731 266.643 241.08 268.311 240.841C268.542 242.095 268.773 243.35 269.007 244.813C269.238 246.068 270.096 247.311 270.331 248.775C270.561 250.029 270.587 251.497 270.822 252.96C269.154 253.199 267.28 253.651 265.612 253.89C263.944 254.129 262.291 255.206 260.414 255.449C258.746 255.688 256.44 255.308 254.776 255.757C255.014 257.43 255.879 259.093 256.327 260.763C256.565 262.436 256.594 264.113 256.829 265.577C257.067 267.251 257.719 268.707 257.958 270.381C258.196 272.054 258.225 273.732 258.46 275.195C258.698 276.869 259.35 278.325 259.589 279.999C259.827 281.672 259.647 283.353 259.882 284.817C260.12 286.491 260.981 287.943 261.22 289.617C261.458 291.29 261.7 293.174 261.938 294.847C260.688 295.079 259.016 295.108 257.554 295.133C256.303 295.365 255.053 295.596 253.594 295.832C252.135 296.067 250.68 296.512 249.426 296.533C249.188 294.86 249.782 292.962 249.544 291.289C249.306 289.615 248.235 288.166 248.001 286.702C247.762 285.029 247.737 283.561 247.498 281.888C247.26 280.214 247.858 278.526 247.414 277.066C247.176 275.392 246.733 273.932 246.494 272.259C246.256 270.585 245.395 269.132 245.16 267.668C244.922 265.995 244.478 264.535 244.035 263.074C243.588 261.405 243.566 260.147 243.327 258.473Z" fill="#34323C"/>
<path d="M308.432 288.167C306.556 288.409 304.25 288.03 302.373 288.272C300.496 288.515 298.831 288.963 296.955 289.206C296.716 287.532 296.485 286.278 296.247 284.604C296.009 282.931 295.565 281.471 295.327 279.797C295.089 278.124 294.436 276.667 294.198 274.994C293.96 273.32 293.931 271.643 293.696 270.179C293.458 268.506 293.014 267.046 292.567 265.376C292.329 263.702 292.3 262.025 292.065 260.561C291.827 258.888 291.798 257.211 291.563 255.747C291.325 254.073 290.881 252.613 290.643 250.939C290.405 249.266 289.334 247.817 289.1 246.353C288.862 244.679 288.418 243.219 288.18 241.546C287.942 239.872 288.338 238.607 288.099 236.934C289.973 236.481 291.637 236.033 293.514 235.79C295.387 235.338 297.055 235.1 299.137 234.644C299.372 236.108 300.021 237.355 300.464 238.815C300.699 240.279 300.725 241.746 301.172 243.416C301.406 244.88 301.641 246.344 301.875 247.808C302.11 249.271 302.971 250.724 303.415 252.184C303.65 253.648 303.052 255.336 303.287 256.8C303.521 258.264 304.383 259.717 304.826 261.177C305.061 262.641 305.09 264.318 305.324 265.782C305.559 267.246 306.003 268.706 306.237 270.17C306.472 271.634 306.497 273.101 306.736 274.775C306.97 276.239 307.623 277.695 307.857 279.159C308.092 280.623 307.703 282.307 307.938 283.771C307.542 285.036 308.198 286.703 308.432 288.167Z" fill="#34323C"/>
<path d="M342.241 225.082C342.476 226.546 342.091 228.44 342.531 229.691C342.765 231.154 343.209 232.615 343.44 233.869C343.674 235.333 344.114 236.583 344.554 237.834C343.095 238.069 341.848 238.51 340.393 238.955C338.934 239.19 337.482 239.845 336.023 240.08C334.564 240.315 333.102 240.34 331.642 240.576C330.183 240.811 328.732 241.465 327.273 241.7C325.814 241.936 324.351 241.961 322.892 242.196C321.433 242.431 319.765 242.67 318.306 242.905C318.537 244.16 318.775 245.833 319.01 247.297C319.241 248.551 320.095 249.585 320.326 250.839C321.785 250.604 322.822 250.166 324.281 249.931C325.74 249.696 327.214 250.299 328.673 250.064C330.132 249.829 331.587 249.384 333.046 249.149C334.505 248.914 335.964 248.679 337.423 248.444C338.882 248.208 340.121 247.348 341.58 247.113C343.04 246.878 344.502 246.852 345.961 246.617C346.196 248.081 346.43 249.545 346.665 251.008C346.9 252.472 347.757 253.716 347.992 255.179C348.226 256.643 347.622 257.912 347.856 259.376C346.397 259.611 345.363 260.258 343.908 260.703C342.453 261.148 340.983 260.754 339.524 260.989C338.064 261.225 336.609 261.669 335.15 261.904C333.691 262.14 332.228 262.165 330.769 262.4C329.31 262.636 327.859 263.29 326.608 263.522C325.149 263.757 323.474 263.576 322.015 263.811C322.25 265.275 323.111 266.728 323.346 268.192C323.58 269.656 323.815 271.12 324.049 272.584C324.284 274.047 324.101 275.519 324.335 276.982C324.57 278.446 324.804 279.91 325.039 281.374C325.274 282.838 325.724 284.717 325.959 286.181C324.082 286.424 321.776 286.045 319.899 286.287C318.022 286.529 315.951 287.614 313.865 287.86C313.631 286.396 313.389 284.513 313.154 283.049C312.92 281.586 313.517 279.897 313.283 278.434C313.048 276.97 312.604 275.51 312.366 273.836C312.132 272.372 311.27 270.919 311.036 269.455C310.801 267.992 310.358 266.531 310.123 265.068C309.888 263.604 310.068 261.923 309.834 260.459C309.599 258.995 308.946 257.539 308.712 256.075C308.477 254.611 308.448 252.934 308.213 251.47C307.979 250.006 307.744 248.542 307.506 246.869C307.272 245.405 306.619 243.948 306.384 242.484C306.15 241.021 305.497 239.564 305.263 238.1C305.028 236.636 304.999 234.959 304.764 233.495C306.432 233.256 308.1 233.018 309.559 232.783C311.227 232.544 312.679 231.889 314.138 231.654C315.597 231.419 317.262 230.97 318.926 230.522C320.59 230.073 322.046 229.629 323.505 229.393C325.173 229.155 326.852 229.545 328.307 229.1C329.975 228.861 331.423 227.997 332.878 227.552C334.546 227.313 336.005 227.078 337.673 226.839C338.916 226.189 340.573 225.321 342.241 225.082Z" fill="#34323C"/>
<path d="M101.639 499.386C100.173 499.202 98.4829 498.183 96.804 497.793C95.125 497.403 93.6587 497.219 92.1923 497.035C90.726 496.85 89.0507 496.67 87.5843 496.486C86.118 496.302 84.4463 496.331 82.9763 495.937C81.51 495.753 79.6257 495.576 77.9505 495.396C78.1338 493.925 78.7277 492.027 78.9111 490.556C79.0944 489.085 79.0651 487.407 79.4538 485.723C79.6371 484.252 80.2347 482.564 80.418 481.093C80.6014 479.621 81.199 477.933 81.3823 476.462C81.5656 474.991 81.7453 473.31 81.9287 471.839C82.112 470.368 81.6648 468.698 81.8445 467.017C82.0278 465.546 82.2075 463.865 82.3872 462.185C82.5669 460.504 83.5897 459.228 83.7694 457.547C83.9491 455.866 83.9234 454.399 84.1031 452.718C84.2828 451.037 84.4661 449.566 84.6458 447.885C84.8255 446.204 84.382 444.744 84.5617 443.063C84.7413 441.383 85.1336 439.908 85.108 438.44C85.2877 436.759 85.471 435.288 85.4418 433.611C85.6214 431.93 84.969 430.474 85.1486 428.793C85.3283 427.112 86.1385 425.63 86.3219 424.159C86.2926 422.482 85.8491 421.022 85.8198 419.345C85.7905 417.667 86.1828 416.193 86.3625 414.512C86.3332 412.835 86.3076 411.367 86.2783 409.69C86.249 408.013 86.6413 406.538 86.6121 404.861C86.5828 403.184 86.1393 401.724 86.319 400.043C86.2897 398.366 86.8909 396.887 86.8617 395.21C86.8324 393.533 86.1799 392.076 86.1506 390.399C86.1213 388.722 86.0957 387.255 86.0665 385.577C86.0372 383.9 86.4295 382.425 86.4002 380.748C86.3709 379.071 86.1364 377.607 86.1071 375.93C86.0778 374.253 85.6343 372.793 85.605 371.116C85.5757 369.439 86.3859 367.956 86.3567 366.279C86.3274 364.602 85.257 363.153 85.2314 361.685C85.2021 360.008 85.1765 358.541 85.1472 356.864C85.1179 355.186 85.7192 353.708 85.481 352.034C85.4517 350.357 85.0082 348.897 84.9789 347.22C84.7407 345.546 84.0882 344.09 84.0626 342.622C83.8243 340.949 83.5898 339.485 83.3515 337.812C83.1133 336.138 83.5056 334.663 83.2674 332.99C84.9353 332.751 86.3907 332.306 87.8497 332.071C89.3088 331.836 90.9841 332.016 92.652 331.777C94.1111 331.542 95.7827 331.513 97.4507 331.274C98.9097 331.039 100.574 330.591 102.033 330.355C103.492 330.12 105.578 329.874 107.037 329.639C107.272 331.103 107.099 333.203 107.334 334.667C107.568 336.131 107.389 337.811 107.623 339.275C107.858 340.739 108.096 342.413 108.331 343.876C108.565 345.34 108.594 347.017 108.829 348.481C108.855 349.949 109.302 351.619 109.327 353.086C109.353 354.554 108.755 356.242 108.781 357.709C108.807 359.177 109.463 360.843 109.697 362.307C109.723 363.774 109.752 365.451 109.778 366.919C109.804 368.386 109.624 370.067 109.649 371.535C109.675 373.002 109.704 374.679 109.73 376.147C109.756 377.614 110.412 379.281 110.437 380.748C110.463 382.216 110.91 383.885 110.936 385.353C110.961 386.82 110.364 388.509 110.389 389.976C110.415 391.444 110.444 393.121 110.47 394.588C110.496 396.056 110.525 397.733 110.55 399.2C110.576 400.668 110.605 402.345 110.422 403.816C110.448 405.284 110.686 406.957 110.711 408.425C110.737 409.892 110.139 411.58 110.165 413.048C110.191 414.515 110.847 416.181 110.663 417.653C110.689 419.12 109.883 420.812 109.699 422.283C109.725 423.751 109.963 425.424 109.78 426.895C109.596 428.366 109.626 430.043 109.442 431.515C109.259 432.986 109.706 434.656 109.523 436.127C109.339 437.598 109.369 439.275 109.185 440.746C109.002 442.217 108.613 443.902 108.43 445.373C108.247 446.844 108.485 448.518 108.511 449.985C108.327 451.456 107.517 452.938 107.337 454.619C107.154 456.09 107.183 457.767 107 459.239C106.817 460.71 107.264 462.38 107.084 464.06C106.901 465.531 106.721 467.212 106.538 468.683C106.354 470.155 105.544 471.637 105.365 473.317C105.181 474.789 104.793 476.473 104.609 477.944C104.426 479.415 104.664 481.089 104.481 482.56C104.297 484.031 103.278 485.517 103.095 486.988C102.912 488.459 102.941 490.136 102.758 491.607C101.999 496.025 101.823 497.915 101.639 499.386Z" fill="#AB31FF"/>
<path d="M159.629 324.944C159.864 326.408 159.27 328.306 159.508 329.979C159.743 331.443 159.772 333.12 160.007 334.584C160.241 336.048 160.479 337.721 160.714 339.185C160.949 340.649 161.396 342.319 161.421 343.786C161.656 345.25 162.103 346.92 162.129 348.387C162.154 349.855 161.975 351.536 162.209 353C162.235 354.467 162.682 356.137 162.708 357.604C162.733 359.072 162.554 360.753 162.579 362.22C162.605 363.688 162.425 365.369 162.451 366.836C162.476 368.304 162.715 369.977 162.74 371.445C162.766 372.912 163.631 374.575 163.657 376.042C163.682 377.51 163.92 379.183 163.946 380.651C163.972 382.118 163.165 383.81 163.191 385.277C163.216 386.745 163.455 388.418 163.48 389.886C163.506 391.353 163.535 393.031 163.352 394.502C163.377 395.969 163.825 397.639 163.85 399.107C163.876 400.574 163.487 402.258 163.513 403.726C163.538 405.193 163.359 406.874 163.384 408.342C163.41 409.809 163.857 411.479 163.886 413.156C163.912 414.624 162.896 416.319 162.922 417.787C162.948 419.254 163.395 420.924 163.424 422.601C163.45 424.069 162.852 425.757 162.878 427.224C162.903 428.692 162.933 430.369 162.958 431.836C162.775 433.308 162.595 434.988 162.412 436.459C162.229 437.931 162.676 439.6 162.496 441.281C162.313 442.752 161.715 444.44 161.532 445.912C161.349 447.383 162.005 449.049 161.825 450.73C161.642 452.201 161.671 453.878 161.488 455.349C161.304 456.82 160.707 458.508 160.732 459.976C160.549 461.447 160.578 463.124 160.395 464.595C160.212 466.067 160.45 467.74 160.266 469.211C160.083 470.682 159.064 472.168 158.884 473.849C158.701 475.32 159.353 476.777 159.17 478.248C160.845 478.428 162.103 478.616 163.569 478.8C165.244 478.98 166.725 480.003 168.192 480.187C169.658 480.371 171.333 480.552 173.009 480.732C174.684 480.913 176.352 480.674 177.818 480.858C179.494 481.039 180.956 481.013 182.632 481.194C184.307 481.374 185.78 481.977 187.247 482.161C187.067 483.842 187.096 485.519 186.913 486.991C186.733 488.671 186.132 490.15 185.952 491.831C185.773 493.511 185.38 494.986 185.201 496.667C185.021 498.348 185.05 500.025 184.871 501.706C184.691 503.386 184.511 505.067 184.328 506.538C184.148 508.219 183.338 509.701 183.158 511.382C181.692 511.198 180.01 510.598 178.543 510.414C177.077 510.23 175.402 510.05 173.726 509.869C172.26 509.685 170.585 509.504 169.115 509.111C167.645 508.717 165.973 508.746 164.298 508.566C162.622 508.385 161.347 507.149 159.671 506.969C158.205 506.785 156.537 507.023 154.858 506.633C153.179 506.243 151.709 505.85 150.243 505.665C148.776 505.481 147.094 504.882 145.624 504.488C144.157 504.304 142.478 503.914 141.012 503.729C139.546 503.545 137.878 503.784 136.203 503.604C134.736 503.42 132.852 503.243 131.173 502.853C131.356 501.382 132.368 499.477 132.551 498.005C132.735 496.534 133.123 494.85 133.307 493.379C133.49 491.907 133.67 490.227 133.85 488.546C134.029 486.865 134.421 485.39 134.605 483.919C134.785 482.238 134.759 480.771 134.939 479.09C135.118 477.409 135.72 475.931 135.903 474.46C136.083 472.779 135.635 471.109 135.819 469.638C135.998 467.957 136.809 466.475 136.992 465.004C137.172 463.323 136.937 461.859 137.117 460.178C137.296 458.498 137.48 457.026 137.659 455.346C137.839 453.665 137.605 452.201 137.575 450.524C137.755 448.843 137.729 447.376 137.909 445.695C138.089 444.014 138.481 442.539 138.661 440.858C138.84 439.178 138.397 437.717 138.576 436.037C138.756 434.356 139.566 432.874 139.541 431.406C139.72 429.725 139.695 428.258 139.666 426.581C139.636 424.904 139.193 423.443 139.163 421.766C139.134 420.089 139.318 418.618 139.288 416.941C139.259 415.264 139.86 413.785 139.831 412.108C139.802 410.431 139.985 408.96 140.165 407.279C140.135 405.602 139.692 404.142 139.663 402.465C139.633 400.787 140.444 399.305 140.414 397.628C140.385 395.951 139.941 394.491 139.912 392.814C139.883 391.137 139.648 389.673 139.619 387.996C139.59 386.318 140.191 384.84 140.162 383.163C140.132 381.486 139.48 380.029 139.451 378.352C139.421 376.675 139.396 375.207 139.367 373.53C139.337 371.853 139.939 370.375 139.909 368.697C139.88 367.02 139.436 365.56 139.407 363.883C139.378 362.206 139.143 360.742 139.114 359.065C139.085 357.388 139.477 355.913 139.239 354.239C139.21 352.562 138.766 351.102 138.528 349.429C138.499 347.751 138.055 346.291 137.817 344.618C137.788 342.941 137.135 341.484 137.106 339.807C136.868 338.133 136.842 336.666 136.604 334.992C136.365 333.319 136.34 331.851 136.311 330.174C136.072 328.501 136.043 326.824 135.805 325.15C137.473 324.911 139.144 324.882 140.812 324.643C142.271 324.408 143.95 324.798 145.618 324.559C147.077 324.324 148.749 324.295 150.208 324.06C151.667 323.825 153.331 323.376 154.79 323.141C156.088 325.635 157.961 325.183 159.629 324.944Z" fill="#34323C"/>
<path d="M212.328 518.216C210.862 518.031 209.172 517.012 207.493 516.622C206.027 516.438 204.348 516.048 202.881 515.864C201.415 515.68 199.74 515.499 198.273 515.315C196.807 515.131 195.135 515.16 193.665 514.767C192.199 514.582 190.315 514.406 188.639 514.225C188.823 512.754 189.417 510.856 189.6 509.385C189.783 507.914 189.963 506.233 190.146 504.762C190.33 503.291 190.931 501.812 191.111 500.132C191.294 498.661 191.892 496.972 192.075 495.501C192.258 494.03 192.438 492.349 192.621 490.878C192.805 489.407 192.357 487.737 192.537 486.056C192.72 484.585 192.9 482.904 193.083 481.433C193.267 479.962 194.286 478.476 194.466 476.796C194.649 475.325 194.62 473.647 194.803 472.176C194.986 470.705 195.166 469.024 195.349 467.553C195.533 466.082 195.085 464.412 195.265 462.731C195.449 461.26 195.837 459.576 196.02 458.105C196.204 456.633 196.384 454.953 196.567 453.482C196.75 452.01 196.303 450.341 196.274 448.663C196.457 447.192 197.473 445.497 197.447 444.029C197.63 442.558 196.974 440.892 197.154 439.211C197.337 437.74 197.726 436.056 197.7 434.588C197.884 433.117 197.645 431.443 197.616 429.766C197.59 428.299 197.979 426.614 197.953 425.147C197.928 423.679 197.69 422.006 197.66 420.329C197.635 418.861 198.232 417.173 198.416 415.702C198.39 414.234 197.943 412.565 197.914 410.887C197.888 409.42 197.859 407.743 197.833 406.275C197.807 404.808 198.196 403.123 198.379 401.652C198.354 400.185 198.325 398.508 198.299 397.04C198.273 395.573 197.826 393.903 198.009 392.432C197.984 390.964 198.79 389.272 198.765 387.805C198.739 386.337 197.874 384.675 197.848 383.207C197.823 381.74 198.002 380.059 197.977 378.592C197.951 377.124 198.758 375.432 198.52 373.759C198.494 372.291 198.256 370.618 198.23 369.15C198.204 367.683 197.548 366.017 197.523 364.549C197.497 363.082 197.05 361.412 197.024 359.944C196.999 358.477 197.387 356.792 197.149 355.119C197.123 353.651 196.467 351.985 196.442 350.518C196.416 349.05 196.596 347.369 196.358 345.696C196.332 344.228 196.094 342.555 196.068 341.087C195.834 339.623 195.386 337.954 195.361 336.486C195.126 335.022 194.888 333.349 194.653 331.885C194.419 330.421 194.807 328.737 194.569 327.063C194.335 325.599 194.518 324.128 194.28 322.455C195.739 322.219 197.198 321.984 198.866 321.745C200.325 321.51 201.993 321.271 203.452 321.036C204.911 320.801 206.579 320.562 208.038 320.327C209.497 320.092 211.179 320.692 212.851 320.662C214.31 320.427 215.971 319.769 217.43 319.534C217.668 321.208 217.694 322.675 217.723 324.352C217.961 326.026 217.778 327.497 218.016 329.17C218.254 330.844 218.28 332.311 218.518 333.985C218.756 335.658 219.409 337.115 219.434 338.582C219.673 340.256 219.907 341.72 220.146 343.393C220.175 345.07 219.782 346.545 219.812 348.222C219.841 349.899 220.076 351.363 220.105 353.04C220.134 354.718 220.369 356.181 220.398 357.859C220.427 359.536 220.453 361.003 220.691 362.677C220.72 364.354 221.164 365.814 221.193 367.491C221.222 369.168 220.83 370.643 221.068 372.317C221.098 373.994 221.959 375.447 221.988 377.124C222.018 378.801 221.416 380.279 221.446 381.957C221.475 383.634 221.918 385.094 221.948 386.771C221.977 388.448 222.003 389.916 222.032 391.593C222.061 393.27 222.505 394.73 222.534 396.407C222.563 398.085 222.589 399.552 222.618 401.229C222.647 402.906 222.255 404.381 222.284 406.058C222.314 407.735 222.757 409.196 222.578 410.876C222.607 412.554 221.797 414.036 221.617 415.716C221.646 417.394 221.672 418.861 221.492 420.542C221.521 422.219 222.174 423.676 221.994 425.356C222.023 427.034 221.84 428.505 221.869 430.182C221.899 431.859 221.297 433.337 221.118 435.018C221.147 436.695 220.755 438.17 220.784 439.847C220.604 441.528 221.257 442.985 221.077 444.665C220.897 446.346 220.296 447.825 220.113 449.296C219.933 450.977 220.377 452.437 220.197 454.118C220.017 455.798 220.043 457.266 220.072 458.943C219.893 460.624 219.082 462.106 219.108 463.573C218.928 465.254 219.581 466.711 219.401 468.392C219.221 470.072 219.038 471.543 218.858 473.224C218.679 474.905 217.869 476.387 217.685 477.858C217.505 479.539 217.74 481.003 217.56 482.684C217.381 484.365 217.197 485.836 217.018 487.516C216.834 488.988 216.237 490.676 216.053 492.147C215.87 493.618 215.899 495.295 215.72 496.976C215.536 498.447 215.566 500.124 215.386 501.805C215.203 503.276 215.232 504.953 215.052 506.634C214.869 508.105 214.689 509.786 214.297 511.261C214.114 512.732 213.725 514.416 213.333 515.891C212.896 514.85 212.508 516.535 212.328 518.216Z" fill="#34323C"/>
<path d="M244.196 523.529C242.729 523.345 241.039 522.326 239.36 521.936C237.894 521.752 236.215 521.361 234.749 521.177C233.282 520.993 231.607 520.813 230.141 520.629C228.674 520.445 227.003 520.474 225.533 520.08C224.063 519.686 222.182 519.719 220.507 519.539C220.69 518.067 221.284 516.17 221.468 514.699C221.651 513.227 221.831 511.547 222.014 510.075C222.197 508.604 222.798 507.126 222.978 505.445C223.161 503.974 223.759 502.286 223.942 500.815C224.126 499.344 224.305 497.663 224.489 496.192C224.672 494.72 224.225 493.051 224.405 491.37C224.588 489.899 224.768 488.218 224.951 486.747C225.134 485.276 226.153 483.79 226.333 482.109C226.516 480.638 226.487 478.961 226.671 477.49C226.854 476.018 227.034 474.338 227.217 472.867C227.4 471.395 226.953 469.726 227.133 468.045C227.316 466.574 227.705 464.889 227.888 463.418C228.071 461.947 228.251 460.266 228.434 458.795C228.618 457.324 228.171 455.654 228.141 453.977C228.325 452.506 229.34 450.81 229.315 449.343C229.498 447.872 228.842 446.205 229.021 444.525C229.205 443.053 229.593 441.369 229.568 439.902C229.751 438.43 229.513 436.757 229.487 435.289C229.671 433.818 229.85 432.137 230.034 430.666C230.008 429.199 229.77 427.525 229.74 425.848C229.715 424.381 230.312 422.693 230.496 421.221C230.47 419.754 230.023 418.084 229.994 416.407C229.968 414.939 229.939 413.262 229.913 411.795C229.888 410.327 230.485 408.639 230.46 407.172C230.434 405.704 230.405 404.027 230.379 402.56C230.353 401.092 230.115 399.419 230.09 397.951C230.064 396.484 230.871 394.792 231.054 393.321C231.028 391.853 230.163 390.191 230.138 388.723C230.112 387.256 230.292 385.575 230.266 384.107C230.24 382.64 231.047 380.948 231.021 379.481C230.996 378.013 230.757 376.34 230.732 374.872C230.706 373.405 230.05 371.738 230.025 370.271C229.999 368.803 229.761 367.13 229.526 365.666C229.5 364.199 229.889 362.514 229.86 360.837C229.834 359.369 229.387 357.7 229.152 356.236C229.127 354.768 229.307 353.087 229.072 351.624C229.046 350.156 228.808 348.483 228.783 347.015C228.757 345.548 228.31 343.878 228.075 342.414C228.05 340.946 227.602 339.277 227.368 337.813C227.133 336.349 227.522 334.664 227.284 332.991C227.049 331.527 227.229 329.846 226.994 328.382C226.76 326.919 226.521 325.245 226.287 323.781C226.052 322.317 225.814 320.644 225.785 318.967C227.453 318.728 228.912 318.493 230.58 318.254C232.039 318.019 233.721 318.618 235.393 318.589C236.852 318.354 238.513 317.696 239.972 317.461C241.431 317.226 243.102 317.196 244.774 317.167C246.233 316.932 247.699 317.116 249.158 316.881C249.393 318.345 249.206 319.606 249.444 321.28C249.679 322.744 250.331 324.2 250.569 325.874C250.804 327.338 251.251 329.008 251.277 330.475C251.511 331.939 250.914 333.627 250.939 335.094C251.174 336.558 251.203 338.235 251.229 339.703C251.254 341.17 251.493 342.844 251.727 344.308C251.753 345.775 251.991 347.449 252.017 348.916C252.042 350.384 252.49 352.054 252.724 353.518C252.75 354.985 252.57 356.666 252.596 358.133C252.621 359.601 253.486 361.263 253.512 362.731C253.538 364.198 252.94 365.886 252.966 367.354C252.991 368.821 253.438 370.491 253.464 371.959C253.49 373.426 253.519 375.103 253.545 376.571C253.57 378.038 254.017 379.708 254.043 381.176C254.069 382.643 254.098 384.32 254.123 385.788C254.149 387.255 253.969 388.936 253.995 390.404C254.021 391.871 254.468 393.541 254.493 395.009C254.519 396.476 254.134 398.37 253.954 400.051C254.347 398.576 254.941 396.678 255.12 394.998C255.513 393.523 255.062 391.643 255.454 390.169C255.846 388.694 256.026 387.013 256.418 385.538C256.811 384.063 257.621 382.581 257.8 380.9C258.193 379.426 258.581 377.741 258.974 376.266C259.362 374.582 258.915 372.912 259.307 371.437C259.487 369.757 260.51 368.48 260.899 366.796C261.078 365.115 261.053 363.648 261.232 361.967C261.412 360.286 261.595 358.815 261.775 357.134C261.955 355.453 262.974 353.968 263.157 352.497C263.337 350.816 262.89 349.146 263.282 347.671C263.462 345.99 263.854 344.516 264.034 342.835C264.213 341.154 265.233 339.668 265.416 338.197C265.596 336.516 265.57 335.049 265.75 333.368C265.929 331.687 266.113 330.216 266.292 328.535C266.472 326.854 267.073 325.376 267.253 323.695C267.433 322.014 267.407 320.547 267.587 318.866C267.766 317.185 267.737 315.508 267.711 314.041C269.17 313.806 270.835 313.357 272.294 313.122C273.753 312.887 275.421 312.648 276.883 312.622C278.343 312.387 280.014 312.358 281.477 312.332C282.936 312.097 284.604 311.858 286.067 311.833C287.526 311.598 289.201 311.778 290.869 311.539C290.686 313.011 290.088 314.699 289.908 316.379C289.725 317.851 289.545 319.531 289.362 321.003C289.179 322.474 289.417 324.147 289.233 325.618C289.05 327.089 289.079 328.767 288.896 330.238C288.713 331.709 288.324 333.393 288.141 334.864C287.957 336.336 287.36 338.024 287.176 339.495C286.993 340.966 287.022 342.643 286.839 344.114C286.656 345.585 286.685 347.263 286.502 348.734C286.318 350.205 285.93 351.889 285.537 353.364C285.354 354.835 285.383 356.512 284.991 357.987C284.808 359.458 283.997 360.94 283.609 362.625C283.425 364.096 283.037 365.781 282.854 367.252C282.67 368.723 282.908 370.396 282.52 372.081C282.336 373.552 281.108 375.041 280.716 376.516C280.324 377.991 280.353 379.668 279.961 381.143C279.568 382.618 279.598 384.295 279.414 385.766C279.022 387.241 279.26 388.914 278.868 390.389C278.476 391.864 277.665 393.346 277.273 394.821C276.881 396.295 277.119 397.969 276.727 399.444C276.335 400.919 275.733 402.397 275.554 404.078C275.161 405.553 274.982 407.233 274.589 408.708C274.197 410.183 273.387 411.665 272.998 413.349C273.233 414.813 273.889 416.48 274.336 418.149C274.571 419.613 274.391 421.294 274.838 422.964C275.073 424.428 275.938 426.09 276.172 427.554C276.407 429.018 276.227 430.699 276.466 432.372C276.7 433.836 277.565 435.499 277.8 436.963C278.038 438.636 278.273 440.1 278.511 441.773C278.749 443.447 278.775 444.914 279.013 446.588C279.251 448.261 279.695 449.722 279.929 451.185C280.167 452.859 280.611 454.319 280.846 455.783C281.084 457.457 281.109 458.924 281.348 460.598C281.586 462.271 282.238 463.728 282.473 465.191C282.711 466.865 281.905 468.557 282.139 470.021C282.377 471.694 282.821 473.154 282.85 474.831C283.088 476.505 283.323 477.969 283.561 479.642C283.799 481.316 283.825 482.783 284.063 484.457C284.301 486.13 284.327 487.598 284.356 489.275C284.595 490.948 285.038 492.409 285.276 494.082C285.515 495.756 285.749 497.219 285.778 498.897C285.808 500.574 285.624 502.045 285.654 503.722C285.683 505.399 285.709 506.867 285.947 508.54C285.976 510.217 286.002 511.685 286.031 513.362C286.06 515.039 286.295 516.503 286.324 518.18C286.353 519.857 287.215 521.31 287.244 522.987C287.273 524.664 286.881 526.139 287.119 527.813C287.149 529.49 287.387 531.163 287.416 532.84C285.741 532.66 283.856 532.483 282.39 532.299C280.715 532.119 279.245 531.725 277.57 531.544C275.894 531.364 274.421 530.761 272.745 530.58C271.07 530.4 269.589 529.377 268.123 529.193C266.447 529.012 264.567 529.045 263.1 528.861C263.075 527.394 262.833 525.51 262.807 524.043C262.782 522.575 263.17 520.891 263.141 519.214C263.115 517.746 262.459 516.08 262.434 514.613C262.408 513.145 262.797 511.461 262.558 509.787C262.533 508.32 262.504 506.643 262.474 504.965C262.449 503.498 262.419 501.821 262.185 500.357C262.159 498.889 261.503 497.223 261.268 495.759C261.034 494.295 261.214 492.615 260.979 491.151C260.744 489.687 260.506 488.013 260.272 486.55C260.037 485.086 260.426 483.401 260.188 481.728C259.953 480.264 259.506 478.594 259.271 477.13C259.037 475.666 259.007 473.989 258.773 472.525C258.538 471.062 258.091 469.392 257.856 467.928C257.622 466.464 257.802 464.783 257.563 463.11C257.329 461.646 256.464 459.983 256.229 458.519C255.995 457.056 256.592 455.368 256.354 453.694C256.119 452.23 255.254 450.568 255.02 449.104C254.785 447.64 254.338 445.97 254.103 444.506C253.869 443.042 254.257 441.358 254.019 439.684C253.785 438.221 253.33 436.131 253.096 434.668C253.125 436.345 253.158 438.232 253.187 439.909C253.007 441.589 252.197 443.072 252.223 444.539C252.043 446.22 252.487 447.68 252.516 449.357C252.336 451.038 251.944 452.513 251.973 454.19C251.793 455.871 252.446 457.327 252.266 459.008C252.087 460.689 251.276 462.171 251.093 463.642C250.913 465.323 250.73 466.794 250.55 468.475C250.371 470.156 250.396 471.623 250.217 473.304C250.037 474.985 250.693 476.651 250.51 478.122C250.33 479.803 249.938 481.278 249.754 482.749C249.575 484.43 249.391 485.901 249.212 487.582C249.032 489.262 248.222 490.744 248.038 492.216C247.859 493.896 248.515 495.563 248.332 497.034C248.152 498.714 247.76 500.189 247.576 501.66C247.397 503.341 246.374 504.617 246.194 506.298C246.014 507.979 246.04 509.446 245.86 511.127C245.677 512.598 245.706 514.275 245.527 515.956C245.343 517.427 245.164 519.108 244.775 520.793C244.973 520.16 244.588 522.054 244.196 523.529Z" fill="#34323C"/>
<path d="M349.875 303.17C350.113 304.844 349.519 306.741 349.757 308.415C349.996 310.088 350.234 311.762 350.259 313.229C350.498 314.903 350.736 316.576 350.97 318.04C351.209 319.714 351.652 321.174 351.681 322.851C351.92 324.525 352.367 326.194 352.392 327.662C352.631 329.335 352.451 331.016 352.48 332.693C352.51 334.371 352.96 336.25 352.99 337.927C351.318 337.956 349.437 337.989 347.766 338.018C346.094 338.048 344.419 337.867 342.751 338.106C341.079 338.135 339.411 338.374 337.743 338.613C336.075 338.852 334.415 339.51 332.747 339.748C331.079 339.987 329.407 340.016 327.739 340.255C326.071 340.494 323.967 339.692 322.508 339.927C322.533 341.395 322.775 343.278 322.801 344.745C322.827 346.213 322.856 347.89 323.09 349.354C323.116 350.821 323.772 352.488 323.798 353.955C323.823 355.423 323.644 357.103 323.878 358.567C323.904 360.035 323.933 361.712 323.959 363.179C323.984 364.647 324.641 366.313 324.666 367.781C324.692 369.248 323.885 370.94 323.911 372.407C323.936 373.875 324.593 375.541 324.618 377.009C324.644 378.476 324.255 380.16 324.281 381.628C324.306 383.095 324.545 384.769 324.57 386.236C324.596 387.704 324.416 389.385 324.442 390.852C324.467 392.32 324.915 393.99 324.94 395.457C324.966 396.925 324.368 398.613 324.398 400.29C326.069 400.261 327.734 399.812 329.196 399.787C330.659 399.761 332.331 399.732 334.002 399.703C335.674 399.674 337.144 400.067 338.815 400.038C340.487 400.009 341.95 399.983 343.621 399.954C345.293 399.925 347.17 399.683 348.633 399.657C348.658 401.125 347.855 403.026 347.881 404.493C347.907 405.961 348.768 407.414 348.794 408.881C348.819 410.349 348.636 411.82 348.662 413.288C348.687 414.755 347.877 416.237 347.694 417.708C347.719 419.176 347.745 420.643 347.771 422.111C347.796 423.578 348.24 425.039 348.265 426.506C348.291 427.974 348.316 429.441 348.342 430.909C348.368 432.376 347.766 433.854 347.583 435.326C345.912 435.355 344.452 435.59 342.986 435.406C341.314 435.435 339.844 435.041 338.378 434.857C336.707 434.886 335.24 434.702 333.565 434.522C331.893 434.551 330.434 434.786 328.759 434.606C327.087 434.635 326.042 434.653 324.367 434.473C324.396 436.15 323.997 437.205 323.817 438.886C323.637 440.567 323.454 442.038 323.271 443.509C323.087 444.98 323.326 446.654 323.146 448.335C322.963 449.806 322.992 451.483 323.021 453.16C322.838 454.631 323.076 456.305 322.896 457.985C322.713 459.457 321.907 461.148 321.723 462.619C321.54 464.091 321.987 465.76 321.807 467.441C321.624 468.912 321.444 470.593 321.261 472.064C321.078 473.536 320.689 475.22 320.506 476.691C320.322 478.162 320.143 479.843 319.959 481.314C319.776 482.785 320.223 484.455 320.043 486.136C319.86 487.607 320.098 489.281 319.919 490.961C319.735 492.433 318.925 493.915 318.745 495.595C318.562 497.067 318.386 498.957 318.206 500.638C319.673 500.822 321.348 501.002 322.814 501.187C324.281 501.371 325.747 501.555 327.213 501.739C328.68 501.923 330.139 501.688 331.605 501.872C333.072 502.056 334.545 502.659 336.012 502.844C337.478 503.028 339.142 502.579 340.609 502.763C342.075 502.947 343.556 503.97 345.022 504.154C346.489 504.338 347.948 504.103 349.414 504.287C349.231 505.758 349.047 507.23 348.864 508.701C348.681 510.172 348.919 511.845 348.735 513.317C348.552 514.788 348.369 516.259 348.185 517.73C348.002 519.201 347.401 520.68 347.218 522.151C347.034 523.622 347.272 525.295 346.88 526.77C346.697 528.241 345.678 529.727 345.494 531.198C345.311 532.669 345.128 534.14 344.735 535.615C344.552 537.086 344.794 538.97 344.402 540.444C342.935 540.26 341.051 540.083 339.581 539.69C338.115 539.506 336.637 538.693 335.171 538.508C333.705 538.324 332.235 537.931 330.765 537.537C329.298 537.353 327.63 537.592 326.164 537.407C324.698 537.223 323.217 536.201 321.75 536.016C320.284 535.832 318.612 535.862 317.146 535.677C315.68 535.493 314.004 535.313 312.538 535.129C311.072 534.945 309.591 533.922 308.124 533.738C306.658 533.554 304.99 533.793 303.524 533.608C302.057 533.424 300.587 533.031 299.121 532.846C297.655 532.662 296.174 531.64 294.707 531.456C293.241 531.271 291.778 531.297 290.103 531.117C290.286 529.645 290.675 527.961 290.858 526.49C291.042 525.019 291.852 523.537 292.031 521.856C292.215 520.385 292.185 518.707 292.369 517.236C292.552 515.765 292.523 514.088 292.703 512.407C292.886 510.936 292.857 509.259 293.036 507.578C293.22 506.107 293.399 504.426 293.583 502.955C293.766 501.484 294.155 499.799 294.338 498.328C294.521 496.857 294.701 495.176 294.884 493.705C295.068 492.234 295.456 490.55 295.64 489.078C295.823 487.607 296.63 485.916 296.813 484.444C296.996 482.973 297.176 481.292 297.359 479.821C297.543 478.35 297.304 476.677 297.484 474.996C297.667 473.525 297.429 471.851 297.609 470.17C297.792 468.699 297.972 467.019 298.155 465.547C298.339 464.076 298.727 462.392 298.911 460.921C299.094 459.449 298.856 457.776 299.035 456.095C299.219 454.624 298.98 452.951 299.16 451.27C299.343 449.799 299.523 448.118 299.706 446.647C299.886 444.966 299.652 443.502 299.622 441.825C299.802 440.144 300.403 438.666 300.378 437.198C300.348 435.521 300.532 434.05 300.502 432.373C300.473 430.696 300.03 429.235 300 427.558C299.971 425.881 300.99 424.395 301.174 422.924C301.144 421.247 301.119 419.78 301.089 418.102C301.06 416.425 300.826 414.961 301.005 413.281C300.976 411.603 300.532 410.143 300.712 408.462C300.683 406.785 301.284 405.307 301.258 403.839C301.229 402.162 300.786 400.702 300.756 399.025C300.727 397.348 301.119 395.873 301.09 394.196C301.061 392.519 301.035 391.051 301.006 389.374C300.977 387.697 301.369 386.222 301.34 384.545C301.31 382.868 300.867 381.408 300.838 379.73C300.808 378.053 301.201 376.578 301.171 374.901C301.142 373.224 300.49 371.768 300.46 370.09C300.431 368.413 300.823 366.939 300.794 365.261C300.765 363.584 300.112 362.128 299.878 360.664C299.848 358.987 299.823 357.519 299.585 355.846C299.555 354.169 299.739 352.697 299.709 351.02C299.68 349.343 299.446 347.879 299.207 346.206C299.178 344.529 298.735 343.068 298.709 341.601C298.68 339.924 298.654 338.456 298.625 336.779C298.595 335.102 297.943 333.645 297.708 332.182C297.679 330.504 298.489 329.022 298.251 327.349C298.013 325.675 297.778 324.211 297.544 322.748C297.309 321.284 297.071 319.61 296.836 318.146C296.602 316.683 296.573 315.005 296.334 313.332C296.096 311.658 296.074 310.401 295.836 308.727C297.504 308.488 298.959 308.043 300.418 307.808C302.086 307.569 303.545 307.334 305.213 307.095C306.881 306.857 308.56 307.247 310.019 307.011C311.687 306.773 313.359 306.744 314.818 306.508C316.486 306.27 318.158 306.24 319.617 306.005C321.285 305.766 322.744 305.531 324.412 305.292C326.08 305.054 327.528 304.189 329.199 304.16C330.871 304.131 332.546 304.312 334.005 304.076C335.673 303.838 337.129 303.393 338.796 303.154C340.464 302.915 341.923 302.68 343.591 302.441C345.259 302.202 348.416 303.405 349.875 303.17Z" fill="#34323C"/>
<path d="M377.828 299.958C379.287 299.723 381.178 300.319 382.846 300.081C384.305 299.845 385.973 299.607 387.436 299.581C388.895 299.346 390.563 299.107 392.022 298.872C393.481 298.637 395.145 298.188 396.604 297.953C398.063 297.718 399.728 297.269 401.187 297.034C402.646 296.799 404.321 296.98 405.78 296.744C407.239 296.509 408.903 296.061 410.366 296.035C411.825 295.8 413.5 295.98 414.963 295.955C416.631 295.716 418.101 296.11 419.564 296.084C421.235 296.055 422.702 296.239 424.172 296.633C425.642 297.027 427.522 296.994 428.791 297.811C430.059 298.627 431.536 299.44 432.603 300.68C433.666 301.71 434.117 303.589 434.975 304.833C435.833 306.076 436.69 307.319 437.552 308.772C438.201 310.019 438.644 311.479 439.3 313.146C439.744 314.606 440.811 315.845 441.258 317.515C441.701 318.975 441.731 320.653 441.965 322.116C442.2 323.58 442.434 325.044 442.673 326.718C442.907 328.181 443.769 329.634 443.798 331.312C444.032 332.775 443.226 334.467 443.255 336.144C443.281 337.612 444.142 339.065 444.168 340.532C444.193 342 444.01 343.471 444.036 344.938C444.061 346.406 444.505 347.866 444.53 349.334C444.556 350.801 444.373 352.272 444.607 353.736C444.633 355.204 445.076 356.664 445.311 358.128C445.337 359.595 444.944 361.07 444.97 362.537C444.996 364.005 445.648 365.461 445.674 366.929C445.699 368.396 445.934 369.86 445.959 371.328C445.985 372.795 445.593 374.27 445.618 375.738C445.648 377.415 445.677 379.092 445.706 380.769C445.735 382.446 445.974 384.12 445.794 385.8C445.614 387.481 444.595 388.967 444.415 390.648C444.236 392.329 444.687 394.208 444.294 395.683C443.906 397.367 443.308 399.055 442.703 400.324C442.106 402.012 440.661 403.086 440.06 404.564C439.253 406.256 438.44 407.529 437.413 408.595C436.185 410.085 435.371 411.357 434.128 412.008C435.393 412.615 436.661 413.432 437.933 414.458C438.997 415.488 439.649 416.944 440.51 418.397C441.368 419.641 442.435 420.88 443.087 422.337C443.736 423.584 443.766 425.261 444.422 426.927C444.865 428.387 445.1 429.851 445.338 431.525C445.573 432.988 446.016 434.449 446.254 436.122C446.489 437.586 446.727 439.259 446.756 440.937C446.782 442.404 446.393 444.089 446.423 445.766C446.448 447.233 446.06 448.918 446.089 450.595C445.909 452.276 446.144 453.739 445.964 455.42C445.784 457.101 445.81 458.569 445.839 460.246C445.66 461.926 445.894 463.39 445.715 465.071C445.535 466.752 444.725 468.234 444.541 469.705C444.362 471.386 444.805 472.846 444.625 474.527C444.446 476.208 444.262 477.679 444.079 479.15C443.899 480.831 443.507 482.306 443.324 483.777C443.144 485.458 442.961 486.929 442.781 488.609C442.601 490.29 443.045 491.75 442.865 493.431C442.686 495.112 442.92 496.576 442.74 498.257C442.561 499.937 441.751 501.42 441.567 502.891C441.384 504.362 441.204 506.043 441.021 507.514C440.838 508.985 440.658 510.666 440.475 512.137C440.291 513.608 439.903 515.292 439.719 516.764C439.327 518.238 439.356 519.916 439.173 521.387C438.781 522.862 437.97 524.344 437.578 525.818C437.186 527.293 437.424 528.967 436.823 530.445C436.221 531.924 434.986 532.994 434.385 534.472C433.784 535.951 433.391 537.425 432.577 538.698C431.767 540.18 430.95 541.243 429.927 542.519C428.904 543.795 428.303 545.273 427.067 546.343C425.832 547.414 424.596 548.484 423.357 549.344C422.118 550.205 420.454 550.653 418.999 551.098C417.543 551.543 416.092 552.197 414.42 552.226C412.957 552.252 411.48 551.439 409.801 551.049C408.126 550.868 406.656 550.474 404.98 550.294C403.305 550.114 401.637 550.352 400.171 550.168C398.495 549.988 397.025 549.594 395.35 549.414C393.675 549.233 392.197 548.42 390.727 548.026C389.257 547.633 387.578 547.242 385.903 547.062C384.228 546.882 382.56 547.12 381.09 546.727C379.415 546.546 377.934 545.523 376.467 545.339C374.792 545.159 373.12 545.188 371.65 544.794C371.834 543.323 372.013 541.642 372.193 539.962C372.376 538.49 373.396 537.005 373.575 535.324C373.759 533.853 373.311 532.183 373.7 530.498C373.883 529.027 374.272 527.343 374.455 525.872C374.639 524.401 375.658 522.915 375.837 521.234C376.021 519.763 375.992 518.086 376.171 516.405C376.355 514.934 376.534 513.253 376.718 511.782C376.901 510.311 377.499 508.623 377.682 507.151C377.865 505.68 377.836 504.003 378.016 502.322C378.199 500.851 378.17 499.174 378.349 497.493C378.533 496.022 378.294 494.349 378.474 492.668C378.657 491.197 378.837 489.516 378.812 488.048C378.995 486.577 379.175 484.896 379.358 483.425C379.541 481.954 379.721 480.273 379.695 478.806C379.879 477.335 380.058 475.654 380.242 474.183C380.425 472.712 381.023 471.024 381.206 469.552C381.389 468.081 381.569 466.4 381.543 464.933C381.727 463.462 381.488 461.788 381.668 460.108C381.851 458.636 381.613 456.963 381.584 455.286C381.767 453.815 381.947 452.134 381.921 450.666C382.105 449.195 382.493 447.511 382.468 446.043C382.651 444.572 382.413 442.899 382.384 441.221C382.358 439.754 382.329 438.077 382.299 436.4C382.274 434.932 382.662 433.248 382.637 431.78C382.611 430.313 382.373 428.639 382.553 426.958C382.523 425.281 383.125 423.803 383.308 422.332C383.279 420.655 383.462 419.183 383.433 417.506C383.403 415.829 382.96 414.369 382.931 412.692C382.901 411.015 383.921 409.529 383.895 408.061C383.866 406.384 383.84 404.917 383.811 403.24C383.782 401.562 383.547 400.099 383.518 398.421C383.488 396.744 383.045 395.284 383.016 393.607C382.986 391.93 383.588 390.451 383.562 388.984C383.533 387.307 383.089 385.846 383.06 384.169C383.031 382.492 383.214 381.021 383.185 379.344C383.155 377.667 383.13 376.199 382.892 374.526C382.862 372.849 383.255 371.374 383.225 369.697C383.196 368.02 382.752 366.559 382.727 365.092C382.698 363.415 383.09 361.94 383.061 360.263C383.031 358.586 382.379 357.129 382.353 355.662C382.324 353.984 382.716 352.51 382.687 350.832C382.658 349.155 381.796 347.702 381.771 346.235C381.741 344.558 381.507 343.094 381.478 341.417C381.448 339.74 381.632 338.268 381.393 336.595C381.368 335.127 380.921 333.458 380.895 331.99C380.869 330.523 380.422 328.853 380.397 327.385C380.371 325.918 380.342 324.241 380.103 322.567C379.869 321.103 379.422 319.433 379.187 317.97C378.953 316.506 379.968 314.81 379.73 313.137C379.495 311.673 379.048 310.003 379.022 308.536C378.788 307.072 378.55 305.398 378.315 303.934C378.513 303.302 378.066 301.632 377.828 299.958ZM405.137 331.777C405.163 333.244 404.562 334.723 404.796 336.186C404.822 337.654 405.06 339.327 405.086 340.795C405.111 342.262 405.35 343.936 405.584 345.4C405.61 346.867 406.057 348.537 406.083 350.005C406.108 351.472 406.555 353.142 406.581 354.609C406.607 356.077 406.427 357.758 406.453 359.225C406.478 360.693 406.925 362.363 406.951 363.83C406.977 365.298 406.797 366.978 406.823 368.446C406.848 369.913 406.669 371.594 406.694 373.062C406.72 374.529 406.749 376.206 406.775 377.674C406.8 379.141 407.456 380.808 407.482 382.275C407.508 383.743 407.537 385.42 407.563 386.887C407.588 388.355 406.782 390.046 406.807 391.514C406.833 392.981 407.075 394.865 407.1 396.332C408.354 396.31 409.611 396.498 410.865 396.476C412.119 396.454 413.156 396.017 414.41 395.995C416.082 395.966 417.332 395.734 418.362 394.877C419.392 394.02 420.206 392.748 420.807 391.27C421.203 390.004 420.969 388.541 421.357 386.856C421.544 385.595 422.563 384.109 422.747 382.638C422.721 381.17 422.069 379.714 422.043 378.246C422.017 376.779 422.406 375.094 422.38 373.627C422.355 372.159 422.117 370.486 422.091 369.018C422.065 367.551 422.245 365.87 422.219 364.402C422.194 362.935 421.747 361.265 421.721 359.798C421.695 358.33 422.084 356.646 422.058 355.178C422.033 353.711 421.377 352.044 421.142 350.581C421.116 349.113 420.878 347.44 420.853 345.972C420.82 344.085 420.999 342.405 420.765 340.941C420.523 339.058 420.076 337.388 419.632 335.927C418.972 334.052 417.909 333.022 416.637 331.995C415.365 330.969 414.09 329.733 412.004 329.979C410.75 330.001 409.723 331.067 408.47 331.089C407.216 331.111 406.391 331.755 405.137 331.777ZM406.934 434.711C406.96 436.179 406.146 437.451 405.966 439.132C405.992 440.6 405.812 442.28 405.838 443.748C405.863 445.215 405.893 446.893 405.709 448.364C405.526 449.835 405.764 451.508 405.79 452.976C405.606 454.447 405.845 456.12 405.87 457.588C405.687 459.059 405.298 460.744 405.324 462.211C405.141 463.682 405.379 465.356 405.196 466.827C405.012 468.298 404.624 469.982 404.44 471.454C404.257 472.925 403.868 474.609 403.685 476.08C403.502 477.552 403.531 479.229 403.348 480.7C403.164 482.171 403.82 483.837 403.641 485.518C403.457 486.989 403.487 488.666 403.303 490.137C403.12 491.609 402.101 493.094 401.921 494.775C401.738 496.246 401.767 497.923 401.584 499.395C401.4 500.866 401.221 502.546 401.037 504.018C400.854 505.489 401.301 507.159 400.909 508.633C400.725 510.105 400.337 511.789 400.153 513.26C401.411 513.448 402.459 513.639 403.717 513.827C404.974 514.015 406.221 513.574 407.269 513.765C408.944 513.946 410.422 514.759 411.668 514.317C413.123 513.873 413.725 512.394 414.744 510.908C415.561 509.846 416.375 508.573 416.767 507.098C417.163 505.833 417.347 504.362 417.526 502.681C417.713 501.42 418.106 499.945 418.285 498.264C418.469 496.793 418.231 495.12 418.414 493.648C418.597 492.177 419.195 490.489 419.378 489.018C419.561 487.547 419.114 485.877 419.294 484.196C419.477 482.725 419.448 481.048 419.631 479.577C419.815 478.106 420.412 476.418 420.387 474.95C420.57 473.479 420.541 471.802 420.724 470.331C420.907 468.859 420.669 467.186 420.644 465.718C420.827 464.247 421.846 462.762 421.817 461.084C422 459.613 421.135 457.951 421.315 456.27C421.498 454.799 421.678 453.118 421.861 451.647C422.044 450.176 422.855 448.694 422.829 447.226C422.8 445.549 422.565 444.085 422.334 442.831C422.096 441.157 421.238 439.914 420.593 438.877C419.941 437.42 418.885 436.81 417.616 435.993C416.561 435.382 415.292 434.565 413.621 434.595C412.367 434.617 411.326 434.844 410.072 434.866C408.818 434.888 408.192 434.899 406.934 434.711Z" fill="#AB31FF"/>
<path d="M513.921 504.771C513.742 506.452 512.722 507.938 512.539 509.409C512.359 511.09 512.176 512.561 511.993 514.032C511.813 515.713 511.63 517.184 511.45 518.865C511.27 520.545 511.087 522.017 510.907 523.697C510.519 525.382 510.544 526.849 510.156 528.534C509.763 530.009 509.162 531.487 508.774 533.171C508.381 534.646 508.202 536.327 507.6 537.805C506.999 539.284 506.189 540.766 505.588 542.244C504.986 543.723 504.176 545.205 503.362 546.477C502.761 547.956 501.951 549.438 501.346 550.707C500.536 552.189 500.356 553.87 499.333 555.146C498.31 556.422 497.5 557.904 496.474 558.97C495.451 560.246 493.578 560.699 492.339 561.559C491.103 562.629 489.864 563.49 488.412 564.144C486.961 564.798 485.505 565.243 484.05 565.688C482.595 566.133 481.143 566.787 479.471 566.817C478.008 566.842 476.33 566.452 474.651 566.062C473.393 565.874 472.132 565.477 470.666 565.293C468.987 564.903 467.319 565.141 465.845 564.538C464.372 563.935 463.301 562.485 461.82 561.463C460.552 560.646 458.869 560.046 457.597 559.02C456.534 557.99 455.669 556.327 454.811 555.084C453.953 553.841 452.883 552.391 452.231 550.935C451.578 549.478 451.131 547.808 450.687 546.348C450.244 544.888 449.382 543.435 449.144 541.762C448.91 540.298 449.089 538.617 448.851 536.944C448.616 535.48 447.751 533.817 447.722 532.14C447.488 530.676 447.458 528.999 447.429 527.322C447.4 525.645 447.792 524.17 447.763 522.493C447.733 520.816 447.708 519.348 447.679 517.671C447.649 515.994 447.415 514.53 447.594 512.849C447.774 511.168 448.584 509.686 448.764 508.006C448.944 506.325 448.079 504.662 448.258 502.981C448.438 501.301 448.83 499.826 448.801 498.149C448.981 496.468 450 494.982 449.974 493.515C450.154 491.834 450.128 490.366 450.308 488.686C450.488 487.005 450.044 485.545 450.224 483.864C450.403 482.183 450.378 480.715 450.349 479.038C450.528 477.358 451.129 475.879 451.313 474.408C451.492 472.727 451.258 471.263 451.229 469.586C451.408 467.905 451.801 466.431 451.984 464.959C452.164 463.279 452.347 461.807 452.318 460.13C452.497 458.45 452.263 456.986 452.234 455.309C452.413 453.628 452.179 452.164 452.358 450.483C452.538 448.802 452.93 447.328 453.11 445.647C453.29 443.966 453.473 442.495 453.653 440.814C453.623 439.137 453.598 437.669 453.568 435.992C453.539 434.315 453.514 432.848 453.693 431.167C453.664 429.49 453.638 428.022 453.609 426.345C453.58 424.668 454.39 423.186 454.57 421.505C454.54 419.828 454.097 418.368 454.068 416.69C454.038 415.013 454.222 413.542 454.401 411.861C454.372 410.184 454.764 408.709 454.735 407.032C454.706 405.355 454.68 403.888 454.86 402.207C454.831 400.53 454.387 399.07 454.358 397.392C454.329 395.715 454.094 394.251 454.065 392.574C454.035 390.897 454.846 389.415 454.816 387.738C454.787 386.061 454.762 384.593 454.732 382.916C454.703 381.239 454.677 379.771 454.648 378.094C454.619 376.417 454.593 374.95 454.564 373.272C454.535 371.595 454.091 370.135 454.062 368.458C454.033 366.781 454.425 365.306 454.396 363.629C454.366 361.952 453.505 360.499 453.476 358.822C453.446 357.145 454.048 355.666 454.018 353.989C453.989 352.312 453.545 350.852 453.516 349.174C453.487 347.497 453.461 346.03 453.432 344.353C453.403 342.676 452.959 341.215 452.93 339.538C452.901 337.861 452.875 336.394 452.846 334.716C452.817 333.039 453.209 331.564 453.18 329.887C453.15 328.21 452.916 326.746 452.886 325.069C453.066 323.388 453.876 321.906 454.06 320.435C454.239 318.754 454.423 317.283 454.606 315.812C454.786 314.131 454.339 312.461 454.731 310.987C455.119 309.302 455.512 307.827 455.904 306.353C456.296 304.878 457.315 303.392 457.917 301.914C458.518 300.435 459.328 298.953 460.142 297.681C460.952 296.199 461.341 294.514 462.158 293.451C463.181 292.175 464.633 291.521 465.868 290.451C467.104 289.381 468.127 288.104 469.578 287.45C471.03 286.796 472.269 285.935 473.933 285.487C475.389 285.042 477.068 285.432 478.736 285.193C479.986 284.962 481.229 284.311 482.688 284.076C484.356 283.837 485.818 283.811 487.285 283.995C488.96 284.176 490.228 284.992 491.698 285.386C493.168 285.78 494.635 285.964 496.112 286.777C497.377 287.384 498.854 288.197 500.126 289.224C501.398 290.25 502.047 291.497 503.114 292.736C504.177 293.766 505.24 294.796 506.101 296.249C506.959 297.493 508.026 298.732 508.678 300.189C509.327 301.436 510.397 302.885 510.841 304.345C511.493 305.802 511.937 307.262 512.589 308.718C513.033 310.179 513.476 311.639 513.715 313.312C514.158 314.773 514.602 316.233 514.84 317.906C515.075 319.37 515.313 321.044 515.547 322.507C515.782 323.971 515.602 325.652 515.837 327.116C516.071 328.58 516.31 330.253 516.544 331.717C516.779 333.181 517.222 334.641 517.461 336.315C517.695 337.779 518.142 339.448 518.168 340.916C518.193 342.383 518.223 344.061 518.248 345.528C518.274 346.996 518.094 348.676 518.12 350.144C518.146 351.611 518.593 353.281 518.618 354.749C518.644 356.216 519.091 357.886 519.117 359.354C519.142 360.821 518.963 362.502 519.197 363.966C519.223 365.433 519.67 367.103 519.696 368.571C519.721 370.038 519.124 371.726 519.358 373.19C519.384 374.658 519.413 376.335 519.439 377.802C519.464 379.27 520.121 380.936 520.146 382.403C520.172 383.871 519.156 385.566 519.182 387.034C519.207 388.501 519.237 390.178 519.262 391.646C519.288 393.113 519.526 394.787 519.552 396.254C519.577 397.722 520.025 399.392 520.05 400.859C520.076 402.327 519.478 404.015 519.504 405.482C519.529 406.95 519.977 408.62 520.002 410.087C520.028 411.555 519.639 413.239 519.665 414.707C519.691 416.174 519.72 417.851 519.745 419.319C519.771 420.786 519.173 422.474 519.199 423.942C519.225 425.409 519.463 427.083 519.489 428.55C519.514 430.018 518.917 431.706 518.942 433.173C518.968 434.641 519.415 436.311 519.441 437.778C519.466 439.246 518.66 440.938 518.685 442.405C518.711 443.873 519.158 445.542 519.184 447.01C519.209 448.477 519.03 450.158 518.846 451.629C518.663 453.1 518.483 454.781 518.3 456.252C518.117 457.724 518.355 459.397 518.171 460.868C517.988 462.339 518.226 464.013 518.043 465.484C517.86 466.955 517.68 468.636 517.497 470.107C517.313 471.578 517.76 473.248 517.577 474.719C517.394 476.19 516.375 477.676 516.195 479.357C516.012 480.828 516.25 482.502 516.067 483.973C515.883 485.444 515.912 487.121 515.729 488.592C515.546 490.063 515.366 491.744 515.183 493.215C514.999 494.686 514.82 496.367 514.636 497.838C513.449 501.634 513.896 503.304 513.921 504.771ZM493.177 346.175C493.148 344.498 493.742 342.601 493.508 341.137C493.266 339.254 493.027 337.58 492.793 336.116C492.342 334.237 491.898 332.776 491.246 331.32C490.586 329.444 489.519 328.204 488.456 327.174C487.181 325.938 485.714 325.754 484.043 325.784C482.166 326.026 480.916 326.258 479.893 327.534C479.075 328.596 478.683 330.071 478.089 331.969C477.697 333.444 477.096 334.922 477.129 336.809C476.945 338.28 476.557 339.965 476.589 341.851C476.615 343.319 476.644 344.996 476.886 346.879C476.916 348.556 477.777 350.009 477.806 351.686C477.836 353.364 478.07 354.827 478.099 356.505C478.129 358.182 477.318 359.664 477.348 361.341C477.377 363.018 477.612 364.482 477.641 366.159C477.67 367.836 477.696 369.304 477.725 370.981C477.754 372.658 478.407 374.115 478.436 375.792C478.465 377.469 478.282 378.94 478.311 380.617C478.34 382.294 478.366 383.762 478.395 385.439C478.425 387.116 479.077 388.573 479.106 390.25C479.136 391.927 478.117 393.413 478.146 395.09C478.175 396.767 478.828 398.223 478.857 399.901C478.886 401.578 478.494 403.053 478.523 404.73C478.552 406.407 478.787 407.871 478.816 409.548C478.845 411.225 478.453 412.7 478.482 414.377C478.512 416.054 478.746 417.518 478.776 419.195C478.805 420.872 478.204 422.351 478.024 424.031C478.053 425.709 478.497 427.169 478.526 428.846C478.555 430.523 478.581 431.991 478.401 433.671C478.431 435.349 477.829 436.827 477.855 438.294C477.884 439.972 477.91 441.439 477.73 443.12C477.759 444.797 477.994 446.261 477.814 447.942C477.635 449.622 476.824 451.105 476.641 452.576C476.461 454.257 477.323 455.709 477.352 457.387C477.172 459.067 476.989 460.538 476.809 462.219C476.63 463.9 475.819 465.382 475.636 466.853C475.456 468.534 475.482 470.002 475.511 471.679C475.332 473.36 475.775 474.82 475.804 476.497C475.625 478.178 475.859 479.642 475.68 481.322C475.5 483.003 474.899 484.482 474.715 485.953C474.536 487.634 474.77 489.097 474.591 490.778C474.407 492.249 474.019 493.934 473.835 495.405C473.652 496.876 473.472 498.557 473.289 500.028C473.106 501.499 473.344 503.173 473.164 504.853C472.984 506.534 473.014 508.211 473.043 509.888C472.863 511.569 472.475 513.254 472.5 514.721C472.533 516.608 472.562 518.285 472.797 519.749C473.248 521.628 473.9 523.085 474.758 524.328C475.829 525.778 477.093 526.385 478.981 526.771C480.656 526.952 482.108 526.297 483.344 525.227C484.37 524.161 486.027 523.293 486.625 521.605C487.23 520.336 487.197 518.449 487.585 516.765C487.978 515.29 488.575 513.602 488.755 511.921C488.938 510.45 489.536 508.762 489.715 507.081C489.899 505.61 490.078 503.929 490.262 502.458C490.445 500.987 489.998 499.317 490.178 497.636C490.361 496.165 490.123 494.491 490.306 493.02C490.489 491.549 491.3 490.067 491.479 488.386C491.663 486.915 491.842 485.234 492.026 483.763C492.209 482.292 492.18 480.615 492.363 479.144C492.546 477.673 492.726 475.992 492.701 474.524C492.884 473.053 492.646 471.38 492.62 469.912C492.803 468.441 493.192 466.757 493.375 465.285C493.559 463.814 492.903 462.148 492.873 460.471C493.057 459 493.863 457.308 493.838 455.841C494.021 454.369 493.574 452.7 493.757 451.228C493.94 449.757 493.911 448.08 494.094 446.609C494.069 445.141 493.831 443.468 493.805 442C493.779 440.533 493.959 438.852 493.933 437.385C493.908 435.917 494.296 434.233 494.48 432.762C494.454 431.294 494.216 429.621 494.19 428.153C494.165 426.686 494.971 424.994 495.155 423.523C495.129 422.055 495.1 420.378 495.283 418.907C495.257 417.439 494.601 415.773 494.576 414.306C494.55 412.838 494.521 411.161 494.704 409.69C494.679 408.222 495.276 406.534 495.25 405.067C495.225 403.599 495.405 401.919 495.379 400.451C495.353 398.984 494.697 397.317 494.881 395.846C494.855 394.379 495.452 392.691 495.427 391.223C495.401 389.756 494.954 388.086 494.928 386.618C494.903 385.151 494.665 383.477 494.639 382.01C494.613 380.542 495.211 378.854 495.185 377.387C495.16 375.919 494.504 374.253 494.478 372.785C494.452 371.318 494.423 369.641 494.397 368.173C494.372 366.706 494.969 365.018 494.944 363.55C494.918 362.083 494.471 360.413 494.445 358.945C494.42 357.478 494.182 355.804 494.156 354.337C494.13 352.869 493.207 347.853 493.177 346.175Z" fill="#AB31FF"/>
<path d="M579.547 276.934C579.785 278.607 579.191 280.505 579.429 282.179C579.667 283.852 579.902 285.316 579.931 286.993C580.17 288.667 580.404 290.13 580.642 291.804C580.881 293.477 581.324 294.938 581.353 296.615C581.592 298.288 582.035 299.748 582.064 301.426C582.303 303.099 582.123 304.78 582.149 306.247C582.387 307.921 582.621 309.385 582.86 311.058C582.889 312.735 582.709 314.416 582.944 315.88C582.973 317.557 582.995 318.815 583.024 320.492C581.353 320.521 579.894 320.757 578.222 320.786C576.55 320.815 574.893 321.683 573.225 321.921C571.554 321.951 569.886 322.189 568.218 322.428C566.546 322.457 564.654 321.861 562.986 322.1C563.012 323.568 563.254 325.451 563.492 327.124C563.518 328.592 563.547 330.269 563.782 331.733C563.807 333.2 564.463 334.867 564.698 336.33C564.724 337.798 564.544 339.479 564.779 340.943C564.804 342.41 564.833 344.087 564.859 345.555C564.885 347.022 565.541 348.688 565.775 350.152C565.801 351.62 564.994 353.311 565.024 354.989C565.049 356.456 565.914 358.119 565.94 359.586C565.966 361.054 565.786 362.734 565.812 364.202C565.837 365.669 566.075 367.343 566.101 368.81C566.127 370.278 565.947 371.959 565.973 373.426C565.998 374.894 566.445 376.564 566.471 378.031C566.497 379.499 565.899 381.187 565.925 382.654C565.95 384.122 566.606 385.788 566.632 387.255C566.658 388.723 566.687 390.4 566.713 391.868C566.738 393.335 566.349 395.019 566.375 396.487C566.401 397.954 566.43 399.632 566.456 401.099C566.481 402.567 566.719 404.24 566.745 405.708C566.771 407.175 565.755 408.871 565.781 410.338C565.806 411.806 566.672 413.468 566.701 415.145C566.726 416.613 566.547 418.294 566.363 419.765C566.389 421.232 565.582 422.924 565.399 424.395C565.425 425.863 565.454 427.54 565.48 429.007C565.505 430.475 565.952 432.145 565.982 433.822C566.007 435.289 566.037 436.966 566.062 438.434C566.088 439.901 565.49 441.589 565.307 443.061C565.333 444.528 565.571 446.202 565.391 447.882C565.417 449.35 564.819 451.038 564.845 452.505C564.661 453.977 564.691 455.654 564.507 457.125C564.324 458.596 564.562 460.27 564.588 461.737C564.404 463.208 564.643 464.882 564.459 466.353C564.276 467.824 563.887 469.508 563.704 470.98C563.521 472.451 563.132 474.135 563.158 475.603C562.974 477.074 563.213 478.747 563.029 480.218C562.846 481.69 562.875 483.367 562.692 484.838C562.508 486.309 562.538 487.986 562.563 489.454C562.38 490.925 561.57 492.407 561.39 494.088C561.207 495.559 561.654 497.229 561.474 498.909C561.291 500.381 560.902 502.065 560.928 503.533C560.745 505.004 560.356 506.688 560.173 508.159C559.989 509.63 559.81 511.311 559.626 512.782C559.443 514.254 559.89 515.923 559.71 517.604C559.527 519.075 559.556 520.753 559.373 522.224C559.19 523.695 558.379 525.177 558.2 526.858C558.016 528.329 557.837 530.01 557.653 531.481C557.47 532.952 557.29 534.633 557.107 536.104C556.924 537.575 556.744 539.256 556.352 540.731C556.168 542.202 556.198 543.879 556.014 545.35C555.831 546.821 555.23 548.3 554.841 549.984C554.658 551.455 555.105 553.125 554.925 554.806C554.742 556.277 553.723 557.763 553.543 559.444C553.36 560.915 553.389 562.592 553.206 564.063C553.022 565.534 552.634 567.219 552.45 568.69C552.267 570.161 552.3 572.048 551.908 573.522C550.441 573.338 548.557 573.162 547.087 572.768C545.621 572.584 544.147 571.98 542.468 571.59C541.002 571.406 539.33 571.435 537.864 571.251C536.397 571.067 534.916 570.044 533.446 569.651C531.98 569.466 530.514 569.282 529.047 569.098C529.231 567.627 528.996 566.163 529.176 564.482C529.359 563.011 529.748 561.327 529.931 559.856C530.114 558.385 530.925 556.902 531.104 555.222C531.288 553.751 531.676 552.066 532.069 550.591C532.252 549.12 532.014 547.447 532.197 545.975C532.38 544.504 533.4 543.019 533.579 541.338C533.763 539.867 533.524 538.193 533.917 536.718C534.1 535.247 534.071 533.57 534.463 532.095C534.646 530.624 535.457 529.142 535.636 527.461C535.82 525.99 535.372 524.32 535.552 522.639C535.735 521.168 535.915 519.488 536.098 518.016C536.282 516.545 537.092 515.063 537.272 513.382C537.455 511.911 537.217 510.238 537.4 508.767C537.583 507.295 537.763 505.615 537.737 504.147C537.921 502.676 538.518 500.988 538.702 499.517C538.885 498.046 538.647 496.372 538.83 494.901C539.014 493.43 538.775 491.756 538.959 490.285C539.142 488.814 538.904 487.14 539.087 485.669C539.27 484.198 539.241 482.521 539.425 481.05C539.608 479.579 539.788 477.898 539.971 476.427C540.154 474.956 540.125 473.279 540.308 471.807C540.492 470.336 540.671 468.655 540.855 467.184C541.038 465.713 541.636 464.025 541.819 462.554C542.002 461.083 541.973 459.406 542.156 457.934C542.34 456.463 542.101 454.79 542.076 453.322C542.259 451.851 542.021 450.178 541.995 448.71C542.179 447.239 542.358 445.558 542.333 444.091C542.307 442.623 542.905 440.935 542.879 439.468C542.853 438 542.824 436.323 542.799 434.855C542.773 433.388 542.535 431.714 542.718 430.243C542.692 428.776 543.081 427.091 543.056 425.624C543.03 424.156 542.792 422.483 542.975 421.012C542.949 419.544 543.547 417.856 543.73 416.385C543.705 414.917 543.675 413.24 543.859 411.769C543.833 410.302 543.386 408.632 543.36 407.164C543.335 405.697 544.35 404.001 544.325 402.534C544.299 401.066 544.27 399.389 544.244 397.922C544.218 396.454 543.98 394.781 543.955 393.313C543.929 391.846 543.482 390.176 543.456 388.708C543.431 387.241 544.028 385.553 544.003 384.085C543.977 382.618 543.53 380.948 543.504 379.481C543.479 378.013 543.658 376.332 543.633 374.865C543.607 373.397 543.578 371.72 543.343 370.256C543.318 368.789 543.706 367.104 543.681 365.637C543.655 364.169 543.208 362.499 543.182 361.032C543.157 359.564 543.545 357.88 543.52 356.413C543.494 354.945 542.838 353.279 542.812 351.811C542.787 350.344 543.175 348.659 543.15 347.192C543.124 345.724 542.259 344.062 542.233 342.594C542.208 341.127 542.178 339.45 541.944 337.986C541.918 336.518 542.098 334.838 541.863 333.374C541.838 331.906 541.599 330.233 541.365 328.769C541.339 327.301 541.105 325.837 540.866 324.164C539.195 324.193 537.732 324.219 536.064 324.457C534.393 324.487 532.732 325.145 531.06 325.174C529.389 325.203 527.702 324.394 526.034 324.633C524.363 324.662 522.907 325.107 521.239 325.345C521.214 323.878 520.979 322.414 520.745 320.95C520.719 319.483 520.481 317.809 520.455 316.342C520.429 314.874 520.191 313.201 520.166 311.733C519.931 310.269 519.487 308.809 519.249 307.136C519.015 305.672 518.78 304.208 518.542 302.534C518.307 301.071 518.696 299.386 518.461 297.922C518.227 296.458 518.198 294.781 518.172 293.314C517.937 291.85 517.908 290.173 517.882 288.705C517.648 287.241 517.413 285.778 517.179 284.314C518.847 284.075 520.298 283.42 521.758 283.185C523.425 282.946 525.104 283.337 526.563 283.101C528.231 282.863 529.687 282.418 531.355 282.179C533.023 281.94 534.482 281.705 536.15 281.466C537.818 281.227 539.28 281.202 540.948 280.963C542.616 280.724 544.288 280.695 545.751 280.669C547.213 280.644 549.098 280.821 550.56 280.795C552.228 280.556 553.68 279.902 555.348 279.663C557.016 279.424 558.475 279.189 560.147 279.16C561.815 278.921 563.494 279.311 564.953 279.076C566.621 278.837 568.072 278.183 569.74 277.944C571.408 277.705 573.087 278.095 574.546 277.86C576.218 277.831 577.879 277.173 579.547 276.934Z" fill="#AB31FF"/>
<path d="M600.584 584.207C599.117 584.022 597.427 583.003 595.748 582.613C594.069 582.223 592.603 582.039 591.137 581.855C589.67 581.671 587.995 581.49 586.529 581.306C585.062 581.122 583.391 581.151 581.921 580.758C580.451 580.364 578.57 580.397 576.895 580.216C577.078 578.745 577.672 576.847 577.856 575.376C578.039 573.905 578.219 572.224 578.402 570.753C578.585 569.282 579.186 567.804 579.575 566.119C579.758 564.648 580.36 563.17 580.539 561.489C580.723 560.018 580.902 558.337 581.086 556.866C581.269 555.394 580.822 553.725 581.002 552.044C581.185 550.573 581.365 548.892 581.548 547.421C581.731 545.95 582.959 544.46 583.143 542.989C583.326 541.518 583.297 539.841 583.48 538.37C583.663 536.898 584.052 535.214 584.235 533.743C584.419 532.272 584.181 530.598 584.364 529.127C584.547 527.656 584.936 525.972 585.119 524.5C585.303 523.029 585.482 521.348 585.666 519.877C585.849 518.406 585.402 516.736 585.581 515.056C585.765 513.584 586.784 512.099 586.964 510.418C587.147 508.947 586.7 507.277 586.67 505.6C586.854 504.129 587.242 502.444 587.426 500.973C587.609 499.502 587.58 497.825 587.554 496.357C587.738 494.886 588.126 493.202 588.101 491.734C588.284 490.263 588.046 488.589 588.02 487.122C588.203 485.651 588.801 483.963 588.984 482.492C589.168 481.02 588.512 479.354 588.691 477.673C588.875 476.202 588.845 474.525 589.029 473.054C589.212 471.583 589.601 469.898 589.784 468.427C589.967 466.956 589.938 465.279 589.912 463.811C590.096 462.34 589.649 460.67 589.832 459.199C590.015 457.728 590.822 456.036 591.005 454.565C591.188 453.094 590.323 451.432 590.294 449.754C590.268 448.287 590.657 446.602 590.631 445.135C590.606 443.667 591.621 441.972 591.596 440.505C591.57 439.037 591.541 437.36 591.724 435.889C591.699 434.421 591.251 432.751 591.226 431.284C591.2 429.816 591.171 428.139 591.145 426.672C591.12 425.204 591.717 423.516 591.692 422.049C591.666 420.581 591.428 418.908 591.402 417.44C591.377 415.973 591.765 414.288 591.74 412.821C591.714 411.353 591.894 409.672 591.868 408.205C591.842 406.737 591.604 405.064 591.579 403.596C591.553 402.129 591.315 400.455 591.289 398.988C591.263 397.52 591.652 395.836 591.627 394.368C591.601 392.901 591.781 391.22 591.755 389.753C591.729 388.285 591.491 386.612 591.466 385.144C591.44 383.677 591.411 382 591.385 380.532C591.359 379.065 591.121 377.391 591.096 375.924C591.07 374.456 591.876 372.764 591.851 371.297C591.825 369.829 591.169 368.163 591.143 366.696C591.118 365.228 591.298 363.547 591.272 362.08C591.246 360.612 591.426 358.932 591.4 357.464C591.375 355.997 591.345 354.319 591.32 352.852C591.294 351.384 590.638 349.718 590.613 348.251C590.587 346.783 590.14 345.113 590.114 343.646C590.088 342.178 590.686 340.49 590.66 339.023C590.635 337.555 590.606 335.878 590.371 334.414C590.345 332.947 590.107 331.273 590.082 329.806C590.056 328.338 589.818 326.665 589.792 325.197C589.766 323.73 589.319 322.06 589.085 320.596C589.059 319.129 589.239 317.448 589.213 315.98C589.188 314.513 588.322 312.85 588.088 311.386C588.062 309.919 588.66 308.231 588.422 306.557C588.187 305.093 587.74 303.424 587.714 301.956C587.48 300.492 587.45 298.815 587.425 297.348C587.19 295.884 586.743 294.214 586.508 292.75C586.274 291.286 586.245 289.609 586.01 288.145C585.775 286.681 585.955 285 585.721 283.537C585.486 282.073 585.035 280.193 584.797 278.52C586.465 278.281 588.353 278.667 589.816 278.642C591.278 278.616 592.943 278.168 594.405 278.142C595.868 278.117 597.521 277.039 598.984 277.014C600.447 276.988 602.111 276.54 603.574 276.514C605.033 276.279 606.712 276.669 608.38 276.43C608.618 278.104 608.643 279.571 608.673 281.249C608.911 282.922 609.563 284.379 609.798 285.843C610.036 287.516 609.435 288.994 609.673 290.668C609.911 292.341 610.355 293.802 610.593 295.475C610.831 297.149 611.066 298.613 611.304 300.286C611.542 301.96 610.941 303.438 611.179 305.111C611.418 306.785 612.07 308.242 612.308 309.915C612.338 311.592 612.572 313.056 612.601 314.733C612.631 316.41 612.238 317.885 612.268 319.562C612.297 321.239 612.949 322.696 612.979 324.373C613.008 326.05 613.243 327.514 613.272 329.191C613.301 330.868 612.909 332.343 613.147 334.017C613.176 335.694 613.62 337.154 613.649 338.831C613.678 340.508 614.122 341.969 614.151 343.646C614.18 345.323 614.624 346.783 614.653 348.46C614.683 350.137 614.917 351.601 614.946 353.278C614.976 354.955 615.001 356.423 615.031 358.1C615.06 359.777 615.086 361.245 615.324 362.918C615.353 364.595 615.17 366.067 615.408 367.74C615.437 369.417 615.045 370.892 615.074 372.569C615.103 374.246 615.129 375.714 615.158 377.391C615.188 379.068 615.631 380.528 615.66 382.205C615.69 383.883 615.924 385.346 615.953 387.024C615.983 388.701 615.799 390.172 615.829 391.849C615.858 393.526 615.466 395.001 615.495 396.678C615.524 398.355 615.759 399.819 615.788 401.496C617.669 401.463 619.337 401.225 621.217 401.192C623.098 401.159 624.773 401.339 626.654 401.307C628.534 401.274 629.993 401.039 631.669 401.219C631.643 399.751 632.039 398.486 632.01 396.809C631.984 395.342 631.955 393.665 631.929 392.197C631.904 390.73 631.247 389.063 631.222 387.596C631.196 386.128 632.212 384.433 632.186 382.965C632.161 381.498 631.922 379.824 631.897 378.357C631.871 376.889 631.633 375.216 631.607 373.748C631.582 372.281 631.134 370.611 631.109 369.144C631.083 367.676 631.681 365.988 631.655 364.521C631.63 363.053 630.973 361.387 630.948 359.919C630.922 358.452 631.102 356.771 631.076 355.304C631.051 353.836 630.812 352.163 630.787 350.695C630.761 349.228 631.15 347.543 631.124 346.076C631.099 344.608 630.651 342.938 630.417 341.474C630.391 340.007 630.78 338.322 630.545 336.859C630.52 335.391 629.863 333.725 629.629 332.261C629.603 330.794 629.992 329.109 629.966 327.642C629.941 326.174 629.076 324.512 629.05 323.044C629.024 321.577 628.786 319.903 628.761 318.436C628.735 316.968 628.915 315.287 628.68 313.823C628.654 312.356 628.207 310.686 628.182 309.219C628.156 307.751 627.709 306.081 627.474 304.617C627.24 303.153 627.419 301.473 627.185 300.009C626.95 298.545 626.503 296.875 626.268 295.411C626.034 293.947 627.049 292.252 626.811 290.579C626.577 289.115 626.129 287.445 626.104 285.977C625.869 284.513 625.631 282.84 625.396 281.376C625.162 279.912 625.136 278.445 624.898 276.771C626.357 276.536 628.029 276.507 629.488 276.272C630.947 276.037 632.607 275.378 634.07 275.353C635.533 275.327 637.197 274.879 638.656 274.644C640.324 274.405 641.794 274.799 643.462 274.56C645.13 274.321 646.593 274.296 648.052 274.06C648.286 275.524 648.316 277.201 648.341 278.669C648.579 280.342 648.814 281.806 648.84 283.274C649.078 284.947 649.73 286.404 649.965 287.868C650.203 289.541 649.811 291.016 650.049 292.689C650.287 294.363 650.731 295.823 650.756 297.291C650.995 298.964 651.229 300.428 651.464 301.892C651.702 303.565 651.728 305.033 651.966 306.706C652.204 308.38 652.021 309.851 652.259 311.524C652.288 313.202 651.896 314.676 651.925 316.354C651.955 318.031 652.816 319.484 652.842 320.951C652.871 322.628 653.105 324.092 653.135 325.769C653.164 327.446 652.772 328.921 653.01 330.595C653.039 332.272 653.692 333.728 653.926 335.192C653.956 336.869 653.563 338.344 653.801 340.018C653.831 341.695 653.856 343.162 653.886 344.839C653.915 346.517 653.94 347.984 653.97 349.661C653.999 351.338 654.652 352.795 654.681 354.472C654.71 356.149 654.527 357.62 654.765 359.294C654.794 360.971 655.029 362.435 655.058 364.112C655.087 365.789 654.695 367.264 654.724 368.941C654.754 370.618 655.197 372.078 655.226 373.756C655.256 375.433 655.281 376.9 655.311 378.577C655.34 380.255 655.783 381.715 655.813 383.392C655.842 385.069 655.45 386.544 655.479 388.221C655.508 389.898 656.161 391.355 656.19 393.032C656.219 394.709 655.409 396.191 655.438 397.868C655.468 399.545 656.12 401.002 655.94 402.683C655.97 404.36 656.204 405.824 656.233 407.501C656.263 409.178 655.662 410.656 655.691 412.334C655.72 414.011 655.537 415.482 655.566 417.159C655.595 418.836 656.248 420.293 656.068 421.974C656.097 423.651 655.287 425.133 655.313 426.6C655.342 428.277 655.786 429.738 655.815 431.415C655.844 433.092 655.452 434.567 655.481 436.244C655.51 437.921 656.163 439.378 655.983 441.058C656.012 442.735 655.202 444.218 655.019 445.689C655.048 447.366 654.865 448.837 654.685 450.518C654.714 452.195 654.74 453.662 654.769 455.34C654.799 457.017 655.451 458.473 655.271 460.154C655.301 461.831 654.908 463.306 654.725 464.777C654.545 466.458 654.571 467.925 654.6 469.603C654.421 471.283 653.819 472.762 653.636 474.233C653.456 475.914 654.318 477.367 654.138 479.047C653.958 480.728 653.775 482.199 653.592 483.671C653.412 485.351 652.602 486.833 652.627 488.301C652.448 489.982 652.891 491.442 652.712 493.123C652.528 494.594 652.766 496.267 652.796 497.945C652.612 499.416 652.642 501.093 652.462 502.774C652.279 504.245 652.099 505.926 651.916 507.397C651.732 508.868 651.553 510.549 651.578 512.016C651.395 513.487 650.588 515.179 650.405 516.65C650.222 518.121 650.46 519.795 650.28 521.476C650.097 522.947 649.499 524.635 649.316 526.106C649.133 527.577 648.953 529.258 648.77 530.729C648.586 532.2 649.033 533.87 648.854 535.551C648.67 537.022 647.86 538.504 647.681 540.185C647.497 541.656 648.153 543.322 647.765 545.007C647.581 546.478 646.984 548.166 646.8 549.637C646.617 551.108 646.02 552.796 645.836 554.267C645.653 555.739 645.682 557.416 645.502 559.097C645.319 560.568 645.139 562.249 644.956 563.72C644.773 565.191 644.802 566.868 644.622 568.549C644.439 570.02 644.05 571.704 643.867 573.175C643.684 574.647 643.295 576.331 643.112 577.802C642.928 579.273 642.331 580.961 642.147 582.433C641.964 583.904 641.575 585.588 641.183 587.063C641 588.534 640.402 590.222 640.01 591.697C639.827 593.168 639.856 594.845 639.672 596.316C638.206 596.132 636.729 595.319 635.054 595.139C633.378 594.958 631.923 595.403 630.244 595.013C628.565 594.623 627.297 593.806 625.618 593.416C623.939 593.026 622.472 592.842 621.006 592.658C619.54 592.474 618.077 592.499 616.607 592.106C616.79 590.634 617.183 589.16 617.366 587.688C617.549 586.217 617.52 584.54 617.909 582.856C618.092 581.385 618.063 579.707 618.242 578.027C618.426 576.555 619.445 575.07 619.834 573.385C620.013 571.704 619.357 570.038 619.54 568.567C619.72 566.886 620.743 565.61 620.923 563.929C621.102 562.249 621.495 560.774 621.678 559.303C621.858 557.622 622.041 556.151 622.43 554.466C622.609 552.786 622.793 551.314 622.972 549.634C623.152 547.953 623.335 546.482 623.515 544.801C623.695 543.12 624.087 541.645 624.27 540.174C624.45 538.493 624.424 537.026 624.604 535.345C624.784 533.664 624.967 532.193 625.147 530.512C625.326 528.832 625.719 527.357 625.898 525.676C626.078 523.995 626.261 522.524 626.441 520.843C626.621 519.162 626.177 517.702 626.148 516.025C626.328 514.344 626.929 512.866 627.112 511.395C627.292 509.714 627.266 508.246 627.446 506.566C627.626 504.885 627.6 503.417 627.78 501.737C627.959 500.056 628.561 498.577 628.531 496.9C628.711 495.219 628.685 493.752 628.865 492.071C629.045 490.39 629.437 488.915 629.617 487.235C629.796 485.554 629.771 484.086 629.951 482.406C630.13 480.725 629.896 479.261 630.075 477.58C630.255 475.899 630.438 474.428 630.618 472.747C630.798 471.067 630.563 469.603 630.534 467.926C630.714 466.245 630.897 464.774 631.077 463.093C631.256 461.412 631.022 459.948 630.992 458.271C630.963 456.594 630.736 455.549 630.707 453.872C628.822 453.695 627.569 453.717 625.684 453.54C623.8 453.364 622.121 452.974 620.446 452.793C618.562 452.616 616.894 452.855 615.009 452.678C615.035 454.146 614.437 455.834 614.463 457.301C614.489 458.769 614.518 460.446 614.334 461.917C614.151 463.388 614.598 465.058 614.628 466.735C614.444 468.206 614.056 469.891 613.872 471.362C613.689 472.833 613.927 474.507 613.748 476.187C613.564 477.659 613.802 479.332 613.832 481.009C613.648 482.48 613.051 484.169 612.867 485.64C612.684 487.111 612.922 488.784 612.952 490.461C612.768 491.933 612.798 493.61 612.823 495.077C612.64 496.548 612.669 498.226 612.486 499.697C612.302 501.168 612.332 502.845 612.148 504.316C611.965 505.787 611.158 507.479 610.975 508.95C610.792 510.421 611.239 512.091 611.059 513.772C610.876 515.243 610.069 516.935 609.886 518.406C609.703 519.877 609.732 521.554 609.549 523.025C609.365 524.497 609.604 526.17 609.424 527.851C609.24 529.322 609.061 531.003 608.878 532.474C608.694 533.945 608.097 535.633 607.913 537.104C607.73 538.575 607.968 540.249 607.788 541.93C607.605 543.401 606.795 544.883 606.615 546.564C606.432 548.035 606.252 549.716 606.069 551.187C605.886 552.658 605.915 554.335 605.731 555.806C605.548 557.277 605.159 558.962 604.976 560.433C604.793 561.904 604.404 563.589 604.221 565.06C604.037 566.531 603.858 568.212 603.465 569.687C603.282 571.158 603.311 572.835 603.128 574.306C602.945 575.777 601.926 577.263 601.746 578.944C601.563 580.415 601.383 582.096 600.991 583.57C600.73 580.639 600.763 582.526 600.584 584.207Z" fill="#AB31FF"/>
<path d="M685.683 513.937C685.866 512.466 686.669 510.564 686.853 509.093C687.036 507.622 687.007 505.945 687.19 504.474C687.373 503.002 687.344 501.325 687.527 499.854C687.711 498.383 687.473 496.709 687.656 495.238C687.839 493.767 687.601 492.094 687.575 490.626C687.759 489.155 688.147 487.471 688.331 485.999C688.514 484.528 688.276 482.855 688.459 481.384C688.642 479.912 689.031 478.228 689.214 476.757C689.398 475.286 689.786 473.601 689.761 472.134C689.944 470.663 689.915 468.986 690.098 467.514C690.282 466.043 689.625 464.377 689.6 462.91C689.783 461.438 689.754 459.761 689.728 458.294C689.703 456.826 690.718 455.131 690.901 453.66C690.876 452.192 690.847 450.515 690.821 449.048C690.792 447.37 690.975 445.899 691.158 444.428C691.129 442.751 690.686 441.291 690.869 439.82C690.84 438.142 691.232 436.668 691.415 435.197C691.386 433.519 691.569 432.048 691.753 430.577C691.932 428.896 691.28 427.44 691.463 425.969C691.643 424.288 692.666 423.012 692.636 421.335C692.816 419.654 692.164 418.197 692.347 416.726C692.53 415.255 692.923 413.78 693.102 412.099C693.286 410.628 693.256 408.951 693.44 407.48C693.623 406.009 694.224 404.53 694.408 403.059C694.591 401.588 694.562 399.911 694.745 398.44C694.928 396.969 695.948 395.483 696.131 394.012C696.523 392.537 696.285 390.863 696.468 389.392C696.861 387.917 697.044 386.446 697.436 384.971C697.828 383.497 698.642 382.224 699.031 380.54C699.423 379.065 699.607 377.594 700.208 376.115C700.6 374.641 700.571 372.963 700.963 371.489C701.356 370.014 702.587 368.734 702.98 367.259C703.372 365.784 702.925 364.115 703.104 362.434C703.497 360.959 703.889 359.484 704.281 358.009C704.674 356.535 705.696 355.259 706.085 353.574C706.474 351.89 706.657 350.419 707.049 348.944C707.438 347.259 707.2 345.586 707.588 343.901C707.977 342.217 707.948 340.54 708.34 339.065C708.729 337.381 709.33 335.902 709.51 334.221C709.689 332.541 709.451 330.867 709.631 329.186C709.81 327.505 710.203 326.031 710.173 324.354C710.144 322.676 710.324 320.996 710.298 319.528C710.269 317.851 710.034 316.387 710.005 314.71C709.976 313.033 709.741 311.569 709.503 309.895C709.474 308.218 709.657 306.747 709.624 304.86C709.595 303.183 709.569 301.716 709.536 299.829C709.507 298.152 709.063 296.692 709.034 295.014C708.796 293.341 708.767 291.664 708.528 289.99C708.29 288.317 708.052 286.643 707.814 284.97C707.576 283.296 708.382 281.605 708.144 279.931C707.906 278.258 707.249 276.591 707.011 274.918C706.773 273.244 706.953 271.564 706.714 269.89C706.476 268.217 706.656 266.536 706.418 264.862C706.176 262.979 705.938 261.306 705.703 259.842C705.461 257.959 704.6 256.506 704.156 255.046C703.705 253.166 703.053 251.709 702.609 250.249C701.949 248.373 701.708 246.49 700.648 245.67C699.373 244.434 697.69 243.834 695.813 244.077C693.936 244.319 692.492 245.393 691.681 246.875C691.073 247.934 690.684 249.619 690.512 251.719C690.329 253.19 690.776 254.86 690.809 256.746C690.834 258.214 690.655 259.895 690.688 261.782C690.922 263.245 691.787 264.908 692.025 266.581C692.26 268.045 691.662 269.733 691.901 271.407C692.135 272.871 692.582 274.541 692.817 276.004C693.052 277.468 693.081 279.145 693.315 280.609C693.55 282.073 693.997 283.743 694.232 285.207C694.466 286.671 694.495 288.348 694.73 289.812C694.965 291.276 694.785 292.956 694.811 294.424C695.045 295.888 695.492 297.558 695.727 299.021C695.753 300.489 695.155 302.177 695.393 303.851C695.419 305.318 695.657 306.992 695.892 308.455C695.917 309.923 696.782 311.585 697.017 313.049C697.043 314.517 697.281 316.19 697.306 317.658C697.332 319.125 696.943 320.81 697.178 322.274C697.204 323.741 697.233 325.418 697.258 326.886C697.284 328.353 697.944 330.229 697.969 331.697C696.507 331.722 694.619 331.336 693.156 331.361C691.693 331.387 690.033 332.045 688.57 332.07C687.107 332.096 685.439 332.335 683.98 332.57C682.518 332.595 680.839 332.205 679.376 332.231C677.913 332.256 676.465 333.12 674.794 333.15C673.331 333.175 671.659 333.204 669.988 333.234C669.962 331.766 670.347 329.872 670.321 328.404C670.296 326.937 669.852 325.477 669.614 323.803C669.588 322.336 669.35 320.662 669.325 319.195C669.299 317.727 669.688 316.043 669.453 314.579C669.427 313.111 668.984 311.651 668.746 309.978C668.72 308.51 668.277 307.05 668.038 305.377C668.013 303.909 667.569 302.449 667.331 300.775C667.305 299.308 667.067 297.634 666.833 296.17C666.598 294.707 666.778 293.026 666.543 291.562C666.308 290.098 666.279 288.421 666.045 286.957C665.81 285.493 665.99 283.812 665.755 282.349C665.521 280.885 665.909 279.2 665.884 277.733C665.649 276.269 665.62 274.592 665.385 273.128C665.151 271.664 664.707 270.204 664.678 268.527C664.443 267.063 663.996 265.393 663.97 263.926C663.736 262.462 663.707 260.785 663.681 259.317C663.447 257.853 663.835 256.169 663.601 254.705C663.362 253.031 663.128 251.568 662.893 250.104C662.864 248.427 662.42 246.966 662.186 245.502C662.157 243.825 662.131 242.358 662.105 240.89C662.076 239.213 661.632 237.753 661.607 236.285C661.578 234.608 661.97 233.134 662.153 231.662C662.124 229.985 662.098 228.518 662.073 227.05C662.043 225.373 661.6 223.913 661.574 222.445C661.754 220.765 662.773 219.279 662.748 217.811C662.927 216.131 662.902 214.663 663.294 213.188C663.474 211.507 663.657 210.036 663.84 208.565C664.233 207.09 664.203 205.413 664.596 203.938C665.197 202.46 666.22 201.184 666.825 199.915C667.426 198.437 667.818 196.962 668.632 195.689C669.446 194.417 670.681 193.347 671.917 192.277C672.943 191.21 674.179 190.14 675.627 189.276C676.866 188.416 678.534 188.177 679.989 187.732C681.444 187.287 682.684 186.427 684.352 186.188C686.229 185.945 688.109 185.913 689.986 185.67C691.654 185.431 693.102 184.567 694.565 184.542C696.236 184.513 697.71 185.116 699.176 185.3C700.852 185.48 702.52 185.242 703.993 185.845C705.467 186.448 706.941 187.052 708.213 188.078C709.481 188.895 710.548 190.135 711.82 191.161C712.883 192.191 714.155 193.217 715.222 194.457C716.288 195.696 717.351 196.726 718.213 198.179C719.071 199.423 719.723 200.879 720.585 202.332C721.233 203.579 722.509 204.815 723.165 206.481C723.818 207.938 723.433 209.832 724.085 211.288C724.738 212.745 725.39 214.201 726.043 215.658C726.486 217.118 727.139 218.575 727.582 220.035C728.026 221.495 728.473 223.165 728.708 224.629C729.151 226.089 729.389 227.763 729.833 229.223C730.276 230.683 730.929 232.14 731.376 233.809C731.611 235.273 732.267 236.939 732.501 238.403C732.736 239.867 732.556 241.548 732.794 243.221C733.029 244.685 733.267 246.359 733.505 248.032C733.74 249.496 733.769 251.173 734.007 252.847C734.242 254.311 734.48 255.984 734.719 257.658C734.953 259.122 735.606 260.578 735.844 262.252C736.078 263.715 735.69 265.4 735.924 266.864C736.159 268.328 736.606 269.997 736.632 271.465C736.866 272.929 737.104 274.602 737.339 276.066C737.574 277.53 737.603 279.207 737.837 280.671C738.072 282.135 737.892 283.816 738.127 285.279C738.361 286.743 737.764 288.431 737.998 289.895C738.233 291.359 738.889 293.025 738.915 294.493C738.94 295.96 739.179 297.634 739.413 299.098C739.442 300.775 739.054 302.459 739.288 303.923C739.318 305.6 739.97 307.057 739.999 308.734C740.029 310.411 739.636 311.886 739.666 313.563C739.695 315.24 739.512 316.711 739.541 318.389C739.57 320.066 739.387 321.537 739.416 323.214C739.445 324.891 739.889 326.351 739.709 328.032C739.739 329.709 739.346 331.184 739.167 332.865C738.987 334.546 739.012 336.013 738.833 337.694C738.653 339.375 738.052 340.853 737.869 342.324C737.689 344.005 737.714 345.473 737.535 347.153C737.351 348.625 736.963 350.309 736.779 351.78C736.596 353.251 736.416 354.932 736.237 356.613C735.844 358.088 735.243 359.566 734.855 361.251C734.462 362.725 734.704 364.608 734.312 366.083C733.92 367.558 732.691 369.047 732.299 370.522C731.907 371.997 731.936 373.674 731.548 375.359C731.155 376.833 730.972 378.305 730.371 379.783C729.978 381.258 728.956 382.534 728.354 384.012C727.962 385.487 727.357 386.756 726.756 388.234C726.363 389.709 726.393 391.386 725.997 392.651C725.605 394.126 724.369 395.196 723.977 396.671C723.584 398.146 723.61 399.613 723.009 401.092C722.411 402.78 721.806 404.049 721.205 405.527C720.608 407.215 720.846 408.889 720.453 410.364C720.065 412.048 718.833 413.328 718.441 414.803C718.052 416.487 717.451 417.965 717.059 419.44C716.67 421.125 716.487 422.596 716.307 424.277C715.915 425.751 716.574 427.627 716.182 429.102C715.999 430.573 715.401 432.261 715.218 433.732C715.035 435.204 714.855 436.884 714.675 438.565C714.492 440.036 713.685 441.728 713.715 443.405C713.531 444.876 714.187 446.543 714.217 448.22C714.033 449.691 713.854 451.372 713.674 453.053C713.491 454.524 712.684 456.215 712.713 457.893C712.53 459.364 712.977 461.034 712.797 462.714C712.614 464.185 713.061 465.855 712.882 467.536C712.702 469.217 712.728 470.684 712.757 472.362C712.577 474.042 712.603 475.51 712.423 477.191C712.243 478.871 712.269 480.339 712.089 482.02C711.91 483.7 711.099 485.183 711.129 486.86C710.949 488.541 711.184 490.004 711.004 491.685C710.824 493.366 710.432 494.841 710.252 496.522C710.073 498.202 709.889 499.674 709.71 501.354C709.53 503.035 709.977 504.705 710.003 506.172C709.823 507.853 709.013 509.335 708.833 511.016C708.653 512.697 709.104 514.576 709.13 516.044C707.664 515.86 705.981 515.26 704.309 515.289C702.638 515.318 701.164 514.715 699.698 514.531C698.231 514.347 696.563 514.586 695.097 514.401C693.631 514.217 691.959 514.247 690.493 514.062C689.03 514.088 687.149 514.121 685.683 513.937ZM699.743 600.929C698.276 600.745 696.586 599.726 695.329 599.538C693.863 599.354 692.396 599.17 690.926 598.776C689.46 598.592 687.994 598.408 686.527 598.224C685.061 598.04 683.598 598.066 682.132 597.881C680.666 597.697 679.203 597.723 677.736 597.539C676.27 597.355 674.796 596.751 673.326 596.358C673.51 594.886 673.689 593.206 673.873 591.734C674.056 590.263 674.657 588.785 675.046 587.1C675.229 585.629 675.831 584.151 676.01 582.47C676.194 580.999 676.373 579.318 676.766 577.843C676.949 576.372 676.502 574.702 676.685 573.231C676.868 571.76 677.048 570.079 677.231 568.608C677.415 567.137 678.643 565.647 678.826 564.176C679.01 562.705 678.98 561.028 679.373 559.553C679.556 558.082 679.945 556.398 680.128 554.926C680.311 553.455 680.073 551.782 680.256 550.311C680.44 548.84 680.832 547.365 681.012 545.684C681.195 544.213 681.375 542.532 681.558 541.061C681.741 539.59 681.294 537.92 681.478 536.449C681.661 534.978 682.68 533.492 682.863 532.021C683.047 530.55 682.596 528.67 682.779 527.199C684.246 527.383 685.925 527.773 687.391 527.957C688.857 528.141 690.32 528.116 691.786 528.3C693.253 528.484 694.723 528.878 696.189 529.062C697.655 529.246 699.114 529.011 700.581 529.195C702.047 529.379 703.521 529.982 704.987 530.167C706.453 530.351 708.33 530.108 709.797 530.292C709.613 531.763 709.646 533.65 709.467 535.331C709.283 536.802 708.686 538.49 708.502 539.961C708.319 541.433 708.139 543.113 707.96 544.794C707.776 546.265 708.014 547.939 707.835 549.62C707.651 551.091 706.632 552.577 706.453 554.257C706.269 555.728 706.929 557.604 706.746 559.075C706.562 560.547 706.174 562.231 705.99 563.702C705.807 565.173 704.788 566.659 704.608 568.34C704.425 569.811 704.245 571.492 704.062 572.963C703.879 574.434 704.117 576.108 703.937 577.788C703.754 579.26 703.574 580.94 703.394 582.621C703.211 584.092 702.401 585.574 702.221 587.255C702.038 588.726 702.067 590.403 701.887 592.084C701.704 593.555 701.107 595.243 700.714 596.718C700.102 597.568 699.926 599.458 699.743 600.929Z" fill="#AB31FF"/>
</g>
<defs>
<clipPath id="clip0">
<rect width="681.715" height="416.205" fill="white" transform="translate(56 195.897) rotate(-1)"/>
</clipPath>
</defs>
</svg>
