<svg width="800" height="800" viewBox="0 0 800 800" fill="none" xmlns="http://www.w3.org/2000/svg">
<g clip-path="url(#clip0)">
<path d="M109.473 327.836C111.538 325.043 112.227 326.977 115.21 326.117C117.964 325.258 117.964 324.828 120.948 323.969C123.932 323.109 123.932 322.894 126.686 322.25C129.669 321.605 130.358 319.671 132.423 321.39C134.259 322.894 132.194 324.398 132.194 327.406C132.194 330.414 132.423 330.414 132.423 333.208C132.423 336.216 132.423 336.216 132.423 339.224C132.423 342.232 132.653 342.232 132.653 345.24C132.653 348.248 131.735 348.463 131.735 351.256C131.735 354.264 132.423 354.049 132.423 357.057C132.423 360.066 132.194 360.066 132.194 363.074C132.194 365.007 131.735 366.941 131.735 368.875C131.505 370.809 131.505 372.743 131.046 374.676C130.817 376.61 131.046 378.544 130.587 380.478C130.128 382.411 129.899 384.345 129.21 386.279C128.522 388.213 126.915 389.502 125.997 391.006C125.079 392.725 123.932 394.014 122.784 395.518C121.636 396.807 120.259 398.096 118.882 399.171C117.505 400.03 115.899 400.89 114.292 401.534C112.686 402.179 111.309 403.038 109.473 403.468C107.866 403.898 106.26 403.468 104.424 403.683C101.899 403.898 101.899 404.757 99.3748 404.972C97.5387 405.187 95.9322 404.327 94.5552 404.327C92.7192 404.327 91.1127 404.542 89.7357 404.327C88.1291 404.113 86.5226 403.683 85.1456 403.038C83.5391 402.394 81.9326 402.179 80.7851 401.319C79.4081 400.46 78.2605 399.386 77.113 398.311C75.9655 397.237 75.5065 395.733 74.5885 394.444C73.9 393.155 72.7525 392.08 72.2935 390.576C71.8345 389.287 72.2935 387.353 71.8345 385.849C71.605 384.345 71.3755 382.841 71.146 381.337C70.9165 379.833 70.228 378.544 70.228 377.04C70.228 374.676 70.228 374.676 70.228 372.098C70.228 369.734 70.687 369.52 70.687 366.941C70.687 364.578 70.9165 364.363 70.9165 361.999C70.9165 359.636 70.228 359.851 70.228 357.272C70.228 354.909 70.9165 354.479 70.9165 352.116C70.9165 349.752 70.4575 349.967 70.4575 347.389C70.4575 345.025 70.228 345.025 70.228 342.662C70.228 340.298 70.9165 339.868 70.9165 337.505C70.9165 335.141 70.228 335.356 70.228 332.993C70.228 330.629 70.228 330.414 70.228 328.051C70.228 325.687 70.9165 325.258 70.9165 322.679C70.9165 320.316 70.4575 320.531 70.4575 317.952C70.4575 315.589 70.4575 315.589 70.4575 313.01C70.4575 310.647 70.9165 310.217 70.9165 307.854C70.9165 305.49 70.687 305.705 70.687 303.127C70.687 300.763 70.4575 300.978 70.4575 298.4C70.4575 296.036 70.228 296.251 70.228 293.673C70.228 291.309 70.228 291.309 70.228 288.731C70.228 287.012 70.4575 285.293 70.687 283.359C70.9165 281.64 71.146 279.707 71.605 277.773C72.064 275.839 72.7525 273.69 73.441 271.542C74.1295 269.393 75.5065 267.03 76.4245 264.881C77.3425 262.732 78.49 260.584 79.6376 258.22C80.7851 256.072 81.9326 253.708 83.5391 251.56C84.9161 249.626 86.5226 247.262 88.1291 245.328C89.7357 243.61 91.5717 241.891 93.4077 240.172C95.0142 238.668 96.8502 237.808 98.6863 236.304C101.44 234.37 101.44 234.156 103.965 232.222C105.801 231.147 107.407 229.643 109.014 228.784C110.85 227.925 112.456 227.28 113.833 226.85C115.669 226.206 117.276 225.561 118.653 225.561C120.259 225.561 121.407 226.42 122.784 226.85C124.161 227.28 125.309 227.925 126.456 228.999C127.604 230.073 128.981 230.718 129.669 232.007C130.358 233.511 129.899 235.874 130.358 237.593C130.817 239.312 131.276 240.816 131.505 242.75C131.735 244.469 132.194 246.188 132.194 248.122C132.194 250.055 132.882 251.774 132.882 253.708C132.882 256.931 132.194 257.146 132.194 260.369C132.194 263.592 132.653 263.377 132.653 266.6C132.653 269.823 132.423 269.823 132.423 273.046C132.423 276.269 132.423 276.269 132.423 279.492C132.423 282.715 134.03 282.93 131.964 285.723C129.899 288.731 129.44 286.797 126.456 287.871C123.702 288.731 123.702 288.301 120.718 289.375C117.735 290.45 117.964 291.094 114.981 292.169C111.997 293.243 111.768 295.177 109.702 293.888C107.637 292.598 109.243 291.524 109.243 288.516C109.243 285.508 109.243 285.508 109.243 282.5C109.243 279.492 109.473 279.277 109.473 276.269C109.473 273.261 109.243 273.261 109.243 270.253C109.243 267.245 109.014 267.459 109.014 264.451C109.014 262.303 109.014 260.584 108.784 259.295C108.325 257.576 107.178 257.146 105.801 256.931C104.653 256.716 103.276 255.857 101.44 257.146C99.3748 258.435 97.7682 260.154 96.6207 261.658C95.4732 263.377 94.7847 265.311 94.5552 267.674C94.3257 269.178 94.0962 271.112 94.0962 273.046C94.0962 275.624 94.0962 275.839 94.0962 278.417C94.0962 280.996 94.5552 280.781 94.5552 283.359C94.5552 285.938 94.7847 285.938 94.7847 288.516C94.7847 291.094 94.3257 291.524 94.3257 294.102C94.3257 296.681 94.3257 296.896 94.3257 299.474C94.3257 302.052 94.0962 302.267 94.0962 304.846C94.0962 307.424 94.0962 307.424 94.0962 310.217C94.0962 312.796 94.7847 312.581 94.7847 315.159C94.7847 317.737 94.3257 317.952 94.3257 320.746C94.3257 323.324 94.5552 323.324 94.5552 325.902C94.5552 328.481 94.7847 328.481 94.7847 331.059C94.7847 333.637 94.7847 333.637 94.7847 336.431C94.7847 339.009 94.5552 339.224 94.5552 341.802C94.5552 344.381 93.8667 344.595 93.8667 347.389C93.8667 349.967 94.5552 349.752 94.5552 352.545C94.5552 355.124 94.5552 355.124 94.5552 357.917C94.5552 360.495 93.8667 360.71 93.8667 363.503C93.8667 366.082 94.3257 366.082 94.5552 368.66C94.5552 370.594 94.0962 372.528 94.5552 373.817C95.0142 375.536 95.7027 377.255 96.8502 378.114C97.9977 378.974 99.8338 379.403 101.67 378.974C103.506 378.544 105.112 377.255 106.26 375.965C107.407 374.676 108.555 373.172 109.014 371.024C109.473 369.305 109.473 367.586 109.473 365.437C109.473 362.644 109.932 362.429 109.932 359.636C109.932 356.843 109.702 356.843 109.473 354.049C109.473 351.256 109.473 351.256 109.473 348.463C109.473 345.67 109.243 345.67 109.243 342.877C109.243 340.083 109.702 339.868 109.702 337.075C109.702 334.282 109.473 334.282 109.014 331.704C108.325 331.059 107.407 330.414 109.473 327.836Z" fill="#34323C"/>
<path d="M211.143 354.694C211.143 357.057 211.143 359.206 210.913 361.354C210.684 363.718 210.913 366.081 210.684 368.23C210.454 370.594 210.225 372.957 209.766 374.891C209.307 377.254 208.159 379.188 207.471 381.122C206.782 383.27 205.635 384.989 204.717 386.923C203.569 388.857 202.651 390.576 201.274 392.08C199.897 393.584 198.52 394.873 196.913 395.947C195.307 397.022 193.7 398.096 191.864 398.741C190.258 399.385 188.422 398.741 186.356 398.956C184.75 399.17 182.914 400.245 181.078 400.245C179.012 400.245 179.012 400.03 177.176 400.03C175.34 400.03 173.504 399.6 171.898 399.385C170.062 399.17 168.226 398.741 166.619 398.311C164.783 397.666 162.947 397.666 161.341 396.807C159.734 395.733 157.898 394.873 156.751 393.584C155.374 392.295 154.685 389.931 153.767 388.212C152.849 386.493 151.931 384.775 151.243 382.841C150.554 380.907 149.866 378.973 149.407 377.039C148.947 375.106 148.488 372.957 148.259 370.808C148.029 368.66 147.341 366.726 147.341 364.577C147.111 362.429 147.57 360.28 147.57 357.917C147.57 354.908 146.652 354.908 146.652 351.9C146.652 348.892 147.57 348.677 147.57 345.669C147.57 342.661 147.111 342.661 147.111 339.653C147.111 336.645 147.111 336.645 147.111 333.637C147.111 330.629 146.652 330.629 146.652 327.621C146.652 324.613 146.652 324.613 146.652 321.605C146.652 318.597 146.882 318.597 146.882 315.374C146.882 312.366 146.423 312.366 146.423 309.357C146.423 306.349 147.341 306.134 147.341 303.126C147.341 300.118 147.341 300.118 147.341 297.11C147.341 294.102 146.652 294.317 146.652 291.309C146.652 288.301 146.652 288.301 146.652 285.293C146.652 282.285 147.111 282.07 147.111 279.062C147.111 276.054 147.341 276.054 147.341 272.831C147.341 269.823 146.652 270.037 146.652 266.814C146.652 263.806 147.341 263.592 147.341 260.583C147.341 257.575 146.882 257.575 146.882 254.567C146.882 252.419 146.652 250.27 146.882 248.121C147.111 245.973 147.8 243.609 148.259 241.461C148.488 239.097 148.259 236.948 148.718 234.8C149.177 232.436 149.866 230.288 150.554 228.139C151.243 225.99 152.849 224.057 153.767 222.123C154.915 219.974 155.603 218.04 156.98 216.322C158.816 214.817 160.193 213.099 161.8 211.595C163.406 210.305 165.013 209.661 166.849 208.586C168.455 207.727 170.062 206.438 171.898 206.008C173.504 205.363 175.34 204.504 177.176 204.289C179.242 204.074 179.242 203.645 181.078 203.215C183.143 203.215 184.979 203 186.586 203C188.422 203 190.258 203.43 191.864 203.859C193.7 204.289 195.307 204.934 196.913 205.793C198.52 206.653 199.897 208.157 201.274 209.446C202.651 210.95 203.34 212.884 204.487 214.817C205.635 216.536 206.323 218.47 207.012 220.404C207.7 222.338 208.618 224.271 209.077 226.42C209.536 228.569 210.225 230.717 210.454 232.866C210.684 235.015 210.684 237.163 210.913 239.527C211.143 241.675 210.684 243.824 210.684 246.188C210.684 249.411 210.913 249.411 210.913 252.633C210.913 255.856 211.143 255.856 211.143 259.079C211.143 262.302 210.913 262.302 210.913 265.525C210.913 268.748 211.143 268.748 211.143 271.971C211.143 275.194 210.454 275.194 210.454 278.417C210.454 281.64 210.454 281.64 210.454 284.863C210.454 288.086 211.143 288.086 211.143 291.309C211.143 294.532 210.225 294.532 210.225 297.54C210.225 300.763 210.454 300.763 210.454 303.986C210.454 307.209 210.684 307.209 210.684 310.432C210.684 313.655 211.143 313.655 211.143 316.878C211.143 320.101 210.454 320.101 210.454 323.324C210.454 326.547 210.913 326.547 210.913 329.769C210.913 332.992 210.684 332.992 210.684 336.215C210.684 339.438 210.684 339.438 210.684 342.661C210.684 345.884 210.225 345.884 210.225 349.107C210.684 351.471 211.143 351.471 211.143 354.694ZM187.504 245.973C187.504 243.394 187.274 241.031 187.045 239.312C186.586 236.734 185.438 235.23 184.291 233.94C182.914 232.651 181.537 232.436 179.471 232.866C177.176 233.081 175.57 233.511 174.422 235.015C173.045 236.519 172.127 238.452 171.668 241.246C171.209 243.179 171.439 245.543 171.439 248.121C171.439 251.344 171.439 251.344 171.439 254.567C171.439 257.79 171.668 257.79 171.668 261.013C171.668 264.236 170.75 264.451 170.75 267.674C170.75 270.897 171.439 270.897 171.439 274.12C171.439 277.343 171.209 277.343 171.209 280.566C171.209 283.789 170.98 283.789 170.98 287.012C170.98 290.235 170.98 290.235 170.98 293.458C170.98 296.68 171.668 296.68 171.668 299.903C171.668 303.126 171.898 303.126 171.898 306.349C171.898 309.572 171.209 309.572 171.209 312.795C171.209 316.018 171.209 316.018 171.209 319.241C171.209 322.464 171.209 322.464 171.209 325.687C171.209 328.91 171.209 328.91 171.209 332.133C171.209 335.356 171.668 335.356 171.668 338.579C171.668 341.802 171.209 341.802 171.209 345.025C171.209 348.248 172.127 348.248 172.127 351.471C172.127 354.694 171.209 354.694 171.209 357.917C171.209 360.495 171.668 362.644 172.127 364.577C172.586 366.941 173.504 369.089 174.881 370.379C176.029 371.668 177.865 371.668 180.16 371.668C182.225 371.668 183.602 370.808 184.75 369.519C185.897 368.015 186.815 366.296 187.274 363.933C187.733 361.999 187.274 359.636 187.274 357.272C187.274 354.049 188.192 354.049 188.192 350.826C188.192 347.603 188.192 347.603 188.192 344.38C188.192 341.157 187.504 341.157 187.504 337.934C187.504 334.711 187.504 334.711 187.504 331.488C187.504 328.265 187.963 328.265 187.963 325.042C187.963 321.82 188.192 321.82 188.192 318.597C188.192 315.374 187.504 315.374 187.504 312.151C187.504 308.928 188.192 308.928 188.192 305.49C188.192 302.267 187.733 302.267 187.733 299.044C187.733 295.821 187.504 295.821 187.504 292.598C187.504 289.375 188.192 289.375 188.192 285.937C188.192 282.714 187.504 282.714 187.504 279.491C187.504 276.268 187.504 276.268 187.504 273.045C187.504 269.823 188.192 269.823 188.192 266.385C188.192 263.162 187.733 263.162 187.733 259.939C187.733 256.716 187.733 256.716 187.733 253.493C187.504 249.411 187.504 249.411 187.504 245.973Z" fill="#34323C"/>
<path d="M248.553 208.585C250.618 210.949 249.012 211.808 249.7 215.246C250.389 218.469 250.618 218.469 251.307 221.907C251.995 225.13 252.225 225.13 252.913 228.353C253.602 231.576 253.143 231.79 253.602 235.013C254.29 238.236 254.061 238.236 254.52 241.674C255.208 244.897 255.438 244.897 255.897 248.12C256.585 251.343 256.585 251.343 257.274 254.566C257.962 257.789 258.192 257.789 258.651 261.012C259.339 264.235 258.421 264.45 259.11 267.673C259.798 270.896 260.257 270.896 260.946 274.119C261.634 277.341 261.405 277.341 262.093 280.564C262.782 283.787 262.323 283.787 263.011 287.01C263.7 290.233 263.7 290.233 264.159 293.456C264.847 296.679 265.306 296.679 265.995 299.902C266.683 303.125 266.913 303.125 267.601 306.348C268.29 309.571 265.765 312.794 268.519 313.224C271.044 313.653 268.978 309.786 268.978 306.563C268.978 303.555 268.978 303.34 268.978 300.332C268.978 297.324 268.978 297.324 268.978 294.101C268.978 291.093 268.519 290.878 268.519 287.87C268.519 284.862 268.978 284.862 268.978 281.639C268.978 278.631 268.06 278.416 268.06 275.193C268.06 271.97 268.978 272.185 268.978 269.177C268.978 266.169 268.519 265.954 268.519 262.946C268.519 259.723 268.519 259.938 268.519 256.715C268.519 253.706 268.06 253.492 268.06 250.484C268.06 247.261 268.06 247.261 268.06 244.252C268.06 241.03 268.29 241.244 268.29 238.021C268.29 234.798 267.831 234.798 267.831 231.576C267.831 228.353 268.749 228.567 268.749 225.559C268.749 222.336 268.749 222.336 268.749 219.328C268.749 216.105 266.224 214.172 268.06 212.453C269.896 210.734 271.044 213.097 273.798 213.742C276.552 214.601 276.552 215.246 279.077 215.89C281.831 216.75 281.831 216.965 284.355 217.824C287.109 218.684 288.027 216.32 289.863 219.113C291.699 221.907 289.175 222.336 289.175 225.344C289.175 228.353 289.634 228.567 289.634 231.576C289.634 234.584 289.863 234.584 289.863 237.592C289.863 240.6 289.175 240.385 289.175 243.393C289.175 246.401 289.863 246.616 289.863 249.624C289.863 252.632 289.863 252.632 289.863 255.64C289.863 258.648 289.175 258.433 289.175 261.442C289.175 264.45 289.634 264.45 289.634 267.458C289.634 270.466 289.634 270.466 289.634 273.474C289.634 276.482 289.175 276.267 289.175 279.275C289.175 282.283 289.404 282.283 289.404 285.291C289.404 288.299 289.634 288.299 289.634 291.308C289.634 294.316 290.093 294.316 289.863 297.324C289.863 300.332 289.863 300.332 289.863 303.34C289.863 306.348 289.634 306.348 289.634 309.356C289.634 312.364 289.634 312.364 289.634 315.372C289.634 318.38 289.404 318.38 289.404 321.388C289.404 324.397 288.716 324.397 288.716 327.405C288.716 330.413 288.716 330.413 288.716 333.421C288.716 336.429 288.945 336.429 288.945 339.437C288.945 342.445 289.175 342.445 289.175 345.453C289.175 348.461 288.945 348.461 288.945 351.469C288.945 354.477 288.486 354.477 288.486 357.486C288.486 360.494 288.716 360.494 288.716 363.502C288.716 366.51 288.945 366.51 288.945 369.518C288.945 372.526 288.716 372.526 288.716 375.534C288.716 378.542 288.945 378.542 288.945 381.55C288.945 384.558 288.257 384.558 288.257 387.566C288.257 390.575 288.257 390.575 288.257 393.583C288.257 396.591 290.552 397.88 288.716 400.029C287.109 401.962 285.962 398.954 283.667 398.739C281.372 398.524 281.372 398.739 278.847 398.739C276.552 398.524 276.552 398.954 274.027 398.954C271.732 398.954 270.814 401.103 268.978 399.169C266.913 397.235 268.978 395.731 268.29 392.723C267.601 389.715 267.142 389.93 266.454 386.922C265.765 383.914 266.224 383.914 265.536 380.906C264.847 377.898 264.847 377.898 264.159 374.889C263.47 371.881 264.159 371.667 263.47 368.658C262.782 365.65 262.323 365.65 261.864 362.642C261.175 359.634 261.634 359.419 261.175 356.411C260.487 353.403 260.028 353.403 259.339 350.395C258.651 347.387 259.339 347.172 258.651 344.164C257.962 341.156 257.274 341.156 256.815 338.148C256.126 335.14 256.126 335.14 255.667 331.917C254.979 328.909 255.438 328.694 254.749 325.686C254.061 322.678 254.061 322.678 253.372 319.455C252.684 316.447 252.454 316.447 251.995 313.224C251.307 310.216 251.536 310.001 250.848 306.993C250.159 303.985 249.7 303.985 249.241 300.976C248.553 297.968 249.7 297.753 249.012 294.531C248.323 291.308 249.7 287.655 247.176 288.085C244.651 288.514 247.176 291.522 247.176 294.745C247.176 297.968 247.176 297.968 247.176 301.191C247.176 304.414 247.176 304.414 247.176 307.637C247.176 310.86 247.635 310.86 247.635 314.083C247.635 317.306 247.864 317.306 247.864 320.529C247.864 323.752 247.405 323.752 247.405 326.975C247.405 330.198 247.405 330.198 247.405 333.421C247.405 336.644 247.176 336.644 247.176 339.867C247.176 343.09 247.176 343.09 247.176 346.313C247.176 349.536 247.864 349.536 247.864 352.759C247.864 355.981 247.405 355.981 247.405 359.204C247.405 362.427 247.635 362.427 247.635 365.65C247.635 368.873 247.864 368.873 247.864 372.096C247.864 375.319 247.864 375.319 247.864 378.542C247.864 381.765 247.635 381.765 247.635 384.988C247.635 388.211 246.946 388.211 246.946 391.434C246.946 394.657 249.241 395.946 247.405 398.095C245.569 400.243 244.651 398.095 241.897 398.095C239.373 398.095 239.373 397.235 236.619 397.235C234.094 397.235 233.865 397.88 231.34 397.88C228.816 397.88 228.127 399.599 226.291 397.235C224.455 394.872 226.52 394.227 226.52 391.004C226.52 387.781 226.52 387.781 226.52 384.558C226.52 381.335 226.061 381.335 226.061 378.112C226.061 374.889 226.291 374.889 226.291 371.667C226.291 368.444 226.061 368.444 226.061 365.221C226.061 361.998 226.52 361.998 226.52 358.775C226.52 355.552 226.291 355.552 226.061 352.329C226.061 349.106 226.061 349.106 226.061 345.883C226.061 342.66 225.832 342.66 225.832 339.437C225.832 336.214 226.291 336.214 226.291 332.991C226.291 329.768 225.602 329.768 225.602 326.545C225.602 323.322 226.52 323.322 226.52 320.099C226.52 316.876 225.832 316.876 225.832 313.653C225.832 310.43 225.602 310.43 225.602 307.207C225.602 303.985 226.291 303.985 226.291 300.762C226.291 297.539 226.52 297.539 226.52 294.316C226.52 291.093 225.832 291.093 225.832 287.87C225.832 284.647 226.75 284.647 226.75 281.424C226.75 278.201 226.291 278.201 226.291 274.978C226.291 271.755 226.52 271.755 226.52 268.532C226.52 265.309 225.832 265.309 225.832 262.086C225.832 258.863 226.75 258.863 226.75 255.64C226.75 252.417 226.979 252.417 226.979 249.194C226.979 245.971 226.75 245.971 226.75 242.748C226.75 239.525 225.832 239.525 225.832 236.303C225.832 233.08 226.061 233.08 226.061 229.857C226.061 226.634 226.061 226.634 226.061 223.411C226.061 220.188 226.75 220.188 226.75 216.965C226.75 213.742 225.832 213.742 225.832 210.519C225.832 207.296 224.225 205.792 226.061 203.858C227.897 201.71 228.816 205.147 231.57 205.362C234.094 205.792 234.094 205.147 236.848 205.577C239.373 206.007 239.373 206.007 242.127 206.007C246.028 206.866 246.487 206.222 248.553 208.585Z" fill="#34323C"/>
<path d="M306.844 225.776C308.68 224.487 309.598 226.85 312.122 227.924C314.876 228.999 314.876 228.569 317.401 229.643C320.155 230.718 320.155 230.503 322.68 231.577C325.434 232.651 325.434 233.081 327.958 234.37C330.712 235.445 330.712 235.874 333.237 236.949C335.991 238.023 335.991 237.808 338.515 239.097C341.269 240.172 341.269 240.172 343.794 241.246C346.548 242.535 346.548 242.32 349.072 243.395C351.826 244.684 351.826 245.543 354.351 246.618C357.105 247.907 357.793 245.543 359.629 248.551C361.465 251.559 359.4 251.345 359.4 254.138C359.4 256.931 359.17 256.716 359.17 259.724C359.17 262.517 359.17 262.517 359.17 265.311C359.17 268.104 361.695 270.038 359.859 271.327C358.252 272.616 357.334 270.682 354.81 269.608C352.285 268.534 352.285 267.889 349.761 266.815C347.236 265.74 347.236 265.74 344.712 264.881C342.187 263.807 342.187 264.021 339.663 263.162C337.138 262.303 337.138 262.088 334.614 261.228C332.089 260.369 331.401 258.435 329.794 259.724C327.958 261.013 329.335 262.303 329.335 265.096C329.335 267.889 330.253 268.104 330.253 270.897C330.253 273.69 329.335 273.475 329.335 276.054C329.335 278.847 329.794 278.847 329.794 281.64C329.794 284.434 329.794 284.434 329.794 287.227C329.794 290.02 330.253 290.02 330.253 292.813C330.253 295.606 330.253 295.606 330.253 298.4C330.253 301.193 328.188 301.193 329.794 303.771C331.401 306.135 332.089 303.986 334.384 304.631C336.679 305.275 336.679 306.135 338.974 306.779C341.269 307.424 341.269 307.424 343.794 308.069C346.089 308.713 346.089 307.854 348.613 308.713C350.908 309.358 352.056 308.069 353.662 310.432C355.269 312.581 353.203 313.01 353.203 315.589C353.203 317.952 352.974 317.952 352.974 320.316C352.974 322.679 353.662 322.894 353.662 325.258C353.662 327.621 352.974 327.406 352.974 329.985C352.974 332.348 355.039 333.637 353.433 334.926C351.826 336.216 350.908 334.497 348.613 334.067C346.318 333.422 346.318 332.778 344.023 332.133C341.728 331.489 341.728 332.348 339.204 331.918C336.909 331.489 336.909 331.274 334.384 330.844C332.089 330.414 330.942 327.621 329.335 329.125C327.499 330.844 329.565 332.348 329.565 335.141C329.565 337.935 329.565 337.935 329.565 340.728C329.565 343.521 329.106 343.521 329.106 346.314C329.106 349.107 329.335 349.107 329.335 352.116C329.335 354.909 329.565 354.909 329.565 357.917C329.565 360.71 329.794 360.71 329.794 363.718C329.794 366.511 329.794 366.511 329.794 369.305C329.794 372.098 329.565 372.098 329.565 374.891C329.565 377.684 329.565 377.684 329.565 380.477C329.565 383.271 329.335 383.271 329.335 386.064C329.335 388.857 328.647 388.857 328.647 391.65C328.647 394.444 328.647 394.444 328.647 397.237C328.647 400.03 330.712 400.89 329.106 402.823C327.499 404.542 326.811 403.038 324.516 402.823C322.221 402.608 322.221 402.608 319.926 402.394C317.63 402.179 317.63 401.749 315.335 401.749C313.04 401.534 313.04 401.964 310.745 401.749C308.45 401.534 307.303 403.683 305.926 401.749C304.09 399.385 305.926 398.526 305.926 395.733C305.926 392.725 305.696 392.725 305.696 389.931C305.696 386.923 306.385 387.138 306.385 384.13C306.385 381.122 306.385 381.122 306.385 378.329C306.385 375.321 305.696 375.321 305.696 372.313C305.696 369.305 306.844 369.519 306.614 366.511C306.614 363.503 306.385 363.503 306.385 360.71C306.385 357.702 306.155 357.702 306.155 354.909C306.155 351.901 305.696 351.901 305.696 349.107C305.696 346.099 306.385 346.314 306.385 343.306C306.385 340.298 305.926 340.298 305.926 337.29C305.926 334.282 306.155 334.497 306.155 331.489C306.155 328.481 306.155 328.481 306.155 325.687C306.155 322.679 306.614 322.894 306.614 319.886C306.614 316.878 306.155 316.878 306.155 313.87C306.155 310.862 306.614 311.077 306.614 308.069C306.614 305.06 305.926 305.06 305.926 302.052C305.926 299.044 306.614 299.259 306.614 296.251C306.614 293.243 305.926 293.243 305.926 290.235C305.926 287.227 305.926 287.227 305.926 284.434C305.926 281.425 306.155 281.64 306.155 278.632C306.155 275.624 305.926 275.624 305.926 272.831C305.926 269.823 305.696 269.823 305.696 266.815C305.696 263.807 305.926 264.021 305.926 261.013C305.926 258.005 305.467 258.005 305.467 254.997C305.467 251.989 306.614 252.419 306.614 249.411C306.614 246.403 306.385 246.403 306.385 243.395C306.385 240.387 306.155 240.387 306.155 237.378C306.155 234.37 306.844 234.585 306.155 231.577C306.385 228.354 305.008 227.065 306.844 225.776Z" fill="#34323C"/>
<path d="M373.858 254.782C375.465 253.707 376.153 255.856 378.678 257.145C380.973 258.219 380.973 258.005 383.497 259.079C385.793 260.153 385.792 259.938 388.317 261.013C390.612 262.087 390.612 262.517 393.137 263.806C395.432 264.88 396.12 263.806 397.727 266.169C399.563 268.748 397.956 268.533 397.956 270.681C397.956 273.045 397.956 273.045 397.956 275.408C397.956 277.772 398.186 277.772 398.186 280.135C398.186 282.499 397.268 282.069 397.268 284.433C397.268 286.796 397.956 287.011 397.956 289.375C397.956 291.738 397.727 291.523 397.727 293.887C397.727 296.25 397.497 296.035 397.497 298.399C397.497 300.762 397.497 300.762 397.497 303.126C397.497 305.489 398.186 305.704 398.186 308.068C398.186 310.431 398.415 310.431 398.415 312.795C398.415 315.158 397.727 314.943 397.727 317.092C397.727 319.455 397.727 319.455 397.727 321.819C397.727 324.182 397.727 324.182 397.727 326.546C397.727 328.909 397.727 328.909 397.727 331.273C397.727 333.636 398.186 333.636 398.186 336C398.186 338.363 397.727 338.149 397.727 340.512C397.727 342.876 398.645 343.09 398.645 345.454C398.645 347.817 397.727 347.603 397.727 349.966C397.727 352.33 398.186 352.33 398.186 354.693C398.186 357.057 398.186 357.057 398.186 359.42C398.186 361.784 398.645 361.784 398.645 364.147C398.645 366.511 398.645 366.511 398.645 368.874C398.645 371.238 398.415 371.238 398.415 373.386C398.415 375.75 398.874 375.75 398.874 378.113C398.874 379.832 398.186 381.336 398.645 382.625C399.104 384.344 400.022 385.848 401.169 386.923C402.317 387.997 403.923 388.212 405.989 388.427C408.054 388.642 409.202 388.427 410.349 387.782C411.497 387.137 412.644 386.278 413.103 384.559C413.562 383.27 413.792 381.981 413.792 380.262C413.792 378.113 413.103 377.898 413.103 375.75C413.103 373.601 413.792 373.601 413.792 371.452C413.792 369.304 413.333 369.089 413.333 366.94C413.333 364.792 413.103 364.577 413.103 362.428C413.103 360.28 413.792 360.28 413.792 358.131C413.792 355.982 413.103 355.767 413.103 353.619C413.103 351.47 413.103 351.47 413.103 349.107C413.103 346.958 413.792 347.173 413.792 344.809C413.792 342.661 413.333 342.446 413.333 340.297C413.333 338.149 413.333 338.149 413.333 335.785C413.333 333.636 413.792 333.636 413.792 331.488C413.792 329.339 413.562 329.124 413.562 326.976C413.562 324.827 413.333 324.612 413.333 322.464C413.333 320.315 413.103 320.1 413.103 317.951C413.103 315.803 413.103 315.803 413.103 313.439C413.103 311.291 413.333 311.291 413.333 308.927C413.333 306.779 413.333 306.779 413.333 304.415C413.333 302.266 413.562 302.266 413.562 300.118C413.562 297.969 414.251 298.184 414.251 295.82C414.251 293.672 414.251 293.672 414.251 291.308C414.251 289.16 414.021 288.945 414.021 286.796C414.021 284.648 413.792 284.433 413.792 282.284C413.792 280.135 414.021 280.135 414.021 277.772C414.021 275.623 412.644 274.549 414.48 273.69C416.087 272.83 416.775 274.549 419.07 275.623C421.365 276.698 421.365 276.483 423.89 277.557C426.185 278.631 426.185 278.846 428.709 279.921C431.004 280.995 431.004 280.78 433.529 281.854C435.824 282.929 436.513 282.284 438.119 284.433C439.955 286.796 438.119 286.581 438.119 288.73C438.119 290.879 438.808 291.093 438.808 293.242C438.808 295.391 437.89 294.961 437.89 297.11C437.89 299.258 438.119 299.258 438.119 301.407C438.119 303.556 438.349 303.77 438.349 305.704C438.349 307.853 438.808 308.068 438.808 310.216C438.808 312.365 438.119 312.15 438.119 314.299C438.119 316.447 438.578 316.662 438.578 318.811C438.578 320.96 438.349 320.745 438.349 322.893C438.349 325.042 438.349 325.042 438.349 327.191C438.349 329.339 437.89 329.124 437.89 331.273C437.89 333.422 438.349 333.636 438.349 335.785C438.349 337.934 437.89 337.719 437.89 339.867C437.89 342.016 438.578 342.231 438.578 344.38C438.578 346.528 437.89 346.313 437.89 348.462C437.89 350.611 438.578 350.826 438.578 352.974C438.578 355.123 438.578 355.123 438.578 357.271C438.578 359.42 438.349 359.42 438.349 361.569C438.349 363.717 438.578 363.717 438.578 365.866C438.578 368.015 438.808 368.015 438.808 370.163C438.808 372.312 438.578 372.312 438.578 374.461C438.578 376.609 439.037 376.609 439.037 378.758C439.037 380.906 437.89 380.692 437.89 382.84C437.89 384.344 438.119 385.848 438.119 387.137C437.89 388.641 437.89 389.931 437.66 391.435C437.431 392.939 436.972 394.228 436.513 395.517C436.054 396.806 435.365 398.095 434.677 399.385C433.988 400.674 433.529 402.178 432.611 403.252C431.693 404.327 430.545 405.616 429.168 406.475C427.791 407.335 426.185 407.764 424.578 408.409C423.201 409.054 421.365 409.483 419.759 409.698C418.152 409.913 416.546 410.128 414.71 410.128C413.103 410.128 411.267 410.343 409.431 410.128C407.366 409.913 407.366 410.558 405.3 410.558C403.464 410.343 401.628 409.913 400.022 409.483C398.186 409.054 396.35 409.054 394.743 408.409C392.907 407.764 391.301 407.12 389.694 406.26C388.088 405.401 386.481 404.112 385.333 403.037C383.956 401.748 383.038 400.244 381.891 398.74C380.973 397.236 380.743 395.517 379.825 393.798C379.137 392.294 377.989 390.79 377.53 388.856C377.071 387.137 376.612 385.419 376.383 383.7C376.153 381.981 376.612 380.262 376.383 378.543C376.153 376.824 375.694 375.105 375.694 373.386C375.694 370.808 376.153 370.808 376.153 368.444C376.153 365.866 376.383 365.866 376.383 363.288C376.383 360.709 376.383 360.709 376.383 358.131C376.383 355.553 375.924 355.553 375.924 352.974C375.924 350.396 376.153 350.396 376.153 347.817C376.153 345.239 375.924 345.239 375.924 342.661C375.924 340.082 376.383 340.297 376.383 337.719C376.383 335.14 375.924 335.14 375.924 332.562C375.924 329.984 375.924 329.984 375.924 327.405C375.924 324.827 375.694 324.827 375.694 322.249C375.694 319.67 376.153 319.885 376.153 317.307C376.153 314.728 375.465 314.514 375.465 311.935C375.465 309.357 376.383 309.572 376.383 306.993C376.383 304.415 375.694 304.2 375.694 301.622C375.694 299.043 375.465 299.043 375.465 296.465C375.465 293.887 376.153 294.102 376.153 291.523C376.153 288.945 376.383 288.945 376.383 286.581C376.383 284.003 375.694 283.788 375.694 281.21C375.694 278.631 376.612 279.061 376.612 276.483C376.612 273.904 376.153 273.69 376.153 271.111C376.153 268.533 376.383 268.748 376.383 266.169C376.383 263.591 376.153 263.591 375.694 260.798C372.711 256.715 372.022 255.856 373.858 254.782Z" fill="#34323C"/>
<path d="M485.169 302.483C487.005 303.127 488.841 303.987 490.678 304.631C492.514 305.491 494.579 305.921 496.186 306.78C498.022 307.639 499.858 308.499 501.464 309.573C503.071 310.648 504.448 312.152 505.595 313.226C506.972 314.515 507.661 315.804 508.579 317.093C509.267 318.383 510.185 319.672 510.644 320.961C511.103 322.25 511.562 323.539 511.562 324.829C511.792 325.903 512.021 327.192 512.021 328.481C512.021 330.2 511.103 329.985 511.103 331.704C511.103 333.423 511.792 333.423 511.792 335.142C511.792 336.861 511.562 336.861 511.562 338.365C511.562 340.084 511.333 339.869 511.333 341.588C511.333 343.307 513.398 343.951 511.562 344.811C509.497 345.67 509.038 344.596 506.284 344.166C503.53 343.522 503.53 343.737 500.546 343.092C497.792 342.447 497.792 342.018 494.809 341.373C492.055 340.728 491.366 342.018 489.53 340.084C487.464 338.15 489.53 338.365 489.53 336.431C489.53 334.497 489.53 334.497 489.53 332.564C489.53 330.63 489.071 330.63 489.071 328.481C489.071 326.547 489.53 326.762 489.53 324.829C489.53 323.754 488.612 322.465 488.382 321.606C487.923 320.316 487.923 319.242 486.776 318.383C485.858 317.523 484.251 317.093 482.415 316.449C480.35 315.804 478.743 315.589 477.825 316.019C476.678 316.449 476.678 317.523 476.219 318.812C475.989 319.672 475.989 320.961 475.989 322.25C475.989 323.325 475.76 323.11 475.76 324.184C475.76 325.473 476.219 326.977 476.448 328.052C476.678 329.341 476.219 330.63 476.678 331.919C477.137 333.208 478.055 334.497 478.973 336.001C479.661 337.291 481.268 338.365 482.415 339.654C483.333 340.728 484.251 342.018 485.628 343.307C487.005 345.026 486.776 345.241 488.153 346.745C489.53 348.464 489.53 348.464 490.907 350.182C492.284 351.901 492.973 351.687 494.35 353.405C495.956 355.124 495.268 355.124 496.645 356.843C498.251 358.347 498.481 358.347 500.087 359.851C501.235 361.14 502.382 362.215 503.53 363.289C504.677 364.578 504.907 365.868 505.825 366.942C506.743 368.231 508.349 369.09 509.038 370.165C509.956 371.454 510.415 372.528 511.103 373.603C511.792 374.677 511.562 375.966 511.792 377.255C512.251 378.33 512.939 379.619 513.169 380.693C513.398 381.767 513.628 383.057 513.628 384.131C513.628 385.205 513.169 386.28 513.169 387.569C513.169 389.288 513.398 389.288 513.398 390.792C513.398 392.081 513.628 393.155 513.628 394.444C513.398 395.734 513.628 396.808 513.398 397.882C513.169 399.171 512.71 400.246 512.251 401.32C511.792 402.394 510.874 403.469 510.185 404.543C509.497 405.617 508.579 406.692 507.431 407.551C506.284 408.41 504.907 409.27 503.759 409.915C502.382 410.559 500.546 410.989 498.94 411.419C497.333 411.848 495.956 412.278 494.12 412.493C492.514 412.708 490.907 413.137 489.071 413.352C487.464 413.352 485.628 413.567 483.792 413.567C481.497 413.352 481.497 413.352 479.202 413.352C477.366 413.352 475.76 412.708 474.153 412.493C472.317 412.278 470.711 412.063 469.104 411.633C467.268 411.204 465.662 410.774 464.055 410.129C462.449 409.485 461.072 408.41 459.695 407.551C458.318 406.692 456.941 405.617 455.793 404.543C454.875 403.469 454.416 401.965 453.728 400.675C453.039 399.386 452.58 398.097 452.121 396.808C451.662 395.519 450.744 394.229 450.515 392.725C450.285 391.436 451.203 390.147 451.203 388.643C451.203 386.709 450.974 386.709 450.974 384.561C450.974 382.627 450.744 382.412 450.744 380.478C450.744 378.544 450.285 378.33 450.285 376.396C450.285 374.462 450.974 374.462 450.974 372.528C450.974 370.595 450.515 370.38 450.515 368.446C450.515 366.512 448.908 365.438 450.744 364.578C452.81 363.504 453.728 365.008 456.482 365.653C459.465 366.297 459.465 366.727 462.219 367.157C465.203 367.801 465.203 367.372 467.957 367.801C470.94 368.231 471.17 367.157 473.465 369.09C475.53 370.809 473.924 370.809 473.924 372.743C473.924 374.677 473.235 374.677 473.235 376.611C473.235 378.544 473.924 378.759 473.924 380.693C473.924 382.627 473.924 382.627 473.924 384.561C473.924 386.494 473.694 386.494 473.694 388.428C473.694 389.932 473.924 391.007 474.383 392.081C474.842 393.585 475.76 394.444 476.907 395.304C478.055 396.163 479.432 396.808 481.497 396.808C483.792 397.023 485.169 396.378 486.317 395.519C487.235 394.874 488.841 394.015 489.3 392.296C489.53 391.221 489.3 389.717 489.3 388.213C489.3 386.924 489.071 386.924 489.071 385.635C489.071 384.131 489.071 382.842 489.071 381.553C488.841 380.048 488.841 378.759 488.382 377.47C487.923 376.181 486.776 374.892 485.858 373.603C485.169 372.528 484.022 371.239 482.645 369.735C481.727 368.661 481.038 367.157 479.661 365.653C478.284 363.934 478.284 363.934 476.678 362.43C475.301 360.711 475.301 360.711 473.924 358.992C472.547 357.273 472.317 357.273 470.94 355.554C469.563 353.835 468.875 354.05 467.498 352.331C466.121 350.612 466.35 350.397 464.973 348.678C463.826 347.389 462.678 346.1 461.76 344.811C460.842 343.522 459.695 342.018 458.777 340.728C457.859 339.224 457.17 337.935 456.482 336.646C455.793 335.142 455.334 333.853 454.646 332.349C454.187 330.845 454.187 329.556 453.957 328.266C453.498 326.977 452.58 325.473 452.58 323.969C452.351 322.68 452.121 321.176 452.121 319.887C452.121 318.598 452.58 317.308 452.58 316.019C452.58 314.085 451.892 313.871 451.892 311.937C451.892 310.433 452.58 309.358 452.58 308.069C452.81 306.78 453.269 305.706 453.728 304.417C454.187 303.127 454.875 302.268 455.334 301.194C456.023 300.119 456.482 299.045 457.4 298.185C458.547 297.541 459.695 297.111 461.072 296.896C462.449 296.467 463.826 296.252 465.432 296.252C467.039 296.252 468.645 296.896 470.481 297.111C472.088 297.326 473.694 297.541 475.53 298.185C477.137 298.615 478.973 299.26 480.809 299.904C483.104 302.053 483.104 301.838 485.169 302.483Z" fill="#34323C"/>
<path d="M552.411 414.855C550.805 415.929 550.116 414.855 547.821 414.64C545.526 414.64 545.526 414.855 543.231 414.855C540.936 414.855 540.936 414.855 538.641 414.855C536.346 414.855 536.346 414.425 534.051 414.425C531.756 414.425 531.068 415.285 529.461 414.21C527.625 412.921 529.232 412.706 529.232 410.987C529.232 409.268 529.232 409.268 529.232 407.764C529.232 406.045 529.002 406.045 529.002 404.541C529.002 402.822 529.92 403.037 529.92 401.318C529.92 399.599 529.232 399.599 529.232 398.095C529.232 396.377 529.461 396.377 529.461 394.872C529.461 393.154 529.691 393.154 529.691 391.65C529.691 389.931 529.691 389.931 529.691 388.427C529.691 386.708 529.002 386.708 529.002 385.204C529.002 383.485 528.773 383.485 528.773 381.981C528.773 380.262 529.461 380.477 529.461 378.758C529.461 377.039 529.461 377.039 529.461 375.535C529.461 373.816 529.461 373.816 529.461 372.312C529.461 370.593 529.461 370.593 529.461 369.089C529.461 367.37 529.002 367.37 529.002 365.866C529.002 364.147 529.461 364.362 529.461 362.643C529.461 360.924 528.543 360.924 528.543 359.205C528.543 357.486 529.461 357.701 529.461 355.982C529.461 354.263 529.002 354.263 529.002 352.544C529.002 350.825 529.002 350.825 529.002 349.321C529.002 347.603 528.543 347.603 528.543 345.884C528.543 344.165 528.543 344.165 528.543 342.661C528.543 340.942 528.773 341.157 528.773 339.438C528.773 337.719 528.314 337.719 528.314 336C528.314 334.281 529.232 334.496 529.232 332.777C529.232 331.058 529.232 331.058 529.232 329.554C529.232 327.835 528.543 327.835 528.543 326.116C528.543 324.397 528.543 324.397 528.543 322.893C528.543 321.174 529.002 321.389 529.002 319.67C529.002 317.951 527.396 317.307 529.232 316.447C530.838 315.588 531.297 316.447 533.822 317.092C536.117 317.522 536.117 317.951 538.412 318.381C540.707 318.811 540.707 318.596 543.002 318.811C545.297 319.241 545.297 319.026 547.592 319.455C549.887 319.67 550.346 319.026 551.952 320.315C553.788 321.604 552.641 321.819 552.641 323.323C552.641 324.827 552.641 324.827 552.641 326.546C552.641 328.05 551.952 328.05 551.952 329.554C551.952 331.058 552.411 331.273 552.411 332.777C552.411 334.281 552.411 334.281 552.411 336C552.411 337.504 551.952 337.504 551.952 339.223C551.952 340.727 552.182 340.942 552.182 342.446C552.182 343.95 552.411 344.165 552.411 345.669C552.411 347.173 552.641 347.173 552.641 348.892C552.641 350.396 552.641 350.396 552.641 352.115C552.641 353.619 552.411 353.619 552.411 355.338C552.411 356.842 552.411 356.842 552.411 358.561C552.411 360.065 552.182 360.065 552.182 361.784C552.182 363.288 551.493 363.288 551.493 365.006C551.493 366.511 551.493 366.511 551.493 368.229C551.493 369.733 551.723 369.733 551.723 371.452C551.723 372.956 551.952 372.956 551.952 374.675C551.952 376.179 551.723 376.179 551.723 377.898C551.723 379.402 551.264 379.402 551.264 381.121C551.264 382.625 551.493 382.625 551.493 384.344C551.493 385.848 551.723 385.848 551.723 387.567C551.723 389.071 551.493 389.071 551.493 390.79C551.493 392.294 551.723 392.294 551.723 394.013C551.723 395.517 551.034 395.517 551.034 397.236C551.034 398.74 551.034 398.74 551.034 400.459C551.034 401.963 551.723 401.963 551.723 403.682C551.723 405.186 550.805 405.186 550.805 406.905C550.805 408.409 551.034 408.409 551.034 410.128C551.034 411.632 550.805 411.847 551.264 413.351C552.87 413.351 554.018 413.78 552.411 414.855Z" fill="#34323C"/>
<path d="M590.511 320.53C592.576 321.389 590.97 322.034 591.658 323.538C592.347 325.042 592.576 325.042 593.265 326.546C593.953 328.05 594.183 328.05 594.871 329.554C595.56 331.058 595.101 331.273 595.56 332.777C596.248 334.281 596.019 334.281 596.478 336C597.166 337.504 597.396 337.504 597.855 339.008C598.543 340.512 598.544 340.512 599.232 342.016C599.921 343.52 600.15 343.52 600.609 345.024C601.298 346.528 600.379 346.743 601.068 348.247C601.757 349.751 602.216 349.536 602.904 351.255C603.593 352.759 603.363 352.759 604.052 354.478C604.74 355.982 604.281 356.197 604.97 357.701C605.658 359.205 605.658 359.205 606.117 360.709C606.806 362.213 607.265 361.998 607.953 363.717C608.642 365.221 608.871 365.221 609.56 366.725C610.248 368.229 607.724 370.378 610.478 370.163C613.002 369.948 610.937 368.229 610.937 366.725C610.937 365.006 610.937 365.006 610.937 363.502C610.937 361.783 610.937 361.783 610.937 360.279C610.937 358.56 610.478 358.775 610.478 357.056C610.478 355.337 610.937 355.337 610.937 353.833C610.937 352.114 610.019 352.329 610.019 350.61C610.019 348.892 610.937 348.892 610.937 347.173C610.937 345.454 610.478 345.669 610.478 343.95C610.478 342.231 610.478 342.231 610.478 340.727C610.478 339.008 610.019 339.223 610.019 337.504C610.019 335.785 610.019 335.785 610.019 334.281C610.019 332.562 610.248 332.562 610.248 331.058C610.248 329.339 609.789 329.554 609.789 327.835C609.789 326.116 610.707 326.116 610.707 324.397C610.707 322.678 610.707 322.678 610.707 321.174C610.707 319.455 608.183 319.24 610.019 317.736C611.855 316.232 613.002 317.092 615.756 316.447C618.51 315.803 618.51 316.232 621.035 315.588C623.789 314.943 623.789 314.943 626.313 314.299C629.067 313.439 629.985 311.505 631.821 312.15C633.657 312.794 631.133 314.299 631.133 316.017C631.133 317.736 631.592 317.521 631.592 319.24C631.592 320.959 631.821 320.959 631.821 322.463C631.821 324.182 631.133 324.397 631.133 326.116C631.133 327.835 631.821 327.62 631.821 329.339C631.821 331.058 631.821 331.058 631.821 332.777C631.821 334.496 631.133 334.711 631.133 336.429C631.133 338.148 631.592 337.934 631.592 339.652C631.592 341.371 631.592 341.371 631.592 343.09C631.592 344.809 631.133 344.809 631.133 346.528C631.133 348.247 631.362 348.032 631.362 349.751C631.362 351.47 631.592 351.47 631.592 352.974C631.592 354.693 631.821 354.693 631.821 356.197C631.821 357.916 631.821 357.916 631.821 359.635C631.821 361.354 631.592 361.354 631.592 363.073C631.592 364.791 631.592 364.791 631.592 366.51C631.592 368.229 631.362 368.229 631.362 369.948C631.362 371.667 630.674 371.667 630.674 373.386C630.674 375.105 630.674 375.105 630.674 376.824C630.674 378.543 630.903 378.543 630.903 380.262C630.903 381.981 631.133 381.981 631.133 383.699C631.133 385.418 630.903 385.418 630.903 387.137C630.903 388.856 630.444 388.856 630.444 390.575C630.444 392.294 630.674 392.294 630.674 394.013C630.674 395.732 630.903 395.732 630.903 397.451C630.903 399.17 630.674 399.17 630.674 400.888C630.674 402.607 630.903 402.607 630.903 404.326C630.903 406.045 630.215 406.045 630.215 407.764C630.215 409.483 630.215 409.483 630.215 411.202C630.215 412.921 632.51 413.565 630.674 414.855C629.067 416.144 627.92 414.425 625.625 414.425C623.33 414.425 623.33 414.64 620.805 414.64C618.51 414.64 618.51 414.855 615.986 415.069C613.691 415.069 612.773 416.359 610.937 415.499C608.871 414.64 610.937 413.78 610.248 412.276C609.56 410.772 609.101 410.772 608.412 409.268C607.724 407.764 608.183 407.764 607.494 406.26C606.806 404.756 606.806 404.756 606.117 403.252C605.429 401.748 606.117 401.533 605.429 400.029C604.74 398.525 604.281 398.525 603.822 397.021C603.134 395.517 603.593 395.517 603.134 394.013C602.445 392.509 601.986 392.724 601.298 391.22C600.609 389.716 601.298 389.501 600.609 387.997C599.92 386.493 599.232 386.708 598.773 385.203C598.084 383.699 598.084 383.699 597.625 382.195C596.937 380.691 597.396 380.691 596.707 379.187C596.019 377.683 596.019 377.683 595.33 376.179C594.642 374.675 594.412 374.675 593.953 373.171C593.265 371.667 593.494 371.667 592.806 370.163C592.117 368.659 591.658 368.874 591.199 367.37C590.511 365.866 591.658 365.651 590.97 364.147C590.281 362.643 591.658 360.709 589.134 361.139C586.609 361.568 589.134 362.858 589.134 364.577C589.134 366.081 589.134 366.081 589.134 367.8C589.134 369.304 589.134 369.304 589.134 371.022C589.134 372.527 589.593 372.527 589.593 374.245C589.593 375.749 589.822 375.749 589.822 377.468C589.822 378.972 589.363 379.187 589.363 380.691C589.363 382.195 589.363 382.195 589.363 383.914C589.363 385.418 589.134 385.418 589.134 387.137C589.134 388.641 589.134 388.641 589.134 390.36C589.134 391.864 589.822 391.864 589.822 393.583C589.822 395.087 589.363 395.087 589.363 396.806C589.363 398.31 589.593 398.31 589.593 400.029C589.593 401.533 589.822 401.533 589.822 403.252C589.822 404.756 589.822 404.756 589.822 406.475C589.822 407.979 589.593 407.979 589.593 409.698C589.593 411.202 588.904 411.417 588.904 412.921C588.904 414.425 591.199 415.069 589.363 416.359C587.527 417.433 586.609 416.359 583.855 416.574C581.331 416.574 581.331 416.144 578.577 416.144C575.823 416.144 576.052 416.574 573.298 416.574C570.774 416.574 570.085 417.433 568.249 416.359C566.413 415.284 568.479 414.855 568.479 413.351C568.479 411.847 568.479 411.847 568.479 410.128C568.479 408.624 568.02 408.624 568.02 406.905C568.02 405.401 568.249 405.401 568.249 403.682C568.249 402.178 568.02 402.178 568.02 400.459C568.02 398.955 568.479 398.955 568.479 397.236C568.479 395.732 568.02 395.732 568.02 394.013C568.02 392.509 568.02 392.509 568.02 390.79C568.02 389.286 567.79 389.286 567.79 387.567C567.79 386.063 568.249 386.063 568.249 384.344C568.249 382.84 567.561 382.84 567.561 381.121C567.561 379.617 568.479 379.617 568.479 377.898C568.479 376.394 567.79 376.394 567.79 374.675C567.79 373.171 567.561 373.171 567.561 371.452C567.561 369.948 568.249 369.948 568.249 368.229C568.249 366.725 568.479 366.725 568.479 365.006C568.479 363.502 567.79 363.502 567.79 361.783C567.79 360.279 568.708 360.279 568.708 358.56C568.708 357.056 568.249 357.056 568.249 355.337C568.249 353.833 568.479 353.833 568.479 352.115C568.479 350.61 567.79 350.61 567.79 348.892C567.79 347.388 568.708 347.388 568.708 345.669C568.708 344.165 568.938 344.165 568.938 342.446C568.938 340.942 568.708 340.942 568.708 339.223C568.708 337.719 567.79 337.719 567.79 336C567.79 334.496 568.02 334.496 568.02 332.777C568.02 331.273 568.02 331.273 568.02 329.554C568.02 328.05 568.708 328.05 568.708 326.331C568.708 324.827 567.79 324.827 567.79 323.108C567.79 321.604 566.184 320.959 568.02 319.885C569.856 318.811 570.774 320.315 573.528 320.315C576.052 320.315 576.052 320.1 578.806 320.1C581.331 320.1 581.331 320.1 584.085 319.67C587.757 320.1 588.216 319.67 590.511 320.53Z" fill="#34323C"/>
<path d="M670.376 412.708C668.54 412.923 666.934 412.708 665.327 412.708C663.721 412.493 661.885 412.493 660.508 412.063C659.131 411.634 657.524 411.204 656.147 410.344C655 409.7 654.082 408.625 653.164 407.551C652.246 406.692 651.557 405.617 650.869 404.543C650.18 403.469 649.492 402.609 649.033 401.535C648.574 400.461 648.115 399.386 648.115 398.312C647.885 397.238 647.656 396.163 647.656 394.874C647.656 393.155 648.574 392.94 648.574 391.222C648.574 389.503 647.885 389.503 647.885 387.784C647.885 386.065 648.115 386.065 648.115 384.131C648.115 382.412 648.344 382.412 648.344 380.478C648.344 378.759 648.344 378.759 648.344 377.041C648.344 375.322 647.656 375.322 647.656 373.603C647.656 371.884 647.426 371.884 647.426 370.165C647.426 368.446 648.115 368.231 648.115 366.512C648.115 364.793 648.115 364.793 648.115 363.074C648.115 361.356 648.115 361.356 648.115 359.637C648.115 357.918 648.115 357.918 648.115 356.199C648.115 354.48 647.656 354.48 647.656 352.761C647.656 351.042 648.115 350.827 648.115 349.108C648.115 347.389 647.197 347.604 647.197 345.885C647.197 344.166 648.115 343.952 648.115 342.018C648.115 340.299 647.656 340.299 647.656 338.58C647.656 336.861 647.656 336.861 647.656 335.142C647.656 333.423 647.197 333.638 647.197 331.704C647.197 329.985 647.197 329.985 647.197 328.267C647.197 327.192 647.656 325.688 647.656 324.614C647.885 323.325 647.656 322.25 647.885 320.961C648.115 319.672 649.492 318.168 649.951 316.879C650.41 315.59 651.098 314.3 651.787 312.796C652.475 311.507 652.705 310.003 653.852 308.499C654.77 306.995 656.147 305.491 657.295 304.202C658.442 302.913 660.278 301.623 661.885 300.119C663.262 298.83 664.868 297.541 666.475 296.252C668.081 294.963 669.458 293.459 671.294 292.169C672.901 291.095 674.507 290.451 676.343 289.376C678.638 287.872 678.638 287.442 680.933 285.938C682.769 284.649 684.605 283.36 686.212 282.286C688.048 280.997 689.655 280.782 691.261 279.922C693.097 278.848 694.933 277.344 696.31 276.699C697.917 276.055 699.294 275.84 700.671 275.625C702.048 275.625 702.507 276.699 703.425 277.129C704.343 277.559 705.49 277.774 706.179 278.848C706.867 279.707 707.326 280.782 707.785 282.071C708.244 283.36 707.785 285.079 708.015 286.583C708.244 287.872 708.703 289.161 708.703 290.665C708.703 292.169 709.162 293.459 709.162 295.178C709.162 297.541 709.392 297.326 709.392 299.69C709.392 302.053 709.392 302.053 709.392 304.417C709.392 306.78 710.998 306.78 709.162 309.788C707.097 313.011 706.179 311.937 703.195 313.871C700.441 315.59 700.441 315.59 697.458 317.309C694.704 319.027 694.704 318.383 691.72 320.102C688.966 321.821 688.278 323.754 686.212 323.11C684.146 322.465 685.982 321.176 685.982 318.813C685.982 316.449 685.753 316.664 685.753 314.3C685.753 311.937 685.982 311.937 685.982 309.573C685.982 308.069 686.212 306.35 685.982 305.491C685.523 304.202 684.605 303.772 683.458 303.772C682.31 303.772 680.933 304.632 678.868 305.706C677.032 306.78 675.655 307.855 674.507 309.359C673.36 310.648 673.13 311.937 672.671 313.656C672.442 314.945 671.524 316.449 671.524 317.738C671.524 319.672 671.524 319.672 671.524 321.821C671.524 323.754 672.212 323.54 672.212 325.473C672.212 327.407 671.294 328.052 671.294 329.985C671.294 331.919 671.524 331.919 671.524 334.068C671.524 336.002 671.753 336.002 671.753 337.935C671.753 339.869 672.212 339.869 672.212 341.803C672.212 343.737 671.524 344.166 671.524 346.1C671.524 348.034 671.983 347.819 671.983 349.968C671.983 351.902 671.753 352.116 671.753 354.05C671.753 355.984 671.753 355.984 671.753 358.133C671.753 360.066 671.294 360.281 671.294 362.43C671.294 364.364 671.753 364.364 671.753 366.297C671.753 368.231 671.294 368.446 671.294 370.38C671.294 372.314 671.983 372.314 671.983 374.247C671.983 376.181 671.294 376.396 671.294 378.545C671.294 380.478 671.983 380.478 671.983 382.412C671.983 384.346 671.983 384.346 671.983 386.495C671.983 387.999 671.753 389.288 672.212 390.362C672.671 391.651 673.819 392.511 674.737 393.155C675.884 393.8 677.491 393.8 679.327 393.37C681.163 392.94 682.769 392.511 684.146 391.651C685.523 390.577 686.212 389.288 686.671 387.784C687.13 386.495 688.507 384.99 688.507 383.486C688.507 381.123 688.277 381.338 688.277 378.974C688.277 376.611 688.048 376.826 688.048 374.462C688.048 372.099 688.048 372.099 688.048 369.95C688.048 367.587 688.048 367.587 688.048 365.438C688.048 363.074 687.589 363.289 687.589 361.141C687.589 358.777 687.359 358.992 687.359 356.629C687.359 354.265 689.655 352.761 687.819 351.902C685.983 351.042 685.064 352.976 682.54 353.835C680.015 354.91 679.327 356.414 677.491 355.554C675.655 354.91 677.491 353.835 677.491 352.116C677.491 350.183 676.802 350.612 676.802 348.679C676.802 346.745 677.261 346.745 677.261 344.811C677.261 342.877 677.032 343.092 677.032 341.158C677.032 339.225 675.196 339.225 677.032 337.076C679.097 334.712 680.015 335.572 682.769 334.283C685.523 332.994 685.523 333.208 688.277 331.704C691.032 330.415 691.032 330.845 693.786 329.556C696.54 328.052 696.54 327.622 699.294 326.118C702.048 324.614 702.048 324.614 704.802 322.895C707.556 321.176 708.015 319.672 710.08 320.102C711.916 320.531 710.539 322.035 710.539 324.399C710.539 326.762 710.08 327.192 710.08 329.556C710.08 331.919 709.851 332.134 709.851 334.498C709.851 336.861 709.851 336.861 709.851 339.439C709.851 341.803 710.31 341.588 710.31 343.952C710.31 346.315 710.08 346.53 710.08 348.893C710.08 351.257 710.31 351.257 710.31 353.62C710.31 355.984 709.851 356.199 709.851 358.562C709.851 360.926 710.31 360.926 710.31 363.289C710.31 365.653 710.31 365.653 710.31 368.231C710.31 370.595 710.539 370.595 710.539 372.958C710.539 375.322 710.08 375.536 710.08 377.9C710.08 380.263 710.769 380.049 710.769 382.627C710.769 384.99 709.851 385.205 709.851 387.784C709.851 390.147 710.539 390.147 710.539 392.511C710.539 394.874 710.769 394.874 710.769 397.238C710.769 399.601 710.08 399.816 710.08 402.18C710.08 404.543 711.687 404.758 710.08 406.692C708.703 408.411 708.244 407.336 705.949 407.766C703.654 407.981 703.654 407.336 701.589 407.551C699.294 407.766 699.294 408.411 697.228 408.625C697.228 408.196 696.999 406.477 696.31 404.328C695.851 403.039 694.704 401.965 694.245 400.461C693.786 399.171 694.015 397.238 693.556 395.949C693.097 397.023 691.72 398.527 690.802 400.246C690.114 401.535 689.425 402.824 688.277 403.898C687.359 404.973 686.901 406.477 685.524 407.551C684.376 408.625 682.769 409.27 681.392 410.129C680.015 410.989 678.409 411.634 677.032 412.063C675.425 412.493 673.819 412.278 672.212 412.493C671.065 412.278 671.065 412.708 670.376 412.708Z" fill="#34323C"/>
<path d="M75.0493 419.367C76.8853 417.863 77.3443 418.938 80.0983 418.723C82.8523 418.508 82.8523 418.293 85.3769 418.293C88.1309 418.078 88.1309 418.508 90.6554 418.508C93.4095 418.293 93.4095 418.508 95.934 418.293C98.688 418.078 98.688 417.648 101.213 417.648C103.967 417.434 103.967 418.078 106.491 417.863C109.245 417.863 109.245 417.434 111.77 417.219C114.524 417.219 114.524 417.219 117.048 417.219C119.802 417.219 119.802 416.574 122.327 416.574C125.081 416.574 125.54 415.715 127.376 417.004C129.212 418.293 127.146 418.508 127.146 420.227C127.146 421.946 127.376 421.946 127.376 423.665C127.376 425.383 128.294 425.384 128.294 427.102C128.294 428.821 129.9 429.251 127.835 430.755C126.228 432.044 125.081 430.97 122.786 430.97C120.261 431.185 120.261 430.755 117.737 430.755C115.212 430.97 115.212 431.4 112.688 431.615C110.163 431.829 110.163 431.615 107.639 431.829C105.114 432.044 105.114 431.4 102.59 431.615C100.065 431.829 99.3765 430.97 97.5405 432.259C95.7045 433.548 97.9995 433.978 97.9995 435.482C97.9995 437.201 97.9995 437.201 97.9995 438.705C97.9995 440.424 97.9995 440.424 97.9995 442.143C97.9995 443.862 97.9995 443.862 97.9995 445.581C97.9995 447.3 97.311 447.3 97.311 449.018C97.311 450.737 97.77 450.737 97.77 452.241C97.77 453.96 97.311 453.96 97.311 455.679C97.311 457.398 95.7045 458.258 97.311 459.332C98.9175 460.191 100.065 458.472 102.36 458.258C104.655 457.828 104.655 458.472 106.95 458.043C109.245 457.828 109.245 457.183 111.77 456.968C114.065 456.754 114.065 456.968 116.589 456.754C118.884 456.539 119.343 455.679 120.95 456.539C122.556 457.398 121.179 457.828 121.179 459.117C121.179 460.621 121.409 460.621 121.409 462.125C121.409 463.629 121.868 463.629 121.868 464.918C121.868 466.422 121.868 466.422 121.868 467.926C121.868 469.431 123.474 469.86 121.868 470.935C120.261 472.224 119.343 471.149 117.048 471.364C114.753 471.579 114.753 471.579 112.229 472.009C109.934 472.439 109.934 472.009 107.409 472.439C105.114 472.868 105.114 473.083 102.59 473.513C100.295 473.943 99.147 472.868 97.5405 474.372C95.7045 476.091 98.229 476.091 98.229 477.81C98.229 479.529 97.311 479.744 97.311 481.463C97.311 483.182 97.311 483.182 97.311 484.901C97.311 486.62 97.5405 486.62 97.5405 488.339C97.5405 490.057 97.5405 490.057 97.5405 491.776C97.5405 493.495 97.77 493.495 97.77 495.214C97.77 496.933 98.229 496.718 98.229 498.437C98.229 500.156 97.311 500.371 97.311 502.09C97.311 503.809 98.229 503.594 98.229 505.313C98.229 507.032 97.311 507.246 97.311 508.965C97.311 510.684 97.0815 510.684 97.0815 512.403C97.0815 514.122 97.0815 514.122 97.0815 515.841C97.0815 517.56 99.147 517.13 97.311 519.064C95.7045 520.783 95.2455 519.709 92.9505 520.568C90.6554 521.427 90.6554 521.213 88.3604 522.072C86.0654 522.932 86.0654 523.146 83.7704 524.221C81.4753 525.295 81.4753 525.08 79.1803 526.154C76.8853 527.229 76.4263 528.733 74.8198 528.303C72.9837 527.873 74.8198 526.584 74.8198 524.865C74.8198 523.146 74.1313 523.361 74.1313 521.642C74.1313 519.709 74.5903 519.494 74.5903 517.775C74.5903 516.056 74.3608 516.056 74.3608 514.122C74.3608 512.403 74.1313 512.403 74.1313 510.469C74.1313 508.536 74.5903 508.536 74.5903 506.602C74.5903 504.883 74.5903 504.883 74.3608 502.949C74.3608 501.23 74.8198 501.015 74.8198 499.082C74.8198 497.363 74.8198 497.363 74.8198 495.429C74.8198 493.71 74.5903 493.71 74.5903 491.776C74.5903 490.057 74.8198 489.843 74.8198 488.124C74.8198 486.405 74.3608 486.405 74.3608 484.686C74.3608 482.967 74.5903 482.752 74.5903 481.033C74.5903 479.314 74.3608 479.314 74.3608 477.38C74.3608 475.662 73.6723 475.662 73.6723 473.943C73.6723 472.009 73.9018 472.009 73.9018 470.29C73.9018 468.356 74.3608 468.356 74.3608 466.422C74.3608 464.704 74.1313 464.704 74.1313 462.77C74.1313 461.051 74.5903 460.836 74.5903 459.117C74.5903 457.398 74.3608 457.398 74.3608 455.464C74.3608 453.745 73.9018 453.745 73.6723 452.027C73.6723 450.093 74.1313 450.093 74.1313 448.374C74.1313 446.44 73.9018 446.655 73.9018 444.721C73.9018 443.002 73.4427 443.002 73.4427 441.069C73.4427 439.135 74.1313 439.135 74.1313 437.201C74.1313 435.482 73.6723 435.482 73.6723 433.548C73.6723 431.615 73.4427 431.829 73.4427 429.896C73.4427 427.962 73.4427 428.177 73.4427 426.243C73.4427 424.309 73.9018 424.309 73.4427 422.59C73.6723 421.301 73.2132 420.871 75.0493 419.367Z" fill="#AB31FF"/>
<path d="M194.851 417.435C196.687 418.725 195.31 418.939 195.31 420.873C195.31 422.592 195.539 422.592 195.539 424.526C195.539 426.245 194.851 426.245 194.851 427.964C194.851 429.683 196.687 430.112 194.851 431.402C193.244 432.476 192.785 431.616 190.26 431.616C187.736 431.402 187.736 430.972 185.211 430.972C182.687 430.972 182.687 431.187 180.162 431.187C177.638 431.187 177.638 430.972 175.113 430.757C172.589 430.757 172.589 431.187 170.064 431.187C167.54 431.187 166.622 429.683 164.786 430.542C162.95 431.616 164.556 432.261 164.556 433.765C164.556 435.269 164.786 435.269 164.786 436.773C164.786 438.277 165.704 438.277 165.704 439.781C165.704 441.285 165.474 441.285 165.474 442.789C165.474 444.293 165.474 444.293 165.474 445.797C165.474 447.301 164.786 447.301 164.786 448.805C164.786 450.31 165.704 450.31 165.704 452.028C165.704 453.532 163.638 453.747 165.474 455.037C167.081 456.111 167.54 455.466 169.835 455.681C172.13 455.681 172.13 455.466 174.425 455.681C176.72 455.896 176.72 455.466 179.015 455.681C181.31 455.896 181.31 455.681 183.605 455.896C185.9 456.111 187.047 455.251 188.654 456.326C190.26 457.4 188.883 458.045 188.883 459.549C188.883 461.053 188.195 461.053 188.195 462.342C188.195 463.846 188.654 463.846 188.654 465.35C188.654 466.854 188.195 466.854 188.195 468.143C188.195 469.647 190.031 470.077 188.195 470.936C186.588 471.796 186.129 471.151 183.834 470.936C181.539 470.722 181.539 470.292 179.244 470.077C176.949 469.862 176.949 470.507 174.654 470.292C172.359 470.077 172.359 469.862 170.064 469.647C167.769 469.432 166.622 468.358 165.015 469.218C163.409 470.292 165.245 470.936 165.245 472.44C165.245 473.945 165.474 473.945 165.474 475.449C165.474 476.953 165.933 476.953 165.933 478.457C165.933 479.961 165.933 479.961 165.933 481.465C165.933 482.969 165.933 482.969 165.933 484.473C165.933 485.977 165.704 485.977 165.704 487.481C165.704 488.985 165.474 488.985 165.474 490.489C165.474 491.993 165.015 491.993 165.015 493.497C165.015 495.001 163.638 495.431 165.474 496.505C167.31 497.794 167.999 496.935 170.753 497.15C173.277 497.365 173.277 496.935 175.802 497.15C178.326 497.365 178.326 498.009 180.851 498.224C183.375 498.439 183.375 498.654 185.9 498.869C188.424 499.298 188.424 499.084 191.178 499.513C193.703 499.943 194.162 498.869 196.228 500.158C198.064 501.447 196.457 501.447 196.457 502.951C196.457 504.455 196.916 504.455 196.916 505.959C196.916 507.463 195.998 507.248 195.998 508.752C195.998 510.256 196.916 510.471 196.916 511.975C196.916 513.479 197.834 513.909 196.228 514.554C194.392 515.198 193.933 513.909 191.408 513.479C188.883 513.05 188.883 513.05 186.588 512.62C184.064 512.19 184.064 512.405 181.539 511.975C179.015 511.761 179.015 511.761 176.49 511.331C173.966 511.116 173.966 510.901 171.671 510.686C169.146 510.471 169.146 510.686 166.622 510.471C164.097 510.256 164.097 510.256 161.573 510.256C159.048 510.256 159.048 510.042 156.524 510.042C153.999 510.042 153.999 510.042 151.475 510.042C148.95 510.042 148.95 510.471 146.426 510.686C143.901 510.686 143.212 511.546 141.606 510.686C139.77 509.612 141.376 509.182 141.376 507.678C141.376 506.174 141.147 506.174 141.147 504.455C141.147 502.951 141.606 502.951 141.606 501.232C141.606 499.728 141.376 499.728 141.376 498.009C141.376 496.505 141.835 496.505 141.835 494.786C141.835 493.282 141.835 493.282 141.835 491.563C141.835 490.059 141.606 490.059 141.606 488.34C141.606 486.836 141.835 486.836 141.835 485.117C141.835 483.613 141.376 483.613 141.376 481.894C141.376 480.39 141.606 480.39 141.606 478.672C141.606 477.167 141.376 477.167 141.376 475.449C141.376 473.945 140.688 473.945 140.688 472.226C140.688 470.722 140.917 470.722 140.917 469.003C140.917 467.499 141.376 467.499 141.376 465.78C141.376 464.276 141.147 464.276 141.147 462.557C141.147 461.053 141.606 461.053 141.606 459.334C141.606 457.83 141.376 457.83 141.376 456.111C141.376 454.607 140.688 454.607 140.688 452.888C140.688 451.384 141.147 451.384 141.147 449.665C141.147 448.161 140.917 448.161 140.917 446.442C140.917 444.938 140.458 444.938 140.458 443.219C140.458 441.715 141.147 441.715 141.147 439.996C141.147 438.492 140.688 438.492 140.688 436.773C140.688 435.269 140.458 435.269 140.458 433.55C140.458 432.046 140.458 432.046 140.458 430.327C140.458 428.823 140.458 428.823 140.458 427.104C140.458 425.6 141.147 425.6 141.147 423.881C141.147 422.377 140.688 422.377 140.688 420.658C140.688 419.154 141.376 419.154 141.376 417.435C141.376 415.931 139.311 415.502 141.147 414.427C142.983 413.353 143.671 414.212 146.196 414.212C148.95 414.212 148.95 414.212 151.475 414.212C154.229 414.212 154.229 414.427 156.753 414.427C159.507 414.427 159.507 414.212 162.032 414.212C164.786 414.212 164.786 414.642 167.31 414.642C170.064 414.642 170.064 414.642 172.589 414.642C175.343 414.642 175.343 414.427 177.867 414.427C180.621 414.427 180.621 414.427 183.146 414.642C185.9 414.642 185.9 415.072 188.424 414.857C192.326 416.791 193.015 416.146 194.851 417.435Z" fill="#AB31FF"/>
<path d="M263.47 420.444C265.306 422.163 263.929 422.378 263.929 424.526C263.929 426.675 264.159 426.675 264.159 428.824C264.159 430.972 263.47 430.757 263.47 432.906C263.47 435.055 265.306 435.484 263.47 436.774C261.864 438.063 261.405 436.988 258.88 436.774C256.356 436.559 256.356 435.914 253.831 435.699C251.307 435.484 251.307 435.914 248.782 435.699C246.258 435.484 246.258 435.27 243.733 435.055C241.209 434.84 241.209 435.27 238.684 435.055C236.16 434.84 235.242 432.906 233.406 433.98C231.57 435.055 233.176 435.914 233.176 437.633C233.176 439.352 233.406 439.352 233.406 441.071C233.406 442.79 234.324 443.005 234.324 444.724C234.324 446.442 234.094 446.442 234.094 448.161C234.094 449.88 234.094 449.88 234.094 451.599C234.094 453.318 233.406 453.318 233.406 455.037C233.406 456.756 234.324 456.971 234.324 458.69C234.324 460.409 232.258 460.409 234.094 461.913C235.701 463.417 236.16 462.772 238.455 463.202C240.75 463.632 240.75 463.202 243.045 463.632C245.34 464.061 245.34 463.632 247.635 464.061C249.93 464.491 249.93 464.491 252.225 464.921C254.52 465.35 255.667 464.491 257.274 465.995C258.88 467.499 257.503 467.929 257.503 469.648C257.503 471.367 256.815 471.152 256.815 472.871C256.815 474.59 257.274 474.59 257.274 476.308C257.274 478.027 256.815 478.027 256.815 479.746C256.815 481.465 258.651 482.11 256.815 482.969C255.208 483.829 254.749 482.969 252.454 482.325C250.159 481.68 250.159 481.25 247.864 480.606C245.569 480.176 245.569 480.606 243.274 480.176C240.979 479.746 240.979 479.317 238.684 478.887C236.389 478.457 235.242 476.953 233.635 477.813C232.029 478.672 233.865 479.746 233.865 481.465C233.865 483.184 234.094 483.184 234.094 484.903C234.094 486.622 234.324 486.622 234.553 488.341C234.553 490.06 234.553 490.06 234.553 491.779C234.553 493.498 234.553 493.498 234.553 495.216C234.553 496.935 234.324 496.935 234.324 498.654C234.324 500.373 234.094 500.373 234.094 502.092C234.094 503.811 233.635 503.596 233.635 505.315C233.635 507.034 232.258 507.249 234.094 508.968C235.93 510.687 236.619 510.042 239.373 510.687C241.897 511.546 241.897 510.901 244.422 511.546C246.946 512.406 246.946 512.835 249.471 513.695C251.995 514.554 251.995 514.554 254.52 515.414C257.044 516.273 257.044 516.273 259.798 517.133C262.323 517.992 262.782 516.703 264.847 518.637C266.683 520.355 265.077 520.355 265.077 522.074C265.077 523.793 265.536 524.008 265.536 525.727C265.536 527.446 264.618 527.231 264.618 528.95C264.618 530.669 265.536 531.099 265.536 532.818C265.536 534.536 266.454 535.396 264.847 535.826C263.011 536.47 262.552 534.751 260.028 533.677C257.503 532.818 257.503 532.818 255.208 531.743C252.684 530.884 252.684 530.884 250.159 530.024C247.635 529.165 247.635 529.165 245.11 528.305C242.586 527.446 242.586 527.231 240.291 526.372C237.766 525.512 237.766 525.727 235.471 524.868C232.947 524.008 232.947 524.008 230.422 523.149C227.898 522.289 227.898 522.289 225.373 521.645C222.849 521 222.849 521 220.324 520.355C217.799 519.711 217.799 520.141 215.275 519.496C212.75 518.851 212.062 519.496 210.455 517.992C208.619 516.273 210.226 516.273 210.226 514.554C210.226 512.835 209.996 512.835 209.996 511.116C209.996 509.397 210.455 509.612 210.455 507.893C210.455 506.174 210.226 506.174 210.226 504.456C210.226 502.737 210.685 502.952 210.685 501.233C210.685 499.514 210.685 499.514 210.685 497.795C210.685 496.076 210.455 496.076 210.455 494.357C210.455 492.638 210.685 492.638 210.685 491.134C210.685 489.415 210.226 489.415 210.226 487.696C210.226 485.977 210.455 485.977 210.455 484.473C210.455 482.754 210.226 482.754 210.226 481.035C210.226 479.317 209.537 479.317 209.537 477.598C209.537 475.879 209.767 475.879 209.767 474.375C209.767 472.656 210.226 472.871 210.226 471.152C210.226 469.433 209.996 469.433 209.996 467.714C209.996 465.995 210.455 465.995 210.455 464.491C210.455 462.772 210.226 462.772 210.226 461.053C210.226 459.334 209.537 459.334 209.537 457.615C209.537 455.896 209.996 455.896 209.996 454.392C209.996 452.673 209.767 452.673 209.767 450.955C209.767 449.236 209.308 449.236 209.308 447.517C209.308 445.798 209.996 446.013 209.996 444.294C209.996 442.575 209.537 442.575 209.537 440.856C209.537 439.137 209.308 439.137 209.308 437.418C209.308 435.699 209.308 435.699 209.308 433.98C209.308 432.261 209.308 432.261 209.308 430.543C209.308 428.824 209.996 428.824 209.996 427.32C209.996 425.601 209.537 425.601 209.537 423.882C209.537 422.163 210.226 422.163 210.226 420.659C210.226 418.94 208.16 418.51 209.996 417.436C211.832 416.362 212.521 417.221 215.045 417.436C217.799 417.436 217.799 417.436 220.324 417.651C223.078 417.866 223.078 418.08 225.603 418.295C228.357 418.51 228.357 418.08 230.881 418.295C233.635 418.51 233.635 418.94 236.16 418.94C238.914 419.155 238.914 418.94 241.438 419.155C244.192 419.37 244.192 419.155 246.717 419.155C249.471 419.37 249.471 419.37 251.995 419.37C254.749 419.585 254.749 420.014 257.274 419.799C260.946 419.585 261.405 418.94 263.47 420.444Z" fill="#AB31FF"/>
<path d="M302.256 422.806C304.092 424.525 302.715 424.74 302.715 426.888C302.715 429.037 302.945 429.037 302.945 431.186C302.945 433.334 302.256 433.334 302.256 435.483C302.256 437.632 302.027 437.632 302.027 439.78C302.027 441.929 302.715 442.144 302.715 444.292C302.715 446.441 301.797 446.441 301.797 448.59C301.797 450.738 302.256 450.953 302.256 453.102C302.256 455.25 302.027 455.25 302.027 457.399C302.027 459.548 302.715 459.762 302.715 461.911C302.715 464.06 301.797 463.845 301.797 466.208C301.797 468.357 301.568 468.357 301.568 470.506C301.568 472.654 301.797 472.654 301.797 475.018C301.797 477.166 302.715 477.381 302.715 479.53C302.715 481.679 302.486 481.679 302.486 483.827C302.486 485.976 302.486 485.976 302.486 488.124C302.486 490.273 301.797 490.058 301.797 492.422C301.797 494.57 302.715 494.785 302.715 497.149C302.715 499.297 302.486 499.297 302.486 501.446C302.486 503.595 301.797 503.38 301.797 505.528C301.797 507.677 302.256 507.892 302.256 510.041C302.256 512.189 302.715 512.404 302.715 514.553C302.715 516.701 302.715 516.701 302.715 519.065C302.715 521.213 302.715 521.213 302.715 523.362C302.715 525.511 302.715 525.511 302.715 527.659C302.715 529.808 300.191 529.593 302.027 531.957C303.633 534.105 304.551 532.816 307.076 533.675C309.371 534.535 309.371 534.965 311.895 536.039C314.19 536.898 314.19 537.113 316.715 537.973C319.01 538.832 319.01 538.402 321.535 539.262C323.83 540.336 323.83 540.981 326.354 541.84C328.649 542.915 329.567 540.981 331.403 543.129C333.01 545.278 330.944 545.278 330.944 547.427C330.944 549.575 330.485 549.361 330.485 551.724C330.485 553.873 330.715 554.088 330.715 556.236C330.715 558.385 330.944 558.6 330.944 560.748C330.944 562.897 333.01 564.831 331.174 565.475C329.338 566.12 328.42 564.186 325.895 562.897C323.371 561.608 323.371 561.608 320.617 560.533C318.092 559.244 318.092 559.029 315.338 557.955C312.813 556.666 312.813 556.666 310.059 555.377C307.535 554.088 307.535 553.873 304.781 552.583C302.256 551.294 302.256 551.724 299.502 550.65C296.978 549.575 296.978 549.146 294.224 548.071C291.699 546.997 291.699 547.642 288.945 546.352C286.421 545.278 286.421 544.419 283.667 543.344C281.142 542.27 280.683 543.559 278.847 541.411C277.011 539.262 278.847 539.692 278.847 537.758C278.847 535.824 278.847 535.609 278.847 533.675C278.847 531.742 278.618 531.527 278.618 529.593C278.618 527.659 278.159 527.444 278.159 525.511C278.159 523.577 279.077 523.792 279.077 521.858C279.077 519.924 278.159 519.494 278.159 517.561C278.159 515.627 279.077 515.842 279.077 513.908C279.077 511.974 279.306 511.974 279.306 510.041C279.306 508.107 279.306 508.107 279.306 505.958C279.306 504.024 279.077 503.809 279.077 501.876C279.077 499.942 279.077 499.942 279.077 497.793C279.077 495.86 279.306 495.86 279.306 493.926C279.306 491.992 279.077 491.777 279.077 489.843C279.077 487.91 279.077 487.91 279.077 485.761C279.077 483.827 279.306 483.827 279.306 481.679C279.306 479.745 279.306 479.745 279.306 477.596C279.306 475.662 278.618 475.448 278.618 473.514C278.618 471.58 279.077 471.58 279.077 469.646C279.077 467.712 278.847 467.498 278.847 465.564C278.847 463.63 278.618 463.415 278.618 461.481C278.618 459.548 279.077 459.548 279.077 457.614C279.077 455.68 278.847 455.68 278.847 453.531C278.847 451.598 279.306 451.598 279.306 449.664C279.306 447.73 279.306 447.73 279.306 445.582C279.306 443.648 279.077 443.433 279.077 441.499C279.077 439.565 279.306 439.565 279.306 437.417C279.306 435.483 278.847 435.268 278.847 433.334C278.847 431.401 279.077 431.401 279.077 429.252C279.077 427.318 278.847 427.103 278.847 425.169C278.847 423.236 276.552 422.161 278.388 420.872C279.995 419.583 281.142 421.087 283.437 421.087C285.732 421.302 285.732 421.732 288.027 421.732C290.322 421.947 290.322 421.732 292.617 421.947C294.912 422.161 295.142 422.806 297.437 422.591C300.191 422.376 300.65 421.302 302.256 422.806Z" fill="#AB31FF"/>
<path d="M368.353 582.665C366.747 583.739 366.288 582.235 363.993 581.161C361.698 580.087 361.698 580.301 359.403 579.227C357.108 578.153 357.108 577.508 354.813 576.434C352.518 575.36 352.518 575.145 350.223 574.07C347.927 572.996 347.009 574.715 345.403 572.351C343.567 569.773 346.091 570.203 346.091 567.624C346.091 565.261 345.632 564.831 345.632 562.468C345.632 560.104 345.862 560.104 345.862 557.741C345.862 555.377 345.173 554.947 345.173 552.584C345.173 550.22 346.091 550.435 346.091 548.072C346.091 545.708 346.321 545.708 346.321 543.345C346.321 540.981 346.091 540.767 346.091 538.403C346.091 536.04 345.173 535.61 345.173 533.246C345.173 530.883 345.403 530.883 345.403 528.519C345.403 526.156 345.403 526.156 345.403 523.577C345.403 521.214 346.091 521.429 346.091 518.85C346.091 516.487 345.173 516.057 345.173 513.694C345.173 511.33 345.403 511.33 345.403 508.967C345.403 506.603 346.091 506.818 346.091 504.24C346.091 501.876 345.632 501.661 345.632 499.298C345.632 496.934 345.173 496.72 345.173 494.356C345.173 491.993 345.173 491.992 345.173 489.414C345.173 487.051 345.173 487.051 345.173 484.472C345.173 482.109 345.173 482.109 345.173 479.53C345.173 477.167 345.862 477.167 345.862 474.803C345.862 472.44 345.403 472.225 345.403 469.862C345.403 467.498 345.862 467.498 345.862 465.135C345.862 462.771 345.862 462.771 345.862 460.193C345.862 457.829 345.173 457.614 345.173 455.251C345.173 452.887 345.862 452.887 345.862 450.524C345.862 448.16 344.944 447.945 344.944 445.582C344.944 443.218 345.403 443.218 345.403 440.64C345.403 438.277 345.862 438.277 345.862 435.698C345.862 433.335 345.632 433.12 345.632 430.756C345.632 428.393 343.796 427.533 345.403 425.815C347.009 424.31 347.698 425.6 349.993 425.815C352.288 426.029 352.288 426.029 354.583 426.244C356.878 426.459 356.878 426.459 359.173 426.674C361.468 426.889 361.468 427.104 363.763 427.319C366.058 427.533 366.747 425.815 368.353 427.748C370.189 429.897 367.894 430.327 367.894 432.905C367.894 435.483 368.353 435.483 368.353 438.062C368.353 440.64 367.894 440.64 367.894 443.218C367.894 445.797 368.812 446.012 368.812 448.59C368.812 451.168 367.894 451.168 367.894 453.747C367.894 456.325 367.894 456.325 367.894 458.904C367.894 461.482 368.124 461.482 368.124 464.06C368.124 466.639 368.124 466.639 368.124 469.217C368.124 471.795 368.353 471.795 368.353 474.374C368.353 476.952 368.812 476.952 368.812 479.745C368.812 482.324 367.894 482.109 367.894 484.687C367.894 487.266 368.812 487.48 368.812 490.059C368.812 492.637 367.894 492.422 367.894 495.001C367.894 497.579 367.665 497.579 367.665 500.157C367.665 502.736 367.665 502.736 367.665 505.314C367.665 507.892 367.894 507.892 367.894 510.471C367.894 513.049 367.894 513.049 367.894 515.627C367.894 518.206 367.665 518.206 367.665 520.784C367.665 523.363 367.894 523.577 367.894 526.156C367.894 528.734 367.894 528.734 367.894 531.313C367.894 533.891 367.665 533.891 367.665 536.469C367.665 539.048 367.665 539.048 367.665 541.626C367.665 544.204 368.353 544.419 368.353 546.998C368.353 549.576 367.894 549.361 367.894 551.939C367.894 554.518 368.124 554.518 368.124 557.096C368.124 559.675 368.353 559.675 368.353 562.468C368.353 565.046 367.894 564.831 367.894 567.41C367.894 569.988 368.124 569.988 368.124 572.566C368.124 575.145 367.206 574.93 367.665 577.723C368.583 580.516 369.96 581.591 368.353 582.665Z" fill="#AB31FF"/>
<path d="M406.223 429.894C408.288 431.828 407.37 432.473 407.829 435.266C408.518 438.274 408.747 438.059 409.206 441.067C409.895 444.075 409.206 444.075 409.895 447.083C410.583 450.091 410.354 450.091 411.042 452.885C411.731 455.893 412.419 455.678 412.878 458.686C413.567 461.694 412.649 461.694 413.337 464.702C414.026 467.71 414.485 467.495 415.173 470.503C415.862 473.512 415.403 473.512 416.091 476.52C416.78 479.528 417.468 479.528 418.157 482.536C418.845 485.544 417.927 485.544 418.616 488.767C419.304 491.775 419.075 491.775 419.763 494.783C420.452 497.791 420.681 497.791 421.14 500.799C421.829 503.807 422.517 503.807 423.206 506.815C423.894 509.823 423.665 509.823 424.124 513.046C424.812 516.054 424.812 516.054 425.501 519.277C426.189 522.286 423.665 525.294 426.419 525.938C428.943 526.583 425.96 522.5 425.96 519.492C425.96 516.484 426.189 516.484 426.189 513.691C426.189 510.683 426.878 510.898 426.878 507.89C426.878 504.882 426.419 504.882 426.419 501.874C426.419 498.865 425.96 498.865 425.96 495.857C425.96 492.849 425.96 492.849 425.96 489.841C425.96 486.833 425.96 486.833 425.96 483.825C425.96 480.817 425.96 480.817 425.96 477.809C425.96 474.801 426.648 475.016 426.648 472.007C426.648 468.999 426.189 468.999 426.189 465.991C426.189 462.983 426.648 462.983 426.648 460.19C426.648 457.182 426.648 457.182 426.648 454.174C426.648 451.166 425.96 451.166 425.96 448.158C425.96 445.15 426.648 445.15 426.648 442.356C426.648 439.348 425.73 439.348 425.73 436.34C425.73 433.332 424.353 432.473 426.189 430.539C428.025 428.605 428.714 431.183 431.468 431.398C434.222 431.613 434.222 431.183 436.747 431.398C439.501 431.613 439.501 431.398 442.025 431.398C444.779 431.613 445.697 429.035 447.533 431.398C449.369 433.547 447.533 434.621 447.533 437.844C447.533 440.852 447.533 440.852 447.533 443.86C447.533 446.868 447.304 446.868 447.304 449.877C447.304 452.885 447.074 452.885 447.074 455.893C447.074 458.901 446.615 458.901 446.615 461.909C446.615 464.917 447.074 464.917 447.074 468.14C447.074 471.148 446.615 471.148 446.615 474.156C446.615 477.164 447.533 477.379 447.533 480.387C447.533 483.395 446.615 483.395 446.615 486.403C446.615 489.411 446.615 489.411 446.615 492.419C446.615 495.428 446.845 495.428 446.845 498.436C446.845 501.444 446.845 501.444 446.845 504.452C446.845 507.46 447.074 507.46 447.074 510.683C447.074 513.691 447.533 513.691 447.533 516.914C447.533 519.922 446.615 519.707 446.615 522.93C446.615 525.938 447.533 526.153 447.533 529.161C447.533 532.169 446.615 531.954 446.615 535.177C446.615 538.185 446.386 538.185 446.386 541.194C446.386 544.202 446.386 544.202 446.386 547.21C446.386 550.218 446.615 550.218 446.615 553.441C446.615 556.449 446.615 556.449 446.615 559.457C446.615 562.465 446.386 562.465 446.386 565.473C446.386 568.481 446.615 568.696 446.615 571.704C446.615 574.712 446.615 574.712 446.615 577.72C446.615 580.728 446.386 580.728 446.386 583.737C446.386 586.745 446.386 586.745 446.386 589.753C446.386 592.761 447.074 592.976 447.074 595.984C447.074 598.992 446.615 598.992 446.615 602C446.615 605.008 446.845 605.008 446.845 608.231C446.845 611.239 448.681 612.958 447.074 614.677C445.468 616.181 444.55 613.388 442.025 612.743C439.73 611.884 439.73 612.098 437.206 611.239C434.911 610.38 434.91 609.95 432.386 609.09C430.091 608.231 429.632 610.165 427.796 607.801C425.73 605.223 427.107 605.008 426.419 602C425.73 598.992 425.96 598.992 425.501 595.984C424.812 592.976 424.583 592.976 423.894 589.968C423.206 586.959 423.435 586.959 422.976 583.951C422.288 580.943 422.058 580.943 421.37 577.935C420.681 574.927 420.222 574.927 419.534 571.919C418.845 568.911 419.075 568.911 418.386 565.903C417.698 562.895 418.386 562.895 417.698 559.887C417.009 556.879 416.78 556.879 416.321 553.87C415.632 550.862 416.091 550.862 415.403 547.854C414.714 544.846 414.714 544.846 414.026 542.053C413.337 539.045 412.878 539.045 412.19 536.252C411.501 533.244 411.96 533.244 411.272 530.45C410.583 527.442 410.354 527.442 409.895 524.649C409.206 521.856 408.977 521.856 408.288 518.848C407.6 516.054 408.288 515.84 407.829 513.046C407.141 510.253 406.911 510.253 406.223 507.245C405.534 504.452 407.829 501.874 405.305 501.874C402.78 501.874 405.764 504.452 405.764 507.245C405.764 510.038 405.764 510.038 405.764 513.046C405.764 515.84 405.075 515.84 405.075 518.633C405.075 521.426 405.534 521.641 405.534 524.434C405.534 527.227 404.846 527.013 404.846 530.021C404.846 532.814 405.075 533.029 404.846 535.822C404.846 538.615 405.305 538.83 405.305 541.623C405.305 544.416 405.305 544.631 405.305 547.425C405.305 550.218 404.846 550.218 404.846 553.011C404.846 555.804 405.305 556.019 405.305 559.027C405.305 561.82 404.616 561.606 404.616 564.614C404.616 567.407 404.616 567.622 404.616 570.415C404.616 573.208 404.846 573.423 404.846 576.216C404.846 579.01 404.846 579.009 404.846 582.018C404.846 584.811 404.846 584.811 404.846 587.819C404.846 590.612 404.846 590.612 404.846 593.62C404.846 596.413 406.911 598.562 405.075 599.851C403.239 601.14 402.092 597.918 399.567 596.843C397.043 595.769 397.043 595.769 394.289 594.695C391.764 593.62 391.764 593.405 389.01 592.331C386.486 591.257 386.026 592.761 384.19 589.968C382.354 587.174 384.42 587.819 384.42 585.026C384.42 582.232 383.731 582.018 383.502 579.224C383.502 576.431 383.961 576.646 383.961 574.068C383.961 571.274 383.961 571.274 383.961 568.696C383.961 565.903 384.19 566.118 384.19 563.324C384.19 560.531 383.502 560.316 383.502 557.738C383.502 554.945 383.731 555.16 383.731 552.366C383.731 549.573 384.65 550.003 384.65 547.21C384.65 544.416 384.42 544.416 384.42 541.623C384.42 538.83 384.65 539.045 384.65 536.252C384.65 533.458 384.19 533.458 384.19 530.665C384.19 527.872 384.19 527.872 384.19 525.294C384.19 522.5 383.961 522.5 383.961 519.922C383.961 517.129 384.19 517.344 384.19 514.55C384.19 511.757 383.731 511.757 383.731 508.964C383.731 506.171 384.65 506.386 384.65 503.807C384.65 501.014 384.42 501.014 384.42 498.436C384.42 495.642 384.42 495.642 384.42 493.064C384.42 490.271 384.19 490.271 384.19 487.693C384.19 484.899 384.65 485.114 384.65 482.321C384.65 479.528 383.731 479.528 383.731 476.734C383.731 473.941 384.42 474.156 384.42 471.363C384.42 468.57 383.961 468.57 383.961 465.776C383.961 462.983 384.42 463.198 384.42 460.405C384.42 457.612 383.961 457.612 383.961 455.033C383.961 452.24 384.879 452.455 384.879 449.662C384.879 446.868 383.961 446.868 383.961 444.075C383.961 441.282 384.879 441.497 384.879 438.704C384.879 435.91 383.961 435.91 383.961 433.117C383.961 430.324 382.584 429.679 384.42 427.96C386.256 426.027 386.945 427.746 389.469 427.746C391.994 427.96 391.994 427.746 394.748 427.96C397.272 428.175 397.502 429.679 400.026 429.25C403.928 429.679 404.157 427.96 406.223 429.894Z" fill="#AB31FF"/>
<path d="M486.545 626.28C484.709 626.065 483.103 626.28 481.496 625.42C479.89 624.561 478.054 623.701 476.677 622.412C475.3 621.123 474.152 618.974 473.005 617.255C471.857 615.537 470.939 613.818 470.021 611.884C469.103 609.95 467.726 608.446 467.038 606.297C466.349 604.364 466.579 602.215 466.12 600.066C465.661 598.133 464.743 595.984 464.743 593.835C464.513 591.902 464.743 589.753 464.743 587.819C464.743 584.811 464.054 584.596 464.054 581.588C464.054 578.58 464.972 578.795 464.972 575.572C464.972 572.564 465.202 572.564 465.202 569.556C465.202 566.548 464.972 566.548 464.972 563.325C464.972 560.317 464.054 560.102 464.054 557.094C464.054 554.086 464.284 554.086 464.284 551.077C464.284 548.069 464.284 548.069 464.284 544.846C464.284 541.838 464.972 541.838 464.972 538.83C464.972 535.822 464.054 535.607 464.054 532.599C464.054 529.591 464.284 529.591 464.284 526.583C464.284 523.575 464.972 523.575 464.972 520.567C464.972 517.559 464.513 517.344 464.513 514.336C464.513 511.328 464.054 511.113 464.054 508.105C464.054 505.097 464.054 505.097 464.054 501.874C464.054 498.866 464.054 498.866 464.054 495.643C464.054 492.635 464.054 492.635 464.054 489.412C464.054 486.404 464.743 486.404 464.743 483.395C464.743 480.387 464.284 480.387 464.284 477.164C464.284 474.156 464.743 474.156 464.743 470.933C464.743 468.785 464.972 466.851 464.972 464.917C465.202 462.983 464.513 460.835 464.972 458.686C465.202 456.752 466.349 455.033 466.808 453.1C467.267 451.166 467.267 448.802 467.956 447.084C468.644 445.365 470.021 443.861 470.939 442.357C471.857 440.852 473.234 439.778 474.611 438.489C475.759 437.2 476.906 435.911 478.513 435.051C479.89 434.192 481.267 433.332 483.103 432.688C484.709 432.258 486.086 431.398 487.922 431.184C489.529 430.969 491.135 430.969 492.971 430.969C495.266 430.969 495.266 430.969 497.561 430.969C499.397 430.969 501.233 431.398 502.61 431.613C504.447 431.828 506.053 432.473 507.66 432.903C509.496 433.547 510.873 434.621 512.25 435.696C513.856 436.77 515.463 437.415 516.84 438.704C518.217 440.208 518.905 442.142 519.823 443.861C520.741 445.579 522.348 447.084 522.807 449.232C523.495 451.166 523.036 453.529 523.495 455.678C523.954 457.827 523.954 459.76 524.184 462.124C524.413 464.273 524.643 466.421 524.643 468.57C524.643 470.719 524.872 472.867 524.872 475.016C524.872 478.239 525.102 478.239 525.102 481.677C525.102 484.899 525.561 484.9 525.561 488.337C525.561 491.56 526.708 492.205 524.872 494.568C522.807 496.932 522.348 495.643 519.594 495.643C516.84 495.643 516.84 494.568 513.856 494.568C511.102 494.568 511.102 494.354 508.119 494.139C505.364 494.139 504.906 496.717 502.84 494.139C500.774 491.56 502.84 490.916 502.84 487.263C502.84 483.61 502.84 483.61 502.84 479.958C502.84 476.305 503.069 476.305 503.069 472.652C503.069 470.289 502.61 468.14 502.381 466.421C501.922 464.058 501.233 462.124 500.086 460.835C498.938 459.76 497.332 458.901 495.266 458.686C493.43 458.686 491.594 459.331 490.447 460.62C489.299 461.694 489.299 464.058 488.84 466.206C488.611 467.925 487.922 469.859 487.922 472.008C487.922 475.231 488.152 475.231 488.152 478.668C488.152 481.891 488.381 481.891 488.381 485.329C488.381 488.552 487.922 488.552 487.922 491.775C487.922 494.998 488.152 494.998 488.152 498.436C488.152 501.659 487.693 501.659 487.693 504.882C487.693 508.105 487.693 508.105 487.693 511.543C487.693 514.766 487.922 514.766 487.922 518.203C487.922 521.426 487.693 521.426 487.693 524.649C487.693 527.872 488.152 527.872 488.152 531.31C488.152 534.533 487.922 534.533 487.922 537.756C487.922 540.979 488.152 540.979 488.152 544.417C488.152 547.64 488.84 547.855 488.84 551.077C488.84 554.3 488.611 554.3 488.611 557.738C488.611 560.961 488.152 560.961 488.152 564.184C488.152 567.407 488.381 567.407 488.381 570.845C488.381 574.068 487.922 574.068 487.922 577.291C487.922 580.514 488.152 580.514 488.152 583.952C488.152 586.315 488.84 588.464 489.299 590.183C489.758 592.546 490.217 594.695 491.365 595.984C492.512 597.488 494.119 598.133 495.955 598.347C497.791 598.562 499.168 597.703 500.545 596.843C501.922 595.984 503.529 594.91 503.988 592.976C504.447 591.257 504.447 589.108 504.447 586.745C504.447 583.307 504.217 583.307 504.217 579.869C504.217 576.431 504.217 576.431 504.217 572.994C504.217 569.556 504.217 569.556 504.217 566.118C504.217 562.68 504.906 562.68 504.906 559.242C504.906 555.804 504.447 555.804 504.447 552.367C504.447 548.929 505.135 548.929 505.135 545.491C505.135 542.053 506.742 540.979 504.906 538.186C503.069 535.607 501.922 538.615 499.397 538.401C496.643 538.186 495.955 540.334 493.889 537.971C492.053 535.822 494.348 534.748 494.348 531.955C494.348 528.947 493.889 528.947 493.889 525.938C493.889 522.93 494.578 523.145 494.578 520.137C494.578 517.129 494.578 517.129 494.578 514.336C494.578 511.328 492.512 510.039 494.348 508.32C496.414 506.171 497.102 508.535 499.856 508.749C502.61 508.964 502.61 508.964 505.365 509.179C508.119 509.394 508.119 509.179 510.873 509.394C513.627 509.394 513.627 508.964 516.381 508.964C519.135 508.964 519.135 509.824 521.889 509.824C524.643 509.824 525.331 507.245 527.167 509.609C529.003 511.757 527.167 512.617 527.167 516.055C527.167 519.278 526.938 519.278 526.938 522.501C526.938 525.724 526.938 525.724 526.938 528.947C526.938 532.169 527.856 532.169 527.856 535.392C527.856 538.615 527.397 538.615 527.397 541.838C527.397 545.061 527.397 545.061 527.397 548.284C527.397 551.507 527.167 551.507 527.167 554.73C527.167 557.953 527.856 557.953 527.856 561.176C527.856 564.399 527.626 564.399 527.626 567.622C527.626 570.845 526.708 570.845 526.708 574.068C526.708 577.291 526.938 577.291 526.938 580.514C526.938 583.737 526.708 583.737 526.708 586.96C526.708 590.183 527.167 590.183 527.167 593.406C527.167 596.629 527.167 596.629 527.167 599.851C527.167 603.074 527.397 603.074 527.397 606.297C527.397 609.52 527.167 609.52 527.167 612.743C527.167 615.966 527.626 615.966 527.626 619.189C527.626 622.412 528.544 622.842 526.938 625.42C525.561 627.569 525.102 625.42 522.807 625.42C520.512 625.42 520.512 625.42 518.446 625.42C516.151 625.42 516.151 625.85 514.086 625.635C514.086 625.205 513.856 622.412 513.168 619.189C512.709 617.255 511.332 615.322 510.873 612.958C510.414 610.81 510.643 608.446 510.184 606.297C509.725 607.801 509.496 609.95 508.348 611.884C507.66 613.388 506.283 614.677 505.135 616.396C504.217 617.9 503.299 619.619 502.151 620.908C501.004 622.197 499.168 622.197 497.791 623.057C496.414 623.916 495.266 625.42 493.66 625.85C492.053 626.065 490.676 625.205 488.84 624.776C487.234 626.065 487.234 626.28 486.545 626.28Z" fill="#AB31FF"/>
<path d="M575.135 431.398C576.971 431.398 578.807 430.538 580.643 430.753C582.48 430.968 584.545 430.968 586.152 431.398C587.988 431.828 589.594 433.332 590.971 434.191C592.578 435.051 593.955 436.34 595.102 437.844C596.479 439.348 597.856 440.422 598.774 442.141C599.463 443.86 599.463 446.223 599.922 448.372C600.381 450.306 601.069 452.025 601.299 454.388C601.528 456.322 601.299 458.471 601.299 460.834C601.299 463.842 601.987 463.627 601.987 466.635C601.987 469.644 601.069 469.644 601.069 472.652C601.069 475.66 600.84 475.66 600.84 478.453C600.84 481.461 601.069 481.246 601.069 484.254C601.069 487.262 603.594 488.122 601.758 490.485C599.692 493.064 598.545 490.915 595.791 491.56C593.037 491.989 593.037 492.204 590.283 492.634C587.529 493.064 587.529 492.419 584.545 492.849C581.791 493.279 580.414 496.716 578.578 494.568C576.512 492.419 578.578 490.7 578.578 487.477C578.578 484.039 579.266 484.039 579.266 480.602C579.266 477.164 578.807 477.379 578.807 473.941C578.807 470.503 578.348 470.718 578.348 467.28C578.348 465.346 578.119 463.842 577.889 462.338C577.43 460.404 577.201 459.33 576.053 458.471C575.135 457.611 573.988 457.396 572.152 457.396C570.086 457.611 568.48 457.396 567.332 458.685C566.185 459.975 565.955 462.123 565.726 464.487C565.496 466.206 565.037 468.354 565.037 470.503C565.037 472.222 565.037 472.222 565.037 474.156C565.037 476.519 565.726 478.453 565.955 480.387C566.185 482.535 565.726 484.899 566.414 486.833C566.873 488.766 568.48 490.056 569.398 491.989C570.086 493.493 570.775 495.642 571.693 497.361C572.611 498.865 573.299 500.799 574.447 502.303C575.824 504.451 576.283 504.237 577.66 506.17C579.037 508.319 579.266 508.104 580.873 510.253C582.48 512.401 582.709 511.972 584.086 514.12C585.463 516.054 585.463 516.269 587.07 518.203C588.447 520.136 588.447 520.136 590.053 522.07C591.201 523.574 592.119 525.078 593.037 526.582C594.184 528.086 594.873 529.59 595.791 531.095C596.709 532.599 597.397 534.532 598.086 536.036C599.004 537.755 599.922 538.83 600.61 540.549C601.299 542.267 601.299 544.201 601.758 546.135C602.217 547.854 603.135 549.358 603.364 551.292C603.594 553.225 602.905 555.589 602.905 557.523C602.905 559.457 602.905 561.39 602.905 563.539C602.905 566.332 603.135 566.332 603.135 569.125C603.135 571.274 603.135 573.208 603.135 575.356C602.905 577.505 603.135 579.654 602.676 581.587C602.446 583.736 602.446 585.885 601.987 588.033C601.528 590.397 599.922 592.546 599.233 594.694C598.545 597.058 598.315 599.421 597.397 601.57C596.25 603.718 594.414 605.437 593.266 607.371C591.889 609.305 590.512 610.809 588.906 612.528C587.299 614.032 585.922 615.536 584.086 616.825C582.48 618.114 580.873 619.189 579.037 620.048C577.43 620.907 575.594 621.552 573.758 622.197C571.463 622.841 571.463 622.626 569.168 623.271C567.332 623.701 565.726 624.345 564.119 624.56C562.283 624.775 560.677 624.56 559.07 624.345C557.234 624.13 555.857 623.486 554.251 622.841C552.644 622.197 551.267 621.337 549.89 620.263C548.513 619.189 546.907 618.329 545.759 616.825C544.841 615.321 544.153 613.172 543.464 611.239C542.776 609.52 542.087 607.586 541.628 605.437C541.169 603.504 540.71 601.355 540.481 599.206C540.251 597.058 540.71 594.909 540.71 592.76C540.71 589.537 540.481 589.537 540.481 586.314C540.481 583.091 540.94 583.091 540.94 579.869C540.94 576.646 540.94 576.646 540.94 573.423C540.94 570.2 540.71 570.2 540.71 566.977C540.71 563.754 540.94 563.754 540.94 560.531C540.94 557.308 538.645 556.448 540.481 554.085C542.546 551.507 543.235 554.3 546.218 554.085C549.202 553.87 549.202 553.44 551.956 553.225C554.939 552.796 554.939 552.151 557.693 551.721C560.677 551.292 561.595 549.143 563.66 551.292C565.726 553.225 563.201 554.944 563.201 558.382C563.201 561.605 563.431 561.605 563.431 565.043C563.431 568.266 562.972 568.481 562.972 571.704C562.972 574.927 563.201 574.927 563.201 578.364C563.201 581.587 563.89 581.587 563.89 584.81C563.89 587.174 563.66 589.323 563.89 591.041C564.349 593.19 565.267 594.694 566.414 595.554C567.562 596.413 569.168 596.198 571.004 595.768C573.299 595.124 575.135 594.694 576.512 592.546C577.43 590.827 577.889 588.463 578.119 585.455C578.348 583.306 578.348 581.158 578.348 578.364C578.348 576.216 578.348 576.216 578.348 574.067C578.348 571.489 578.348 569.34 578.119 567.406C577.889 565.043 578.348 562.465 577.889 560.531C577.43 558.597 576.283 557.093 575.365 554.944C574.676 553.225 574.217 551.077 573.07 549.143C572.152 547.639 570.775 546.135 569.627 544.201C568.25 542.053 567.791 542.482 566.185 540.549C564.808 538.4 564.578 538.615 563.201 536.466C561.595 534.317 562.054 533.888 560.677 531.739C559.3 529.59 558.841 530.02 557.234 527.872C555.857 525.723 556.316 525.078 554.71 522.93C553.562 521.211 552.644 519.707 551.726 518.203C550.808 516.484 549.431 514.98 548.743 513.261C547.825 511.327 547.136 509.608 546.448 507.674C545.759 505.741 545.071 503.807 544.612 501.873C544.153 499.939 543.464 497.791 543.235 495.857C542.776 493.923 542.317 491.774 542.087 489.626C541.858 487.477 542.546 485.329 542.317 483.18C542.317 481.031 542.087 479.098 542.087 476.734C542.087 473.726 542.087 473.726 542.087 470.503C542.087 468.139 542.546 465.991 542.546 463.842C542.776 461.479 543.005 459.33 543.464 457.396C543.923 455.033 543.694 452.669 544.382 450.736C545.071 448.587 546.448 446.868 547.366 445.149C548.513 443.215 549.431 441.711 550.808 440.207C552.185 438.703 553.562 437.844 555.169 436.769C556.775 435.695 558.152 434.191 559.759 433.546C561.365 432.902 563.201 432.687 565.037 432.257C566.644 432.042 568.48 432.902 570.316 432.687C572.84 431.828 573.07 431.398 575.135 431.398Z" fill="#AB31FF"/>
</g>
<path d="M736.029 448.412C705.748 453.34 702.135 501.851 702.135 501.851L710.164 503.351C710.164 503.359 712.752 455.207 736.029 448.412Z" fill="#00DBA3" stroke="#34323C" stroke-width="2" stroke-miterlimit="10" stroke-linecap="round" stroke-linejoin="round"/>
<path d="M733.566 427.046C739.31 416.885 739.158 408.755 733.854 408.42C725.233 407.882 727.47 427.191 727.47 427.191C727.47 427.191 725.491 409.318 717.56 412.195C708.74 415.395 722.917 430.242 722.917 430.242C722.917 430.242 709.249 415.017 705.055 422.46C700.862 429.91 719.48 434.606 719.48 434.606C719.48 434.606 700.02 428.188 698.664 436.019C697.415 443.23 718.072 440.149 718.072 440.149C718.072 440.149 699.948 444.228 702.179 449.363C704.41 454.499 719.753 444.623 719.753 444.623C719.753 444.623 705.428 458.251 710.419 461.126C716.109 464.394 724.371 448.905 724.353 448.867C724.353 448.867 715.022 466.62 722.537 467.085C730.052 467.55 730.281 448.195 730.281 448.195C730.256 448.229 732.435 465.408 739.124 462.915C744.991 460.723 735.647 445.612 735.647 445.612C735.647 445.612 746.652 459.424 752.072 453.925C757.973 447.948 738.829 441.432 738.829 441.432C738.829 441.432 755.237 445.998 756.459 440.237C757.681 434.477 739.357 435.84 739.357 435.84C739.357 435.84 761.105 434.068 759.103 424.985C757.398 417.224 737.489 431.133 737.489 431.133C737.489 431.133 756.458 418.359 748.926 414.139C742.145 410.362 733.566 427.046 733.566 427.046Z" fill="#FFA589" stroke="#34323C" stroke-width="2" stroke-miterlimit="10" stroke-linecap="round" stroke-linejoin="round"/>
<path d="M730.952 449.384C737.728 448.809 743.095 443.192 742.941 436.837C742.787 430.482 737.169 425.796 730.393 426.371C723.618 426.946 718.25 432.564 718.404 438.919C718.559 445.273 724.176 449.959 730.952 449.384Z" fill="#FFEC00" stroke="#34323C" stroke-width="2" stroke-miterlimit="10" stroke-linecap="round" stroke-linejoin="round"/>
<path d="M699.871 513.699C702.425 544.874 678.297 572.737 645.995 575.943C613.693 579.15 585.424 556.476 582.879 525.309C582.684 522.961 582.643 520.639 582.747 518.342C582.747 518.342 583.691 528.09 601.998 535.723C601.998 535.723 591.24 532.903 589.541 517.914C589.541 517.914 596.104 527.187 610.941 529.23C610.941 529.23 597.634 525.356 596.819 515.377C596.819 515.377 640.199 546.232 632.917 502.642" fill="#AB31FF"/>
<path d="M699.871 513.699C702.425 544.874 678.297 572.737 645.995 575.943C613.693 579.15 585.424 556.476 582.879 525.309C582.684 522.961 582.643 520.639 582.747 518.342C582.747 518.342 583.691 528.09 601.998 535.723C601.998 535.723 591.24 532.903 589.541 517.914C589.541 517.914 596.104 527.187 610.941 529.23C610.941 529.23 597.634 525.356 596.819 515.377C596.819 515.377 640.199 546.232 632.917 502.642" stroke="#34323C" stroke-width="2" stroke-miterlimit="10" stroke-linecap="round" stroke-linejoin="round"/>
<path d="M673.029 535.57C681.186 535.894 688.489 539.014 694.039 543.946C685.175 561.482 667.388 574.403 646.011 576.522C643.265 576.797 640.555 576.872 637.89 576.786C637.19 573.788 636.901 570.636 637.111 567.391C638.254 549.084 654.341 534.838 673.029 535.57Z" fill="#FC8CF3" stroke="#34323C" stroke-width="2" stroke-miterlimit="10" stroke-linecap="round" stroke-linejoin="round"/>
<path d="M667.752 496.526L689.872 504.96L706.233 514.552L708.972 520.58L688.072 539.101L653.368 518.396L667.752 496.526Z" fill="#AB31FF"/>
<path d="M714.364 515.228C714.364 515.228 706.015 543.881 678.986 545.514C651.822 547.155 646.314 533.22 646.314 533.22" fill="#AB31FF"/>
<path d="M714.364 515.228C714.364 515.228 706.015 543.881 678.986 545.514C651.822 547.155 646.314 533.22 646.314 533.22" stroke="#34323C" stroke-width="2" stroke-miterlimit="10" stroke-linecap="round" stroke-linejoin="round"/>
<path d="M675.242 499.34C675.242 499.34 690.644 513.23 723.722 483.922C723.722 483.922 721.772 495.712 708.059 509.645C708.059 509.645 717.201 506.682 724.553 501.516C724.553 501.516 718.372 515.031 704.963 520.438" fill="#AB31FF"/>
<path d="M675.242 499.34C675.242 499.34 690.644 513.23 723.722 483.922C723.722 483.922 721.772 495.712 708.059 509.645C708.059 509.645 717.201 506.682 724.553 501.516C724.553 501.516 718.372 515.031 704.963 520.438" stroke="#34323C" stroke-width="2" stroke-miterlimit="10" stroke-linecap="round" stroke-linejoin="round"/>
<path d="M694.123 476.522C694.123 476.522 702.396 472.416 702.725 465.16L693.022 465.407L699.545 457.227C699.545 457.227 690.308 458.435 677.953 451.799L671.485 464.552L686.045 481.694L694.123 476.522Z" fill="#FFA589" stroke="#34323C" stroke-width="2" stroke-miterlimit="10" stroke-linecap="round" stroke-linejoin="round"/>
<path d="M659.977 508.219C680.312 506.194 695.686 490.924 694.316 474.113C692.945 457.302 675.348 445.316 655.013 447.342C634.677 449.368 619.303 464.638 620.674 481.449C622.044 498.259 639.641 510.245 659.977 508.219Z" fill="#AB31FF" stroke="#34323C" stroke-width="2" stroke-miterlimit="10" stroke-linecap="round" stroke-linejoin="round"/>
<path d="M668.146 447.607C668.146 447.607 641.668 441.242 635.646 437.382C629.625 433.522 639.12 447.065 639.12 447.065C639.12 447.065 625.897 445.147 634.571 458.783" fill="#AB31FF"/>
<path d="M668.146 447.607C668.146 447.607 641.668 441.242 635.646 437.382C629.625 433.522 639.12 447.065 639.12 447.065C639.12 447.065 625.897 445.147 634.571 458.783" stroke="#34323C" stroke-width="2" stroke-miterlimit="10" stroke-linecap="round" stroke-linejoin="round"/>
<path d="M682.009 470.229C681.226 468.571 680.207 466.836 678.982 465.118C674.225 458.454 668.1 454.568 665.311 456.442C662.523 458.317 664.116 465.243 668.874 471.907C670.099 473.625 671.415 475.156 672.742 476.45C673.679 474.824 674.984 473.394 676.633 472.293C678.283 471.191 680.106 470.514 682.009 470.229Z" fill="white" stroke="#34323C" stroke-width="2" stroke-miterlimit="10" stroke-linecap="round" stroke-linejoin="round"/>
<path d="M672.08 458.214C672.132 458.237 672.184 458.267 672.244 458.289C673.813 458.817 675.232 460.246 676.494 461.274C676.756 461.486 676.985 461.708 677.205 461.93C677.789 462.843 678.348 463.774 678.948 464.67C677.983 466.749 675.671 468.022 673.304 467.611C670.534 467.13 668.736 464.526 669.288 461.8C669.619 460.188 670.687 458.905 672.08 458.214Z" fill="#34323C"/>
<defs>
<clipPath id="clip0">
<rect width="641" height="425" fill="white" transform="translate(70 203)"/>
</clipPath>
</defs>
</svg>
