<svg width="698" height="562" viewBox="0 0 698 562" fill="none" xmlns="http://www.w3.org/2000/svg">
<path d="M383.1 265.6C437.7 276.6 480.5 287.4 467.1 343.8C453.7 400.1 387.2 336.5 387.2 336.5L383.1 265.6Z" fill="#00DBA3"/>
<path d="M443.2 368.6C433.8 368.6 422.2 364.1 408.7 355.3C396.1 347 386.3 337.7 386.2 337.6C385.9 337.3 385.8 337 385.7 336.6L381.6 265.7C381.6 265.2 381.8 264.8 382.1 264.5C382.5 264.2 382.9 264.1 383.4 264.2C421.3 271.9 451.4 279.3 464.3 299.6C471.6 311 473 325.6 468.5 344.2C465.4 357.1 459.3 365 450.4 367.6C448.2 368.3 445.8 368.6 443.2 368.6ZM388.7 335.8C392.9 339.7 427.7 371.2 449.6 364.7C457.5 362.4 462.9 355.2 465.7 343.4C469.9 325.6 468.7 311.7 461.9 301.1C449.8 282.2 421.1 274.8 384.8 267.4L388.7 335.8Z" fill="#32333D"/>
<path d="M406.1 140C465.3 130 499.8 101.8 486.7 78.3C465.4 40 388.8 114.7 388.8 114.7C388.8 114.7 460 46 425.9 22.2C388 -4.29999 363.3 105.9 363.3 105.9C363.3 105.9 391.2 -3.39999 347.8 4.10001C304.5 11.5 335.2 106.1 335.2 106.1C335.2 106.1 309.5 2.1 272.2 22.8C237.8 41.9 307.6 118.9 307.6 118.9C307.6 118.9 240.5 56.1 224.7 82.9C208.9 109.7 293.1 141.2 293.1 141.2C293.1 141.2 195.5 126.8 196.8 157.5C198.3 192.6 287.3 175.1 287.5 175C287.5 175 195.7 194.1 214.1 227.4C232.7 260.7 306.5 197.7 306.5 197.7C306.3 197.7 238.6 265 267.6 284.8C293.1 302.2 332.2 211.7 332.2 211.7C332.2 211.7 303.1 304.9 341.5 309.3C383.3 314 358.8 211.1 358.8 211.1C358.8 211.1 384.2 295.9 412.1 281.6C440.1 267.3 384.1 194.4 384.1 194.4C384.1 194.4 457.2 276.9 482.5 236.6C501.1 202.5 399 170.7 399 170.7C399 170.7 505.6 207.7 503.1 161.6C501.1 119.9 406.1 140 406.1 140Z" fill="#FF3D5E"/>
<path d="M344.3 310.9C343.4 310.9 342.4 310.8 341.4 310.7C335 310 329.9 306.8 326.4 301.4C319.7 291.1 318.4 272.8 322.6 246.9C323.7 239.8 325.2 233.1 326.5 227.5C316.2 248.1 296.7 282.8 279.1 287.9C274.7 289.2 270.5 288.6 266.9 286.1C259.2 280.8 257.1 272 260.8 260C265.2 245.8 277.1 229.3 286.3 218C288.5 215.3 290.6 212.9 292.5 210.6C274.9 223.4 245.9 241.7 226.9 238.2C220.6 237.1 215.9 233.7 212.8 228.1C209.6 222.4 209.3 216.7 211.9 211.1C218.6 196.5 244.1 185.9 263.6 179.8C244.7 181.6 219.6 181.9 205.8 173.9C199.2 170 195.7 164.5 195.3 157.5C195.1 153.1 196.7 149.3 200.2 146.2C215 132.9 260.5 135.9 282 138.2C263.9 130.4 228.5 113.3 222.2 95.4C220.5 90.7001 220.9 86.2 223.4 82.1C225.8 78 229.5 75.6 234.3 74.9C250.9 72.5 278 92 294.5 105.5C280.1 87.2 258.3 55.6 261.6 35.6C262.6 29.4 266 24.7 271.5 21.6C277.7 18.1 284.1 17.7 290.3 20.5C302.1 25.6 313.5 41.6 324.1 68C324.5 69 324.9 70 325.3 71C321.2 45.3 322.6 26.5 329.5 15C333.7 8.00005 339.7 3.90005 347.5 2.60005C354.7 1.40005 360.6 3.10005 364.9 7.80005C373.1 16.7 375.6 36.0001 372.2 65.3001C371.9 68.2001 371.5 71.1 371.1 74C372 71.4 372.9 68.8 373.9 66.2C384.3 38.8 395.5 22.6 407.3 18.1C413.8 15.6 420.3 16.6 426.8 21.2C432.7 25.3 436 31.1 436.6 38.2001C437.6 50.9001 430 67.9 414 88.7C411.9 91.4 409.9 94 407.8 96.4C411 93.8 414.4 91.2 418.1 88.6C440.9 72 459.1 64.6 472 66.5C479 67.5 484.4 71.4 488.1 77.9C491.9 84.7001 492 92.2 488.5 99.6C481.7 113.7 462.7 126.3 436.4 134.7C438 134.6 439.7 134.5 441.3 134.4C467 132.9 485.2 136.1 495.5 144C501.4 148.5 504.5 154.5 504.9 161.8C505.3 169.7 502.7 175.8 497.2 180C487.1 187.6 467.4 188.6 438.7 183C436.1 182.5 433.6 182 431.1 181.4C433.3 182.4 435.6 183.4 437.9 184.5C464.4 196.8 480.2 209.1 485 220.9C487.3 226.7 487 232.3 484.1 237.7C479.6 244.9 473.4 248.8 465.6 249.5C452.1 250.6 434.1 241.9 412.1 223.5C406.4 218.7 401.1 213.8 396.7 209.6C408.5 227.4 424.9 256.1 421.2 272.7C420.1 277.6 417.4 281.1 413.1 283.3C408.7 285.6 404.1 285.7 399.4 283.7C384.6 277.4 371.8 250.4 364.4 231.4C368.1 254.5 371.3 290.8 358.6 305.1C354.7 308.8 350 310.9 344.3 310.9ZM332.3 210.1C332.5 210.1 332.6 210.1 332.8 210.2C333.5 210.5 333.9 211.3 333.7 212.1C333.5 212.7 313.8 276.6 328.9 299.8C332 304.5 336.2 307.1 341.7 307.8C347.8 308.5 352.5 306.8 356.1 302.7C374 282.5 357.5 212.1 357.4 211.4C357.2 210.6 357.7 209.8 358.5 209.6C359.3 209.4 360.1 209.8 360.3 210.6C360.5 211.2 378.7 271.2 400.4 280.5C404.3 282.1 407.9 282 411.5 280.2C415 278.4 417.1 275.6 418 271.6C423.3 248.1 383.4 195.8 383 195.3C382.5 194.7 382.6 193.7 383.2 193.2C383.8 192.7 384.7 192.8 385.3 193.4C385.8 194 434.6 248.6 465.2 246.1C472.1 245.5 477.4 242.2 481.4 235.8C483.9 231.3 484.1 226.6 482.1 221.7C472.7 198.5 417.4 178.4 402.5 173.4C400.1 172.6 398.8 172.2 398.7 172.2C397.9 171.9 397.5 171.1 397.8 170.3C398.1 169.5 398.9 169.1 399.7 169.3C399.7 169.3 401.1 169.7 403.5 170.5C418.6 175.3 475.7 192.1 495.4 177.3C500.2 173.7 502.3 168.6 501.9 161.7C501.5 155.3 498.8 150 493.6 146.1C474.9 131.8 430.1 137.6 413.1 140.4C410.9 140.8 408.7 141.2 406.4 141.6C405.6 141.7 404.8 141.2 404.7 140.4C404.5 139.6 405.1 138.8 405.9 138.7C406 138.7 408.5 138.2 412.7 137.4C449.3 130.1 477.6 115 485.7 98.1C488.8 91.6 488.7 85.2 485.4 79.2C482.2 73.4 477.7 70.2001 471.5 69.3C442.8 65.1 391.4 114.5 389.9 115.9C389.3 116.5 388.4 116.5 387.8 115.9C387.2 115.3 387.2 114.4 387.8 113.8C389.3 112.4 435.8 66.7001 433.6 38.4001C433.1 32.1001 430.3 27.3 425.1 23.6C419.4 19.6 414 18.7 408.4 20.9C385.1 29.9 369.1 89.2001 365.5 103.4C365.1 105.3 364.8 106.4 364.8 106.5C364.6 107.3 363.8 107.8 363 107.6C362.2 107.4 361.7 106.6 361.9 105.8C361.9 105.8 362.2 104.6 362.6 102.7C365.9 88.4 378.8 27.5 362.7 10C359.1 6.10005 354.3 4.70005 348 5.70005C341.1 6.90005 335.8 10.5 332.2 16.5C320.6 35.7001 328.3 74.3 333.3 93.9C335.5 101.1 336.7 105.8 336.7 105.9C336.9 106.7 336.4 107.5 335.7 107.7C334.9 107.9 334.1 107.5 333.9 106.7C333.9 106.6 332.4 101.9 330.5 94.6C324.1 73.7 309.2 31.9 289.3 23.2C283.9 20.8 278.6 21.2 273.1 24.2C268.3 26.9 265.5 30.8 264.7 36.1C260.1 63.7001 308.4 117.4 308.9 117.9C309.4 118.5 309.4 119.4 308.8 120C308.2 120.6 307.3 120.6 306.7 120C306.2 119.5 257.9 74.6 234.8 77.9C230.9 78.5 228.1 80.3 226.1 83.7C224.1 87.1 223.8 90.6 225.1 94.5C233 116.9 293.1 139.6 293.7 139.8C294.4 140.1 294.8 140.8 294.6 141.6C294.4 142.3 293.7 142.8 292.9 142.7C292.2 142.6 220.3 132.2 202.2 148.5C199.4 151 198.2 153.9 198.3 157.4C198.5 162.5 200.7 166.5 204.9 169.7C225.2 185.1 283.1 174.3 286.9 173.6C287 173.6 287.1 173.6 287.1 173.5C287.8 173.3 288.6 173.8 288.8 174.5C289 175.2 288.7 176 288.1 176.3C288.1 176.3 288 176.3 287.7 176.4C287.1 176.5 224.9 189.7 214.5 212.3C212.3 217 212.6 221.7 215.3 226.6C218 231.4 221.9 234.2 227.3 235.2C254.1 240 304.9 196.9 305.5 196.5C306 196.1 306.2 196.1 306.5 196.1C307.1 196.1 307.7 196.5 307.9 197.1C308.1 197.7 307.9 198.4 307.5 198.8C306.1 200.1 260.4 245.9 262 271.8C262.3 276.9 264.5 280.7 268.5 283.5C271.4 285.5 274.6 286 278.2 284.9C301.6 278.1 330.6 211.6 330.9 211C331.1 210.5 331.7 210.1 332.3 210.1Z" fill="#32333D"/>
<path d="M379.3 106.8C411.2 61.9 415.3 21.4 391.5 14.6C352.9 3.59997 351.7 101.7 351.7 101.7C351.7 101.7 353.4 11 315.8 17.6C274.1 24.9 329.4 112.4 329.4 112.4C329.4 112.4 276.7 23.6 253.4 56.5C230.1 89.4 311.4 130.8 311.4 130.8C311.4 130.8 227.3 80 216.5 117.7C206.6 152.4 301.7 157 301.7 157C301.7 157 217.5 159.7 224.5 187.4C231.6 215 306.6 180.9 306.6 180.9C306.6 180.9 234 234.8 254.8 253.8C278.5 275.6 325 206.5 324.9 206.3C324.9 206.3 272.4 285.4 306 295C339.6 304.6 352 208.6 352 208.6C351.9 208.7 351.6 296.2 383.3 290.3C411.1 285 377.7 201 377.7 201C377.7 201 419.3 280.2 446.9 258.2C477 234.2 394.4 183.3 394.4 183.3C394.4 183.3 465.8 221.9 474.7 194.4C483.6 167 400.1 156 400.1 156C400.1 156 499.3 168.3 495.6 121.2C492.5 81.1 394.5 131.1 394.5 131.1C394.5 131.1 487.5 86 456.1 57.7C427.8 32.2 379.3 106.8 379.3 106.8Z" fill="#68E1FB"/>
<path d="M310.7 297.3C309 297.3 307.3 297.1 305.6 296.6C300.2 295.1 296.5 291.7 294.6 286.7C289.3 272.3 300.4 246.6 310.4 227.9C304.2 235.2 296 243.9 287.6 250.2C273.4 260.9 262 262.5 253.7 255C250.7 252.2 249.3 248.7 249.5 244.4C250.4 226.4 281.1 199.3 296.8 186.7C283.7 191.9 261 199.8 244.1 199.8C239 199.8 234.5 199.1 230.9 197.4C226.7 195.4 224.1 192.2 223 187.9C221.9 183.6 222.7 179.6 225.4 176C234.5 163.9 263.7 158.9 283.2 156.9C261.9 154.3 228.3 147.9 217.6 133C214.2 128.3 213.3 123 214.9 117.3C216.7 110.9 220.6 106.5 226.5 104.2C237.5 99.9 255.3 102.8 279.3 113C279.8 113.2 280.4 113.5 280.9 113.7C262.1 100 251.1 87 248.2 75.3C246.5 68.2 247.7 61.6 251.9 55.7C255.8 50.2 260.7 47.5 266.6 47.8C277.7 48.2 291.9 59.2 308.7 80.4C310.1 82.2 311.5 84 312.8 85.8C311.9 83.9 311 82 310.1 80C299.1 55.5 295.9 37.7 300.6 27C303.2 21.2 308.1 17.5 315.3 16.3C321.9 15.1 327.8 16.7 332.8 21C341.7 28.6 347.8 44.6 350.9 68.5C351.2 71.1 351.5 73.7 351.8 76.2C352.2 72.9 352.7 69.3 353.2 65.8C357.3 40.2 364.2 23.6 373.8 16.5C379.1 12.6 385.1 11.6 391.7 13.5C398.6 15.5 403.6 20.3 406.1 27.4C410.8 40.8 406.8 60.9 395.5 83C396.3 82.1 397 81.2 397.8 80.4C413.5 62.7 427.4 53 439.2 51.5C445.9 50.6 451.8 52.5 456.8 57C462.2 61.9 464.5 67.5 463.6 73.9C462 85.4 449.9 98.9 427.6 113.9C425.7 115.2 423.8 116.4 422 117.6C425.1 116.4 428.4 115.1 431.7 114C459.3 104.2 478.4 102.1 488.6 107.8C493.6 110.6 496.5 115.3 497 121.7C497.7 130.5 494.9 138 488.8 143.9C474.7 157.4 445.5 159.9 424.4 159.6C443.1 163.9 467 171.5 474.4 183.2C476.9 187.1 477.4 191.2 476 195.5C474.6 199.9 471.7 203 467.3 204.7C464.4 205.9 460.9 206.4 457.1 206.4C443.4 206.4 425.2 199.8 411.8 194C429.1 206.7 453.8 227.7 454.9 244.9C455.3 250.8 452.9 255.9 447.8 260C443.1 263.7 437.8 265 432 263.8C421 261.5 408.2 250.4 394.1 230.9C390.5 225.9 387.3 221 384.6 216.6C391.3 236.8 400.7 271.2 392.7 285.7C390.6 289.4 387.6 291.7 383.5 292.5C375 294.1 367.9 289.7 362.5 279.5C356.1 267.4 353.2 249 351.8 235.6C351.4 231.6 351.1 227.9 350.9 224.6C349.7 230.8 348.1 238.3 346 246C339.1 271.7 330.6 288.1 320.7 294.6C317.6 296.2 314.2 297.3 310.7 297.3ZM325 209.1C318.6 219.1 290.2 265.6 297.6 285.6C299.1 289.7 302.1 292.4 306.6 293.6C311.1 294.9 315.3 294.2 319.3 291.5C341.6 276.8 350.6 209.2 350.7 208.5C350.8 208 350.9 207.8 351.1 207.6C351.6 207.1 352.2 207 352.8 207.3C353.4 207.6 353.7 208.2 353.6 208.8C353.2 216.2 354.8 271.1 371.4 285.6C374.9 288.6 378.7 289.7 383.1 288.9C386.2 288.3 388.6 286.6 390.2 283.6C401 264.1 376.7 202.2 376.4 201.6C376.1 200.9 376.4 200 377.2 199.7C377.9 199.4 378.8 199.7 379.2 200.4C379.5 200.9 408.1 255.1 432.8 260.2C437.8 261.2 442.2 260.2 446.1 257C450.4 253.5 452.4 249.4 452.1 244.5C450.6 219.9 394.3 184.9 393.7 184.6C393 184.2 392.8 183.3 393.2 182.6C393.6 181.9 394.5 181.6 395.2 182C395.7 182.3 446.3 209.4 466.4 201.3C469.9 199.9 472.2 197.5 473.4 194C474.5 190.6 474.1 187.4 472.1 184.3C460.3 165.7 400.7 157.7 400.1 157.6C399.3 157.5 398.7 156.7 398.8 155.9C398.9 155.1 399.7 154.5 400.5 154.6C401.1 154.7 465 162.3 487.1 141.2C492.5 136 495 129.3 494.4 121.4C494 116 491.7 112.2 487.6 109.9C478.3 104.7 459.5 106.9 433.2 116.3C416.4 122.3 401.5 129.4 396.9 131.7C396 132.2 395.5 132.4 395.4 132.4C394.7 132.8 393.8 132.5 393.4 131.7C393 131 393.3 130.1 394.1 129.7C394.1 129.7 394.6 129.4 395.5 129C404.7 124.4 457.9 96.5 461.2 73C462 67.6 460 63 455.4 58.8C451 54.8 446 53.3 440.1 54.1C418.8 56.9 393.5 89.7 384.4 102.6C383.3 104.3 382.1 106 380.9 107.7C380.4 108.4 379.5 108.5 378.8 108.1C378.1 107.6 377.9 106.7 378.4 106C378.4 105.9 379.7 104 382 100.8C401 72.3 409.5 44.2 403.9 28.1C401.7 21.8 397.5 17.8 391.5 16.1C385.7 14.5 380.7 15.3 376.2 18.7C354.9 34.5 353.6 99.5 353.6 101.7V101.8C353.6 102.6 352.9 103.3 352.1 103.3C351.3 103.3 350.6 102.6 350.6 101.8C350.6 101.8 350.6 101.8 350.6 101.7C350.6 99.7 351.2 40.1 331.5 23.2C327.1 19.5 322.2 18.2 316.5 19.2C310.3 20.3 306.2 23.2 304 28.2C294.7 49.2 322.9 98.1 329.7 109.4C330.6 110.9 331.1 111.8 331.2 111.8C331.6 112.5 331.4 113.4 330.7 113.8C330 114.2 329.1 114 328.6 113.3C328.6 113.3 328 112.4 327.1 110.9C320.1 99.6 289 51.7 267.2 50.8C262.3 50.6 258.4 52.8 255.1 57.5C251.4 62.7 250.3 68.5 251.9 74.7C256.8 94.5 286.7 114.6 302.6 124C308.7 127.3 312.6 129.6 312.7 129.6C313.4 130 313.6 130.9 313.2 131.6C312.8 132.3 311.9 132.6 311.2 132.2C311.1 132.2 307.1 130.1 301.1 126.6C283.4 117.2 246.7 99.9 228.3 107.1C223.3 109.1 220.1 112.7 218.5 118.2C217.1 123 217.9 127.3 220.7 131.3C235.6 152.1 301.7 155.6 302.3 155.6C303.1 155.6 303.7 156.3 303.7 157.1C303.7 157.9 303.1 158.6 302.2 158.6C301.6 158.6 241.3 160.7 228.4 177.9C226.2 180.8 225.6 183.8 226.5 187.2C227.4 190.7 229.5 193.1 232.8 194.7C252.4 204.1 306 179.9 306.5 179.7C307.2 179.4 308 179.6 308.4 180.3C308.8 181 308.6 181.8 308 182.3C307.5 182.7 254.2 222.4 253.1 244.7C252.9 248.1 254 250.8 256.4 252.9C259.9 256.1 264 257.3 269 256.5C288.8 253.4 315.4 218.8 322.5 208.4C323.4 206.9 324.1 206 324.2 205.7C324.5 205.3 325 205 325.5 205C326 205 326.5 205.3 326.7 205.8C326.7 206.4 326.7 206.6 325 209.1Z" fill="#32333D"/>
<path d="M96.2 426.798C105.8 426.798 113.6 424.798 113.6 422.398C113.6 419.898 105.8 417.998 96.2 417.998C86.6 417.998 78.8 419.998 78.8 422.398C78.7 424.898 86.5 426.798 96.2 426.798Z" fill="#32333D"/>
<path d="M96.2 428.298C89.6 428.298 80.9 427.298 78.2 424.498C77.4 423.698 77.3 422.798 77.3 422.298C77.3 417.698 89.2 416.398 96.2 416.398C103.2 416.398 115.1 417.598 115.1 422.298C115.1 426.998 103.3 428.298 96.2 428.298ZM80.3 422.398C81.1 423.498 86.8 425.298 96.2 425.298C105.6 425.298 111.3 423.498 112.1 422.398C111.3 421.298 105.6 419.498 96.2 419.498C86.8 419.398 81.1 421.298 80.3 422.398Z" fill="#32333D"/>
<path d="M115.4 329.598C115.4 329.598 124.5 253.698 75.1 263.498C32.1 275.198 63.9 319.098 63.9 319.098C63.9 319.098 24.7 323.198 25.6 349.498C26.5 377.098 68 383.498 90.3 366.998L115.4 329.598Z" fill="#FF3D5E"/>
<path d="M60.9 377.598C53.6 377.598 46.4 376.198 40.3 373.198C30.1 368.298 24.3 359.898 24 349.598C23.6 338.198 30.4 328.998 43.7 323.098C50.7 319.998 57.6 318.498 61.2 317.998C57.4 311.998 47.2 294.198 52.4 279.598C55.4 271.198 62.8 265.298 74.6 262.098H74.7C86.4 259.798 95.9 261.898 103 268.498C111 275.898 115.7 288.498 117.1 305.898C118.1 318.798 116.9 329.398 116.8 329.798C116.8 329.998 116.7 330.298 116.6 330.498L91.5 367.898C91.4 367.998 91.3 368.198 91.1 368.298C82.9 374.398 71.8 377.598 60.9 377.598ZM75.4 264.998C64.7 267.898 57.9 273.198 55.3 280.598C49.6 296.698 64.9 318.098 65 318.298C65.3 318.698 65.4 319.298 65.2 319.798C65 320.298 64.5 320.598 64 320.698C63.6 320.698 26.2 324.998 27.1 349.598C27.4 358.698 32.6 366.198 41.7 370.598C55.9 377.498 76.3 375.598 89.2 366.198L114 329.298C114.4 325.198 117.9 286.398 101.1 270.798C94.7 264.798 86.1 262.898 75.4 264.998Z" fill="#32333D"/>
<path d="M119.4 331.598C119.4 331.598 131.1 260.998 86.4 269.898C47.5 280.398 77.1 326.698 77.1 326.698C77.1 326.698 36.6 325.298 38.3 348.998C40 370.698 72.6 375.098 92.7 362.698L119.4 331.598Z" fill="#FFEC00"/>
<path d="M67.7 371.098C61.1 371.098 54.7 369.798 49.4 367.098C41.8 363.198 37.4 356.998 36.8 349.198C36.4 343.798 38 339.198 41.6 335.498C50.2 326.598 67.7 325.398 74.5 325.298C73 322.698 70.7 318.198 68.6 312.798C64.3 301.298 63.6 291.698 66.6 284.098C69.5 276.498 76.1 271.298 86 268.598H86.1C96.5 266.498 104.8 268.498 110.9 274.398C117.9 281.198 121.7 292.998 122.2 309.498C122.6 321.598 120.9 331.598 120.9 332.098C120.9 332.398 120.7 332.598 120.6 332.798L93.9 363.998C93.8 364.098 93.7 364.198 93.5 364.298C86 368.698 76.6 371.098 67.7 371.098ZM75.9 328.198C71 328.198 52.1 328.798 43.8 337.498C40.8 340.598 39.5 344.298 39.9 348.898C40.5 357.398 46.2 361.998 50.9 364.398C62.4 370.198 79.5 369.098 91.8 361.598L118.1 330.898C118.7 326.598 123.6 290.498 108.9 276.298C103.6 271.198 96.2 269.498 86.8 271.298C77.9 273.698 72 278.298 69.5 284.998C63.1 301.498 78.3 325.698 78.5 325.898C78.8 326.398 78.8 326.998 78.5 327.498C78.2 327.998 77.7 328.298 77.1 328.298C77.1 328.198 76.6 328.198 75.9 328.198Z" fill="#32333D"/>
<path d="M89.0999 376.998C75.4999 368.198 119.7 314.698 132.1 322.198C144.5 329.798 99.6999 383.798 89.0999 376.998Z" fill="#FF3D5E"/>
<path d="M91.3 379.098C90.2 379.098 89.1 378.798 88.3 378.298C82.8 374.798 84.2 365.798 92.2 352.998C102.7 336.198 123.8 315.398 132.9 320.998C134.3 321.798 135.9 323.598 135.8 327.198C135.3 340.398 111.2 369.998 97.3 377.298C95 378.498 93 379.098 91.3 379.098ZM89.9 375.698C91 376.398 93.2 375.998 95.9 374.598C108.9 367.798 132.3 339.198 132.7 326.998C132.8 324.398 131.6 323.698 131.3 323.398C125.4 319.798 106.3 336.098 94.7 354.498C88.1 365.198 86.2 373.298 89.9 375.698Z" fill="#32333D"/>
<path d="M125.9 343.098C120.3 343.098 117.9 339.198 117.4 336.898C117.2 336.098 117.7 335.298 118.6 335.098C119.4 334.898 120.2 335.398 120.4 336.198C120.5 336.698 121.7 340.998 128 339.898C128.8 339.698 129.6 340.298 129.7 341.098C129.8 341.898 129.3 342.698 128.5 342.798C127.5 342.998 126.6 343.098 125.9 343.098Z" fill="#32333D"/>
<path d="M127.6 332.198C127.9 330.998 127.1 329.698 125.8 329.398C124.6 329.098 123.2 329.898 122.9 331.198C122.6 332.398 123.4 333.698 124.7 333.998C126 334.298 127.3 333.398 127.6 332.198Z" fill="#32333D"/>
<path d="M104.3 303.998C105.6 298.298 102 292.698 96.3 291.298C90.5 289.998 84.7 293.498 83.5 298.998C82.2 304.698 85.8 310.298 91.5 311.698C97.2 313.098 102.9 309.598 104.3 303.998Z" fill="#FF3D5E"/>
<path d="M94 313.598C93.1 313.598 92.1 313.498 91.2 313.298C88 312.598 85.2 310.598 83.5 307.798C81.8 305.098 81.3 301.898 82 298.798C82.7 295.798 84.5 293.198 87.2 291.498C90 289.698 93.3 289.198 96.6 289.898C99.8 290.598 102.6 292.598 104.3 295.398C106 298.098 106.5 301.298 105.8 304.398C104.4 309.898 99.4 313.598 94 313.598ZM93.7 292.598C92 292.598 90.2 293.098 88.7 293.998C86.7 295.298 85.3 297.198 84.8 299.398C84.2 301.698 84.6 304.098 85.9 306.198C87.2 308.298 89.3 309.798 91.7 310.298C96.6 311.498 101.5 308.498 102.7 303.698C103.2 301.398 102.9 298.998 101.6 296.998C100.3 294.898 98.2 293.398 95.8 292.898C95.2 292.598 94.4 292.598 93.7 292.598Z" fill="#32333D"/>
<path d="M74.4999 349.698C75.4999 345.198 72.5999 340.498 67.9999 339.398C63.3999 338.298 58.5999 341.198 57.5999 345.698C56.5999 350.198 59.4999 354.898 64.0999 355.998C68.6999 357.198 73.2999 354.298 74.4999 349.698Z" fill="#FF3D5E"/>
<path d="M66.0999 357.798C65.2999 357.798 64.4999 357.698 63.6999 357.498C58.2999 356.198 54.8999 350.698 56.0999 345.398C56.6999 342.798 58.2999 340.598 60.5999 339.198C62.9999 337.698 65.6999 337.298 68.3999 337.998C73.7999 339.298 77.1999 344.798 75.9999 350.098C74.7999 354.698 70.5999 357.798 66.0999 357.798ZM65.8999 340.698C64.5999 340.698 63.2999 341.098 62.0999 341.798C60.4999 342.798 59.3999 344.298 58.9999 346.098C58.0999 349.898 60.5999 353.698 64.3999 354.598C68.1999 355.498 71.9999 353.198 72.9999 349.398C73.7999 345.598 71.3999 341.798 67.5999 340.898C66.9999 340.698 66.4999 340.698 65.8999 340.698Z" fill="#32333D"/>
<path d="M635.9 465.85C667.2 465.85 692.5 460.75 692.5 454.55C692.5 448.25 667.1 443.25 635.9 443.25C604.7 443.25 579.3 448.35 579.3 454.55C579.3 460.75 604.6 465.85 635.9 465.85Z" fill="#32333D"/>
<path d="M635.9 467.35C612.5 467.35 577.8 463.95 577.8 454.55C577.8 445.15 612.6 441.75 635.9 441.75C659.3 441.75 694 445.15 694 454.55C694 463.95 659.3 467.35 635.9 467.35ZM635.9 444.65C601.7 444.65 580.8 450.35 580.8 454.45C580.8 458.55 601.8 464.25 635.9 464.25C670 464.25 691 458.55 691 454.45C691 450.35 670.1 444.65 635.9 444.65Z" fill="#32333D"/>
<path d="M681.3 433.05C672.7 423.65 663.2 438.85 653.4 435.05C648 432.95 645.8 427.05 642.1 422.65C636.6 416.25 627.8 413.45 619.4 413.75C610.6 414.05 601.9 417.25 594.1 421.25C594.2 419.05 593.7 416.95 593.9 414.75C594.2 411.75 595.6 408.75 597.2 406.25C602 399.05 609.2 395.65 610.5 386.35C611.5 378.95 608.7 371.25 603.2 366.35C593.9 358.05 579.8 358.95 571.4 368.25C556.6 384.85 549.8 407.55 556.5 429.25C559.2 437.95 563.8 446.05 570.9 451.75C578 457.35 587.6 460.15 596.3 457.85C606.2 455.25 613.6 446.95 623.2 443.05C630 452.55 641.5 458.55 653.2 458.65C663 458.65 694.2 447.15 681.3 433.05Z" fill="#68E1FB"/>
<path d="M653.3 460.15C641.5 460.05 629.9 454.25 622.8 444.95C619.1 446.55 615.6 448.95 612.2 451.25C607.4 454.45 602.5 457.85 596.8 459.35C588.1 461.65 578.1 459.25 570.1 452.95C563.4 447.55 558.2 439.55 555.1 429.75C548.6 408.65 554.3 385.35 570.3 367.35C579.2 357.55 594.4 356.65 604.2 365.35C610.1 370.65 613.1 378.75 612 386.65C611 393.25 607.3 397.15 603.7 400.95C601.9 402.85 600 404.85 598.4 407.25C596.7 409.85 595.6 412.55 595.3 415.05C595.2 416.05 595.3 417.15 595.4 418.25C595.4 418.45 595.4 418.75 595.5 418.95C604 414.85 612 412.55 619.3 412.35C628.9 411.95 637.9 415.55 643.2 421.75C644.4 423.15 645.4 424.75 646.5 426.15C648.7 429.35 650.7 432.35 654 433.65C657.7 435.15 661.6 433.25 665.6 431.35C670.9 428.85 676.9 425.95 682.4 432.05C686.7 436.75 686.2 441.05 685 443.75C680.6 453.85 660.6 460.15 653.3 460.15ZM623.3 441.65C623.8 441.65 624.2 441.85 624.5 442.25C631 451.35 642.1 457.15 653.3 457.25C660 457.25 678.5 451.05 682.2 442.65C683.4 439.85 682.8 437.05 680.1 434.15C676.3 429.95 672.5 431.45 666.8 434.15C662.6 436.15 657.8 438.45 652.8 436.55C648.7 434.95 646.2 431.35 643.9 427.95C642.9 426.55 641.9 425.05 640.8 423.75C636.1 418.15 628 415.05 619.3 415.35C611.8 415.65 603.5 418.05 594.7 422.75C594.2 422.95 593.7 422.95 593.2 422.65C592.7 422.35 592.5 421.85 592.5 421.35C592.5 420.45 592.5 419.55 592.4 418.55C592.3 417.35 592.2 416.05 592.3 414.75C592.7 410.95 594.4 407.75 595.8 405.55C597.5 402.95 599.5 400.95 601.4 398.85C605 395.05 608.1 391.85 608.9 386.25C609.9 379.35 607.2 372.15 602.1 367.55C593.5 359.85 580.2 360.65 572.4 369.25C557.1 386.45 551.7 408.75 557.9 428.75C560.8 437.95 565.6 445.55 571.8 450.55C578.9 456.15 588.2 458.35 595.9 456.35C601.1 454.95 605.6 451.95 610.4 448.75C614.2 446.15 618.2 443.45 622.6 441.65C622.9 441.65 623.1 441.65 623.3 441.65Z" fill="#32333D"/>
<path d="M585.9 429.95C585.6 429.95 585.3 429.85 585 429.65C584.3 429.15 584.2 428.25 584.7 427.55C585 427.15 592.2 417.65 605.6 414.85C606.4 414.65 607.2 415.15 607.4 416.05C607.6 416.85 607.1 417.65 606.2 417.85C593.9 420.45 587.1 429.35 587.1 429.45C586.8 429.75 586.3 429.95 585.9 429.95Z" fill="#32333D"/>
<path d="M627.5 449.45C627.1 449.45 626.8 449.35 626.5 449.05C626.1 448.65 617.6 440.35 618 431.65C618 430.85 618.7 430.15 619.6 430.25C620.4 430.25 621.1 430.95 621 431.85C620.6 439.15 628.5 446.85 628.6 446.85C629.2 447.45 629.2 448.35 628.6 448.95C628.3 449.25 627.9 449.45 627.5 449.45Z" fill="#32333D"/>
<path d="M585.5 389.95C575.7 409.55 567.8 395.55 568.7 386.15L585.5 389.95Z" fill="#32333D"/>
<path d="M577.4 364.95C577.4 356.05 572.8 348.85 567 348.75C561.2 348.75 556.5 355.85 556.4 364.85C556.4 373.75 561 380.95 566.8 381.05C572.7 380.95 577.3 373.75 577.4 364.95Z" fill="white"/>
<path d="M566.8 382.45C560.1 382.35 554.9 374.55 554.9 364.75C555 354.85 560.3 347.15 567 347.15C573.7 347.25 578.9 355.05 578.9 364.85C578.8 374.75 573.5 382.45 566.8 382.45ZM567 350.25C562.1 350.25 558 356.85 557.9 364.85C557.9 372.85 561.9 379.45 566.8 379.55C571.7 379.55 575.8 372.95 575.9 364.95C575.9 356.85 571.9 350.25 567 350.25Z" fill="#32333D"/>
<path d="M573.1 345.25C572.8 345.25 572.5 345.15 572.2 344.95C570.8 343.95 568.9 343.35 567 343.35C565.1 343.35 563.4 343.85 561.7 344.85C561 345.25 560.1 345.05 559.6 344.35C559.2 343.65 559.4 342.75 560.1 342.25C562.2 340.95 564.6 340.25 567 340.25C569.5 340.25 572 341.05 574 342.35C574.7 342.85 574.8 343.75 574.4 344.45C574 345.05 573.5 345.25 573.1 345.25Z" fill="#32333D"/>
<path d="M563.2 364.75L567.7 358.25C566.7 357.25 565.3 356.55 564 356.45C560 356.45 556.7 361.65 556.7 368.05C556.7 374.45 559.9 379.65 563.9 379.75C567.9 379.75 571.2 374.55 571.2 368.15C571.2 365.95 570.8 363.85 570.1 361.75L563.2 364.75Z" fill="#32333D"/>
<path d="M604.3 367.85C604.3 358.95 599.7 351.75 593.9 351.65C588.1 351.65 583.4 358.75 583.3 367.75C583.3 376.65 587.9 383.85 593.7 383.95C599.6 383.95 604.3 376.75 604.3 367.85Z" fill="white"/>
<path d="M593.7 385.45C587 385.35 581.8 377.55 581.8 367.75C581.9 357.85 587.2 350.15 593.9 350.15C600.6 350.25 605.8 358.05 605.8 367.85C605.8 377.55 600.4 385.45 593.7 385.45ZM593.9 353.15C589 353.15 584.9 359.75 584.8 367.75C584.8 375.75 588.8 382.35 593.7 382.45C598.6 382.45 602.8 375.75 602.8 367.85C602.8 359.85 598.8 353.25 593.9 353.15Z" fill="#32333D"/>
<path d="M600 348.35C599.7 348.35 599.4 348.25 599.1 348.05C597.7 347.05 595.8 346.45 593.9 346.45C592 346.45 590.3 346.95 588.6 347.95C587.9 348.35 587 348.15 586.5 347.45C586 346.75 586.3 345.85 587 345.35C589.1 344.05 591.5 343.35 593.9 343.35C596.4 343.35 598.9 344.15 600.9 345.45C601.6 345.95 601.7 346.85 601.3 347.55C600.9 348.15 600.5 348.35 600 348.35Z" fill="#32333D"/>
<path d="M590.1 367.85L594.6 361.35C593.6 360.35 592.2 359.65 590.9 359.55C586.9 359.55 583.6 364.75 583.6 371.15C583.6 377.55 586.8 382.75 590.8 382.85C594.8 382.85 598.1 377.65 598.1 371.25C598.1 369.05 597.7 366.95 597 364.85L590.1 367.85Z" fill="#32333D"/>
<path d="M425.5 467.4C410.2 458.7 373.2 461.8 373.2 461.8L333.2 455.9C333.2 455.9 309.7 428.7 276.1 424.9L291.1 446.6L303.9 501.8L335.9 508L371.3 511.8L413.9 472.2L425.5 467.4Z" fill="#32333D"/>
<path d="M371.3 513.4C371.2 513.4 371.2 513.4 371.1 513.4L335.7 509.6H335.6L303.6 503.4C303 503.3 302.6 502.8 302.4 502.3L289.7 447.4L274.9 426C274.6 425.5 274.5 424.9 274.8 424.4C275.1 423.9 275.7 423.6 276.3 423.7C308.1 427.2 330.7 451.1 333.9 454.7L373.2 460.5C376.3 460.3 411.1 457.7 426.2 466.3C426.7 466.6 427 467.1 427 467.7C427 468.3 426.6 468.8 426.1 469L414.7 473.7L372.3 513C372 513.2 371.7 513.4 371.3 513.4ZM336.1 506.6L370.7 510.3L412.8 471.1C412.9 471 413.1 470.9 413.2 470.8L421.8 467.2C405.7 460.6 373.6 463.2 373.3 463.2C373.2 463.2 373.1 463.2 373 463.2L333 457.3C332.6 457.2 332.3 457.1 332.1 456.8C331.9 456.5 310.1 431.8 279.3 426.8L292.3 445.7C292.4 445.9 292.5 446 292.5 446.2L305.1 500.4L336.1 506.6Z" fill="#32333D"/>
<path d="M351.5 236.6C395.8 236.6 431.6 200.8 431.6 156.5C431.6 112.2 395.7 76.5 351.5 76.5C307.3 76.5 271.4 112.3 271.4 156.6C271.4 200.7 307.3 236.6 351.5 236.6Z" fill="#FFEC00"/>
<path d="M351.5 238.1C306.5 238.1 269.9 201.5 269.9 156.5C269.9 111.5 306.5 75 351.5 75C396.5 75 433.1 111.6 433.1 156.6C433.1 201.6 396.4 238.1 351.5 238.1ZM351.5 78C308.2 78 272.9 113.2 272.9 156.6C272.9 200 308.1 235.2 351.5 235.2C394.9 235.2 430.1 200 430.1 156.6C430.1 113.2 394.8 78 351.5 78Z" fill="#32333D"/>
<path d="M355.2 184C350 184 344.5 181.8 340 177.7C339.4 177.1 339.4 176.2 339.9 175.6C340.5 175 341.4 175 342 175.5C347.2 180.3 353.9 182.2 359.5 180.4C364.9 178.7 368.6 173.7 370.1 166.5C370.3 165.7 371.1 165.2 371.9 165.3C372.7 165.5 373.2 166.3 373.1 167.1C371.4 175.4 367 181.1 360.5 183.2C358.8 183.7 357 184 355.2 184Z" fill="#32333D"/>
<path d="M346.1 141.1C342 127.9 331.7 119.4 323 122.1C314.4 124.8 310.8 137.7 315 150.9C319.1 164.1 329.4 172.6 338.1 169.9C346.6 167.2 350.2 154.3 346.1 141.1Z" fill="white"/>
<path d="M334.7 171.9C326.2 171.9 317.4 163.7 313.5 151.4C309.1 137.4 313.2 123.7 322.5 120.7C332.1 117.7 343.1 126.5 347.5 140.7C351.9 154.7 347.8 168.4 338.5 171.4C337.2 171.7 336 171.9 334.7 171.9ZM326.3 123.1C325.3 123.1 324.4 123.2 323.4 123.5C315.6 125.9 312.5 138 316.3 150.4C320.2 162.8 329.7 170.8 337.5 168.4C345.3 166 348.4 153.9 344.6 141.5C341.3 130.7 333.5 123.1 326.3 123.1Z" fill="#32333D"/>
<path d="M311.6 119.1C311.3 119.1 310.9 119 310.6 118.7C310 118.2 309.9 117.2 310.4 116.6C312.9 113.7 316 111.6 319.4 110.7C322.7 109.6 326.4 109.6 330.1 110.5C330.9 110.7 331.4 111.5 331.2 112.3C331 113.1 330.2 113.6 329.4 113.4C326.3 112.6 323.1 112.7 320.3 113.6C317.4 114.4 314.8 116.1 312.7 118.6C312.5 118.9 312.1 119.1 311.6 119.1Z" fill="#32333D"/>
<path d="M325 147.7L328.6 135.9C326.6 134.9 324.4 134.6 322.2 135.2C316.2 137.1 313.8 146.2 316.8 155.7C319.8 165.2 327 171.4 333 169.5C339 167.6 341.5 158.5 338.4 149C337.4 145.7 335.8 142.7 333.7 140.1L325 147.7Z" fill="#32333D"/>
<path d="M377.7 131C373.6 117.8 363.3 109.3 354.6 112C346 114.7 342.4 127.6 346.6 140.8C350.7 154 361 162.5 369.7 159.8C378.3 157.1 381.9 144.2 377.7 131Z" fill="white"/>
<path d="M366.2 161.8C357.7 161.8 348.9 153.6 345 141.3C340.6 127.3 344.7 113.6 354 110.6C363.6 107.6 374.6 116.4 379 130.6C381.7 139.1 381.4 147.8 378.2 154C376.3 157.7 373.4 160.2 370 161.3C368.8 161.6 367.5 161.8 366.2 161.8ZM357.9 113C356.9 113 356 113.1 355 113.4C347.2 115.8 344.1 127.9 347.9 140.3C351.8 152.7 361.3 160.7 369.1 158.3C371.8 157.5 374 155.5 375.6 152.5C378.5 147 378.7 139.1 376.2 131.4C372.8 120.5 365.1 113 357.9 113Z" fill="#32333D"/>
<path d="M343.2 108.9C342.9 108.9 342.5 108.8 342.2 108.5C341.6 108 341.5 107 342 106.4C344.5 103.5 347.6 101.4 351 100.5C354.6 99.5 358.2 99.4 361.7 100.3C362.5 100.5 363 101.3 362.8 102.1C362.6 102.9 361.8 103.4 361 103.2C358 102.5 355 102.5 351.9 103.4C349.1 104.2 346.5 105.9 344.4 108.4C344.1 108.8 343.6 108.9 343.2 108.9Z" fill="#32333D"/>
<path d="M356.6 137.6L360.2 125.8C358.2 124.8 356 124.5 353.8 125.1C347.8 127 345.4 136.1 348.4 145.6C351.4 155.1 358.6 161.3 364.6 159.4C370.6 157.5 373.1 148.4 370 138.9C369 135.6 367.4 132.6 365.3 130L356.6 137.6Z" fill="#32333D"/>
<path d="M314.2 180.7C324.1 168.7 337.3 159.9 352.1 155.2C367 150.6 382.7 150.2 397.8 154.4" fill="#FFEC00"/>
<path d="M314.2 182.2C313.9 182.2 313.5 182.1 313.2 181.9C312.6 181.4 312.5 180.4 313 179.8C323.1 167.6 336.5 158.6 351.6 153.8C366.8 149.1 382.9 148.8 398.2 153C399 153.2 399.5 154 399.2 154.8C399 155.6 398.2 156.1 397.4 155.9C382.7 151.9 367.2 152.1 352.5 156.7C337.9 161.3 325.1 169.9 315.3 181.7C315.1 182 314.7 182.2 314.2 182.2Z" fill="#32333D"/>
<path d="M273.4 500C356.6 429.3 351.1 324.7 332.2 281.7L362.3 280.9C362.3 280.9 454.7 391.5 371.9 511.9" fill="#00DBA3"/>
<path d="M371.9 513.4C371.6 513.4 371.3 513.3 371.1 513.1C370.4 512.6 370.2 511.7 370.7 511C389.4 483.8 400.6 454.8 403.9 424.9C406.5 401 404.1 376.4 396.8 351.8C385.3 313.1 364.9 286.6 361.6 282.4L334.4 283.1C342.9 303.8 349.3 339.6 342.5 380.7C337 413.9 320.7 461.7 274.3 501.1C273.7 501.6 272.7 501.6 272.2 500.9C271.7 500.3 271.7 499.3 272.4 498.8C356.8 427 348.2 321.9 330.8 282.2C330.6 281.7 330.6 281.2 330.9 280.8C331.2 280.4 331.6 280.1 332.1 280.1L362.2 279.3C362.7 279.3 363.1 279.5 363.4 279.8C363.6 280.1 386.9 308.2 399.6 350.7C407.1 375.7 409.5 400.7 406.8 425.1C403.5 455.5 392.1 485 373.1 512.7C372.8 513.1 372.4 513.4 371.9 513.4Z" fill="#32333D"/>
<path d="M286.4 259.5C234.2 274.2 187 291 208.8 351.3C230.9 412.5 279.7 339.8 279.7 339.8L286.4 259.5Z" fill="#00DBA3"/>
<path d="M233.5 377.3C232.6 377.3 231.8 377.3 230.9 377.1C220.9 375.9 213 367.3 207.3 351.8C200.1 331.7 199.9 315.4 206.8 302C218.9 278.5 251.1 267.8 285.9 258C286.4 257.9 286.9 258 287.3 258.3C287.7 258.6 287.9 259.1 287.8 259.6L281.1 340C281.1 340.3 281 340.5 280.9 340.7C279.9 342.3 256 377.3 233.5 377.3ZM284.7 261.5C251.4 270.9 220.9 281.4 209.6 303.4C203.1 316 203.3 331.5 210.2 350.8C215.4 365.2 222.5 373.1 231.3 374.2C232 374.3 232.8 374.3 233.5 374.3C253.4 374.3 275.8 342.8 278.2 339.3L284.7 261.5Z" fill="#32333D"/>
<path d="M353 252.3C352.8 252.3 352.6 252.3 352.5 252.3C348.8 252 346.1 248.8 346.4 245.1C347.4 233.1 340.5 215.5 331.5 206.7C328.9 204.1 328.8 199.9 331.4 197.3C334 194.7 338.2 194.6 340.8 197.2C352.7 208.8 361 230.3 359.7 246.3C359.4 249.7 356.5 252.3 353 252.3Z" fill="#32333D"/>
<path d="M258.2 311.7C242.3 311.7 217.3 294.7 210.7 278.7C209.3 275.3 210.9 271.4 214.3 270C217.7 268.6 221.6 270.2 223 273.6C227.9 285.5 250.2 299.6 259 298.3C262.6 297.8 266 300.3 266.5 303.9C267 307.5 264.5 310.9 260.9 311.4C260.1 311.6 259.2 311.7 258.2 311.7Z" fill="#32333D"/>
<path d="M272.6 343L281.4 356.8C285.4 363.1 314.2 358.8 342 341.2C369.8 323.7 386 299.4 382 293.1L373.2 279.3L272.6 343Z" fill="#F2D085"/>
<path d="M290.5 361C285.3 361 281.6 359.8 280.2 357.6L271.4 343.8C271.2 343.5 271.1 343.1 271.2 342.7C271.3 342.3 271.5 342 271.9 341.8L372.5 278.1C373.2 277.7 374.1 277.9 374.6 278.6L383.4 292.4C388.2 300.2 370.1 325.3 342.9 342.5C330.2 350.6 316.1 356.6 303.2 359.4C298.3 360.5 294 361 290.5 361ZM274.7 343.4L282.7 356C285.9 361 313.4 357.5 341.2 340C370.6 321.4 383.5 298.3 380.8 294L372.8 281.5L274.7 343.4Z" fill="#32333D"/>
<path d="M330.1 322.4C357.9 304.9 377.1 285.5 373.1 279.1C369.1 272.8 343.3 281.9 315.5 299.4C287.7 316.9 268.5 336.3 272.5 342.7C276.5 349.1 302.4 340 330.1 322.4Z" fill="#32333D"/>
<path d="M277.9 346.3C276.9 346.3 275.9 346.2 275.1 346C273.3 345.6 272 344.8 271.3 343.6C266.1 335.3 289.8 314 314.8 298.2C339.8 282.4 369.2 270.1 374.4 278.3C379.6 286.6 355.9 307.9 330.9 323.7C309.1 337.5 288.2 346.3 277.9 346.3ZM367.9 278.6C359.7 278.6 340.6 285.4 316.4 300.7C303.1 309.1 291.3 318.2 283.2 326.3C274.5 335 272.7 340.1 273.8 341.9C274.1 342.4 274.8 342.8 275.8 343C282.7 344.6 303.3 337.5 329.3 321.1C342.6 312.7 354.4 303.6 362.5 295.5C371.2 286.8 373 281.7 371.9 279.9C371.3 279.1 369.9 278.6 367.9 278.6Z" fill="#32333D"/>
<path d="M372.3 272.6C377.5 278.6 374.1 290 365.7 294.3C365.7 300.8 357.5 309.6 349.7 311.9C346.8 323.1 328.2 334.9 317.1 334.3C310.9 342.2 299.7 344.7 293.7 343.3C284.5 349.8 273 347.5 271.6 341.8C269.9 334.9 280.2 304.9 303.8 287.6C327.4 270.5 358.9 239.4 372.3 272.6Z" fill="#BF1931"/>
<path d="M281.7 348.8C279.7 348.8 277.7 348.5 275.9 347.8C272.8 346.7 270.8 344.7 270.1 342.2C268.2 334.4 279.2 303.8 302.9 286.4C306.1 284.1 309.3 281.6 312.7 279C328.3 267 345.9 253.4 359.4 257.1C365.4 258.7 370.2 263.7 373.5 271.9C375.8 274.7 376.7 278.8 375.8 283C374.8 288.1 371.4 292.8 367 295.3C366.3 302 358.7 310.4 350.8 313.2C347.1 324.7 328.9 336 317.7 336C311.1 343.7 300.1 346.2 294 345.1C290.2 347.4 285.8 348.8 281.7 348.8ZM354.7 259.4C343 259.4 328 271 314.6 281.3C311.1 284 307.9 286.5 304.7 288.8C281.8 305.7 271.5 335.1 273 341.5C273.4 343 274.8 344.2 276.9 345C280.5 346.3 286.8 346.3 292.8 342.1C293.2 341.9 293.6 341.8 294 341.9C299.2 343.2 309.9 340.9 315.8 333.4C316.1 333 316.6 332.8 317 332.8C327.2 333.3 345.3 322.2 348.1 311.5C348.2 311 348.6 310.6 349.1 310.4C356.3 308.2 364 299.9 364 294.2C364 293.6 364.3 293.1 364.8 292.9C368.8 290.8 371.9 286.8 372.8 282.2C373.5 278.8 372.8 275.6 371 273.5C370.9 273.4 370.8 273.2 370.7 273.1C367.7 265.6 363.7 261.3 358.5 259.9C357.4 259.6 356.1 259.4 354.7 259.4Z" fill="#32333D"/>
<path d="M362.8 254.5C367.7 260.2 364.5 270.8 356.6 274.9C356.6 281 348.9 289.2 341.6 291.5C337.5 303.9 321.3 313.1 310.9 312.6C305 320 294.5 322.4 288.9 321.1C280.2 327.2 269.5 325.1 268.1 319.7C266.5 313.2 281.2 292.3 303.4 276.1C325.7 259.6 356.5 247 362.8 254.5Z" fill="#BF1931"/>
<path d="M277.7 326.2C275.8 326.2 274 325.9 272.3 325.3C269.4 324.2 267.4 322.3 266.8 320C264.5 311 284.2 288.3 302.7 274.8C323.1 259.8 356.3 244.5 364.1 253.6C366.4 256.3 367.3 260.2 366.5 264.2C365.5 269 362.4 273.4 358.2 275.8C357.5 282 350.4 289.9 343 292.6C338.5 304.8 322.8 314 311.9 314H311.8C305.9 320.9 295.9 323.7 289.5 322.5C285.7 325 281.6 326.2 277.7 326.2ZM356.3 253.8C345.6 253.8 322.7 263.7 304.3 277.2C282.1 293.5 268.2 313.6 269.6 319.3C270 320.7 271.3 321.8 273.2 322.6C276.5 323.8 282.4 323.8 288 319.9C288.4 319.7 288.8 319.6 289.2 319.7C294.2 320.9 304.1 318.8 309.7 311.8C310 311.4 310.5 311.2 310.9 311.2C320.9 311.7 336.2 302.8 340.1 291.1C340.3 290.6 340.6 290.3 341.1 290.1C348 287.9 355 280.3 355 275C355 274.4 355.3 273.9 355.8 273.7C359.6 271.8 362.4 268 363.3 263.8C363.9 260.7 363.3 257.7 361.6 255.7C360.7 254.3 358.8 253.8 356.3 253.8Z" fill="#32333D"/>
<path d="M254.8 321.4C266.1 339.4 373.9 271.2 362.5 253.2C343.8 223.8 304.6 215.1 274.9 234C245.2 252.8 236.2 292 254.8 321.4Z" fill="#F2D085"/>
<path d="M262.2 325.9C258 325.9 255.1 324.7 253.6 322.2C234.6 292.1 243.8 251.9 274.2 232.7C288.9 223.4 306.3 220.3 323.3 224C340.2 227.7 354.6 237.8 363.9 252.4C365.6 255 365.3 258.5 363.1 262.6C356.8 274.6 335.7 290.9 318.1 302C300.5 313.2 276.8 325.3 263.2 325.8C262.8 325.9 262.5 325.9 262.2 325.9ZM256.1 320.6C257.1 322.2 259.5 323 263 322.9C286.6 322 349.4 282.2 360.4 261.3C362.1 258.1 362.4 255.7 361.3 254.1C352.5 240.2 338.7 230.6 322.6 227.1C306.4 223.5 289.8 226.5 275.8 235.4C246.7 253.6 237.9 291.9 256.1 320.6Z" fill="#32333D"/>
<path d="M314.3 262.7C322.3 262.7 328.7 256.2 328.7 248.3C328.7 240.3 322.2 233.9 314.3 233.9C306.4 233.9 299.9 240.4 299.9 248.3C299.9 256.2 306.4 262.7 314.3 262.7Z" fill="#32333D"/>
<path d="M310.7 255.8C309.8 256.3 309.8 257.7 310.7 258.1C313.3 259.2 316.4 259.3 319.2 258C322 256.7 323.8 254.2 324.5 251.4C324.7 250.4 323.7 249.5 322.6 250L310.7 255.8Z" fill="white"/>
<path d="M317.9 247.3C320.5 247.3 322.6 245.1 322.6 242.6C322.6 239.9 320.4 237.9 317.9 237.9C315.2 237.9 313.2 240.1 313.2 242.6C313.2 245.3 315.4 247.3 317.9 247.3Z" fill="white"/>
<path d="M308.5 252.3C309.4 252.3 310.3 251.6 310.3 250.5C310.3 249.6 309.6 248.7 308.5 248.7C307.6 248.7 306.7 249.4 306.7 250.5C306.9 251.6 307.6 252.3 308.5 252.3Z" fill="white"/>
<path d="M283.1 279.9C291.1 279.9 297.5 273.4 297.5 265.5C297.5 257.5 291 251.1 283.1 251.1C275.2 251.1 268.7 257.6 268.7 265.5C268.7 273.4 275.1 279.9 283.1 279.9Z" fill="#32333D"/>
<path d="M279.5 273C278.6 273.5 278.6 274.9 279.5 275.3C282.1 276.4 285.2 276.5 288 275.2C290.8 273.9 292.6 271.4 293.3 268.6C293.5 267.6 292.5 266.7 291.4 267.2L279.5 273Z" fill="white"/>
<path d="M286.8 264.6C289.5 264.6 291.5 262.4 291.5 259.9C291.5 257.2 289.3 255.2 286.8 255.2C284.1 255.2 282.1 257.4 282.1 259.9C282 262.4 284.1 264.6 286.8 264.6Z" fill="white"/>
<path d="M277.4 269.5C278.3 269.5 279.2 268.8 279.2 267.7C279.2 266.8 278.5 265.9 277.4 265.9C276.5 265.9 275.6 266.6 275.6 267.7C275.6 268.8 276.5 269.5 277.4 269.5Z" fill="white"/>
<path d="M300.3 285.4C297.7 285.4 295.1 285 292.8 284.2C292 283.9 291.6 283.1 291.9 282.3C292.2 281.5 293 281.1 293.8 281.4C299.5 283.3 306.9 282.5 313.1 279.1C319 275.9 323.1 270.8 324.6 264.7C324.8 263.9 325.6 263.4 326.4 263.6C327.2 263.8 327.7 264.6 327.5 265.4C325.8 272.3 321.2 278.1 314.5 281.7C310 284.2 305 285.4 300.3 285.4Z" fill="#32333D"/>
<path d="M208.8 351.3C212.7 364 220.1 375.3 227.1 378.6C252.1 390.5 335.5 379.9 341.6 363.2C346.6 349.5 272.4 294.8 219.2 310.3" fill="#00DBA3"/>
<path d="M261.2 385.3C246.9 385.3 234.1 383.7 226.4 380.1C218.5 376.3 210.3 361.6 206.6 349.7C206.4 348.9 206.8 348.1 207.6 347.8C208.4 347.6 209.2 348 209.5 348.8C213.5 361.9 221.5 374.4 227.7 377.4C247 386.6 303.1 381.8 328.1 371.6C336.7 368.1 339.4 364.9 340.1 362.9C340.9 360.6 338.4 356.1 333.5 350.9C322.9 339.6 303.7 327.2 284.7 319.3C267.7 312.3 242.5 305.3 219.6 311.9C218.8 312.1 218 311.7 217.7 310.9C217.5 310.1 217.9 309.3 218.7 309C242.5 302.1 268.3 309.2 285.8 316.5C305.2 324.5 324.8 337.2 335.7 348.8C339.9 353.3 344.5 359.5 342.9 363.9C341.5 367.7 336.9 371.2 329.2 374.4C313.1 380.9 285 385.3 261.2 385.3Z" fill="#32333D"/>
<path d="M466.7 344.9C464.2 360.1 454.2 381 446.9 384.5C420.5 397.2 329.1 379 321.3 358.3C315 341.4 393.2 298.5 435.7 302.4" fill="#00DBA3"/>
<path d="M420.8 389.1C413.1 389.1 405.5 388.5 400 387.9C379.9 385.7 358.8 380.7 343.6 374.6C330.4 369.3 322.5 363.6 320.3 357.7C319.1 354.5 320.2 350.7 323.6 346.3C338.5 326.8 399.9 296.4 436.3 299.8C437.1 299.9 437.7 300.6 437.7 301.4C437.6 302.2 436.9 302.8 436.1 302.8C400.5 299.5 340.7 329.1 326.1 348.2C324.2 350.6 322.2 354.1 323.2 356.7C325 361.6 332.7 367 344.8 371.8C375 384 428 391.1 446.7 382.1C453.3 379 463.2 358.8 465.7 343.6C465.8 342.8 466.6 342.2 467.4 342.4C468.2 342.5 468.8 343.3 468.6 344.1C466.1 359.2 456.1 380.9 448 384.8C441 388.1 430.7 389.1 420.8 389.1Z" fill="#32333D"/>
<path d="M366.5 357.2C364.7 357.2 363 356.5 361.7 355.2C355.8 349 343.2 344.4 334.2 345.1C330.5 345.4 327.3 342.6 327.1 339C326.8 335.3 329.6 332.1 333.2 331.9C346.2 330.9 362.6 337 371.3 346.1C373.8 348.8 373.8 353 371.1 355.5C369.8 356.5 368.2 357.2 366.5 357.2Z" fill="#32333D"/>
<path d="M409.2 325C407.4 325 405.7 324.3 404.4 323C398.5 316.8 385.9 312.2 376.9 312.9C373.2 313.2 370 310.4 369.8 306.8C369.5 303.1 372.3 299.9 375.9 299.7C388.9 298.7 405.3 304.8 414 313.9C416.5 316.6 416.5 320.8 413.8 323.3C412.6 324.4 410.9 325 409.2 325Z" fill="#32333D"/>
<path d="M253.9 460.5C253.9 460.5 282.7 451.3 289.1 463.5C295.4 475.7 289.1 499.9 289.1 499.9L272.9 499.8L253.9 460.5Z" fill="#32333D"/>
<path d="M289 501.4L272.8 501.3C272.2 501.3 271.7 501 271.5 500.5L252.5 461.2C252.3 460.8 252.3 460.4 252.5 460C252.7 459.6 253 459.3 253.4 459.2C254.6 458.8 283.5 449.8 290.4 462.9C296.9 475.4 290.8 499.4 290.5 500.4C290.3 500.9 289.7 501.4 289 501.4ZM273.8 498.3L287.9 498.4C289 493.5 293 474.2 287.7 464.2C283.3 455.7 264.6 459 256 461.5L273.8 498.3Z" fill="#32333D"/>
<path d="M233.8 476.4C233.8 476.4 276.9 472.8 283.1 492.8C287.1 506 268.8 514.2 268.8 514.2L252.7 514.1L233.8 476.4Z" fill="#32333D"/>
<path d="M268.7 515.6L252.6 515.5C252 515.5 251.5 515.2 251.3 514.7L232.4 477C232.2 476.6 232.2 476 232.4 475.6C232.6 475.2 233.1 474.9 233.6 474.8C235.4 474.6 278 471.3 284.5 492.3C286.3 498.3 284.2 504.2 278.4 509.5C274.2 513.3 269.5 515.4 269.3 515.5C269.1 515.6 268.9 515.6 268.7 515.6ZM253.6 512.5L268.4 512.6C270.6 511.5 285 504.1 281.6 493.2C276.6 477.1 244.9 477.3 236.1 477.7L253.6 512.5Z" fill="#32333D"/>
<path d="M436.7 482.7C436.7 482.7 393.5 479.3 387.4 499.2C383.4 512.4 401.5 520.3 401.5 520.3L417.5 520.2L436.7 482.7Z" fill="#32333D"/>
<path d="M401.5 521.8C401.3 521.8 401.1 521.8 400.9 521.7C400.7 521.6 396.1 519.6 391.9 515.8C386.2 510.6 384.1 504.7 385.9 498.7C392.3 477.9 435 481 436.8 481.1C437.3 481.1 437.7 481.4 438 481.9C438.2 482.3 438.3 482.9 438 483.3L418.8 520.9C418.5 521.4 418 521.7 417.5 521.7L401.5 521.8ZM429.7 484C417.5 484 393.1 485.8 388.8 499.7C387.3 504.6 389 509.2 393.9 513.6C397.2 516.5 400.8 518.4 401.8 518.9L416.5 518.8L434.2 484.1C433.1 484 431.6 484 429.7 484Z" fill="#32333D"/>
<path d="M359.4 530.8C359.4 516.5 357.2 504.3 353.8 494.1C344.8 467.1 332.3 468.9 332.3 468.9C330.4 491.1 317.1 489.7 317.1 489.7C313.2 440.4 275.9 424.9 275.9 424.9C292.2 455.6 285.7 475.6 275.7 489.4C275.7 489.4 275.8 465.8 253.8 460.6C253.8 460.6 267.1 494.1 238.2 530.4" fill="#AB31FF"/>
<path d="M238.5 532.2C238.2 532.2 237.8 532.1 237.6 531.9C237 531.4 236.8 530.4 237.4 529.8C252 511.4 255.3 493.8 255.6 482.3C255.9 469.8 252.6 461.5 252.6 461.4C252.4 460.9 252.5 460.3 252.9 459.9C253.3 459.5 253.8 459.3 254.4 459.4C271.4 463.3 275.9 477.9 277.1 485.2C291.1 462.4 282.6 440.5 274.7 425.7C274.4 425.1 274.5 424.5 274.9 424C275.3 423.5 276 423.4 276.6 423.6C277 423.8 314.1 439.6 318.8 488.1C320.1 487.9 322.2 487.4 324.4 485.6C328.2 482.4 330.4 476.7 331 468.7C331.1 468 331.6 467.4 332.3 467.3C332.9 467.2 346.1 465.5 355.5 493.4C359.3 504.8 361.3 517.4 361.3 530.6C361.3 531.4 360.6 532.1 359.8 532.1C359 532.1 358.3 531.4 358.3 530.6C358.3 517.7 356.4 505.5 352.7 494.3C348.2 481 343 475.1 339.4 472.6C337 470.9 335.1 470.4 334 470.3C333.1 478.5 330.6 484.4 326.4 487.9C322.1 491.5 317.6 491.1 317.4 491.1C316.7 491 316.1 490.5 316.1 489.7C314.1 464.7 303.2 448.8 294.4 439.9C288.7 434.1 283.2 430.4 279.6 428.4C291 452 290.3 472.3 277.4 490.3C277 490.8 276.3 491.1 275.7 490.9C275.1 490.7 274.7 490.1 274.7 489.5C274.7 488.6 274.4 468.9 256.5 463C259 471.9 264.3 501 240 531.6C239.4 532.1 238.9 532.2 238.5 532.2Z" fill="#32333D"/>
<path d="M409.4 541.7C409.4 541.7 390.3 491.4 426.1 468C426.1 468 385.7 464.8 374.8 492C374.8 492 362.3 482 370.2 456.1C370.2 456.1 331.1 468.7 340.9 532.1" fill="#AB31FF"/>
<path d="M409.6 543C409 543 408.4 542.6 408.2 542C408 541.5 403.3 529 403 513.4C402.6 494.4 409 479.2 421.6 469.2C411 469.3 384.5 471.8 376.3 492.5C376.1 492.9 375.8 493.3 375.3 493.4C374.8 493.5 374.3 493.4 374 493.1C373.5 492.7 361.8 483 367.9 458.7C364.5 460.4 358.4 464.2 353 471.4C342.1 485.6 338.5 506.5 342.5 532C342.6 532.8 342.1 533.6 341.3 533.7C340.5 533.8 339.7 533.3 339.6 532.5C336.7 514.1 336.3 488.3 350.7 469.5C359.4 458.2 369.3 454.8 369.7 454.7C370.2 454.5 370.8 454.7 371.2 455.1C371.6 455.5 371.7 456.1 371.6 456.6C367.8 469.4 369.1 478.1 371 483.1C372.1 486.1 373.5 488.1 374.5 489.4C379.5 478.9 389.7 471.7 404.2 468.3C415.7 465.6 425.8 466.4 426.2 466.4C426.8 466.4 427.4 466.9 427.5 467.5C427.7 468.1 427.4 468.8 426.9 469.1C392.6 491.6 410.8 540.5 411 541C411.3 541.8 410.9 542.6 410.1 542.9C409.9 542.9 409.7 543 409.6 543Z" fill="#32333D"/>
<path d="M216.6 531.3C216.6 531.3 245.7 504.6 233.9 476.2C233.9 476.2 267.8 490.4 269.7 530.9C269.7 530.9 290.8 524.6 293 508.1C293 508.1 301.7 529.5 296.6 551.7" fill="#AB31FF"/>
<path d="M296.6 553.1C296.5 553.1 296.4 553.1 296.3 553.1C295.5 552.9 295 552.1 295.2 551.3C298.7 535.8 295.5 520.7 293.3 513.3C291.3 518.5 287.2 523.1 281.4 526.8C275.7 530.5 270.4 532.1 270.1 532.1C269.7 532.2 269.2 532.1 268.8 531.9C268.4 531.6 268.2 531.2 268.2 530.7C266.8 499.1 245.1 483.7 236.7 478.9C245 506.6 217.9 531.8 217.6 532C217 532.6 216 532.5 215.5 531.9C215 531.3 215 530.3 215.6 529.8C215.9 529.5 243.9 503.5 232.7 476.4C232.5 475.8 232.6 475.2 233 474.8C233.4 474.4 234.1 474.2 234.6 474.5C234.9 474.6 268.3 489.2 271.1 528.6C276.1 526.7 289.9 520.4 291.6 507.8C291.7 507.1 292.2 506.6 292.9 506.5C293.6 506.4 294.2 506.8 294.5 507.4C294.9 508.3 303.2 529.4 298.1 551.9C297.9 552.6 297.3 553.1 296.6 553.1Z" fill="#32333D"/>
<path d="M453.4 537.5C453.4 537.5 424.4 510.7 436.2 482.4C436.2 482.4 395 501.1 393.1 541.5C393.1 541.5 375.8 540.1 373.6 523.4C373.6 523.4 360.6 531.7 361.4 557.7" fill="#AB31FF"/>
<path d="M361.7 559.1C360.9 559.1 360.2 558.5 360.2 557.7C359.3 531.1 372.4 522.5 373 522.1C373.4 521.8 374 521.8 374.4 522C374.9 522.2 375.2 522.7 375.3 523.2C376.9 535.7 387.8 538.9 391.9 539.6C394.7 499.8 435.2 480.9 435.6 480.7C436.2 480.4 436.8 480.6 437.3 481C437.7 481.4 437.9 482.1 437.6 482.7C432.9 494 434.3 506.4 441.8 519.6C447.4 529.5 454.5 536.1 454.6 536.1C455.2 536.7 455.3 537.6 454.7 538.2C454.1 538.8 453.2 538.8 452.6 538.3C452.3 538 425.3 512.8 433.6 485.2C423.9 490.7 396.3 509.1 394.9 541.4C394.9 541.8 394.7 542.2 394.4 542.5C394.1 542.8 393.7 542.9 393.3 542.9C393.1 542.9 376.6 541.3 372.9 526.3C369.5 529.7 362.7 538.9 363.3 557.7C363.2 558.3 362.6 559 361.7 559.1Z" fill="#32333D"/>
</svg>
