<svg width="443" height="552" viewBox="0 0 443 552" fill="none" xmlns="http://www.w3.org/2000/svg">
<path fill-rule="evenodd" clip-rule="evenodd" d="M129 169.4C133.694 169.4 137.5 173.205 137.5 177.9V243.738L342.19 345.691C346.392 347.784 348.101 352.888 346.008 357.09C343.915 361.292 338.812 363.001 334.61 360.908L125.21 256.608C122.324 255.171 120.5 252.224 120.5 249V177.9C120.5 173.205 124.306 169.4 129 169.4Z" fill="#32333D"/>
<path fill-rule="evenodd" clip-rule="evenodd" d="M231.648 195.97C234.426 192.186 239.746 191.37 243.53 194.148L433.83 333.848C437.614 336.626 438.43 341.946 435.652 345.73C432.874 349.514 427.554 350.33 423.77 347.552L233.47 207.852C229.686 205.074 228.87 199.754 231.648 195.97Z" fill="#32333D"/>
<path d="M427.4 335.2C432.4 342.5 432.9 352.5 428.6 360.2C427.6 362 426.4 363.6 424.5 364.4C421.9 365.4 418.8 364.3 416.2 363C411.5 360.6 406.8 358 402.3 355.1C399.2 353.1 396.2 350.9 393.8 348C391.4 345.2 389.7 341.7 389.6 338C389.5 334.1 391.1 330.4 394.1 328C395.9 326.5 398.2 325.5 400.6 325C401.8 324.8 403 325 404.2 324.9C405.3 324.8 406.3 324.7 407.4 324.7C412.4 324.7 417.3 326.4 421.4 329.2C423.7 330.8 425.7 332.9 427.4 335.2Z" fill="white"/>
<path d="M422.3 366.6C420.3 366.6 418 365.9 415.4 364.6C409.7 361.7 405.3 359.2 401.4 356.6C398.7 354.9 395.3 352.5 392.5 349.2C389.6 346 388 342 387.9 338.1C387.8 333.7 389.7 329.4 393.1 326.6C395 324.9 397.5 323.8 400.4 323.2C401.3 323 402.1 323.1 402.8 323.1C403.3 323.1 403.7 323.1 404.1 323.1H404.4C405.4 323 406.4 322.9 407.5 322.9C412.7 322.9 418.1 324.6 422.5 327.7C424.8 329.4 427 331.7 428.8 334.2C434.2 342.1 434.7 352.9 430.1 361.1C429.1 362.9 427.6 365 425.1 366.1C424.3 366.4 423.3 366.6 422.3 366.6ZM402 326.6C401.6 326.6 401.3 326.6 401 326.7C398.8 327.1 396.8 328 395.4 329.3C392.8 331.4 391.4 334.6 391.5 337.9C391.6 341 392.9 344.2 395.2 346.8C397.7 349.7 400.8 351.9 403.3 353.5C407.2 356 411.4 358.5 417 361.3C419.9 362.8 422.2 363.3 423.8 362.7C424.9 362.2 425.9 361.2 426.9 359.3C430.8 352.2 430.4 343 425.8 336.2C424.2 334 422.3 332 420.4 330.5C416.6 327.8 412 326.3 407.5 326.3C406.6 326.3 405.7 326.4 404.8 326.5H404.5C403.9 326.6 403.3 326.5 402.7 326.5C402.5 326.6 402.3 326.6 402 326.6Z" fill="#32333D"/>
<path d="M325.2 378.6C322 375.7 322.7 370.7 324 366.8C326.6 358.8 331.5 351.4 337.9 345.6C339.7 344.1 341.9 342.5 344.1 343C347.2 343.6 348.7 347.1 349.2 350.2C349.8 353.4 349.9 356.8 349.5 360.1C349.2 363.4 348.4 366.7 347.2 369.9C346.6 371.4 346 373 345.2 374.4C344.8 375.4 344.1 376.6 343.3 377.4C341.3 379.4 337.7 379.6 335 380.2C332 380.8 328.7 381.1 326.1 379.3C325.9 379 325.5 378.8 325.2 378.6Z" fill="white"/>
<path d="M331 382.4C329 382.4 326.9 382 325.1 380.8C325 380.7 324.9 380.7 324.8 380.6C324.7 380.5 324.4 380.3 324.2 380.2C324.1 380.2 324.1 380.1 324 380C320.8 377.2 320.2 372.3 322.3 366.3C325 357.9 330 350.4 336.7 344.4C338.6 342.8 341.4 340.7 344.4 341.3C348.4 342 350.4 346.2 350.9 350C351.5 353.3 351.6 356.9 351.2 360.4C350.8 363.9 350 367.4 348.8 370.7C348.2 372.4 347.5 374 346.8 375.4C346.3 376.4 345.6 377.9 344.6 378.9C342.6 380.9 339.5 381.4 337 381.9C336.4 382 335.9 382.1 335.4 382.2C334 382.2 332.5 382.4 331 382.4ZM327.2 377.8C329.3 379.1 332 378.8 334.7 378.3C335.2 378.2 335.8 378.1 336.4 378C338.5 377.6 340.9 377.2 342 376C342.5 375.5 343 374.6 343.5 373.6C343.5 373.6 343.5 373.5 343.6 373.5C344.3 372.2 344.9 370.8 345.5 369.2C346.7 366.1 347.4 363 347.7 359.8C348 356.6 347.9 353.4 347.4 350.4C347.1 348 345.9 345.1 343.8 344.7C342.6 344.5 341.1 345.2 339.1 346.9C332.9 352.4 328.3 359.5 325.7 367.3C325 369.4 323.6 374.6 326.3 377.1C326.6 377.4 326.9 377.6 327.2 377.8Z" fill="#32333D"/>
<path d="M347.5 416.5C350.8 422 356.8 426.3 363.3 426.3C369.8 426.3 377.7 414.8 377.9 408.6C390.1 410.7 400.4 420.5 412.5 422.7C417 423.5 422.6 422.7 426.4 420.2C430.8 417.1 431.3 410.6 429.4 405.6C427.4 400.6 423.6 396.7 420.4 392.4C417.2 388.1 414.3 383 415.1 377.6C415.9 377.4 416.6 377.3 417.3 377C421 373.5 425.1 370.4 429.8 368.2C433.4 366.3 437.6 364.6 439.5 360.9C442 355.9 439.2 349.4 434.2 346.7C429.3 343.8 423.3 343.9 417.8 344.8C412.3 345.7 406.8 347.2 401.2 347C392.1 346.8 383.6 342.1 374.4 341.8C361.5 341.2 349.2 349.7 343.3 361.2C341.5 364.7 340.2 368.5 339.6 372.3C338.8 376.2 338.6 380.2 338.8 384.1C339 388.1 339.6 392 340.8 395.9C341.1 397.1 341.9 398.2 342.5 399.4C343.2 401.1 343.1 402.9 343.4 404.6C344.1 408.5 345.2 412.1 346.9 415.4C347 415.8 347.2 416.2 347.5 416.5Z" fill="white"/>
<path d="M363.2 428.1C356.5 428.1 349.9 424 345.9 417.4L345.8 417.2C345.8 417.1 345.7 417 345.7 417C345.4 416.8 345.2 416.6 345 416.3C343.2 413 342 409.3 341.3 405C341.2 404.4 341.1 403.7 341 403C340.9 402 340.8 401 340.5 400.2C340.4 399.9 340.1 399.5 339.9 399.1C339.5 398.3 339 397.4 338.7 396.5C337.6 393 336.9 389 336.7 384.3C336.5 380.1 336.7 375.9 337.5 372.1C338.2 368.3 339.5 364.4 341.4 360.5C347.9 347.7 361.1 339.6 374.2 340.1C378.9 340.3 383.5 341.5 387.8 342.8C392.3 344 396.5 345.2 400.9 345.3C404.8 345.5 408.6 344.7 412.7 343.9C414.2 343.6 415.7 343.3 417.2 343.1C424.6 341.9 430.4 342.6 434.8 345.2C440.9 348.6 443.6 356.2 440.8 361.8C438.9 365.6 435 367.5 431.6 369.2C431.2 369.4 430.8 369.6 430.4 369.8C426.3 371.7 422.4 374.5 418.4 378.3C418.2 378.5 418 378.6 417.7 378.7C417.3 378.8 417 378.9 416.6 379C416.5 383.6 419.2 387.9 421.7 391.2C422.5 392.3 423.4 393.4 424.2 394.4C426.7 397.6 429.4 400.9 430.9 404.8C432.9 410.2 432.7 417.7 427.3 421.5C423.4 424.1 417.4 425.3 412.1 424.3C405.8 423.2 400 420.1 394.5 417.1C389.4 414.4 384.6 411.8 379.4 410.6C377.8 417.8 370.3 428.1 363.2 428.1ZM348 414.3C348.4 414.7 348.7 415.1 348.9 415.4L349 415.5C349 415.5 349 415.5 349 415.6C352.3 421 357.8 424.5 363.2 424.5C368.3 424.5 375.9 414.2 376 408.5C376 408 376.2 407.5 376.7 407.1C377.1 406.8 377.6 406.6 378.2 406.7C384.7 407.8 390.6 410.9 396.3 414C401.9 417 407.1 419.8 412.9 420.8C417.3 421.6 422.4 420.6 425.5 418.5C429.1 416 429.4 410.3 427.8 406.1C426.4 402.7 424.1 399.8 421.6 396.6C420.7 395.5 419.8 394.4 419 393.3C416.1 389.5 412.5 383.6 413.4 377.2C413.5 376.5 414 375.9 414.7 375.7C415.1 375.6 415.5 375.5 415.8 375.4C416 375.4 416.2 375.3 416.4 375.3C420.6 371.4 424.7 368.5 429 366.5C429.4 366.3 429.8 366.1 430.2 365.9C433.3 364.4 436.5 362.7 437.9 360C439.9 356.1 437.7 350.6 433.3 348.2C429.6 346 424.6 345.5 418 346.5C416.5 346.7 415 347 413.6 347.3C409.5 348.1 405.3 348.9 401 348.7C396.2 348.6 391.5 347.3 387 346C382.6 344.8 378.5 343.6 374.2 343.5C362.7 343 350.6 350.6 344.8 361.9C343 365.4 341.8 369 341.2 372.5C340.5 376.1 340.2 380 340.4 383.9C340.6 388.2 341.3 391.9 342.3 395.3C342.5 395.9 342.8 396.6 343.2 397.2C343.4 397.7 343.7 398.1 343.9 398.6C344.4 400 344.6 401.3 344.7 402.5C344.8 403.1 344.8 403.7 344.9 404.2C345.5 408.2 346.5 411.5 348 414.3Z" fill="#32333D"/>
<path d="M395.2 321.1C392.8 319.2 390.5 317.2 387.5 316.7C383.1 315.8 378.6 318.5 376.3 322.1C371.9 328.8 374.2 338.4 380 343.9C385.8 349.4 394.6 351.2 402.5 350.5C406.1 350.2 409.8 349.4 413.3 348.2C415.1 347.6 422.3 344.9 422.4 344.1C422.7 342.6 420.6 341.5 419.6 340.6C418.1 339.4 416.5 338.2 415 336.9C411.8 334.5 408.8 331.8 405.6 329.4C402.2 326.6 398.7 323.8 395.2 321.1Z" fill="white"/>
<path d="M399.3 352.4C391.1 352.4 383.7 349.8 378.8 345.2C372.8 339.5 369.6 328.9 374.8 321.1C377.7 316.5 383.1 314 387.9 314.9C391 315.5 393.4 317.3 395.7 319.1L396.4 319.6C399.9 322.3 403.5 325.1 406.9 327.9C408.5 329.1 410.1 330.4 411.6 331.7C413.1 332.9 414.7 334.2 416.2 335.4C416.2 335.4 416.3 335.4 416.3 335.5C417.8 336.8 419.4 338 420.9 339.2C420.9 339.2 421 339.2 421 339.3C421.2 339.5 421.4 339.6 421.6 339.8C422.8 340.7 424.8 342.2 424.3 344.5C423.8 346.6 417.6 348.8 413.9 349.9C410.3 351.1 406.5 351.9 402.7 352.3C401.5 352.4 400.4 352.4 399.3 352.4ZM385.8 318.3C382.5 318.3 379.4 320.5 377.8 323C374.6 328 375 336.6 381.3 342.6C386.2 347.2 393.9 349.4 402.4 348.7C405.9 348.4 409.4 347.6 412.8 346.5C414.5 346 418.6 344.4 420.4 343.4C420.1 343.1 419.7 342.8 419.4 342.6C419.1 342.4 418.8 342.2 418.6 342C417.1 340.8 415.5 339.6 414 338.3C412.4 337.1 410.8 335.8 409.3 334.5C407.8 333.3 406.2 332 404.7 330.8C401.3 328 397.7 325.2 394.2 322.5L393.5 322C391.4 320.4 389.5 318.9 387.2 318.5C386.7 318.3 386.2 318.3 385.8 318.3Z" fill="#32333D"/>
<path d="M435.8 376.6C432.8 373.2 428.7 371 424.6 369.2C418.5 366.6 412.4 364.5 406 362.9C403.5 362.3 400.8 361.8 398.4 362.7C395.1 363.8 393 367.4 392.9 371C392.7 374.5 394.1 377.9 396 380.9C401.4 389.6 410.7 395.8 420.8 397.2C424.5 397.8 428.5 397.6 431.9 396.2C435 395 437.3 392.6 438.7 389.6C439.3 388.6 439.3 387.4 439.3 386.3C439.3 384.5 439.1 383.1 438.5 381.4C437.9 379.6 436.9 378.1 435.8 376.6Z" fill="white"/>
<path d="M424.7 399.3C423.3 399.3 421.9 399.2 420.4 399C409.8 397.5 400.1 391.1 394.3 381.9C391.8 378 390.7 374.4 390.9 370.9C391 366.4 393.8 362.3 397.6 361C400.5 359.9 403.6 360.6 406.2 361.2C412.7 362.8 418.9 364.9 425.2 367.6C428.9 369.2 433.6 371.5 437.1 375.5C437.1 375.5 437.1 375.6 437.2 375.6C438.2 376.9 439.5 378.7 440.1 381C440.7 382.8 440.9 384.4 440.9 386.4C440.9 387.6 440.9 389.1 440.1 390.5C438.4 394.1 435.7 396.6 432.3 398C430.2 398.9 427.6 399.3 424.7 399.3ZM401.1 364.1C400.3 364.1 399.6 364.2 398.9 364.5C396.5 365.3 394.7 368.1 394.6 371.1C394.4 373.8 395.4 376.7 397.4 380C402.6 388.4 411.4 394.1 420.9 395.5C424.8 396.1 428.4 395.8 431.1 394.6C434.3 393.3 436.1 390.8 437 388.9V388.8C437.3 388.2 437.3 387.3 437.3 386.4C437.3 384.8 437.1 383.6 436.6 382.1C436.1 380.3 435.1 379 434.3 377.8C431.3 374.4 427.1 372.3 423.8 370.9C417.7 368.2 411.7 366.2 405.4 364.7C404 364.4 402.5 364.1 401.1 364.1Z" fill="#32333D"/>
<path d="M381.5 395.8C380.3 392.8 379.2 389.7 377.3 387.1C375 384 371.6 381.9 367.8 381.6C364.1 381.3 360.2 382.6 357.7 385.5C355.2 388.4 354.4 392.3 354.5 396.2C354.6 402 356.7 407.7 359.9 412.4C363.1 417.1 367.4 421.1 372.2 424.4C375.1 426.4 378.3 428.1 381.7 428.8C385.1 429.5 388.9 429.2 391.8 427.4C393.8 426.2 395.4 424.1 396.1 421.8C396.4 420.8 396.4 419.7 396.4 418.7C396.3 417.7 395.4 417 394.9 416.4C393.1 414.5 391.4 412.4 389.8 410.3C388.3 408.2 386.7 406 385.5 403.7C384.2 401.4 383 399.1 382 396.6C381.7 396.5 381.6 396.2 381.5 395.8Z" fill="white"/>
<path d="M385.2 430.9C384 430.9 382.7 430.8 381.4 430.5C378.2 429.9 375 428.4 371.2 425.8C365.8 422.1 361.5 417.9 358.4 413.3C354.8 407.9 352.8 402 352.7 396.1C352.6 391.2 353.8 387 356.3 384.2C359.1 381 363.5 379.3 367.9 379.7C372 380.1 376 382.3 378.7 385.9C380.5 388.4 381.6 391.1 382.6 393.8L383.1 395C383.1 395 383.1 395 383.1 395.1C383.3 395.3 383.5 395.5 383.6 395.8C384.4 397.9 385.5 400 387 402.6C388.2 404.9 389.7 407.1 391.2 409C392.7 411 394.4 413 396.1 414.9C396.1 414.9 396.1 415 396.2 415C396.3 415.1 396.4 415.2 396.5 415.4C397.1 416 398 416.9 398.1 418.3C398.1 418.4 398.1 418.4 398.1 418.5C398.1 419.6 398.1 420.9 397.7 422.2C397 424.8 395.1 427.3 392.6 428.8C390.7 430.2 388 430.9 385.2 430.9ZM366.7 383.3C363.7 383.3 360.9 384.5 359 386.6C356.6 389.3 356.2 393.2 356.3 396C356.4 401.2 358.2 406.5 361.4 411.2C364.3 415.4 368.2 419.3 373.3 422.7C376.6 425 379.4 426.3 382.1 426.8C385.5 427.5 388.7 427 390.9 425.6C392.6 424.6 393.9 422.8 394.4 421C394.6 420.3 394.7 419.4 394.7 418.6C394.6 418.4 394.3 418.1 394.1 417.8C393.9 417.6 393.8 417.5 393.6 417.3C391.7 415.3 390 413.2 388.4 411.1C386.9 409.1 385.3 406.7 384 404.3C382.6 401.8 381.5 399.7 380.6 397.6C380.1 397.1 379.9 396.5 379.8 396.2L379.3 395C378.3 392.4 377.3 390 375.8 387.9C373.7 385.2 370.8 383.4 367.6 383.1C367.4 383.3 367 383.3 366.7 383.3Z" fill="#32333D"/>
<path d="M340.5 394C347.9 389.7 352.3 381.1 351.7 372.6C351.5 370.3 351 368.1 349.9 366.1C348.8 364.1 347.1 362.5 345 361.6C342.5 360.6 339.7 361 337.4 361.9C334.9 362.9 332.8 364.3 330.7 365.8C328.2 367.6 325.4 369.4 323.3 371.9C321.2 374.4 319.8 377.3 319.9 380.6C320 383.7 321.6 386.4 323.2 388.9C325 391.4 327.1 394 329.3 396.2C331.6 398.4 334 400.3 336.8 402C337.6 402.4 338.3 403 339.1 403.3C339.9 403.6 340.6 404.3 341.5 404.5C341.8 403.5 341.3 402.4 341.2 401.4C341.1 399.7 340.9 398.3 340.9 396.7C340.9 396.3 340.8 395.8 340.8 395.4C340.5 395.1 340.4 394 340.5 394Z" fill="white"/>
<path d="M341.6 406.3C341.5 406.3 341.3 406.3 341.2 406.2C340.4 406 339.7 405.6 339.2 405.3C338.9 405.1 338.7 405 338.5 404.9C337.9 404.6 337.3 404.3 336.7 403.9C336.5 403.8 336.2 403.6 336 403.5C333 401.6 330.5 399.7 328.2 397.4C325.9 395.1 323.8 392.5 321.9 389.8C320.2 387.3 318.4 384.2 318.3 380.6C318.2 377.1 319.5 373.7 322.2 370.7C324.4 368.2 327.1 366.3 329.6 364.6L329.9 364.4C332.1 362.9 334.3 361.4 337 360.3C340.2 359.1 343.3 359 345.9 360C348.3 361 350.3 362.8 351.7 365.3C353.1 367.8 353.5 370.5 353.7 372.5C354.3 381.3 349.9 390.1 342.7 394.9C342.7 395.1 342.8 395.2 342.8 395.4C342.8 395.5 342.8 395.7 342.8 395.8C342.8 396.1 342.9 396.4 342.9 396.7C342.9 397.7 343 398.6 343.1 399.6C343.2 400.2 343.2 400.7 343.2 401.3C343.2 401.4 343.3 401.7 343.4 402C343.6 402.8 343.9 403.9 343.5 405.1C343.1 405.8 342.4 406.3 341.6 406.3ZM342 362.9C340.6 362.9 339.2 363.3 338.1 363.7C335.8 364.6 333.8 365.9 331.8 367.4L331.5 367.6C329.1 369.3 326.6 371 324.8 373.1C323.4 374.7 321.7 377.4 321.8 380.6C321.9 383.3 323.4 385.8 324.8 387.9C326.5 390.4 328.6 392.8 330.6 394.9C332.8 397 335.1 398.8 337.8 400.5C338 400.6 338.3 400.8 338.5 400.9C338.8 401.1 339.1 401.3 339.4 401.4C339.4 400.8 339.3 400.3 339.3 399.9C339.2 398.9 339.1 397.8 339.1 396.7C339.1 396.6 339.1 396.4 339.1 396.3C339.1 396.2 339.1 396.1 339.1 396C338.7 395.2 338.6 394.1 338.8 393.6C338.9 393.1 339.2 392.8 339.6 392.5C346.3 388.6 350.5 380.7 350 372.8C349.8 370.3 349.3 368.5 348.5 367.1C347.5 365.3 346.1 364 344.5 363.4C343.7 363 342.8 362.9 342 362.9Z" fill="#32333D"/>
<path d="M324.2 451.7C324.2 451.7 331.4 463.7 325.4 472.9C319.4 481.9 305.4 488.2 289.1 482.5C284.8 495.1 256.7 517.9 203.8 517.3C150.9 516.6 159 477 159 477L324.2 451.7Z" fill="white"/>
<path d="M205.7 519.1C205.1 519.1 204.4 519.1 203.8 519.1C185.1 518.9 171.7 513.9 164 504.2C154.2 492.1 157.1 477.3 157.2 476.7C157.3 476 157.9 475.4 158.7 475.3L323.9 449.9C324.6 449.8 325.3 450.1 325.7 450.8C326 451.3 333.4 463.9 326.9 473.9C321 482.9 307 489.9 290.2 484.7C287.4 490.8 279.7 499.2 265.6 506.4C254 512.2 234.4 519.1 205.7 519.1ZM160.5 478.6C160.1 482.2 159.6 493.1 166.7 502C173.8 510.7 186.2 515.3 203.8 515.5C257.6 516.1 283.7 492.6 287.4 481.9C287.6 481.4 287.9 481.1 288.3 480.9C288.7 480.7 289.2 480.7 289.7 480.8C305.5 486.4 318.5 480.1 323.9 471.9C328.2 465.3 324.7 456.7 323.2 453.7L160.5 478.6Z" fill="#32333D"/>
<path d="M270.5 400.7C286.7 397.8 306.9 402.6 318.2 418.2C334.5 440.6 324.4 478.4 284.9 475.5C265.7 500.3 217.2 512.8 178 499.4C138.8 486.1 143.2 440.1 176 425.5C192.9 418 211.9 417.2 229.4 423.3C229.4 423.3 239.2 406.1 270.5 400.7Z" fill="#A582E3"/>
<path d="M212.2 506.6C200.3 506.6 188.4 504.8 177.4 501.1C159.8 495.1 148.9 481.8 148.2 465.4C147.4 448.1 158.3 431.4 175.3 423.9C192.2 416.4 211.1 415.4 228.7 421.2C232.1 416 244.1 403.4 270.2 398.9C285 396.3 306.9 399.5 319.7 417.1C328.8 429.6 330.1 446.6 322.9 459.5C316.1 471.8 302.6 478.3 285.8 477.4C271 495.8 241.7 506.6 212.2 506.6ZM205.5 421.1C195.7 421.1 185.9 423.1 176.8 427.2C161.2 434.1 151.1 449.4 151.9 465.3C152.2 472.4 155.5 489.9 178.7 497.7C197.1 503.9 218.4 504.8 238.7 500C258.2 495.4 274.6 486.1 283.6 474.4C284 473.9 284.6 473.7 285.2 473.7C301.2 474.9 313.5 469.2 319.9 457.7C326.4 446 325.2 430.5 316.9 419.2C305.1 402.9 284.7 399.9 270.9 402.4C241.2 407.5 231.5 423.4 231.1 424.1C231 424.4 230.8 424.6 230.5 424.8C230 425.1 229.4 425.2 228.9 425C221.2 422.4 213.3 421.1 205.5 421.1Z" fill="#32333D"/>
<path d="M263.1 442.5C262.7 442.5 262.2 442.3 261.9 442C261.8 441.9 251.3 432 228.8 425.1C227.9 424.8 227.3 423.8 227.6 422.8C227.9 421.8 228.9 421.3 229.9 421.6C253.3 428.8 264 438.9 264.5 439.3C265.2 440 265.2 441.1 264.6 441.8C264.1 442.3 263.6 442.5 263.1 442.5Z" fill="#32333D"/>
<path d="M310.4 405.3C309.7 393.1 293.2 384.1 273.6 385.2C254 386.3 238.5 397 239.2 409.2C239.9 421.4 256.4 430.4 276 429.3C295.6 428.2 311.1 417.5 310.4 405.3Z" fill="white"/>
<path d="M272.7 431.2C261.1 431.2 250.5 427.8 243.9 421.9C239.9 418.3 237.6 414 237.4 409.3C236.7 395.9 252.5 384.6 273.5 383.4C286.4 382.7 298.4 386.1 305.7 392.6C309.7 396.2 312 400.5 312.2 405.2C312.9 418.6 297.1 429.9 276.1 431.1C275 431.2 273.9 431.2 272.7 431.2ZM276.8 386.9C275.8 386.9 274.8 386.9 273.7 387C255.1 388 240.4 398 241 409.1C241.2 412.7 243 416.2 246.3 419.2C252.8 425 264.1 428.2 275.9 427.5C294.5 426.5 309.2 416.5 308.6 405.4C308.4 401.8 306.6 398.3 303.3 395.3C297.4 390 287.4 386.9 276.8 386.9Z" fill="#32333D"/>
<path fill-rule="evenodd" clip-rule="evenodd" d="M246.09 293.7C250.784 293.75 254.549 297.595 254.5 302.289L253.747 373.82L283.491 394.748C287.331 397.45 288.253 402.752 285.552 406.591C282.85 410.43 277.548 411.353 273.709 408.652L240.309 385.152C238.021 383.542 236.671 380.908 236.701 378.11L237.501 302.11C237.55 297.416 241.395 293.651 246.09 293.7Z" fill="#32333D"/>
<path d="M69.0001 463.7C69.0001 463.7 61.3001 475.4 66.8001 484.8C72.3001 494.2 86.1001 501 102.6 495.9C106.3 508.7 133.5 532.7 186.3 534.5C239.1 536.3 232.9 496.2 232.9 496.2L69.0001 463.7Z" fill="white"/>
<path d="M189.6 536.3C188.5 536.3 187.4 536.3 186.2 536.2C156.5 535.2 136.6 527.3 125.1 520.8C111.3 513 104 504.2 101.4 498C84.2001 502.6 70.6001 494.9 65.2001 485.6C59.2001 475.4 67.1001 463.2 67.5001 462.6C67.9001 462 68.6001 461.7 69.4001 461.8L233.3 494.3C234 494.4 234.6 495 234.7 495.8C234.8 496.4 237 511.4 226.6 523.1C218.9 531.9 206.5 536.3 189.6 536.3ZM102.6 494.1C102.9 494.1 103.2 494.2 103.5 494.3C103.9 494.5 104.2 494.9 104.4 495.4C107.6 506.3 132.7 530.9 186.4 532.7C203.8 533.3 216.5 529.3 223.9 520.9C231.5 512.3 231.5 501.4 231.3 497.7L69.9001 465.7C68.3001 468.6 64.4001 477 68.3001 483.8C73.3001 492.2 85.9001 499.1 102 494.1C102.3 494.1 102.4 494.1 102.6 494.1Z" fill="#32333D"/>
<path d="M125 415C109 411.5 88.6001 415.3 76.6001 430.4C59.3001 452 67.7001 490.3 107.2 489.2C125.3 514.9 173.1 529.4 212.9 517.9C252.7 506.3 250.4 460.2 218.2 444.3C201.7 436 182.7 434.4 165.1 439.7C165 439.6 156 421.9 125 415Z" fill="#A582E3"/>
<path d="M183.8 523.6C152.6 523.6 121.2 511.2 106.4 491C106.1 491 105.9 491 105.6 491C83.2001 491 73.8001 478.9 70.1001 471.5C63.5001 458.3 65.6001 441.3 75.2001 429.3C88.8001 412.3 110.7 410 125.4 413.2C151.3 419 162.4 432.2 165.9 437.4C183.6 432.4 202.5 434.2 219 442.5C235.6 450.7 245.7 467.9 244.2 485.1C242.7 501.4 231.2 514.3 213.4 519.5C204 522.3 193.9 523.6 183.8 523.6ZM107.3 487.4C107.9 487.4 108.4 487.7 108.8 488.2C117.3 500.3 133.3 510.4 152.5 515.8C172.6 521.4 193.9 521.6 212.5 516.2C236.1 509.3 240.1 492.1 240.7 485C242.1 469.2 232.8 453.5 217.5 445.9C201.3 437.8 182.9 436.2 165.7 441.4C165.5 441.5 165.4 441.5 165.2 441.5C164.2 441.5 163.7 440.7 163.5 440.5C161 436.5 151 422.8 124.6 416.9C109.9 413.7 89.7001 417 78.0001 431.7C69.2001 442.7 67.3001 458.1 73.3001 470.1C79.1001 481.6 91.2001 487.8 107.3 487.4C107.2 487.4 107.2 487.4 107.3 487.4Z" fill="#32333D"/>
<path d="M130.5 457.2C130 457.2 129.5 457 129.1 456.6C128.4 455.8 128.5 454.7 129.3 454.1C129.8 453.7 140.9 444.2 164.5 437.8C165.5 437.5 166.4 438.1 166.7 439.1C167 440.1 166.4 441 165.4 441.3C142.6 447.4 131.7 456.7 131.6 456.8C131.4 457.1 130.9 457.2 130.5 457.2Z" fill="#32333D"/>
<path d="M232.2 468.8C226.5 459.3 217.8 451.9 207.6 447.7C199.8 444.4 195.9 457 203.6 460.3C210.5 463.3 216.5 468.3 220.5 474.7C224.8 481.8 236.6 475.9 232.2 468.8Z" fill="white"/>
<path d="M85.0001 418C86.2001 405.9 103.1 397.6 122.7 399.6C142.3 401.6 157.2 413 156 425.2C154.8 437.3 137.9 445.6 118.3 443.6C98.7001 441.6 83.8001 430.1 85.0001 418Z" fill="white"/>
<path d="M124.1 445.6C122.1 445.6 120.1 445.5 118.1 445.3C97.5001 443.2 81.9001 430.9 83.2001 417.8C83.7001 413.2 86.1001 409 90.3001 405.6C97.8001 399.4 110 396.5 122.9 397.8C143.5 399.9 159.1 412.2 157.8 425.3C157.3 429.9 154.9 434.1 150.7 437.5C144.3 442.7 134.7 445.6 124.1 445.6ZM117 401.1C107.3 401.1 98.2001 403.7 92.6001 408.4C89.2001 411.2 87.2001 414.6 86.8001 418.2C85.7001 429.3 99.9001 439.9 118.5 441.8C130.2 443 141.7 440.3 148.4 434.8C151.8 432 153.8 428.6 154.2 425C155.3 413.9 141.1 403.3 122.5 401.4C120.7 401.2 118.8 401.1 117 401.1Z" fill="#32333D"/>
<path fill-rule="evenodd" clip-rule="evenodd" d="M154.553 305.307C159.188 304.563 163.548 307.718 164.293 312.353L176.093 385.853C176.652 389.339 174.999 392.808 171.938 394.568L122.738 422.868C118.669 425.209 113.473 423.807 111.132 419.738C108.791 415.669 110.193 410.473 114.262 408.132L158.378 382.756L147.508 315.047C146.763 310.412 149.918 306.052 154.553 305.307Z" fill="#32333D"/>
<path d="M190.4 361.5C293.7 361.5 377.5 281.4 377.5 182.5C377.5 83.6 293.7 3.5 190.4 3.5C87.1 3.5 3.30005 83.6 3.30005 182.5C3.30005 281.4 87.1 361.5 190.4 361.5Z" fill="#68E1FB"/>
<path d="M190.4 363.3C86.2 363.3 1.5 282.2 1.5 182.5C1.5 82.8 86.2 1.69995 190.4 1.69995C294.6 1.69995 379.3 82.8 379.3 182.5C379.2 282.2 294.5 363.3 190.4 363.3ZM190.4 5.29995C88.2 5.29995 5.1 84.8 5.1 182.5C5.1 280.2 88.2 359.7 190.4 359.7C292.6 359.7 375.7 280.2 375.7 182.5C375.7 84.8 292.5 5.29995 190.4 5.29995Z" fill="#32333D"/>
<path d="M365.2 246.3C369.8 236.7 371.4 226 374.7 216C374.9 215.6 375 215.1 375.4 214.9C375.2 206.6 374.7 198.4 374.1 190.1C378.3 169.3 373.8 149.1 365.8 129.9C365.7 129.6 365.6 129.5 365.5 129.1C366.4 127.9 366.6 126.3 366.1 124.5C360.1 105.5 349.8 88.3 335.7 74.3C331 69.6 323 75.6 326.4 81.5C326.6 81.8 326.7 82.1 327 82.5C315.8 90.4 301.4 93.2 289.3 99.6C274 107.8 264.9 122.2 260.7 138.7C258.6 147 257.9 155.2 261.6 163.3C264.8 170.2 270.5 175.4 276.5 180.1C284.5 186.1 293.4 190.8 302.1 195.8C308.8 202.2 314.7 209.6 320.6 216.7C326.7 224 333.1 231.5 336.9 240.2C338.7 247.6 340.3 255.1 342.1 262.5C341.8 262.9 341.7 263.5 341.4 264.2C340.4 268.2 338.9 271.5 336.3 274.8C334.5 277.2 335.7 280.8 337.8 282.4C340.3 284.3 343.2 283.7 345.5 282C353.5 275.8 357.3 265.4 359.9 255.5C361.7 253.5 363.4 251.5 365.2 249.5C364.8 248.4 364.8 247.4 365.2 246.3Z" fill="#00DDA5"/>
<path d="M81.2 212.3C77.7 206.3 73.4 201.7 68.5 197C63.1 191.8 57.5 186.5 52.3 181.1C33.3 161.5 57.6 132.4 68.1 147C76.1 158.2 77.8 172.5 89.6 181.1C93.2 183.6 96.3 182.8 97.2 178.5C102.8 153.8 95.1 138.5 116.7 123.9C121.1 120.9 124.7 116.8 128.2 113.5C140.4 97.3 138.5 82 123.2 69.7C104.1 60.8 87.9 46.3 106.1 27.6C108.3 25.4 114 22.5 111.9 20.8C109.4 18.7 103.7 23.7 96.9 27.6C51.7 53.7 18 90.4999 6.10005 150.4C-13.3 214.9 33.4001 281.8 48.7001 297.8C50.7001 280.9 35.6 262.7 49.8 248C54.1 243.5 65 241.4 70.4 239.3C81.4 235.2 85.5 224.2 81.2 212.3Z" fill="#00DDA5"/>
<path d="M190.4 363.3C86.2 363.3 1.5 282.2 1.5 182.5C1.5 82.8 86.2 1.69995 190.4 1.69995C294.6 1.69995 379.3 82.8 379.3 182.5C379.2 282.2 294.5 363.3 190.4 363.3ZM190.4 5.29995C88.2 5.29995 5.1 84.8 5.1 182.5C5.1 280.2 88.2 359.7 190.4 359.7C292.6 359.7 375.7 280.2 375.7 182.5C375.7 84.8 292.5 5.29995 190.4 5.29995Z" fill="#32333D"/>
<path d="M333.2 300C333.1 300 332.9 300 332.8 300C331.8 299.8 331.2 298.8 331.5 297.8L331.7 296.8C337.7 271.2 347.7 228.3 288.3 190.7C266.2 176.7 255 161.1 255 144.6C255.1 118.5 282.7 99.8999 288.3 96.3999C294.9 92.1999 302.2 89.0999 308.6 86.2999C323.9 79.6999 332.4 75.3999 330.3 65.8999C330.1 64.8999 330.7 63.9999 331.6 63.6999C332.6 63.4999 333.5 64.0999 333.8 65.0999C336.8 77.9999 324.4 83.3999 310.1 89.5999C303.8 92.2999 296.7 95.3999 290.3 99.3999C275.8 108.5 258.8 125.8 258.7 144.6C258.6 159.8 269.3 174.3 290.3 187.7C316.9 204.6 333 224.7 338.1 247.5C342.4 266.9 338.3 284.6 335.3 297.6L335.1 298.6C334.8 299.5 334.1 300 333.2 300Z" fill="#32333D"/>
<path d="M53.4 305.8C52.7 305.8 52 305.4 51.7 304.7C51.1 303.3 37.6 271.2 45.2 253C49.7 242.4 58.9 239.9 67.1 237.6C73.2 235.9 78.5 234.5 80.4 230C84.7 219.9 82.3 210.2 57.7 187.9C43.6 175.2 42.4 164.5 43.8 157.8C45.7 148.8 52.9 143.5 58.5 141.7C68.4 138.4 73.2 149.5 77.4 159.4C79.1 163.5 81 167.7 83 170.8C89.8 180.9 92.3 181.2 93 181.1C95.4 180.5 96.7 170.7 97.7 162.9C99.4 149.2 101.6 132.1 111 126.1C126.7 116 134.9 103.8 134.1 91.6C133.4 81.4 126 72.4 113.8 66.8C103.5 62.1 97.9 55.9 97 48.2C96.4 42.6 98.3 36.6 102.6 30.3C107 23.9 112.5 19.2 115.4 17C116.2 16.4 117.3 16.5 117.9 17.3C118.5 18.1 118.4 19.2 117.6 19.8C109 26.4 99.4 37.6 100.6 47.7C101.3 54 106.3 59.3 115.3 63.4C128.7 69.5 136.9 79.6 137.7 91.2C138.3 99 135.8 114.3 113 128.9C105 134 103 150.1 101.3 163.1C99.8 174.8 98.7 183.2 93.9 184.4C90.3 185.2 86.2 181.7 80.1 172.6C77.9 169.2 76 164.9 74.2 160.7C69.5 149.9 66 142.9 59.7 145C55 146.5 49 151 47.4 158.4C46.2 164.2 47.4 173.6 60.2 185.1C83.5 206.2 89.5 217.8 83.8 231.2C81.2 237.3 74.9 239.1 68.2 240.9C60.5 243 52.4 245.3 48.7 254.2C41.7 270.9 55.1 302.7 55.2 303.1C55.6 304 55.2 305.1 54.2 305.5C53.8 305.7 53.6 305.8 53.4 305.8Z" fill="#32333D"/>
<path d="M227.1 241.8C237.1 240.8 243.6 221.8 241.4 199.2C239.3 176.7 229.4 159.2 219.2 160.1C209.2 161.1 202.7 180.1 204.9 202.7C207 225.3 216.9 242.8 227.1 241.8Z" fill="white"/>
<path d="M226.2 243.6C223.4 243.6 220.7 242.5 218.1 240.3C210.5 234.1 204.7 219.3 203.1 202.8C200.8 179 207.8 159.4 219 158.3C230.3 157.3 240.9 175.2 243.1 199.1C245.4 222.9 238.4 242.5 227.2 243.6C226.9 243.6 226.6 243.6 226.2 243.6ZM220 161.9C219.8 161.9 219.6 161.9 219.5 161.9C211.5 162.7 204.5 179.2 206.8 202.5C208.3 218.2 213.6 231.9 220.5 237.6C222.7 239.4 224.9 240.2 227 240C235 239.2 242 222.7 239.7 199.4C237.5 176.6 227.9 161.9 220 161.9Z" fill="#32333D"/>
<path fill-rule="evenodd" clip-rule="evenodd" d="M222.3 210.1C216.6 212.3 212.5 218.8 212.5 226.4C212.5 235.9 218.8 243.5 226.4 243.5C234.1 243.5 240.3 235.8 240.3 226.4C240.3 217.9 235.3 211 228.8 209.5C227.8 214.7 225.9 222.4 225.9 222.4L222.3 210.1Z" fill="#32333D"/>
<path d="M245.5 146.9C244.6 146.9 243.9 146.3 243.7 145.4L242.7 138.8C241.7 131.6 237.5 125.4 231.2 121.8C224.9 118.2 217.5 117.7 210.7 120.4C209.8 120.8 208.7 120.3 208.4 119.4C208 118.5 208.5 117.4 209.4 117.1C217.2 113.9 225.8 114.5 233 118.7C240.2 122.9 245.1 130 246.2 138.3L247.2 144.9C247.3 145.9 246.7 146.8 245.7 146.9C245.7 146.9 245.6 146.9 245.5 146.9Z" fill="#32333D"/>
<path d="M156.3 241.8C166.3 240.8 172.8 221.8 170.6 199.2C168.5 176.7 158.6 159.2 148.4 160.1C138.4 161.1 131.9 180.1 134.1 202.7C136.2 225.3 146.2 242.8 156.3 241.8Z" fill="white"/>
<path d="M155.5 243.6C152.7 243.6 150 242.5 147.4 240.3C139.8 234.1 134 219.3 132.4 202.8C130.1 179 137.1 159.4 148.3 158.3C159.6 157.3 170.2 175.2 172.4 199.1C174.7 222.9 167.7 242.5 156.5 243.6C156.1 243.6 155.8 243.6 155.5 243.6ZM149.2 161.9C149 161.9 148.8 161.9 148.7 161.9C140.7 162.7 133.7 179.2 136 202.5C137.5 218.2 142.8 231.9 149.7 237.6C151.9 239.4 154.1 240.2 156.2 240C164.2 239.2 171.2 222.7 168.9 199.4C166.7 176.6 157.1 161.9 149.2 161.9Z" fill="#32333D"/>
<path fill-rule="evenodd" clip-rule="evenodd" d="M151.6 210.1C145.9 212.3 141.8 218.8 141.8 226.4C141.8 235.9 148.1 243.5 155.7 243.5C163.4 243.5 169.6 235.8 169.6 226.4C169.6 217.9 164.6 211 158.1 209.5C157.1 214.7 155.2 222.4 155.2 222.4L151.6 210.1Z" fill="#32333D"/>
<path d="M122.2 151C122.1 151 122.1 151 122 151C121 150.9 120.3 150 120.4 149L121.1 141.7C121.6 135.1 125.1 129.2 130.7 125.6C136.3 121.9 143.2 121 149.6 123.2C150.5 123.5 151 124.5 150.7 125.5C150.4 126.4 149.4 126.9 148.4 126.6C143.1 124.8 137.3 125.5 132.6 128.6C128 131.6 125.1 136.5 124.7 142L124 149.3C124 150.3 123.2 151 122.2 151Z" fill="#32333D"/>
<path d="M230.9 301.7C230.1 301.7 229.3 301.1 229.1 300.3C226.2 287.7 230.4 274.8 230.6 274.3C230.9 273.4 231.9 272.9 232.9 273.2C233.8 273.5 234.3 274.5 234 275.5C234 275.6 229.9 288 232.6 299.5C232.8 300.5 232.2 301.4 231.3 301.7C231.2 301.7 231.1 301.7 230.9 301.7Z" fill="#32333D"/>
<path d="M175.4 295.2C174.9 295.2 174.4 295 174.1 294.6C173.4 293.9 173.5 292.7 174.2 292.1C184.7 282.3 212.2 276 229.9 288.8C230.7 289.4 230.9 290.5 230.3 291.3C229.7 292.1 228.6 292.3 227.8 291.7C211.5 280 186.2 285.8 176.6 294.7C176.3 295 175.8 295.2 175.4 295.2Z" fill="#32333D"/>
<path d="M64.6001 118.8C51.5001 118.8 44.6001 107.8 44.6001 97.5C44.6001 87.4 57.4001 78.8 57.4001 78.8C57.4001 78.8 66.0001 72 64.7001 65.6C72.2001 72 89.5001 84.3 83.0001 105.8C79.8001 116.8 70.5001 118.8 64.6001 118.8Z" fill="#FF3D5E"/>
<path d="M64.0001 114.4C56.5001 114.4 52.6001 108.1 52.6001 102.3C52.6001 91.6999 64.0001 92.9999 62.7001 82.2999C67.0001 85.8999 79.6001 94.0999 75.8001 106.8C74.0001 113.2 68.0001 114.4 64.0001 114.4Z" fill="#FFEC00"/>
<path d="M308.2 177.2C295.1 177.2 288.2 166.2 288.2 155.9C288.2 145.6 301 137.2 301 137.2C301 137.2 309.6 130.4 308.3 124C315.8 130.4 333.1 142.7 326.6 164.2C323.4 175.1 314.3 177.2 308.2 177.2Z" fill="#FF3D5E"/>
<path d="M307.7 173.9C300.2 173.9 296.3 167.6 296.3 161.8C296.3 151.2 307.7 152.5 306.4 141.8C310.7 145.4 323.3 153.6 319.5 166.3C317.6 172.7 311.6 173.9 307.7 173.9Z" fill="#FFEC00"/>
<path d="M332 131C324 131 319.8 124.3 319.8 118C319.8 111.7 327.6 106.5 327.6 106.5C327.6 106.5 332.9 102.3 332 98.2999C336.6 102.3 347.2 109.8 343.2 122.9C341.4 129.8 335.8 131 332 131Z" fill="#FF3D5E"/>
<path d="M40.5 226.5C32.5 226.5 28.3 219.8 28.3 213.5C28.3 207.3 36.1 202 36.1 202C36.1 202 41.4 197.8 40.5 193.8C45.1 197.8 55.7001 205.3 51.7001 218.4C49.7001 225.3 44.1 226.6 40.5 226.5Z" fill="#FF3D5E"/>
<path d="M20.2 194.3C12.2 194.3 8 187.6 8 181.3C8 175.1 15.8 169.8 15.8 169.8C15.8 169.8 21.1 165.6 20.2 161.6C24.8 165.6 35.4 173.1 31.4 186.2C29.5 193.1 23.9 194.3 20.2 194.3Z" fill="#FF3D5E"/>
</svg>
