<svg width="760" height="504" viewBox="0 0 760 504" fill="none" xmlns="http://www.w3.org/2000/svg">
<path d="M309.4 385.5C302.1 382.5 260 361.9 207.1 387C190.5 376.1 125.1 367.2 75.7 389.2C71.4 373.1 68.4 353.4 80.6 347.8C92.8 342.2 108.5 344.5 109.4 329.1C109.4 322.1 92.8 320.7 92.1 306.9C91.3 293.1 95.6 274.6 113.2 263.3C115.1 268.5 119.5 278.8 131.5 269.8C143.4 260.9 140.9 234 166.4 225.2C163.8 235.3 166.9 244.2 173.7 244.7C180.5 245.2 188.9 218.9 197.6 217.7C196 222 197.6 230.6 202.8 230.6C208 230.6 207.1 221 212.2 217.7C217.3 214.4 232.8 215.6 232.3 200.2C239.3 202.9 254.3 218.2 254.5 230.6C254.7 243 239.9 243.9 244.9 254.2C249.8 264.5 260.6 286.3 269.5 266.9C278.4 270.9 293 293.2 292.7 303.9C292.5 314.7 276.8 325.5 283.1 341.6C289.4 357.8 298.3 347 297.4 342.4C304 349.2 316.2 368.4 309.4 385.5Z" fill="#FF3D5E"/>
<path d="M75.8 390.7C75.6 390.7 75.4 390.7 75.2 390.6C74.8 390.4 74.5 390.1 74.4 389.6C70.3 374.1 66.4 352.8 80.1 346.4C83.8 344.7 87.7 343.7 91.4 342.8C100.4 340.6 107.5 338.8 108.1 328.9C108.1 326.9 105.4 325.1 102.4 323C97.4 319.7 91.2 315.6 90.8 306.8C90.3 297.8 91.4 275.4 112.6 261.9C113 261.7 113.5 261.6 113.9 261.7C114.3 261.8 114.7 262.2 114.8 262.6C116 265.9 118 270.4 121.5 271.5C124 272.2 127.1 271.2 130.7 268.5C134.9 265.4 137.2 259.7 139.9 253.1C144.2 242.5 149.6 229.3 166 223.7C166.5 223.5 167.1 223.6 167.5 224C167.9 224.4 168.1 224.9 167.9 225.5C166.4 231.5 166.9 237.2 169.3 240.5C170.5 242.1 172 243 173.9 243.1C176.3 243.3 180.2 236.8 183.4 231.5C187.8 224.3 192.3 216.8 197.5 216.1C198 216 198.5 216.2 198.9 216.7C199.2 217.1 199.3 217.7 199.1 218.2C198.2 220.5 198.5 224.9 200.2 227.4C201 228.5 201.8 229 202.9 229C204.5 229 205.2 227.4 206.4 224.2C207.4 221.4 208.6 218.2 211.4 216.4C212.9 215.4 215 214.9 217.4 214.2C223.8 212.4 231.1 210.5 230.8 200.2C230.8 199.7 231 199.2 231.4 198.9C231.8 198.6 232.3 198.5 232.8 198.7C240.4 201.7 255.8 217.5 256 230.4C256.1 236.9 252.4 240.7 249.4 243.6C245.9 247.1 244.2 249.1 246.2 253.4C248.8 258.8 255.5 273 261.4 273C264.3 273 266.6 269.2 268 266.1C268.3 265.4 269.2 265 270 265.4C279.2 269.5 294.4 292 294.1 303.8C294 308.3 291.6 312.6 289 317.2C285 324.3 280.8 331.7 284.4 341C286.6 346.5 289.3 349.3 291.9 348.5C294.4 347.8 296.2 344.3 295.9 342.6C295.8 341.9 296.1 341.3 296.7 341C297.3 340.7 298 340.8 298.5 341.3C304.4 347.5 318.1 367.5 310.8 386C310.7 386.4 310.4 386.7 310 386.8C309.6 387 309.2 387 308.8 386.8C308.4 386.7 308 386.5 307.5 386.2C266.2 368.3 230.5 377.4 207.8 388.2C207.3 388.4 206.8 388.4 206.3 388.1C190.9 378 125.9 368.4 76.3 390.4C76.2 390.6 76 390.7 75.8 390.7ZM112.6 265.5C94.3 278.3 93.3 298.5 93.7 306.7C94 314 99.3 317.5 104 320.6C107.6 323 111.1 325.3 111.1 329C110.4 341.1 101.1 343.5 92.2 345.7C88.6 346.6 84.8 347.5 81.4 349.1C72.9 353.1 71.4 365.5 76.9 387.1C98.5 377.9 125.8 373.3 153.9 374.3C176.5 375.1 197.7 379.5 207.3 385.3C230.5 374.4 266.7 365.5 308.6 383.5C313.3 368.9 304.2 353 298.5 345.8C297.6 348.3 295.5 350.7 292.9 351.4C290.4 352.1 285.6 351.9 281.8 342.1C277.7 331.4 282.4 323.1 286.6 315.8C289 311.6 291.3 307.6 291.3 303.8C291.6 293.9 278.5 274 270.3 268.9C267.8 273.7 264.9 276.1 261.7 276.1C254.8 276.1 248.8 265.3 243.7 254.8C240.7 248.4 244.1 245 247.5 241.6C250.4 238.7 253.3 235.8 253.2 230.5C253 219.6 240.9 206.7 233.9 202.5C233 213 224.3 215.4 218.3 217C216.2 217.6 214.2 218.1 213.1 218.8C211.1 220 210.2 222.6 209.3 225.1C208.1 228.3 206.8 231.9 203 231.9C200.9 231.9 199.1 230.9 197.8 229C196.2 226.7 195.5 223.1 195.7 220C192.5 222.2 189.1 227.9 186 233C181.7 240.1 177.9 246.3 173.7 246C171 245.8 168.6 244.5 166.9 242.1C164.4 238.6 163.5 233.2 164.5 227.4C151.3 233 146.7 244.2 142.7 254.1C140 260.8 137.4 267.1 132.5 270.7C128.1 274 124.1 275.2 120.6 274.2C116.3 273.1 113.9 268.5 112.6 265.5Z" fill="#32333D"/>
<path d="M285.5 377.2C278.5 376.4 231.7 370.7 207.1 387C187.6 375.9 133.6 368.8 87.7 385.4C90.7 361 100.8 353.2 111.3 348.3C121.7 343.4 136.9 340.2 130.1 317.6C123.3 294.9 154.3 270.7 169.2 267.7C184 264.7 186.2 274.9 197.9 270.8C209.5 266.7 204.7 236.6 223.1 243C241.4 249.5 223.3 273.7 232.9 282.7C242.5 291.7 257.5 280.9 264.4 292.5C271.3 304.1 263 311.8 257.4 318.3C251.8 324.8 249 345.2 269.2 356.6C278.1 361.5 285.5 368.5 285.5 377.2Z" fill="#FFEC00"/>
<path d="M631.5 416.6C644.5 404 650.1 399.7 651.1 381.8C652 363.9 646.6 340 623.9 325.4C621.4 332.1 615.7 345.5 600.3 333.9C584.9 322.4 588.2 287.6 555.1 276.3C558.4 289.4 554.5 300.9 545.7 301.5C536.9 302.2 525.9 268.1 514.8 266.6C516.9 272.1 514.8 283.2 508.1 283.2C501.4 283.2 502.6 270.8 496 266.6C489.4 262.4 469.3 263.9 469.9 244C460.8 247.5 441.4 267.2 441.1 283.3C440.7 299.4 459.9 300.6 453.6 313.9C447.3 327.2 433.3 355.4 421.7 330.3C386.7 346 384.2 400.1 404.1 427C514.6 434.9 545.5 433.9 631.5 416.6Z" fill="#FF3D5E"/>
<path d="M504.4 433.3C477.8 433.3 446.9 431.6 403.9 428.4C403.5 428.4 403.1 428.1 402.8 427.8C391 411.8 386.9 386.6 392.5 365C397 347.9 407.1 335.1 420.9 328.9C421.7 328.6 422.5 328.9 422.9 329.6C425.7 335.7 428.7 338.8 431.9 338.8C439.9 338.8 448.7 320.2 452 313.2C454.9 307.2 451.9 304.2 447.8 300.1C444 296.3 439.2 291.5 439.4 283.2C439.8 266.5 459.5 246.3 469.2 242.6C469.7 242.4 470.2 242.5 470.6 242.8C471 243.1 471.2 243.6 471.2 244.1C470.8 257.6 480.4 260.3 488.9 262.6C492 263.4 494.7 264.2 496.6 265.4C500.1 267.6 501.6 271.7 502.9 275.3C504.4 279.4 505.4 281.8 507.9 281.8C509.4 281.8 510.7 281 511.7 279.5C514 276.1 514.4 270.3 513.2 267.2C513 266.7 513.1 266.1 513.4 265.7C513.7 265.3 514.2 265.1 514.8 265.1C521.2 266 527 275.5 532.7 284.8C537.1 292.1 542.1 300.3 545.5 300C548 299.8 550.1 298.7 551.7 296.5C554.8 292.2 555.5 284.6 553.5 276.7C553.4 276.2 553.5 275.6 553.9 275.2C554.3 274.8 554.9 274.7 555.4 274.9C576.6 282.1 583.2 298.4 589 312.7C592.5 321.2 595.5 328.6 601 332.7C605.8 336.3 609.9 337.6 613.3 336.6C618 335.2 620.6 329.6 622.4 324.9C622.6 324.5 622.9 324.1 623.3 324C623.7 323.9 624.2 323.9 624.6 324.2C651.6 341.6 653.1 370.3 652.5 381.9C651.6 399.3 646.3 404.3 634.8 415.5L632.5 417.8C632.3 418 632 418.1 631.8 418.2C579 428.7 547.5 433.3 504.4 433.3ZM404.7 425.5C516.4 433.6 546.3 432.2 630.8 415.3L632.8 413.3C644.1 402.4 648.7 397.9 649.6 381.7C650.2 370.9 648.8 344.3 624.6 327.7C622.6 332.6 619.6 337.9 614.3 339.5C610 340.8 605 339.3 599.4 335.1C593.2 330.5 589.9 322.4 586.4 313.8C581 300.7 575 285.8 557.1 278.7C558.5 286.5 557.5 293.7 554.2 298.2C552.1 301.1 549.2 302.7 545.8 303C540.6 303.4 535.8 295.5 530.3 286.3C526 279.3 521.3 271.5 516.9 268.9C517.4 272.8 516.7 277.7 514.4 281.1C512.8 283.4 510.6 284.7 508.1 284.7C503.5 284.7 501.9 280.4 500.3 276.2C499.1 272.9 497.8 269.5 495.2 267.8C493.7 266.8 491.1 266.1 488.4 265.4C480.2 263.2 469.2 260.2 468.5 246.3C459.6 251.3 443 268.6 442.6 283.2C442.4 290.2 446.3 294.1 450.1 297.9C454.3 302.1 458.7 306.5 454.9 314.4C448.5 327.9 440.7 341.7 432.1 341.7C432.1 341.7 432.1 341.7 432 341.7C427.8 341.7 424.1 338.4 421 332.1C408.7 338.2 399.6 350 395.6 365.6C390 386.3 393.8 410.2 404.7 425.5Z" fill="#32333D"/>
<path d="M626.2 435.6C612.8 429.3 593 425.1 601.9 395.8C610.8 366.5 570.5 335.1 551.4 331.2C532.3 327.3 529.4 340.6 514.3 335.3C499.3 330.1 505.4 290.9 481.8 299.4C458.2 307.8 481.6 339.2 469 350.8C456.5 362.4 437.1 348.5 428.3 363.6C419.4 378.6 430.1 388.6 437.4 397.1C444.7 405.5 445.6 421 419.4 435.8C475.3 422.4 526.9 435.6 626.2 435.6Z" fill="#FFEC00"/>
<path d="M243.1 324.4C242.4 323.4 241.9 322.4 241.2 321.6C241.5 320.2 242.2 316.8 238.2 313.4C238.2 313.4 238.5 314.9 238.6 316.8C238.6 317.6 238.5 318.3 238.4 319.1C236.4 317.9 234.4 318 232.6 319.6C231.1 317.7 229.1 314.4 229.1 314.4C227.8 319.4 229.4 321.2 230.5 322.4C227 328.4 217.8 322.1 208.4 322.3C199 322.4 188.7 322.6 188.3 330.8C186.7 332.5 185.8 335 185 337.1C183.8 340.2 182.8 343.4 182 346.7C181.9 347.2 182.3 347.7 182.8 347.8C183.4 347.9 183.7 347.6 183.8 347.1C184.7 344.1 185.6 341.1 186.6 338.2C187.1 336.9 187.7 335.6 188.3 334.1C188.4 344 188.9 361.5 191.1 361.5C195 361.5 191.4 345 195 344.8C198.6 344.5 193.4 360 197.2 360.3C201 360.6 198.1 344.5 201.9 344.8C205.7 345.1 213.6 344.7 214.9 344.8C216.2 344.9 217.9 343.7 218 348.4C218.1 353 219.4 360.8 222.1 360.4C224.7 360 219.9 343.2 224.3 343.5C228.6 343.8 226.9 359.5 231.1 359C235.2 358.4 225.6 332.5 238.5 335.6C251.5 338.7 247.1 331.2 243.1 324.4Z" fill="#32333D"/>
<path d="M635.1 377.2C634.4 376.2 633.9 375.2 633.2 374.4C633.4 373.1 634.1 369.7 630.5 366.4C630.4 366.3 630.3 366.2 630.2 366.1V366.2C630.2 366.2 630.5 367.7 630.5 369.5C630.5 370.3 630.4 371 630.3 371.8C628.3 370.7 626.4 370.7 624.7 372.2C623.2 370.3 621.2 367 621.2 367C621.2 367.1 621.2 367.1 621.2 367.2C621.2 367.1 621.1 367.1 621.1 367.1C621.1 367.3 621 367.5 621 367.8C620 372.2 621.5 373.9 622.5 375.2C619 381.3 609.7 375 600.4 375.2C591 375.3 580.7 375.5 580.3 383.7C578.7 385.4 577.8 387.9 577 390C575.8 393.1 574.8 396.3 574 399.6C573.9 400.1 574.3 400.6 574.8 400.7C575.4 400.8 575.7 400.5 575.8 400C576.7 397 577.6 394 578.6 391.1C579.1 389.8 579.7 388.5 580.3 387C580.4 396.9 580.9 414.4 583.1 414.4C587 414.4 583.4 397.9 587 397.7C590.6 397.4 585.4 412.9 589.2 413.2C593 413.5 590.1 397.4 593.9 397.7C597.7 398 605.6 397.6 606.9 397.7C608.2 397.8 609.9 396.6 610 401.3C610.1 405.9 611.4 413.7 614.1 413.3C616.8 412.9 611.9 396.1 616.3 396.4C620.6 396.7 618.9 412.4 623.1 411.9C627.2 411.3 617.6 385.4 630.5 388.5C643.4 391.4 639.1 384 635.1 377.2Z" fill="#32333D"/>
<path d="M147.6 320.1C147.4 316.1 147.2 312.2 147.1 308.7C152.4 311.2 157.9 313.5 158.5 313.4C162.1 312.7 154.1 306.8 146.8 301.9C146.4 293.2 146.3 286.7 146.3 284.1C146.9 264.4 142.8 278 139.7 286.3C137.6 291.8 138.8 288.7 134.8 287.5C133.4 287.1 132.5 295.4 132.1 307.5C125.2 312.6 114.1 321.1 114.9 322.9C115.6 324.6 124.7 319.3 131.9 315C131.9 316.1 131.8 317.3 131.8 318.5L131.5 319.4C125.6 326.1 115.2 335.2 116 336.6C116.9 338.3 124.6 333.9 124.6 333.9C124.6 333.9 117.8 346.9 119.9 348.7C121.3 349.9 127.6 340.1 131.6 333.6C131.4 357.1 132 381.5 132.4 385.2H151.7C150.8 377.7 149.5 357.7 148.5 337.3C155.3 342.3 162.8 347.2 164.2 345.9C165.9 344.3 156 335.2 148.4 328.6C158.5 332.5 169.3 336.1 170.3 333.8C171.2 331.1 158.4 324.8 147.6 320.1Z" fill="#32333D"/>
<path d="M477.2 351.1C476.9 345.9 476.7 340.9 476.5 336.2C483.6 339.4 490.9 342.5 491.8 342.4C496.4 341.5 485.7 333.9 476.1 327.5C475.6 316.2 475.4 307.8 475.5 304.4C476.3 279 470.9 296.5 466.7 307.2C464 314.4 465.6 310.3 460.2 308.8C458.3 308.2 457.2 319.2 456.6 334.7C447.5 341.3 433.1 352.2 434 354.7C434.8 356.8 446.8 350.2 456.2 344.5C456.2 346 456.1 347.5 456.1 349L455.7 350.1C447.9 358.7 434.3 370.3 435.4 372.2C436.5 374.4 446.8 368.6 446.8 368.6C446.8 368.6 437.8 385.4 440.6 387.8C442.4 389.3 450.6 376.8 455.9 368.3C455.7 398.7 456.5 430.2 457 435.2H482.5V435.1C481.4 425.5 479.7 399.4 478.2 373C487.4 379.6 497.6 386.2 499.4 384.5C501.7 382.4 488 370.1 477.9 361.5C491.2 366.6 505.6 371.2 506.8 368.3C508.4 365.3 491.5 357.3 477.2 351.1Z" fill="#32333D"/>
<path d="M176.5 383.4C175.7 381.1 176.5 367.4 174.8 355.5C173.1 343.7 170.2 340.8 169.2 346.2C168.2 351.6 166.3 352.3 164.3 350.1C162.3 347.9 161.1 379 156.9 382L159.3 383.4C164.5 386.6 171.2 386.6 176.5 383.4Z" fill="#32333D"/>
<path d="M187.5 384.4C172 374.5 118.2 357.6 89.6 357.6C58.1 357.6 24.5 363 2.79999 388" fill="#3141EB"/>
<path d="M3.59999 388.8L1.89999 387.3C25.9 359.7 63.5 356.5 89.6 356.5C118.7 356.5 172.3 373.3 188.1 383.5L186.9 385.4C171.6 375.6 117.8 358.8 89.6 358.8C48.8 358.8 21.5 368.3 3.59999 388.8Z" fill="black"/>
<path d="M2.8 389.5C2.5 389.5 2.1 389.4 1.8 389.1C1.2 388.6 1.1 387.6 1.7 387C25.8 359.3 63.5 356.1 89.7 356.1C118.8 356.1 172.5 372.9 188.4 383.1C189.1 383.5 189.3 384.5 188.9 385.2C188.5 385.9 187.5 386.1 186.8 385.7C171.6 376 117.9 359.2 89.7 359.2C49 359.2 21.7 368.7 4 389C3.6 389.4 3.2 389.5 2.8 389.5Z" fill="#32333D"/>
<path d="M356.7 388.6C348.3 376.3 330.3 365 300.4 365C270.5 365 236.7 376.4 218.4 388.6" fill="#3141EB"/>
<path d="M219.1 389.6L217.8 387.7C235.5 375.9 269.5 363.9 300.4 363.9C312.6 363.9 342.7 366.3 357.6 388L355.7 389.3C341.4 368.4 312.2 366.2 300.4 366.2C270 366.1 236.5 377.9 219.1 389.6Z" fill="black"/>
<path d="M218.4 390.1C217.9 390.1 217.4 389.9 217.2 389.4C216.7 388.7 216.9 387.8 217.6 387.3C235.3 375.5 269.5 363.5 300.5 363.5C312.8 363.5 343 365.9 358 387.8C358.5 388.5 358.3 389.4 357.6 389.9C356.9 390.4 356 390.2 355.5 389.5C341.3 368.7 312.3 366.5 300.5 366.5C270.1 366.5 236.7 378.3 219.3 389.9C219 390 218.7 390.1 218.4 390.1Z" fill="#32333D"/>
<path d="M336.1 238.6C336.1 238.6 330.3 237.7 327.8 241.2C325.2 244.9 324.9 251.2 329.5 256.6C325.2 260.1 320.6 274.5 328.7 294.8C336.8 315.1 350.9 306.2 350.9 306.2L336.1 238.6Z" fill="white"/>
<path d="M343.7 309.7C342.4 309.7 340.9 309.5 339.5 309C334.4 307.4 330.3 302.8 327.3 295.4C319.8 276.5 322.7 262 327.4 256.5C323.1 250.6 323.8 244.1 326.5 240.3C329.6 236 336 237 336.3 237C336.9 237.1 337.4 237.6 337.5 238.2L352.4 305.8C352.5 306.4 352.3 307 351.7 307.4C351.6 307.6 348.2 309.7 343.7 309.7ZM334.4 240C332.8 240 330.3 240.3 329 242.1C326.8 245.2 326.4 250.7 330.6 255.7C330.9 256 331 256.4 331 256.8C331 257.2 330.8 257.6 330.5 257.8C326.6 261 322.5 275 330.2 294.3C332.8 300.8 336.3 304.8 340.5 306.2C344.3 307.4 347.8 306.2 349.3 305.4L334.9 240C334.7 240 334.6 240 334.4 240Z" fill="#32333D"/>
<path d="M365 251.7C363.7 245 358.9 237.9 351.1 235.9C340 233 326.9 242.4 333.9 257.4C327.2 268.6 329.5 289.2 340.6 302.3C351.7 315.4 368.7 306.9 369.4 292.1C369.8 284.4 367.2 277 362.3 271.1C362.3 271 367.5 264.7 365 251.7Z" fill="#A582E3"/>
<path d="M353.3 310.3C348.2 310.3 343.3 307.8 339.4 303.3C328.6 290.4 325.3 269.6 332.1 257.3C329.3 250.8 329.9 244.4 333.7 239.8C337.8 234.9 344.9 232.8 351.4 234.5C360.5 236.8 365.1 245.1 366.4 251.5C368.4 261.8 365.8 268.2 364.1 271.1C368.8 277.2 371.2 284.6 370.8 292.3C370.4 300.3 365.4 307.2 358.3 309.6C356.7 310.1 355 310.3 353.3 310.3ZM346.9 236.9C342.7 236.9 338.7 238.7 336.1 241.7C332.8 245.6 332.5 251 335.2 256.7C335.4 257.2 335.4 257.7 335.1 258.1C328.4 269.3 331.4 289.1 341.7 301.3C346.1 306.5 351.9 308.5 357.5 306.6C363.4 304.6 367.6 298.7 367.9 292C368.3 284.7 365.9 277.7 361.2 272C361 271.7 360.8 271.4 360.8 271C360.8 270.5 361 270.2 361.1 270C362.2 268.4 365.5 262.5 363.4 251.9C362.3 246.4 358.3 239.2 350.6 237.3C349.4 237.1 348.2 236.9 346.9 236.9Z" fill="#32333D"/>
<path d="M362.3 272.6C361.9 272.6 361.4 272.4 361.1 272.1C357.4 267.6 349.8 267.4 349.7 267.4C348.9 267.4 348.2 266.7 348.2 265.9C348.2 265.1 348.9 264.4 349.7 264.4C350.1 264.4 358.8 264.6 363.4 270.2C363.9 270.8 363.8 271.8 363.2 272.3C363 272.5 362.6 272.6 362.3 272.6Z" fill="#32333D"/>
<path d="M362.4 301.4C365 297.6 366.4 293.2 366.3 288.5C366.3 285 360.8 285.6 360.9 289.1C360.9 292.2 360 295.3 358.3 297.9C356.3 300.7 360.4 304.2 362.4 301.4Z" fill="white"/>
<path d="M357.2 237.1C362 235.6 368 240.6 370.4 248.4C373 256.2 371.1 263.7 366.2 265.2C361.3 266.7 355.4 261.7 353 253.9C350.5 246.1 352.4 238.6 357.2 237.1Z" fill="white"/>
<path d="M364.5 266.9C359.4 266.9 354 261.9 351.6 254.3C349.9 249.1 350 243.7 351.9 239.9C353 237.7 354.7 236.2 356.7 235.6C362.4 233.8 369.1 239.2 371.8 247.8C373.5 253 373.4 258.4 371.5 262.2C370.4 264.4 368.7 265.9 366.7 266.5C366 266.8 365.2 266.9 364.5 266.9ZM359 238.3C358.5 238.3 358.1 238.4 357.7 238.5C356.1 239 355.2 240.3 354.7 241.3C353.1 244.3 353.1 249 354.6 253.4C356.8 260.2 362 264.9 366 263.7C367.6 263.2 368.5 261.9 369 260.9C370.6 257.9 370.6 253.2 369.1 248.8C367.1 242.7 362.7 238.3 359 238.3Z" fill="#32333D"/>
<path d="M365.6 253.6C363.3 253.6 361.3 251.8 361.1 249.4C360.9 246.9 362.8 244.8 365.3 244.6C385.8 243.2 385.4 220.5 385.4 219.5C385.3 217 387.3 215 389.8 214.9C392.3 214.8 394.3 216.8 394.4 219.3C394.7 230.5 389.2 252 365.9 253.6C365.8 253.6 365.7 253.6 365.6 253.6Z" fill="#32333D"/>
<path d="M284.3 391.3C276.6 356 238.8 351.4 209.4 356.3C180 361.2 148.5 378.1 132.4 393.2" fill="#3141EB"/>
<path d="M133.2 394.1L131.6 392.4C147.1 377.8 178.8 360.3 209.2 355.2C226.3 352.3 242.7 353.2 255.4 357.7C271.8 363.5 281.9 374.7 285.4 391.1L283.2 391.6C279.8 376 270.2 365.3 254.6 359.9C242.3 355.6 226.3 354.7 209.6 357.5C179.6 362.5 148.4 379.7 133.2 394.1Z" fill="black"/>
<path d="M132.4 394.7C132 394.7 131.6 394.5 131.3 394.2C130.7 393.6 130.8 392.6 131.4 392.1C147 377.4 178.7 359.9 209.2 354.8C241.3 349.4 278.3 356.1 285.8 391C286 391.8 285.5 392.6 284.7 392.8C283.9 393 283.1 392.5 282.9 391.7C279.5 376.2 270 365.7 254.6 360.2C242.3 355.9 226.4 355.1 209.7 357.8C179.8 362.8 148.7 379.9 133.5 394.3C133.1 394.6 132.7 394.7 132.4 394.7Z" fill="#32333D"/>
<path d="M309.9 221.3C309.9 221.3 304.1 220.4 301.6 223.9C299 227.6 298.7 233.9 303.3 239.3C299 242.8 294.4 257.2 302.5 277.5C310.6 297.8 324.7 288.9 324.7 288.9L309.9 221.3Z" fill="white"/>
<path d="M317.5 292.4C316.2 292.4 314.7 292.2 313.3 291.7C308.2 290.1 304.1 285.5 301.1 278.1C293.6 259.2 296.5 244.7 301.2 239.2C296.9 233.3 297.6 226.8 300.3 223C303.4 218.7 309.8 219.7 310.1 219.7C310.7 219.8 311.2 220.3 311.3 220.9L326.2 288.5C326.3 289.1 326.1 289.7 325.5 290.1C325.4 290.3 322 292.4 317.5 292.4ZM308.2 222.7C306.6 222.7 304.1 223 302.8 224.8C300.6 227.9 300.2 233.4 304.4 238.4C304.7 238.7 304.8 239.1 304.8 239.5C304.8 239.9 304.6 240.3 304.3 240.5C300.4 243.7 296.3 257.7 304 277C306.6 283.5 310.1 287.5 314.3 288.9C318.1 290.1 321.6 288.9 323.2 288.2L308.8 222.8C308.5 222.7 308.4 222.7 308.2 222.7Z" fill="#32333D"/>
<path d="M338.5 234.4C337.2 227.7 332.4 220.6 324.6 218.6C313.5 215.7 300.4 225.1 307.4 240.1C300.7 251.3 303 271.9 314.1 285C325.2 298.1 342.2 289.6 342.9 274.8C343.3 267.1 340.7 259.7 335.8 253.8C335.8 253.7 341 247.4 338.5 234.4Z" fill="#A582E3"/>
<path d="M326.8 293C321.7 293 316.8 290.5 312.9 286C302.1 273.1 298.8 252.3 305.6 240C302.8 233.5 303.4 227.1 307.2 222.5C311.3 217.6 318.4 215.5 324.9 217.2C334 219.5 338.6 227.8 339.9 234.2C341.9 244.5 339.3 250.9 337.6 253.8C342.3 259.9 344.7 267.3 344.3 275C343.9 283 338.9 289.9 331.8 292.3C330.2 292.7 328.5 293 326.8 293ZM320.4 219.6C316.2 219.6 312.2 221.4 309.6 224.4C306.3 228.3 306 233.7 308.7 239.4C308.9 239.9 308.9 240.4 308.6 240.8C301.9 252 304.9 271.8 315.2 284C319.6 289.2 325.4 291.2 331 289.3C336.9 287.3 341.1 281.4 341.4 274.7C341.8 267.4 339.4 260.4 334.7 254.7C334.5 254.4 334.3 254.1 334.3 253.7C334.3 253.2 334.5 252.9 334.6 252.7C335.7 251.1 339 245.2 336.9 234.6C335.8 229.1 331.8 221.9 324.1 220C323 219.7 321.7 219.6 320.4 219.6Z" fill="#32333D"/>
<path d="M335.8 255.2C335.4 255.2 335 255.1 334.8 254.8C331.2 251.3 323.1 249.5 323 249.5C322.2 249.3 321.7 248.5 321.9 247.7C322.1 246.9 322.9 246.4 323.7 246.6C324.1 246.7 332.7 248.6 337 252.7C337.6 253.3 337.6 254.2 337 254.8C336.6 255.1 336.2 255.2 335.8 255.2Z" fill="#32333D"/>
<path d="M335.9 284C338.5 280.2 339.9 275.8 339.8 271.1C339.8 267.6 334.3 268.2 334.4 271.7C334.4 274.8 333.5 277.9 331.8 280.5C329.7 283.4 333.9 286.9 335.9 284Z" fill="white"/>
<path d="M330.7 219.7C335.5 218.2 341.5 223.2 343.9 231C346.5 238.8 344.6 246.3 339.7 247.8C334.9 249.3 328.9 244.3 326.5 236.5C324 228.8 325.9 221.3 330.7 219.7Z" fill="white"/>
<path d="M338 249.5C332.9 249.5 327.5 244.5 325.1 236.9C323.8 233 323.5 228.9 324.4 225.4C325.3 221.7 327.4 219.1 330.2 218.2C335.9 216.4 342.6 221.8 345.3 230.4C347 235.6 346.9 241 345 244.8C343.9 247 342.2 248.5 340.2 249.1C339.5 249.4 338.7 249.5 338 249.5ZM331.2 221.1C329.4 221.7 328 223.5 327.3 226.2C326.6 229.1 326.8 232.6 328 236.1C330.2 242.9 335.4 247.7 339.4 246.4C341 245.9 341.9 244.6 342.4 243.6C344 240.6 344 235.9 342.5 231.5C340.4 224.6 335.2 219.9 331.2 221.1Z" fill="#32333D"/>
<path d="M339.1 236.3C336.8 236.3 334.8 234.5 334.6 232.1C334.4 229.6 336.3 227.5 338.8 227.3C359.3 225.9 358.9 203.2 358.9 202.2C358.8 199.7 360.8 197.7 363.3 197.6C365.8 197.5 367.8 199.5 367.9 202C368.2 213.2 362.7 234.7 339.4 236.3C339.3 236.3 339.2 236.3 339.1 236.3Z" fill="#32333D"/>
<path d="M329.5 131.2C341.816 131.2 351.8 123.141 351.8 113.2C351.8 103.259 341.816 95.2 329.5 95.2C317.184 95.2 307.2 103.259 307.2 113.2C307.2 123.141 317.184 131.2 329.5 131.2Z" fill="white"/>
<path d="M337.6 152.4C349.916 152.4 359.9 144.341 359.9 134.4C359.9 124.459 349.916 116.4 337.6 116.4C325.284 116.4 315.3 124.459 315.3 134.4C315.3 144.341 325.284 152.4 337.6 152.4Z" fill="white"/>
<path d="M310.9 106.1C300.2 104.5 281.8 81.4 300.2 81C313.9 80.7 371.3 73.9 392.3 86.3C427.5 107 433.7 131 438.3 143.4C445.4 163 456.7 165.5 473.7 155C481.7 150.1 483.6 139.2 478 131.7C472.2 124.1 468.9 114.7 469.2 104.5C469.8 80.9 489.6 61.7 513.4 62.2C537 62.7 556 81.9 556 105.5C556 130.6 534.7 149.4 510.2 148.8C499 147.8 505.7 184.2 457.5 190.5C449.6 225.7 411 238.6 371.6 226.7C332.3 214.6 270.2 182.9 214 161.6C214 161.6 216.5 159.7 232.1 161.6C232.1 161.6 171.2 128.1 234 146.9C234 146.9 204.5 113.7 224.9 128.5C264.7 150.4 298.7 163.8 321.7 148.5" fill="white"/>
<path d="M399.6 232.7C390.4 232.7 380.7 231.2 371 228.3C349.3 221.6 320.5 208.9 290 195.5C264.7 184.3 238.5 172.8 213.3 163.2C212.8 163 212.4 162.6 212.3 162C212.2 161.5 212.4 160.9 212.9 160.6C213.5 160.2 215.9 159 225.1 159.6C222.7 158.2 220 156.5 217.2 154.8C203.6 146.1 203.3 143.5 204 141.7C204.9 139.6 207.7 138 229.2 144.2C214 126.7 215.6 125 216.5 124.1C217.8 122.7 220 123.5 225.5 127.5C285.7 160.7 306.8 156.7 320.6 147.5C321.3 147 322.2 147.2 322.7 147.9C323.2 148.6 323 149.5 322.3 150C315.2 154.8 307 156.8 298.1 156.8C276.2 156.8 249.9 144.4 223.9 130.1C223.8 130.1 223.8 130 223.7 130C221.9 128.7 220.7 127.9 219.8 127.4C222.2 131.2 228.7 139.3 234.8 146.2C235.2 146.7 235.3 147.4 234.9 148C234.5 148.6 233.8 148.8 233.2 148.6C213 142.5 208 142.7 206.8 143C208.1 145.8 220.9 154.1 232.4 160.5C233 160.8 233.3 161.6 233.1 162.3C232.9 163 232.2 163.4 231.5 163.3C225.9 162.6 222.1 162.4 219.5 162.5C243.1 171.7 267.4 182.4 291 192.8C321.4 206.2 350.1 218.9 371.6 225.5C394.4 232.4 416.7 230.9 433 221.4C444.8 214.5 452.6 203.8 455.6 190.4C455.7 189.8 456.2 189.3 456.9 189.2C488 185.1 495.5 168.5 500.4 157.4C503 151.6 505.1 147 509.8 147.4C521.7 147.7 533.2 143.1 541.6 135C549.6 127.2 554 116.7 554 105.6C554 82.6 535.9 64.2 512.9 63.8C512.6 63.8 512.3 63.8 512.1 63.8C489.5 63.8 470.8 81.9 470.3 104.6C470 114.2 473 123.3 478.8 130.9C481.8 134.9 483 139.9 482.1 144.8C481.2 149.6 478.3 153.8 474.2 156.4C464.8 162.2 457.2 164 451 161.8C444.9 159.7 440.2 153.9 436.7 144C436.4 143.1 436 142.1 435.7 141.1C431.2 128.2 423.5 106.6 391.4 87.7C374.5 77.7 333.2 80.5 311.1 82C306.3 82.3 302.6 82.6 300.1 82.6C294 82.7 293.8 85.4 293.7 86.3C293.3 92.3 304 103.7 311 104.7C311.8 104.8 312.4 105.6 312.3 106.4C312.2 107.2 311.4 107.8 310.6 107.7C302.6 106.5 290.3 94.3 290.8 86.1C291 83.7 292.4 79.8 300.1 79.6C302.5 79.6 306.2 79.3 311 79C333.5 77.5 375.4 74.7 393.1 85.1C426.2 104.6 434 126.8 438.7 140.1C439.1 141.1 439.4 142.1 439.7 143C443 152 447 157.2 452.2 159C457.5 160.8 464.3 159.2 472.9 153.9C476.4 151.8 478.7 148.4 479.5 144.3C480.3 140.2 479.3 136 476.8 132.8C470.6 124.6 467.4 114.9 467.7 104.6C468.3 80 488.8 60.4 513.4 60.9C525.2 61.1 536.3 65.9 544.6 74.3C552.9 82.7 557.4 93.9 557.4 105.7C557.4 117.7 552.7 128.9 544.1 137.2C535.2 145.9 522.8 150.8 510.1 150.5H510C507.5 150.3 506 153.1 503.5 158.7C498.7 169.5 490.6 187.5 458.7 192.1C455.4 205.9 447.2 216.9 434.9 224C424.9 229.7 412.7 232.7 399.6 232.7Z" fill="#32333D"/>
<path d="M384.8 154C384.7 154 384.6 154 384.6 154C354.4 149 316.6 138.9 307.5 119.7C303.5 111.1 307.1 104.7 307.3 104.4C307.7 103.7 308.6 103.4 309.4 103.9C310.1 104.3 310.4 105.2 309.9 105.9C309.8 106.1 306.9 111.3 310.3 118.5C315 128.4 331.8 142.2 385.1 151.1C385.9 151.2 386.5 152 386.3 152.8C386.2 153.5 385.5 154 384.8 154Z" fill="#32333D"/>
<path d="M394.4 176.7H394.3C368.3 174.4 334.4 167.5 320 148.3C312.1 137.8 313.8 128.6 313.9 128.2C314.1 127.4 314.8 126.9 315.7 127C316.5 127.2 317 127.9 316.9 128.8C316.9 128.9 315.4 137.2 322.5 146.6C336.3 164.9 369.3 171.4 394.6 173.7C395.4 173.8 396 174.5 396 175.3C395.8 176.1 395.1 176.7 394.4 176.7Z" fill="#32333D"/>
<path d="M375.1 120.4C375.1 120.4 375 120.4 375.1 120.4C320.5 116.9 301.1 105 294.5 95.7C290 89.4 291.3 84.3 291.4 84.1C291.6 83.3 292.4 82.8 293.2 83.1C294 83.3 294.5 84.1 294.2 84.9C294.2 85 293.2 88.9 297 94.1C303.4 102.9 322.1 114 375.2 117.4C376 117.5 376.7 118.2 376.6 119C376.5 119.8 375.9 120.4 375.1 120.4Z" fill="#32333D"/>
<path d="M552 91.4L733.5 114C733.5 114 569.8 126 556.7 126C539.7 126 540.3 113.1 540.3 113.1C540.3 126.2 556.7 126 556.7 126L731.4 124L533.4 143C515 131.7 519.6 104.3 539.6 96.4L552 91.4Z" fill="#FFEC00"/>
<path d="M533.4 144.5C533.1 144.5 532.9 144.4 532.6 144.3C524.1 139.1 519.6 130 520.4 119.9C521.4 108.7 528.5 99.2 539 95L551.3 90C551.5 89.9 551.8 89.9 552.1 89.9L733.7 112.5C734.5 112.6 735 113.3 735 114C735 114.8 734.4 115.4 733.6 115.5C729.4 115.8 666.6 120.4 616.8 123.8L731.4 122.5C732.2 122.5 732.9 123.1 732.9 123.9C732.9 124.7 732.3 125.4 731.5 125.5L533.5 144.5C533.5 144.5 533.5 144.5 533.4 144.5ZM552.2 92.9L540.3 97.8C530.8 101.6 524.4 110.1 523.5 120.2C522.7 128.9 526.6 136.9 533.8 141.5L695.9 125.9L557.4 127.5C557.2 127.5 556.9 127.5 556.7 127.5C556.7 127.5 556.5 127.5 556.3 127.5C550.2 127.4 545.6 125.8 542.5 122.5C542.3 122.3 542.2 122.2 542 122C540.1 119.9 539 117.2 538.8 114.1C538.8 113.5 538.8 113 538.8 113C538.8 112.2 539.5 111.6 540.3 111.6C541.1 111.6 541.8 112.3 541.8 113.1C541.8 113.4 541.8 113.6 541.8 113.9C541.9 115.1 542.3 117.8 544.3 120.1C544.4 120.2 544.5 120.3 544.6 120.4C548.5 124.2 555.1 124.5 556.4 124.5C556.5 124.5 556.6 124.5 556.6 124.5H557.3C571.1 124.2 678 116.5 718.2 113.6L552.2 92.9Z" fill="#32333D"/>
<path d="M548.9 72.4L469.7 96.8L463.6 57.1L448.3 30.5L558.9 4.90002L549.4 19.5L548.9 72.4Z" fill="#A582E3"/>
<path d="M469.8 98.3C469.5 98.3 469.2 98.2 469 98.1C468.6 97.9 468.4 97.5 468.3 97.1L462.3 57.7L447 31.4C446.8 31 446.7 30.5 446.9 30.1C447.1 29.7 447.5 29.3 447.9 29.2L558.5 3.49998C559.1 3.39998 559.7 3.59998 560.1 4.09998C560.5 4.59998 560.5 5.29998 560.1 5.79998L550.9 20L550.4 72.4C550.4 73.1 550 73.6 549.3 73.8L470.1 98.2C470.1 98.3 469.9 98.3 469.8 98.3ZM450.6 31.5L465 56.3C465.1 56.5 465.2 56.6 465.2 56.8L471 94.8L547.5 71.2L548 19.4C548 19.1 548.1 18.8 548.2 18.6L555.6 7.09998L450.6 31.5Z" fill="#32333D"/>
<path d="M468.9 93.7999C468.9 93.7999 578.3 46.6999 608.7 58.4999L469.3 98.1999L468.9 93.7999Z" fill="#32333D"/>
<path d="M501.9 112.3C505.9 111.2 509.7 111.7 513.1 113.4C515.5 109.6 516.9 104.6 516.7 98.8001C516.2 83.0001 504.5 67.4001 490.7 71.2001C476.9 75.0001 474.7 94.4001 482.3 108.2C485 113.2 488.8 116.8 492.8 118.9C494.9 115.8 498 113.4 501.9 112.3Z" fill="white"/>
<path d="M492.7 120.4C492.5 120.4 492.2 120.3 492 120.2C487.5 117.8 483.6 113.9 480.9 108.9C475.9 99.8 475 88.7 478.5 80.4C480.8 74.9 484.9 71.2 490.2 69.8C495.5 68.3 500.9 69.4 505.7 73C512.9 78.3 517.8 88.5 518.1 98.8C518.3 104.6 517 109.9 514.3 114.2C513.9 114.9 513 115.1 512.4 114.7C509.1 113 505.7 112.7 502.3 113.7C498.9 114.7 496.1 116.7 493.9 119.7C493.7 120.2 493.2 120.4 492.7 120.4ZM494.8 72.2C493.5 72.2 492.3 72.4 491 72.7C486.6 73.9 483.2 77 481.2 81.6C478.1 88.9 479 99.3 483.5 107.5C485.7 111.6 488.7 114.8 492.3 117C494.7 114 497.8 111.9 501.5 110.9C505.2 109.8 508.9 110.1 512.5 111.5C514.4 107.9 515.4 103.6 515.2 98.9C514.9 89.6 510.4 80.1 504 75.4C501.1 73.3 498 72.2 494.8 72.2Z" fill="#32333D"/>
<path d="M504.3 90.4C493.3 93.4 486.4 103.1 488.8 112C489.6 114.6 491 116.9 493 118.7C493.1 118.2 493.3 117.8 493.7 117.2C495 115.9 496.8 114.8 498.9 114.2C502.7 112.2 506.9 110.8 510.4 112.4C510.5 112.5 512.8 113.6 512.9 113.7C515 113.3 515.5 109.9 515.9 108.2C516.5 105.8 517 103.4 517.5 101C517.2 97.9 516.7 94.8 515.7 91.7C515 87.9 507.9 89.3 504.3 90.4Z" fill="#32333D"/>
<path d="M485.3 88.8C485.8 89.3 503.4 101.6 503.4 101.6L498.9 81.4L485.3 88.8Z" fill="white"/>
<path d="M663 95.6999C657.9 99.5999 648.8 105.2 645.9 101.3C642.9 97.4 650.2 89 655.3 85.1C660.4 81.2 666.7 80.7 669.7 84.6C672.6 88.4 668.1 91.7999 663 95.6999Z" fill="white"/>
<path d="M648.9 104C648.6 104 648.3 104 648 103.9C646.6 103.7 645.5 103.1 644.7 102.1C643.9 101 643.5 99.7 643.7 98.1C644.4 93 650.4 86.8 654.3 83.8C657.7 81.2 661.7 80 665.2 80.4C667.6 80.7 669.5 81.8 670.8 83.6C671.8 84.9 672.2 86.2 672 87.6C671.6 90.9 667.8 93.8 663.9 96.7C661 99.1 653.9 104 648.9 104ZM663.7 83.4C661.3 83.4 658.5 84.4 656.1 86.3C651.9 89.5 647.1 95.1 646.6 98.6C646.5 99.4 646.6 99.9 647 100.4C647.2 100.7 647.5 101 648.3 101.1C650.9 101.5 656.3 98.9 662 94.5C665.3 92 668.7 89.4 668.9 87.4C668.9 87 668.9 86.4 668.3 85.6C667.4 84.5 666.2 83.8 664.6 83.6C664.4 83.4 664.1 83.4 663.7 83.4Z" fill="#32333D"/>
<path d="M652.6 85.5C652.6 91.9 651.5 102.5 646.6 102.5C641.8 102.5 639.4 91.5 639.4 85.2C639.4 78.8 642.9 73.5 647.8 73.5C652.7 73.5 652.6 79.2 652.6 85.5Z" fill="white"/>
<path d="M646.6 104.1C640.1 104.1 637.9 91.2 637.9 85.3C637.9 77.8 642.2 72.1 647.8 72.1C649.8 72.1 652.3 72.9 653.4 76.7C654 79 654 82.1 654 85.2V85.5C654.1 102.3 648.9 104.1 646.6 104.1ZM647.9 75C644 75 641 79.5 641 85.2C641 92.3 643.6 101 646.7 101C649.2 101 651.2 94.3 651.2 85.5V85.1C651.2 82.1 651.2 79.3 650.7 77.4C650 75.4 649.1 75 647.9 75Z" fill="#32333D"/>
<path d="M642.7 122.2C640.6 121.7 616.5 153.4 617.2 187.3C617.9 221.2 656.1 215.3 661.9 183.9C667.7 152.5 653 124.7 642.7 122.2Z" fill="white"/>
<path d="M635.4 211.7C634.9 211.7 634.3 211.7 633.8 211.6C620.8 210.5 615.9 198.3 615.7 187.3C615.1 154.9 636.5 125.1 641 121.4C641.5 121 642.3 120.5 643.1 120.7C653.9 123.3 669.6 151.2 663.4 184.1C661.4 194.9 656 201.5 651.9 205C646.9 209.4 641 211.7 635.4 211.7ZM642.8 123.8C639.2 126.6 618 155.4 618.7 187.3C618.9 199.9 624.7 207.9 634 208.7C644.6 209.6 657.3 200.5 660.4 183.7C666.1 153.4 652.4 126.8 642.8 123.8Z" fill="#32333D"/>
<path d="M616.1 166.9C615.8 166.9 615.4 166.8 615.1 166.7C609.1 164.6 602.8 158.4 600.5 152.2C599.9 150.6 600.7 148.9 602.3 148.3C603.9 147.7 605.6 148.5 606.2 150.1C607.8 154.5 612.9 159.5 617.2 161C618.8 161.6 619.6 163.3 619 164.8C618.5 166.1 617.3 166.9 616.1 166.9Z" fill="#32333D"/>
<path d="M669.5 177.8C669.3 177.8 669.2 177.8 669 177.8C668.2 177.8 667.6 177.1 667.7 176.3C667.8 175.5 668.4 174.9 669.2 175C675 175.3 682.7 168.9 684.7 162.1C684.9 161.4 685.7 160.9 686.4 161.2C687.1 161.4 687.6 162.2 687.3 162.9C685.1 170.7 676.5 177.8 669.5 177.8Z" fill="#32333D"/>
<path d="M667.6 199.8L665.1 207.8C664 211.5 649.1 213.3 632.9 208.3C616.7 203.4 605.5 193.6 606.6 189.9L609.1 181.9L667.6 199.8Z" fill="#F2D085"/>
<path d="M652.3 212.8C646.6 212.8 639.7 211.9 632.5 209.6C617.1 204.9 603.6 194.9 605.3 189.4L607.8 181.4C607.9 181 608.2 180.7 608.5 180.6C608.8 180.4 609.2 180.4 609.6 180.5L668.1 198.5C668.8 198.7 669.3 199.5 669 200.2L666.5 208.2C666.2 209.2 665.4 210.1 664.1 210.7C661.6 212 657.5 212.8 652.3 212.8ZM610 183.6L608 190.3C607.4 192.4 616.5 201.9 633.4 207C647.1 211.3 659 210.3 662.8 208.3C663.5 207.9 663.8 207.6 663.9 207.4L665.9 200.7L610 183.6Z" fill="#32333D"/>
<path d="M667.5 199.8C668.6 196.1 656.4 189.1 640.4 184.2C624.3 179.3 610.3 178.2 609.2 181.9C608.1 185.6 620.3 192.6 636.3 197.5C652.3 202.4 666.3 203.5 667.5 199.8Z" fill="#32333D"/>
<path d="M660.5 203.4C653.1 203.4 642.5 200.9 635.9 198.9C624 195.3 610.9 189.4 608.2 184.3C607.7 183.3 607.6 182.4 607.8 181.5C609.7 175.2 630.2 179.6 640.8 182.8C652.7 186.4 665.8 192.3 668.5 197.4C669 198.4 669.1 199.3 668.9 200.2C668.1 202.5 664.8 203.4 660.5 203.4ZM615.9 181.1C612.5 181.1 610.7 181.6 610.4 182.3C610.4 182.4 610.4 182.7 610.6 182.9C612.2 185.9 621.9 191.6 636.6 196.1C654.6 201.6 665.5 201.1 666.1 199.3C666.1 199.2 666.1 198.9 665.9 198.7C664.3 195.7 654.6 190 639.9 185.5C629.1 182.2 620.9 181.1 615.9 181.1Z" fill="#32333D"/>
<path d="M606.4 177.6C606.4 183.6 608.2 187.2 613.3 188.1C614.3 191.5 620 194.9 624.6 195C627.9 200.5 639.6 203.8 645.4 201.8C649.9 205 656.3 204.5 659.2 202.8C665.2 204.8 670.8 201.9 670.6 198.5C670.4 194.5 658.6 185.3 643.4 179.8C628.2 174.3 606.4 154.2 606.4 177.6Z" fill="#BF1931"/>
<path d="M653.3 205.6C650.5 205.6 647.6 204.9 645.1 203.4C638.9 205 627.8 202 623.7 196.4C619 196 613.8 192.8 612.2 189.3C605.7 187.7 604.9 181.9 604.9 177.6C604.9 171.6 606.3 167.8 609.2 166.1C614.4 163 622.7 167.6 631.5 172.5C635.7 174.8 640 177.2 643.8 178.6C658.3 183.8 671.7 193.3 672 198.6C672.1 200.2 671.3 201.7 669.7 202.9C667.1 204.9 663 205.5 659.3 204.4C657.7 205.1 655.6 205.6 653.3 205.6ZM645.3 200.4C645.6 200.4 645.9 200.5 646.1 200.7C650.2 203.6 655.9 203.1 658.4 201.7C658.7 201.5 659.2 201.5 659.5 201.6C663 202.8 666.2 202 667.9 200.7C668.4 200.3 669.1 199.6 669.1 198.7C669 195.9 658.6 186.9 642.8 181.2C638.8 179.7 634.4 177.3 630.2 175C622.5 170.7 614.5 166.3 610.7 168.6C608.8 169.7 607.8 172.8 607.8 177.7C607.8 183.4 609.5 186.1 613.6 186.8C614.1 186.9 614.5 187.3 614.7 187.8C615.6 190.6 620.7 193.6 624.6 193.7C625.1 193.7 625.5 194 625.8 194.4C628.8 199.3 639.9 202.3 645 200.6C645 200.4 645.2 200.4 645.3 200.4Z" fill="#32333D"/>
<path d="M607.8 168.9C606.1 172.7 609.5 177.9 614.3 178.7C615.2 181.9 620.6 185.1 624.9 185.1C629.1 191.1 639 193.4 644.5 191.5C648.8 194.5 654.7 194.1 657.5 192.5C663.1 194.4 668.5 191.6 668.3 188.5C668.1 184.8 657 176 642.8 170.9C628.3 165.8 610 163.9 607.8 168.9Z" fill="#BF1931"/>
<path d="M652.1 195.2C649.5 195.2 646.7 194.6 644.3 193.1C638.3 194.7 628.8 192.3 624.2 186.5C619.8 186.2 614.9 183.2 613.3 179.9C610.7 179.2 608.3 177.3 607 174.8C605.8 172.6 605.7 170.2 606.6 168.3C609.6 161.8 630.2 165 643.3 169.7C656.9 174.6 669.5 183.5 669.8 188.5C669.9 190 669.1 191.5 667.6 192.6C665.1 194.5 661.3 195.1 657.7 194.1C656.1 194.8 654.1 195.2 652.1 195.2ZM644.5 190.2C644.8 190.2 645.1 190.3 645.3 190.5C649.1 193.2 654.5 192.8 656.7 191.5C657 191.3 657.5 191.3 657.9 191.4C661.1 192.5 664.2 191.8 665.8 190.6C666.5 190.1 666.9 189.4 666.9 188.9C666.8 186.2 656.5 177.6 642.3 172.5C627.1 167 610.7 166.2 609.1 169.6C608.6 170.8 608.7 172.3 609.5 173.7C610.5 175.7 612.5 177.1 614.6 177.5C615.1 177.6 615.6 178 615.7 178.5C616.5 181.1 621.3 183.9 625 183.9C625.5 183.9 625.9 184.1 626.1 184.5C629.9 189.9 639 192.2 644.1 190.4C644.2 190.2 644.3 190.2 644.5 190.2Z" fill="#32333D"/>
<path d="M673.4 186.7C670.2 197.2 607.6 178 610.8 167.6C616.1 150.5 634.3 140.9 651.6 146.2C668.9 151.4 678.6 169.5 673.4 186.7Z" fill="#F2D085"/>
<path d="M665.1 191.1C649.7 191.1 619.1 181.1 611.3 172.7C609.5 170.8 608.9 168.9 609.4 167.2C614.9 149.4 634 139.4 651.9 144.9C660.6 147.5 667.8 153.4 672.1 161.4C676.4 169.4 677.3 178.5 674.7 187.1C674.2 188.9 672.6 190.1 669.9 190.7C668.6 190.9 667 191.1 665.1 191.1ZM642 146.1C628.7 146.1 616.3 154.6 612.2 167.9C611.9 168.8 612.7 169.9 613.5 170.7C621.6 179.5 657.7 190.5 669.5 187.8C670.6 187.6 671.9 187.1 672.2 186.1C674.6 178.2 673.8 169.8 669.9 162.5C666 155.1 659.4 149.8 651.3 147.3C648.1 146.6 645 146.1 642 146.1Z" fill="#32333D"/>
<path d="M634 166C638.2 166 641.5 162.7 641.5 158.5C641.5 154.3 638.2 151 634 151C629.8 151 626.5 154.3 626.5 158.5C626.6 162.6 629.9 166 634 166Z" fill="#32333D"/>
<path d="M636.8 161.8C637.4 161.9 637.6 162.6 637.1 162.9C636 163.8 634.5 164.3 632.8 164C631.3 163.7 630 162.7 629.3 161.4C629 160.9 629.5 160.4 630.1 160.5L636.8 161.8Z" fill="white"/>
<path d="M631.4 158.7C632.7 158.7 633.9 157.6 633.9 156.2C633.9 154.8 632.8 153.7 631.4 153.7C630.1 153.7 628.9 154.8 628.9 156.2C629 157.6 630.1 158.7 631.4 158.7Z" fill="white"/>
<path d="M637.2 159.8C637.7 159.8 638.1 159.4 638.1 158.9C638.1 158.4 637.7 158 637.2 158C636.7 158 636.3 158.4 636.3 158.9C636.3 159.4 636.7 159.8 637.2 159.8Z" fill="white"/>
<path d="M651.8 170.2C656 170.2 659.3 166.9 659.3 162.7C659.3 158.5 656 155.2 651.8 155.2C647.6 155.2 644.3 158.5 644.3 162.7C644.4 166.9 647.7 170.2 651.8 170.2Z" fill="#32333D"/>
<path d="M654.6 166C655.2 166.1 655.4 166.8 654.9 167.1C653.8 168 652.3 168.5 650.6 168.2C649.1 167.9 647.8 166.9 647.1 165.6C646.8 165.1 647.3 164.6 647.9 164.7L654.6 166Z" fill="white"/>
<path d="M649.2 162.9C650.5 162.9 651.7 161.8 651.7 160.4C651.7 159.1 650.6 157.9 649.2 157.9C647.9 157.9 646.7 159 646.7 160.4C646.8 161.9 647.9 162.9 649.2 162.9Z" fill="white"/>
<path d="M655 164C655.5 164 655.9 163.6 655.9 163.1C655.9 162.6 655.5 162.2 655 162.2C654.5 162.2 654.1 162.6 654.1 163.1C654.1 163.6 654.5 164 655 164Z" fill="white"/>
<path d="M644.3 171.7C639.8 180.1 635.1 179.7 635.3 169.6L644.3 171.7Z" fill="#32333D"/>
<path d="M617 219.5C616.5 219.5 616 219.4 615.5 219.1C614.1 218.3 613.5 216.5 614.3 215C617.4 209.5 624.6 204.3 631 203C632.6 202.7 634.2 203.7 634.5 205.3C634.8 206.9 633.8 208.5 632.2 208.8C627.5 209.8 621.8 213.8 619.6 217.8C619.1 219 618.1 219.5 617 219.5Z" fill="#32333D"/>
<path d="M598.5 209.7C598 209.7 597.5 209.6 597 209.3C595.6 208.5 595 206.7 595.8 205.2C598.9 199.7 606.1 194.5 612.5 193.2C614.1 192.9 615.7 193.9 616 195.5C616.3 197.1 615.3 198.7 613.7 199C609 200 603.3 204 601.1 208C600.6 209.2 599.6 209.7 598.5 209.7Z" fill="#32333D"/>
<path d="M642.7 122.2C653 124.8 667.9 152.6 662 183.9C658.8 201 646 210.5 634.9 210.1C661.6 216 697 212.5 697 184.4C696.9 159.8 683.6 123.3 642.7 122.2Z" fill="white"/>
<path d="M656.5 214.1C649.9 214.1 642.6 213.3 634.6 211.6C633.8 211.4 633.3 210.7 633.4 209.9C633.5 209.1 634.1 208.6 634.9 208.6C634.9 208.6 634.9 208.6 635 208.6C645.1 208.9 657.4 200.3 660.5 183.6C666.2 153 651.9 126 642.3 123.7C641.6 123.5 641.1 122.8 641.2 122C641.3 121.3 641.9 120.7 642.7 120.7C661.3 121.2 676.4 129.1 686.4 143.6C694 154.7 698.5 169.6 698.6 184.3C698.6 193 695.4 199.9 689.1 205C683 210 671.9 214.1 656.5 214.1ZM643.6 210.1C658.7 212.1 676.7 211.2 687.2 202.7C692.8 198.2 695.6 192.1 695.6 184.4C695.3 142.3 668.5 127.3 649 124.3C658.7 133.2 668.6 157.1 663.5 184.2C661.9 192.5 658.1 199.6 652.4 204.7C649.7 207.1 646.7 208.9 643.6 210.1Z" fill="#32333D"/>
<path d="M564.4 382C563.8 381 563.2 380 562.5 379.3C562.8 377.9 563.4 374.7 559.8 371.4C559.7 371.3 559.6 371.2 559.5 371.1V371.2C559.5 371.2 559.8 372.7 559.8 374.5C559.8 375.3 559.7 376 559.6 376.7C557.6 375.5 555.6 375.6 553.8 377.2C552.3 375.3 550.3 372 550.3 372C549 377 550.6 378.8 551.7 380C548.2 386 538.9 379.7 529.6 379.9C520.2 380 509.9 380.2 509.5 388.4C507.9 390.1 507 392.6 506.2 394.7C505 397.8 504 401 503.2 404.3C503.1 404.8 503.5 405.3 504 405.4C504.6 405.5 504.9 405.2 505 404.7C505.9 401.7 506.8 398.7 507.8 395.8C508.3 394.5 508.9 393.2 509.5 391.7C509.6 401.6 510.1 419.1 512.3 419.1C516.2 419.1 512.6 402.6 516.2 402.4C519.8 402.1 514.6 417.6 518.4 417.9C522.2 418.2 519.3 402.1 523.1 402.4C526.9 402.7 534.8 402.3 536.1 402.4C537.4 402.5 539.1 401.3 539.2 406C539.3 410.6 540.6 418.4 543.3 418C545.9 417.6 541.1 400.8 545.5 401.1C549.8 401.4 548.1 417.1 552.3 416.6C556.4 416 546.8 390.1 559.7 393.2C572.8 396.3 568.4 388.8 564.4 382Z" fill="#32333D"/>
<path d="M101.4 380.3C100.8 379.3 100.2 378.3 99.5 377.6C99.8 376.2 100.4 372.8 96.5 369.4L96.4 369.3C96.4 369.3 97.1 372.3 96.5 374.9C94.5 373.8 92.6 373.8 90.8 375.4C89.3 373.5 87.3 370.2 87.3 370.2V370.3C87.3 370.2 87.2 370.2 87.2 370.2C87.1 370.5 87.1 370.8 87.1 371.1C86.2 375.5 87.7 377.2 88.7 378.4C85.2 384.4 75.9 378.1 66.6 378.3C57.2 378.4 46.9 378.6 46.5 386.8C44.9 388.5 44 391 43.2 393.1C42 396.2 41 399.4 40.2 402.7C40.1 403.2 40.5 403.7 41 403.8C41.6 403.9 41.9 403.6 42 403.1C42.9 400.1 43.8 397.1 44.8 394.2C45.3 392.9 45.9 391.6 46.5 390.1C46.6 400 47.1 417.5 49.3 417.5C53.2 417.5 49.6 401 53.2 400.8C56.8 400.5 51.6 416 55.4 416.3C59.2 416.6 56.3 400.5 60.1 400.8C63.9 401.1 71.8 400.7 73.1 400.8C74.4 400.9 76.1 399.7 76.2 404.4C76.3 409 77.6 416.8 80.3 416.4C82.9 416 78.1 399.2 82.5 399.5C86.8 399.8 85.1 415.5 89.3 415C93.4 414.4 83.8 388.5 96.7 391.6C109.8 394.6 105.4 387.1 101.4 380.3Z" fill="#5A7FFF"/>
<path d="M434.4 425.8C433.6 423.5 434.4 409.8 432.7 397.9C431 386.1 428.1 383.2 427.1 388.6C426.1 394 424.2 394.7 422.2 392.5C420.2 390.3 419 421.4 414.8 424.4L417.2 425.8C422.4 429 429.1 429 434.4 425.8Z" fill="#32333D"/>
<path d="M316.2 383.5C315.2 381.7 314.1 380.3 313 379.2C313.3 377.7 313.5 374.9 311.2 372.3C311.2 372.3 311.9 375.4 311.3 378C309.3 376.9 307.3 377 305.6 378.6C304.1 376.7 302.1 373.3 302.1 373.3C301.5 376.3 303.2 378.5 304.6 379.7C304.3 380.1 304 380.6 303.7 381.1C300.3 387.4 290.9 381 281.5 381.2C272.1 381.3 261.8 381.5 261.4 389.7C259.8 391.4 258.9 393.9 258.1 396C256.9 399.1 255.9 402.3 255.1 405.6C255 406.1 255.4 406.6 255.9 406.7C256.5 406.8 256.8 406.5 256.9 406C257.8 403 258.7 400 259.7 397.1C260.2 395.8 260.8 394.5 261.4 393C261.5 402.9 262 420.4 264.2 420.4C268.1 420.4 264.5 403.9 268.1 403.7C271.7 403.4 266.5 418.9 270.3 419.2C274.1 419.5 271.2 403.4 275 403.7C278.8 404 286.7 403.6 288 403.7C289.3 403.8 291 402.6 291.1 407.3C291.2 411.9 292.5 419.7 295.2 419.3C297.8 418.9 293 402.1 297.4 402.4C301.8 402.7 300 418.4 304.2 417.9C308.3 417.3 298.7 391.4 311.6 394.5C324.4 397.8 320.1 390.3 316.2 383.5Z" fill="#5A7FFF"/>
<path d="M495.8 437.6C481.7 425.6 461.1 416.8 432.8 412.9C386.5 406.6 331.9 415.2 300.2 434.6" fill="#3141EB"/>
<path d="M495 438.5C480.3 426 459.3 417.7 432.6 414.1C386.1 407.7 331.8 416.6 300.7 435.6L299.5 433.6C331 414.3 385.9 405.3 432.9 411.8C460 415.5 481.4 423.9 496.5 436.8L495 438.5Z" fill="black"/>
<path d="M495.8 439.1C495.5 439.1 495.1 439 494.8 438.7C480.1 426.2 459.2 418 432.6 414.4C386.1 408 332 416.9 301 435.9C300.3 436.3 299.4 436.1 298.9 435.4C298.5 434.7 298.7 433.8 299.4 433.3C331 414 385.9 405 433 411.4C460.2 415.1 481.7 423.6 496.8 436.4C497.4 436.9 497.5 437.9 497 438.5C496.6 438.9 496.2 439.1 495.8 439.1Z" fill="#32333D"/>
<path d="M757.2 428.8C743.2 416.8 722.6 407.9 694.3 403.9C648 397.5 593.4 405.9 561.7 425.1" fill="#3141EB"/>
<path d="M756.5 429.7C741.8 417.1 720.9 408.8 694.2 405.1C647.7 398.6 593.5 407.3 562.3 426.1L561.1 424.1C592.6 405 647.5 396.2 694.5 402.8C721.6 406.6 743 415.1 758 427.9L756.5 429.7Z" fill="black"/>
<path d="M757.2 430.3C756.9 430.3 756.5 430.2 756.2 429.9C741.6 417.4 720.7 409.1 694.1 405.4C647.7 398.9 593.5 407.6 562.5 426.4C561.8 426.8 560.9 426.6 560.4 425.9C560 425.2 560.2 424.3 560.9 423.8C592.5 404.7 647.5 395.9 694.5 402.4C721.7 406.2 743.1 414.7 758.2 427.6C758.8 428.1 758.9 429.1 758.4 429.7C758.1 430.1 757.6 430.3 757.2 430.3Z" fill="#32333D"/>
<path d="M635.2 446.3C603 415.7 571.4 407.9 537.5 412C503.5 416.2 457.2 439.1 440.3 454.4" fill="#3141EB"/>
<path d="M441 455.2L439.5 453.5C455.6 439 501.7 415.2 537.4 410.8C575.1 406.3 606.4 417.3 636 445.4L634.4 447.1C605.3 419.5 574.6 408.6 537.6 413.1C502.4 417.4 456.9 440.9 441 455.2Z" fill="black"/>
<path d="M440.3 455.8C439.9 455.8 439.5 455.6 439.2 455.3C438.6 454.7 438.7 453.7 439.3 453.2C455.4 438.7 501.6 414.8 537.4 410.4C575.2 405.9 606.6 416.9 636.3 445.1C636.9 445.7 636.9 446.6 636.4 447.2C635.8 447.8 634.9 447.8 634.3 447.3C605.3 419.7 574.6 409 537.8 413.4C502.7 417.7 457.2 441.2 441.4 455.4C441 455.7 440.6 455.8 440.3 455.8Z" fill="#32333D"/>
<path d="M679 420.5C679.8 420.1 672.3 416.1 673.7 409.1C673.7 409.1 678.9 417.8 680.7 418.6L679 420.5Z" fill="#5A7FFF"/>
<path d="M689.2 419.8C688.4 419.7 691.7 413.7 686.6 408C686.6 408 688.1 415 685.7 418.8L689.2 419.8Z" fill="#5A7FFF"/>
<path d="M695 424.8C689.2 415 681.9 412 676.9 421.3C671.9 430.6 658.5 421.2 644.8 421.4C631.3 421.6 616.3 421.8 615.8 433.7C613.5 436.2 612.2 439.7 611.1 442.8C609.4 447.3 608.1 452 606.7 456.7C606.5 457.4 607.2 458.2 607.8 458.3C608.6 458.6 609.1 458 609.3 457.4C610.6 453 611.9 448.7 613.4 444.5C614.2 442.5 614.9 440.6 616 438.7C616.2 453 616.8 478.4 620.2 478.4C625.9 478.4 620.6 454.6 625.8 454.3C631 453.9 623.4 476.3 628.9 476.7C634.4 477.2 630.2 453.8 635.7 454.2C641.2 454.7 652.5 454 654.5 454.2C656.5 454.4 658.9 452.6 659 459.3C659.2 465.9 661 477.3 664.9 476.7C668.8 476.1 661.8 451.8 668 452.2C674.2 452.6 671.9 475.4 677.7 474.6C683.7 473.8 669.7 436.3 688.4 440.7C707.1 445.4 700.8 434.7 695 424.8Z" fill="#5A7FFF"/>
<path d="M679 420.5C679.8 420.1 672.3 416.1 673.7 409.1C673.7 409.1 678.9 417.8 680.7 418.6L679 420.5Z" fill="#5A7FFF"/>
<path d="M689.2 419.8C688.4 419.7 691.7 413.7 686.6 408C686.6 408 688.1 415 685.7 418.8L689.2 419.8Z" fill="#5A7FFF"/>
<path d="M421.9 443.1C420.5 440.6 418.9 438.6 417.3 437C417.7 434.7 417.9 430.9 414.7 427.2C414.7 427.2 415.6 431.5 414.9 435.1C412.1 433.4 409.2 433.5 406.7 435.9C404.5 433.1 401.8 428.4 401.8 428.4C400.9 432.7 403.3 435.8 405.2 437.7C404.8 438.3 404.3 438.9 404 439.6C399 448.9 385.6 439.5 371.9 439.7C358.4 439.9 343.4 440.1 342.9 452C340.6 454.5 339.3 458 338.2 461.1C336.5 465.6 335.2 470.3 333.8 475C333.6 475.7 334.3 476.5 334.9 476.6C335.7 476.9 336.2 476.3 336.4 475.7C337.7 471.3 339 467 340.5 462.8C341.3 460.8 342 458.9 343.1 457C343.3 471.3 343.9 496.7 347.3 496.7C353 496.7 347.7 472.9 352.9 472.6C358.1 472.2 350.5 494.6 356 495C361.5 495.5 357.3 472.1 362.8 472.5C368.3 473 379.6 472.3 381.6 472.5C383.5 472.7 386 470.9 386.1 477.6C386.3 484.2 388.1 495.6 392 495C395.9 494.4 388.9 470.1 395.1 470.5C401.3 470.9 399 493.7 404.8 492.9C410.8 492.1 396.8 454.6 415.5 459C434 463.7 427.7 452.9 421.9 443.1Z" fill="#5A7FFF"/>
<path d="M237.2 438.4C237.2 438.3 237.1 438.2 237 438.1C236.9 438 236.8 438 236.7 438C236.6 438 236.5 438.1 236.5 438.2V438.3C236.5 438.4 236.5 438.4 236.5 438.5V438.4C236.5 438.5 236.6 438.7 236.6 438.8C236.6 438.9 236.6 439.1 236.5 439.1C236.5 439.2 236.4 439.2 236.4 439.2C236.3 439.4 236.4 439.7 236.6 439.7C236.8 439.8 237 439.8 237.1 439.6C237.2 439.4 237.2 439.2 237.3 439C237.4 438.9 237.3 438.6 237.2 438.4Z" fill="#5A7FFF"/>
<path d="M235.4 427.9C234.2 425.8 232.9 424.2 231.6 423C231.9 421.2 232.2 418 229.5 414.8C229.5 414.8 230.4 418.4 229.6 421.5C227.2 420.1 225 420.2 222.9 422.1C221.1 419.8 218.7 416 218.7 416C218 419.5 220 422.1 221.5 423.7C221.1 424.2 220.8 424.7 220.5 425.3C216.4 432.9 205.5 425.2 194.2 425.4C183.1 425.6 170.8 425.7 170.4 435.5C168.6 437.5 167.5 440.4 166.5 443C165.1 446.7 163.9 450.6 162.8 454.4C162.6 455 163.2 455.6 163.7 455.7C164.3 455.9 164.7 455.4 164.9 454.9C165.9 451.3 167 447.8 168.3 444.4C168.9 442.8 169.6 441.2 170.3 439.7C170.4 451.4 170.9 472.2 173.7 472.2C178.3 472.2 174 452.7 178.3 452.3C182.6 452 176.4 470.4 180.9 470.7C185.4 471.1 182 451.9 186.5 452.3C191 452.6 200.3 452.1 201.9 452.3C203.4 452.5 205.5 451 205.6 456.6C205.7 462.1 207.2 471.4 210.4 470.9C213.6 470.4 207.8 450.5 213 450.8C218.1 451.1 216.2 469.8 221 469.2C225.8 468.6 214.5 437.8 229.8 441.5C245.2 444.7 240.1 435.9 235.4 427.9Z" fill="#5A7FFF"/>
<path d="M237.2 438.4C237.2 438.3 237.1 438.2 237 438.1C236.9 438 236.8 438 236.7 438C236.6 438 236.5 438.1 236.5 438.2V438.3C236.5 438.4 236.5 438.4 236.5 438.5V438.4C236.5 438.5 236.6 438.7 236.6 438.8C236.6 438.9 236.6 439.1 236.5 439.1C236.5 439.2 236.4 439.2 236.4 439.2C236.3 439.4 236.4 439.7 236.6 439.7C236.8 439.8 237 439.8 237.1 439.6C237.2 439.4 237.2 439.2 237.3 439C237.4 438.9 237.3 438.6 237.2 438.4Z" fill="#5A7FFF"/>
<path d="M480.7 481.3C479.9 479 480.7 469.9 479 458.1C477.3 446.3 474.4 443.4 473.4 448.8C472.4 454.2 470.5 454.9 468.5 452.7C466.5 450.4 463.8 471.7 461.1 479.8L463.5 481.2C468.7 484.5 475.4 484.5 480.7 481.3Z" fill="#32333D"/>
<path d="M487.5 500.6C488.3 498.3 487.5 484.6 489.2 472.7C490.9 460.9 493.8 458 494.8 463.4C495.8 468.8 497.7 469.5 499.7 467.3C501.7 465 502.9 496.2 507.1 499.2L504.7 500.6C499.6 503.8 492.8 503.8 487.5 500.6Z" fill="#32333D"/>
</svg>
