<svg width="480" height="578" viewBox="0 0 480 578" fill="none" xmlns="http://www.w3.org/2000/svg">
<path d="M247.8 575.9C345.5 575.9 424.7 566 424.7 553.8C424.7 541.6 345.5 531.7 247.8 531.7C150.1 531.7 70.9 541.6 70.9 553.8C71 566 150.1 575.9 247.8 575.9Z" fill="#34323C"/>
<path d="M402.8 271.9C399.8 271.9 396.8 270.3 395.3 267.4C393.1 263.3 394.7 258.1 398.8 255.9C423.2 243 459.8 217.5 460.8 203.8C460.9 202.9 461 201 457.7 198.5C437.4 186.3 393.1 196.5 377.6 201.5C373.1 202.9 368.3 200.5 366.9 196C365.5 191.5 367.9 186.7 372.4 185.3C375 184.5 435.8 165.1 466.8 184.2C467 184.3 467.1 184.4 467.3 184.5C476.6 191.2 478.1 199.3 477.7 204.9C476.8 218 464.6 232.8 440.3 250C423.6 261.8 407.4 270.4 406.8 270.8C405.5 271.6 404.2 271.9 402.8 271.9Z" fill="#34323C"/>
<path d="M64.1 283.2C63.1 283.2 62 283 61 282.6C60.5 282.4 47.5 277.3 34.1 269.6C14.1 258.1 3.69999 246.8 2.29999 235.3C1.59999 229.1 3.09999 220 14.9 211.7C47.7 187.4 105 187.3 107.4 187.3C112.1 187.3 115.9 191.1 115.9 195.8C115.9 200.5 112.1 204.3 107.4 204.3C106.4 204.3 53.1 204.5 25 225.4C24.9 225.5 24.9 225.5 24.8 225.5C20.8 228.3 18.9 230.9 19.2 233.2C19.4 235.2 21.8 242.8 42.5 254.7C54.8 261.8 67.1 266.6 67.2 266.7C71.6 268.4 73.7 273.3 72.1 277.7C70.7 281.2 67.5 283.2 64.1 283.2Z" fill="#34323C"/>
<path d="M238.1 482.5C238.1 482.5 246.4 493.3 241.7 502.8C237 512.3 224.1 519.9 207.7 516.2C205 528.9 180.3 554.2 129.1 559.7C77.9001 565.2 81.1001 525.8 81.1001 525.8L238.1 482.5Z" fill="white"/>
<path d="M119.8 561.7C106.5 561.7 96.3 558.3 89.3 551.4C78.5 540.9 79.5 526.2 79.6 525.6C79.7 525 80.1 524.4 80.7 524.3L237.7 481C238.3 480.8 238.9 481 239.3 481.5C239.7 482 248.2 493.2 243.1 503.4C238.4 512.8 225.8 521.1 208.8 517.9C204.2 532.9 176.9 556 129.2 561.1C126 561.5 122.8 561.7 119.8 561.7ZM82.6 526.9C82.6 530.3 83.2 541.3 91.5 549.3C99.4 557 112 560 129 558.2C181.3 552.6 204 526.8 206.3 515.9C206.4 515.5 206.6 515.2 207 514.9C207.3 514.7 207.7 514.6 208.1 514.7C224.2 518.3 236.1 510.7 240.4 502.1C244 495 239.2 486.8 237.5 484.2L82.6 526.9Z" fill="#32333D"/>
<path d="M180.3 439.1C195.7 434.5 215.7 436.8 228.5 450.6C246.8 470.4 241.4 508.1 202.8 510C187 536.2 141.5 553.8 102 545.3C62.5 536.9 61.5 491.9 91.7 474C107.2 464.8 125.5 461.8 143.1 465.8C143 465.8 150.6 448 180.3 439.1Z" fill="#A582E3"/>
<path d="M122.8 548.9C115.7 548.9 108.7 548.2 101.8 546.8C84.2 543 72.2 531.5 69.7 515.8C67 499.2 75.6 481.9 91.1 472.7C106.6 463.5 124.8 460.4 142.5 464C145 458.9 154.8 445.2 180 437.6C195 433.1 216.3 435 229.8 449.6C239.9 460.5 243.1 476.7 237.7 489.9C234.6 497.4 226.2 510 203.9 511.4C189.7 534 155.7 548.9 122.8 548.9ZM127.9 465.6C115.6 465.6 103.4 468.9 92.6 475.3C78.2 483.9 70.1 500 72.6 515.3C75 529.9 85.9 540.3 102.4 543.8C120.9 547.8 141.7 546.1 160.9 539.2C179.3 532.5 194.1 521.6 201.6 509.2C201.9 508.8 202.3 508.5 202.8 508.5C224.1 507.5 232 495.7 234.8 488.8C239.8 476.7 236.8 461.7 227.4 451.6C214.8 438 194.9 436.2 180.7 440.5C152.8 448.9 145.1 465 144.6 466.1C144.4 466.9 143.6 467.4 142.8 467.2C137.9 466.1 132.9 465.6 127.9 465.6Z" fill="#32333D"/>
<path d="M177.7 480.3C177.4 480.3 177.1 480.2 176.8 480C176.7 479.9 165.3 471.6 142.7 467.3C141.9 467.1 141.4 466.4 141.5 465.5C141.7 464.7 142.4 464.2 143.3 464.3C166.7 468.7 178.2 477.2 178.6 477.6C179.3 478.1 179.4 479 178.9 479.7C178.6 480 178.1 480.3 177.7 480.3Z" fill="#32333D"/>
<path d="M79.9 499C84.8 489.4 92.7 481.6 102.4 476.8C109.7 473 114.5 484.9 107.1 488.8C100.5 492.2 95.1 497.5 91.7 504.1C87.9 511.1 76.1 506.3 79.9 499Z" fill="white"/>
<path d="M219.4 439.2C217.3 427.5 200.3 420.7 181.5 423.9C162.7 427.1 148.9 439.4 151 451.1C153.1 462.8 170.1 469.6 188.9 466.4C207.7 463 221.5 450.8 219.4 439.2Z" fill="white"/>
<path d="M179.6 468.7C164 468.7 151.4 461.8 149.5 451.4C148.4 445.2 151.2 438.7 157.4 433.3C163.4 428 171.8 424.2 181.2 422.5C200.9 419.1 218.7 426.4 220.9 439C223.1 451.4 208.9 464.4 189.2 467.9C185.9 468.4 182.7 468.7 179.6 468.7ZM191 424.6C188 424.6 184.9 424.9 181.8 425.4C172.9 426.9 165 430.5 159.4 435.5C154 440.3 151.6 445.7 152.5 450.9C154.4 461.8 170.6 468.1 188.7 464.9C206.8 461.6 219.9 450.2 218 439.4C216.3 430.5 205 424.6 191 424.6Z" fill="#32333D"/>
<path d="M187.6 448.6C185.7 448.6 183.8 448 182.2 446.7C163.3 431.2 154 408.4 157.3 385.6L161.3 358.1C162 353.5 166.3 350.2 170.9 350.9C175.5 351.6 178.8 355.9 178.1 360.5L174.1 388C171.7 404.8 178.7 421.8 192.9 433.5C196.5 436.5 197.1 441.8 194.1 445.5C192.6 447.5 190.1 448.6 187.6 448.6Z" fill="#34323C"/>
<path d="M263.9 524.5C263.9 524.5 260.8 537.8 268.9 544.5C277 551.2 292 552.9 305.4 542.7C313.1 553.1 345.9 566.1 394.9 550C443.8 533.9 424.8 499.4 424.8 499.4L263.9 524.5Z" fill="white"/>
<path d="M350.9 559.2C326.7 559.2 311 551.3 305.2 544.8C291.1 554.8 276.2 552.4 268 545.7C259.2 538.5 262.3 524.8 262.4 524.2C262.5 523.6 263 523.2 263.6 523.1L424.6 498.1C425.2 498 425.8 498.3 426.1 498.9C426.4 499.4 433.4 512.3 427.8 526.3C423.4 537.5 412.5 546 395.3 551.6C378.4 557.1 363.5 559.2 350.9 559.2ZM305.4 541.2C305.5 541.2 305.5 541.2 305.6 541.2C306 541.3 306.4 541.5 306.6 541.8C313.3 550.8 344.6 564.9 394.5 548.6C410.7 543.3 421 535.4 425.1 525.1C429.3 514.4 425.4 504.2 424 501.1L265.2 525.8C264.7 528.9 263.8 538.3 269.9 543.3C277.4 549.4 291.4 551.5 304.5 541.5C304.8 541.4 305.1 541.2 305.4 541.2Z" fill="#32333D"/>
<path d="M298.8 461.2C282.9 463.3 265.5 473.7 259.5 491.5C250.9 517.1 271.4 549.3 307.2 535.1C332.3 552.5 381.1 549.9 413.6 526C446.2 502.1 428.6 460.7 393.8 456.8C376 454.7 357.9 459.6 343.5 470.3C343.8 470.3 329.5 457.2 298.8 461.2Z" fill="#A582E3"/>
<path d="M349.4 547.9C333.4 547.9 318.3 544.3 307.1 536.8C286.3 544.7 273.4 536.7 267.6 531.2C257.2 521.4 253.4 505.2 258.2 491.1C264.5 472.3 283.1 461.8 298.7 459.8C325.3 456.3 339.7 465.4 343.7 468.5C358.3 458 376.2 453.3 394.1 455.4C412 457.4 426.9 469.6 431.2 485.9C435.3 501.2 429.1 516.7 414.6 527.4C396.2 540.8 371.8 547.9 349.4 547.9ZM307.3 533.6C307.6 533.6 307.9 533.7 308.2 533.9C320.1 542.2 338.2 546.1 357.7 544.6C378.1 543.1 397.7 536.1 412.9 524.9C432.3 510.7 430.2 493.4 428.4 486.6C424.4 471.6 410.5 460.2 393.8 458.4C376.3 456.4 358.8 461.1 344.6 471.6C344.1 472 343.3 472 342.8 471.6C342.7 471.5 342.7 471.5 342.6 471.4C341.9 470.8 328.3 459 299.1 462.8C284.4 464.7 267 474.5 261.1 492.1C256.7 505.2 260.2 520.1 269.7 529.1C279 537.9 292.2 539.6 306.8 533.8C306.9 533.7 307.1 533.6 307.3 533.6Z" fill="#32333D"/>
<path d="M317.4 497.9C317.2 497.9 316.9 497.8 316.7 497.7C316 497.3 315.7 496.4 316.1 495.7C316.4 495.2 323.4 482.8 342.9 469.1C343.6 468.6 344.5 468.8 345 469.5C345.5 470.2 345.3 471.1 344.6 471.6C325.7 484.8 318.7 497 318.7 497.2C318.4 497.6 317.9 497.9 317.4 497.9Z" fill="#32333D"/>
<path d="M414.9 474.6C406.5 467.9 396.1 464 385.3 463.6C377.1 463.2 377.7 476 385.8 476.4C393.2 476.8 400.2 479.4 406 484C412.6 489.1 421.4 479.8 414.9 474.6Z" fill="white"/>
<path d="M263.2 477.3C260.2 465.8 272.9 452.6 291.5 447.8C310 443.1 327.6 448.5 330.5 460.1C333.5 471.6 320.8 484.8 302.2 489.6C283.5 494.3 266.1 488.9 263.2 477.3Z" fill="white"/>
<path d="M288.8 492.8C281.7 492.8 275.1 491.3 270.1 488.3C265.7 485.6 262.7 482 261.7 477.7C260.6 473.4 261.4 468.8 264.1 464.3C268.9 456.2 279 449.5 291.2 446.4C303.3 443.3 315.4 444.3 323.5 449.2C328 451.9 330.9 455.5 331.9 459.8C333 464.1 332.2 468.7 329.5 473.2C324.7 481.3 314.6 488 302.4 491.1C297.9 492.2 293.2 492.8 288.8 492.8ZM304.7 447.7C300.6 447.7 296.2 448.2 291.9 449.3C280.5 452.2 271.1 458.4 266.7 465.8C264.5 469.6 263.8 473.4 264.7 476.9C265.6 480.4 268 483.4 271.8 485.6C279.2 490 290.4 490.9 301.9 488C313.3 485.1 322.7 478.9 327.1 471.5C329.3 467.7 330 463.9 329.1 460.4C328.2 456.9 325.8 453.9 322 451.6C317.4 449 311.3 447.7 304.7 447.7Z" fill="#32333D"/>
<path d="M298.3 470.4C296.3 470.4 294.3 469.7 292.7 468.3C289.2 465.2 288.8 459.8 291.9 456.3C309.1 436.8 312.4 408.2 300.3 385.2L293 371.3C290.8 367.1 292.4 362 296.6 359.8C300.8 357.6 305.9 359.2 308.1 363.4L315.4 377.3C330.8 406.5 326.4 442.8 304.7 467.6C303 469.4 300.7 470.4 298.3 470.4Z" fill="#34323C"/>
<path d="M237.2 389.8C327.1 389.8 399.9 319.8 399.9 233.5C399.9 147.2 327.1 77.2 237.2 77.2C147.3 77.2 74.5 147.2 74.5 233.5C74.5 319.8 147.4 389.8 237.2 389.8Z" fill="#68E1FB"/>
<path d="M237.2 391.3C146.7 391.3 73 320.5 73 233.5C73 146.5 146.7 75.7 237.2 75.7C327.7 75.7 401.4 146.5 401.4 233.5C401.4 320.5 327.8 391.3 237.2 391.3ZM237.2 78.7C148.3 78.7 76 148.1 76 233.5C76 318.9 148.3 388.3 237.2 388.3C326.1 388.3 398.4 318.8 398.4 233.5C398.4 148.2 326.1 78.7 237.2 78.7Z" fill="#34323C"/>
<path d="M389.3 289.3C393.3 281 394.8 271.6 397.5 262.8C397.7 262.4 397.8 262 398.1 261.8C397.9 254.6 397.6 247.3 397 240.2C400.7 222 396.8 204.4 389.8 187.6C389.7 187.4 389.6 187.2 389.5 187C390.2 186 390.4 184.6 390 183C384.8 166.4 375.1 145.8 362.8 133.5C357.8 140.6 354.6 145.8 324.2 159.6C310.8 166.8 297.7 181.3 294.2 195.9C292.3 203.1 295.8 209.9 299 216.8C301.8 222.9 306.7 227.5 312 231.4C319 236.6 326.7 240.7 334.3 245.1C340.3 250.7 345.2 257.1 350.4 263.4C355.6 269.7 361.3 276.3 364.5 283.9C366 290.4 367.4 296.9 368.9 303.3C368.6 303.7 368.5 304.1 368.3 304.7C367.5 308.2 366 311.1 363.9 314C362.4 316.1 363.4 319.3 365.2 320.6C367.4 322.4 369.9 321.8 371.9 320.2C378.9 314.7 382.1 305.7 384.4 297.1C385.9 295.3 387.5 293.6 388.9 291.8C388.9 290.9 388.8 290.1 389.3 289.3Z" fill="#00DDA5"/>
<path d="M144 259.4C141 254.2 135.6 250.1 131.3 246C126.7 241.5 121.7 236.9 117.2 232.1C114 228.8 110.1 223.7 108.4 218.3C112.7 213.5 116.1 208 118.9 202.1C120.1 199.6 121.2 196.5 124.5 197.2C127.3 197.8 129.4 200.1 131 202.4C138 212.2 138.1 225.5 148.4 233C151.5 235.3 155.6 233.4 156.3 229.5C157.3 224 155.9 218.9 153.8 213.9C155 213 155.8 211.4 155.4 209.4C153.5 197.9 164.2 189.5 172.6 183.9C187.9 173.9 190.3 146 185.2 135.7C159.3 110.9 144 119.6 167.5 92.3999C127.4 112.1 107.6 139.2 101 148.7C88 167.5 84.6 184 77 205.5C74.8 211.5 72.6 216.8 76.8 222.2C77.1 222.5 77.2 222.8 77.5 223C73.8 231.2 74.6 239.2 77.2 247.6C78.5 251.6 78 255.4 78.5 259.6C78.9 263.8 80.4 267.8 81.8 271.9C87.9 289.9 95 307.6 102.9 324.8C105.3 329.8 112.8 327.9 112.4 322.1C112.1 317.1 109.9 312.6 108.4 308C109 307.3 109.3 306.6 109.5 305.4C110.3 300.5 111.3 294.4 114.9 290.6C118.6 286.7 124.9 287 129.5 285.1C139.1 281.5 150.4 270.1 144 259.4Z" fill="#00DDA5"/>
<path d="M237.2 391.3C146.7 391.3 73 320.5 73 233.5C73 146.5 146.7 75.7 237.2 75.7C327.7 75.7 401.4 146.5 401.4 233.5C401.4 320.5 327.8 391.3 237.2 391.3ZM237.2 78.7C148.3 78.7 76 148.1 76 233.5C76 318.9 148.3 388.3 237.2 388.3C326.1 388.3 398.4 318.8 398.4 233.5C398.4 148.2 326.1 78.7 237.2 78.7Z" fill="#34323C"/>
<path d="M361.6 336.1C361.5 336.1 361.4 336.1 361.3 336.1C360.5 335.9 360 335.1 360.2 334.3L360.5 333C365.6 310.7 374 273.4 322.5 240.7C303.3 228.5 293.5 215 293.5 200.6C293.6 177.9 317.6 161.6 322.5 158.5C328.3 154.8 334.7 152 340.3 149.5C353.5 143.7 360.9 140 359 131.6C358.8 130.8 359.3 130 360.1 129.8C360.9 129.6 361.7 130.1 361.9 130.9C364.4 142.1 353.8 146.7 341.5 152.2C336 154.6 329.7 157.4 324.1 161C319.5 163.9 296.6 179.4 296.5 200.5C296.5 213.8 305.7 226.5 324.1 238.1C377.4 271.9 368.6 310.6 363.4 333.6L363.1 334.9C362.9 335.6 362.3 336.1 361.6 336.1Z" fill="#34323C"/>
<path d="M118.1 340.9C117.5 340.9 117 340.6 116.7 340C116.2 338.8 104.5 310.7 111 294.9C114.9 285.7 122.9 283.5 130.1 281.5C135.4 280 140 278.7 141.6 274.8C145.4 265.9 143.4 257.4 121.9 238.1C109.6 227 108.5 217.7 109.8 211.8C111.5 204 117.7 199.4 122.6 197.8C133 194.3 139.7 212.2 142.9 220.8C143.3 221.8 143.6 222.7 143.9 223.4C145.5 227.4 149.8 232.9 153 232.9C155 232.9 156.4 230.5 157.2 228.4C149.5 199.4 154.6 193.1 171 182.6C186.8 172.5 190.1 150.3 183.3 136.7C181.2 132.4 175.7 129 170.4 125.8C163.5 121.5 156.4 117.1 156 110.2C155.7 104.1 160.7 97.2 171.8 88.7C172.5 88.2 173.4 88.3 173.9 89C174.4 89.7 174.3 90.6 173.6 91.1C163.5 98.9 158.7 105.1 158.9 110.1C159.2 115.4 165.3 119.3 171.9 123.3C177.5 126.8 183.4 130.4 185.9 135.4C193.3 150.1 189.6 174.2 172.5 185.1C157.4 194.8 152.5 199.6 160.2 228.1C160.3 228.4 160.3 228.7 160.2 229C158.5 233.5 156.1 235.8 153 235.9H152.9C147.5 235.9 142.6 228.2 141.1 224.5C140.8 223.8 140.5 222.9 140.1 221.8C137.4 214.7 131.2 198 123.5 200.6C119.4 201.9 114.1 205.8 112.7 212.3C111.6 217.4 112.7 225.6 123.9 235.7C144.2 254 149.3 264.1 144.4 275.8C142.2 281 136.7 282.6 130.9 284.2C124.1 286.1 117.1 288 113.8 295.9C107.7 310.5 119.3 338.4 119.5 338.6C119.8 339.4 119.5 340.2 118.7 340.6C118.5 340.9 118.3 340.9 118.1 340.9Z" fill="#34323C"/>
<path d="M83.4 382.8L241 425.6L376.3 382.8L390.7 143.6L237.5 212.4L88.1 151L83.4 382.8Z" fill="#E6E6DC"/>
<path d="M241 427.1C240.9 427.1 240.7 427.1 240.6 427L83 384.3C82.3 384.1 81.9 383.5 81.9 382.8L86.6 150.9C86.6 150.4 86.9 149.9 87.3 149.7C87.7 149.4 88.2 149.4 88.7 149.6L237.5 210.9L390.1 142.3C390.6 142.1 391.1 142.1 391.6 142.4C392.1 142.7 392.3 143.2 392.2 143.7L377.8 382.9C377.8 383.5 377.3 384.1 376.8 384.2L241.5 427C241.3 427.1 241.2 427.1 241 427.1ZM84.9 381.7L241 424L374.9 381.7L389.1 146L238.1 213.8C237.7 214 237.3 214 236.9 213.8L89.6 153.2L84.9 381.7Z" fill="#34323C"/>
<path d="M79.3 383.7L241 425.4L379.8 383.7L398.8 153.8L237.5 212.3L79.3 162.1V383.7Z" fill="#E6E6DC"/>
<path d="M240.9 427C240.8 427 240.6 427 240.5 427L78.9 385.2C78.2 385 77.8 384.4 77.8 383.7V162.1C77.8 161.6 78 161.2 78.4 160.9C78.8 160.6 79.3 160.5 79.7 160.7L237.4 210.8L398.2 152.4C398.7 152.2 399.2 152.3 399.6 152.6C400 152.9 400.2 153.4 400.2 153.9L381.2 383.8C381.1 384.4 380.7 384.9 380.1 385.1L241.3 426.8C241.2 427 241.1 427 240.9 427ZM80.8 382.6L240.9 423.9L378.3 382.6L397 156.1L237.9 213.8C237.6 213.9 237.2 213.9 236.9 213.8L80.8 164.1V382.6Z" fill="#34323C"/>
<path d="M71.3 384.6L241 425.5L386.7 384.6L407.8 162.1L237.5 212.4L71.3 171.9V384.6Z" fill="#E6E6DC"/>
<path d="M241 427C240.9 427 240.8 427 240.6 427L71 386C70.3 385.8 69.9 385.2 69.9 384.5V171.9C69.9 171.4 70.1 171 70.5 170.7C70.9 170.4 71.3 170.3 71.8 170.4L237.6 210.8L407.5 160.6C408 160.5 408.5 160.6 408.9 160.9C409.3 161.2 409.5 161.7 409.4 162.2L388.3 384.7C388.2 385.3 387.8 385.8 387.2 386L241.5 426.9C241.3 427 241.2 427 241 427ZM72.8 383.4L241 423.9L385.3 383.4L406.1 164.2L238 213.8C237.7 213.9 237.5 213.9 237.2 213.8L72.8 173.8V383.4Z" fill="#34323C"/>
<path d="M322.2 344.7L379.7 329.9V334.6L322.2 349.4V344.7Z" fill="#34323C"/>
<path d="M322.2 353L379.7 338.2V342.9L322.2 357.7V353Z" fill="#34323C"/>
<path d="M322.2 361.3L379.7 346.4V351.1L322.2 366V361.3Z" fill="#34323C"/>
<path d="M322.2 369.5L379.7 354.7V359.4L322.2 374.2V369.5Z" fill="#34323C"/>
<path d="M322.2 377.8L379.7 363V367.7L322.2 382.5V377.8Z" fill="#34323C"/>
<path d="M313.6 347V351.7L252.8 367.5V362.8L313.6 347Z" fill="#34323C"/>
<path d="M313.6 355.3V360L252.8 375.7V371L313.6 355.3Z" fill="#34323C"/>
<path d="M313.6 363.6V368.3L252.8 384V379.3L313.6 363.6Z" fill="#34323C"/>
<path d="M313.6 371.8V376.5L252.8 392.3V387.6L313.6 371.8Z" fill="#34323C"/>
<path d="M313.6 380V384.7L252.8 400.4V395.7L313.6 380Z" fill="#34323C"/>
<path d="M264.3 249.2L271.2 247.3V258.2C271.2 263.2 269.6 268.9 262.9 270.7L261.4 271.1C254.3 273 252.7 268.2 252.7 263.4V234.4C252.7 229.6 254.8 224.4 261 222.8L262.6 222.4C270.3 220.4 271.2 225.3 271.2 230V238.4L264.3 240.3V232C264.3 229.9 263.7 229.1 261.9 229.5C260.1 229.9 259.7 231 259.7 233.2V261.3C259.7 263.4 260.4 264.4 262 264C263.6 263.6 264.4 262.1 264.4 260.2L264.3 249.2Z" fill="#34323C"/>
<path d="M280.3 218.2V258.3L288.9 256V263.3L273.3 267.3V220L280.3 218.2Z" fill="#34323C"/>
<path d="M297.7 261L290.7 262.9V215.6L297.7 213.7V261Z" fill="#34323C"/>
<path d="M300.3 212.9L309.3 210.5L312.7 234.6L316.1 208.7L324.4 206.5V253.8L317.8 255.6V225L313.6 256.6L310.8 257.4L306.6 227.9V258.5L300.4 260.1L300.3 212.9Z" fill="#34323C"/>
<path d="M337.7 241.4L332.7 242.7L331.9 251.9L325.7 253.5L331.3 204.7L339.5 202.5L345.5 248.3L338.8 250.2L337.7 241.4ZM333.4 235.7L337 234.8L335.1 217.8L333.4 235.7Z" fill="#34323C"/>
<path d="M361.4 196.8V203.7L355.5 205.2V245.7L348.6 247.6V207.1L342.7 208.6V201.7L361.4 196.8Z" fill="#34323C"/>
<path d="M379 192.2V199.1L370.1 201.5V214L377.1 212.1V219.3L370.1 221.2V234.8L379.4 232.4V239.6L363.2 243.9V196.5L379 192.2Z" fill="#34323C"/>
<path d="M260.7 343.3L249.5 346.2L259.8 276.9L271 274L267.1 300.5L273.2 299L277.1 272.5L288.3 269.6L278 338.8L266.8 341.7L271.1 312.4L265 314L260.7 343.3Z" fill="#34323C"/>
<path d="M305.4 264C315.8 261.2 319.8 267 318.3 277.6L312.8 314.1C311.3 324.6 306.7 332.1 298.6 334.3L296.2 334.9C286.5 337.5 281.7 332.4 283.2 321.4L288.6 285.4C290.1 274.6 293.6 267.1 303 264.6L305.4 264ZM300.6 281.3L294.9 319.5C294.6 321.4 295.1 323.2 297.6 322.5C300 321.9 300.7 319.6 301 317.9L306.7 279.7C307.1 276.7 306.4 275.4 304.1 276C301.8 276.6 301 278.3 300.6 281.3Z" fill="#34323C"/>
<path d="M330.9 313.6L324 315.5L321.3 327.5L311.1 330.2L329.3 258.7L342.6 255.2L341.2 322.3L330.4 325.2L330.9 313.6ZM331.4 302L332.3 279.3L326.7 303.2L331.4 302Z" fill="#34323C"/>
<path d="M352.5 252.4L363.5 249.5L364.2 269.3L370.7 247.7L381.5 244.8L370.1 278.8L372.5 313.8L361.4 316.7L360.6 293.8L352.4 319L341.2 321.9L354.8 282.6L352.5 252.4Z" fill="#34323C"/>
<path d="M383.6 310.9L373.5 313.6L375.5 300.1L385.6 297.4L383.6 310.9ZM395.1 241.1L383.2 296L378.8 297.2L382.7 244.4L395.1 241.1Z" fill="#34323C"/>
<path d="M271.5 143C282 142 288.7 122 286.5 98.2999C284.2 74.5999 273.9 56.2999 263.3 57.1999C252.8 58.1999 246.1 78.1999 248.3 101.9C250.6 125.7 261 144.1 271.5 143Z" fill="white"/>
<path d="M270.7 144.6C267.9 144.6 265.2 143.5 262.5 141.3C254.7 134.8 248.5 119.4 246.9 102.1C244.6 77.2 251.8 56.9 263.3 55.7C274.9 54.7 285.8 73.3 288.1 98.2C290.4 123.1 283.2 143.4 271.7 144.6C271.3 144.6 271 144.6 270.7 144.6ZM264.2 58.7C264 58.7 263.8 58.7 263.5 58.7C254 59.6 247.8 79.4 249.8 101.8C251.4 118.4 257.1 133 264.4 139C266.8 140.9 269.1 141.8 271.4 141.6C280.9 140.7 287.1 120.9 285.1 98.5C283 76.2 273.7 58.7 264.2 58.7Z" fill="#34323C"/>
<path d="M268.8 142.6C276.8 142.6 283.4 131.9 283.4 118.6C283.4 105.4 276.9 94.6 268.8 94.6C260.8 94.6 254.2 105.3 254.2 118.6C254.2 131.9 260.7 142.6 268.8 142.6Z" fill="#34323C"/>
<path d="M272 84.7C272.3 85.9 268.4 112.4 268.4 112.4L263.1 86.5L272 84.7Z" fill="white"/>
<path d="M296.9 52C296.1 52 295.5 51.3999 295.4 50.5999C295.4 50.5 294.6 39.9 291.5 29.2C288.8 19.7 283.6 8.09995 274.7 7.09995C257.2 5.19995 244.6 41.5 244.4 41.9C244.1 42.7 243.3 43.0999 242.5 42.7999C241.7 42.5 241.3 41.7 241.6 40.9C242.1 39.3 255.2 1.99995 275 4.09995C294.9 6.29995 298.2 48.5 298.3 50.2999C298.4 51.0999 297.7 51.8 296.9 51.9C297 52 296.9 52 296.9 52Z" fill="#34323C"/>
<path d="M227.8 103.7C227.1 96.6 225.7 90 223.8 84.2C224 83.4 223.7 82.3 222.6 81.8C215.6 78 208.2 75.2 200.5 73.1C200.3 73 200.1 73 199.9 73C198.6 72.1 197.2 71.1 196 69.9C195.8 69.7 195.7 69.6 195.6 69.4C190.7 77.4 188.2 91.5 189.7 107.3C192 131 202.3 149.4 212.8 148.4C223.4 147.4 230.2 127.4 227.8 103.7Z" fill="white"/>
<path d="M211.9 149.8C209.2 149.8 206.4 148.7 203.8 146.5C196 140.1 189.9 124.7 188.2 107.3C186.8 92.8 188.7 79 193.4 70.4C193.8 69.7 194.7 69.4 195.4 69.8C196.1 70.2 196.4 71.1 196 71.8C191.6 79.9 189.8 93.1 191.1 107C192.7 123.7 198.4 138.3 205.6 144.2C207.9 146.1 210.3 147 212.5 146.8C222.1 145.9 228.3 126.1 226.2 103.7C225.5 96.8 224.1 89.9 221.8 83.3C221.5 82.5 222 81.7 222.7 81.4C223.5 81.1 224.3 81.6 224.6 82.3C226.9 89.1 228.4 96.2 229.1 103.4C231.5 128.3 224.3 148.6 212.7 149.8C212.6 149.8 212.3 149.8 211.9 149.8Z" fill="#34323C"/>
<path d="M212.3 147.9C220.3 147.9 226.9 137.3 226.9 124.1C226.9 110.9 220.4 100.3 212.3 100.3C204.3 100.3 197.7 110.9 197.7 124.1C197.8 137.3 204.2 147.9 212.3 147.9Z" fill="#34323C"/>
<path d="M215.6 90.5C215.9 91.7 212 118 212 118L206.7 92.3L215.6 90.5Z" fill="white"/>
<path d="M230.8 86.2C230.6 86.2 230.4 86.2 230.2 86.1L175.6 63.3C174.8 63 174.5 62.1 174.8 61.3C175.1 60.5 176 60.2 176.8 60.5L231.4 83.3C232.2 83.6 232.5 84.5 232.2 85.3C232 85.9 231.4 86.2 230.8 86.2Z" fill="#34323C"/>
<path d="M234 162C234 162 280.9 111.6 296.9 144.9L234 162Z" fill="#68E1FB"/>
<path d="M234 163.5C233.6 163.5 233.3 163.4 233 163.1C232.4 162.5 232.4 161.6 232.9 161C234.1 159.7 262.8 129.1 283.5 132.3C289.9 133.3 294.8 137.3 298.2 144.3C298.6 145 298.2 145.9 297.5 146.3C296.8 146.7 295.9 146.3 295.5 145.6C292.6 139.5 288.5 136.1 283.1 135.3C264 132.4 235.4 162.8 235.1 163.1C234.8 163.3 234.4 163.5 234 163.5Z" fill="#34323C"/>
<path d="M235.8 173.6C235.1 173.6 234.4 173.1 234.3 172.3C233.5 167 231.6 163.3 228.8 161.4C225.5 159.2 221.9 160 221.8 160C221 160.2 220.2 159.7 220 158.9C219.8 158.1 220.3 157.3 221.1 157.1C221.3 157 226 155.9 230.4 158.9C234 161.3 236.3 165.7 237.3 171.9C237.4 172.7 236.9 173.5 236 173.6C235.9 173.6 235.8 173.6 235.8 173.6Z" fill="#34323C"/>
<path d="M80.9 296.3C80.9 296.3 91.3 317.5 71.4 318.6C51.5 319.6 55.9 297.5 58.8 294.3" fill="white"/>
<path d="M70.1 320.1C61.8 320.1 58.1 316 56.4 312.5C53.2 305.7 55.3 295.8 57.7 293.2C58.3 292.6 59.2 292.5 59.8 293.1C60.4 293.7 60.5 294.6 59.9 295.2C58.5 296.7 56.3 305.3 59.1 311.2C61.1 315.4 65.2 317.3 71.3 317C76 316.8 79.3 315.3 80.8 312.6C84.2 306.8 79.5 297 79.5 296.9C79.1 296.2 79.4 295.3 80.2 294.9C80.9 294.5 81.8 294.8 82.2 295.6C82.4 296.1 87.7 306.9 83.4 314.1C81.3 317.7 77.2 319.7 71.4 320C71 320 70.6 320.1 70.1 320.1Z" fill="#34323C"/>
<path d="M82.4 279.1C82.4 279.1 90.2 300.6 68.9 300.6C47.6 300.6 52.7 281.2 55.7 277.3" fill="white"/>
<path d="M68.9 302.1C58.9 302.1 54.7 297.9 52.9 294.3C49.7 287.9 52.2 279.3 54.5 276.4C55 275.7 55.9 275.6 56.6 276.1C57.3 276.6 57.4 277.5 56.9 278.2C55.5 280.1 52.9 287.5 55.6 293C57.6 297 62.1 299.1 68.9 299.1C74.4 299.1 78.3 297.6 80.3 294.6C84.3 289 81 279.7 80.9 279.6C80.6 278.8 81 278 81.8 277.7C82.6 277.4 83.4 277.8 83.7 278.6C83.9 279 87.6 289.4 82.7 296.4C80.2 300.1 75.5 302.1 68.9 302.1Z" fill="#34323C"/>
<path d="M65.6 262.5C65.6 262.5 83.6 255.2 84.8 268.9C86.2 286.1 66.9 286.4 59.5 281.4C52 276.5 50.9 257.6 68.6 257.6" fill="white"/>
<path d="M70 285.6C65.7 285.6 61.4 284.4 58.6 282.5C52.9 278.7 50.3 271.8 52.3 265.2C54 259.6 59.5 253.5 70 253.5C70.8 253.5 71.5 254.2 71.5 255C71.5 255.8 70.8 256.5 70 256.5C61.2 256.5 56.6 261.4 55.2 266C53.6 271.3 55.6 276.8 60.3 279.9C64.4 282.7 72.8 283.7 78.1 280.5C82 278.2 83.7 274.3 83.3 268.8C83.1 266 82.1 264.1 80.3 263C75.4 260 66.3 263.6 66.2 263.7C65.4 264 64.6 263.6 64.2 262.9C63.9 262.1 64.3 261.3 65 260.9C65.4 260.7 75.6 256.7 81.8 260.5C84.4 262.1 85.9 264.8 86.2 268.6C86.9 277 83 281.2 79.5 283.2C76.8 284.9 73.4 285.6 70 285.6Z" fill="#34323C"/>
<path d="M387.6 281.9C387.6 281.9 376.8 304 397.4 305C418 306 413.5 283.2 410.5 279.8" fill="white"/>
<path d="M398.7 306.6C398.2 306.6 397.8 306.6 397.3 306.6C391.3 306.3 387.1 304.3 385 300.5C380.6 293.1 386.1 281.8 386.3 281.3C386.7 280.6 387.6 280.2 388.3 280.6C389 281 389.4 281.9 389 282.6C389 282.7 384 292.9 387.6 298.9C389.2 301.7 392.6 303.2 397.5 303.5C403.8 303.8 408.1 301.8 410.2 297.5C413.2 291.3 410.9 282.5 409.4 280.8C408.9 280.2 408.9 279.2 409.5 278.7C410.1 278.2 411.1 278.2 411.6 278.8C413.7 281.2 416.4 291.3 412.8 298.8C411.1 302.4 407.2 306.6 398.7 306.6Z" fill="#34323C"/>
<path d="M386 264.1C386 264.1 377.9 286.5 399.9 286.5C421.9 286.5 416.6 266.4 413.5 262.4" fill="white"/>
<path d="M399.9 288C393.2 288 388.4 286 385.6 282.1C380.6 274.9 384.4 264.1 384.6 263.7C384.9 262.9 385.7 262.5 386.5 262.8C387.3 263.1 387.7 263.9 387.4 264.7C387.4 264.8 383.9 274.5 388.1 280.4C390.3 283.5 394.3 285.1 399.9 285.1C407 285.1 411.6 283 413.7 278.8C416.5 273.1 413.8 265.4 412.3 263.4C411.8 262.7 411.9 261.8 412.6 261.3C413.3 260.8 414.2 260.9 414.7 261.6C416.6 264.1 419.9 273 416.4 280.1C414.6 283.6 410.3 288 399.9 288Z" fill="#34323C"/>
<path d="M403.4 246.9C403.4 246.9 384.7 239.3 383.5 253.5C382 271.3 402 271.6 409.8 266.5C417.6 261.4 420.2 241.4 402 241.4" fill="white"/>
<path d="M398.9 270.9C395.3 270.9 391.7 270.1 388.8 268.4C385.3 266.3 381.3 262 382 253.4C382.3 249.5 383.9 246.7 386.6 245C393 241.1 403.5 245.3 403.9 245.5C404.7 245.8 405 246.7 404.7 247.5C404.4 248.3 403.5 248.6 402.7 248.3C402.6 248.3 393.2 244.5 388.1 247.6C386.2 248.8 385.2 250.7 384.9 253.6C384.4 259.3 386.2 263.4 390.2 265.7C395.8 269 404.5 268.1 408.8 265.2C412.5 262.8 415.3 255.7 413.5 250C412.1 245.3 408 242.8 401.8 242.8C401 242.8 400.3 242.1 400.3 241.3C400.3 240.5 401 239.8 401.8 239.8C412 239.8 415.3 245.6 416.4 249.1C418.4 255.6 415.6 264.3 410.5 267.7C407.8 269.7 403.4 270.9 398.9 270.9Z" fill="#34323C"/>
<path d="M112 207.3V212.7L96.3 208.5V212L111.7 216.1V221.5L96.3 217.4V221.3L112.3 225.5V231L89.7 224.9V201.3L112 207.3Z" fill="#34323C"/>
<path d="M134.3 232.5L121.4 229L119.5 232.8L112.8 230.9L123.5 210.2L132.1 212.6L143.4 239.2L136.2 237.3L134.3 232.5ZM127.7 216.6L123.8 224.3L131.8 226.5L127.7 216.6Z" fill="#34323C"/>
<path d="M151.1 241.4L144.5 239.5V216L161.6 220.5C168.7 222.4 170.8 225.7 170.8 229.2V229.5C170.8 232.9 168.3 233.5 166.9 233.6C169.1 234.8 170.9 237.1 170.9 240.1V243.6C170.9 245.5 171.2 246.2 171.3 246.6V246.8L164.6 244.9C164.4 244.6 164.3 244.1 164.3 243.4V240.6C164.3 237.7 163.2 236.1 159.9 235.2L151.2 232.8L151.1 241.4ZM151.1 227.7L161.1 230.4C163 230.9 163.8 230.1 163.8 228.9C163.8 227.7 163 226.4 161.1 225.9L151.1 223.2V227.7Z" fill="#34323C"/>
<path d="M181.2 231.4L172.1 229V223.3L196.9 230V235.6L187.7 233.1V251.1L181.1 249.2L181.2 231.4Z" fill="#34323C"/>
<path d="M199.2 230.8L205.8 232.7V241.3L220 245V236.4L226.6 238.3V261.9L220 260V250.7L205.8 246.9V256.2L199.2 254.3V230.8Z" fill="#34323C"/>
<path d="M89.8 233.1L103.8 236.9C116.1 240.2 118.7 246.8 118.7 252V252.9C118.7 257.9 116.2 263.7 103.8 260.3L89.7 256.6L89.8 233.1ZM96.4 252.8L103.3 254.7C110.8 256.7 111.7 253.4 111.7 250.9V250.7C111.7 248.3 110.8 244.4 103.3 242.4L96.4 240.5V252.8Z" fill="#34323C"/>
<path d="M136 245.3C149.3 248.9 150.8 256.7 150.8 261V261.9C150.8 266 149.3 273.3 136 269.6L134.8 269.3C121.4 265.7 119.9 257.7 119.9 253.5V252.6C119.9 248.4 121.3 241.4 134.8 244.9L136 245.3ZM135.4 250.7C128.2 248.7 126.8 251.8 126.8 254.6V254.9C126.8 257.6 128.1 261.7 135.4 263.7C142.5 265.6 144 262.4 144 259.7V259.3C144 256.4 142.6 252.7 135.4 250.7Z" fill="#34323C"/>
<path d="M159.7 275.6L153.1 273.7V250.1L159.7 252V275.6Z" fill="#34323C"/>
<path d="M170.2 254.7L183.7 273.1V258.4L190.3 260.2V283.8L183.7 282L169.4 262.5V278.2L162.8 276.4V252.8L170.2 254.7Z" fill="#34323C"/>
<path d="M206.5 288.5C195.1 285.4 192.4 277.6 192.4 272.8V272C192.4 267.5 194.6 261 206.7 264.3L207.9 264.6C219.8 267.8 221.8 274.1 221.9 277.3L214.8 275.4C214.6 274.8 213.9 271.8 207.3 270C200.8 268.2 199.3 270.9 199.3 274.2V274.5C199.3 277.6 201.5 281.4 207.3 282.9C213.6 284.7 215.5 282.4 215.5 281.8V281.7L207.3 279.4V275L222.2 279V292.4L218.2 291.4C218.1 290.6 217.7 288.5 217.4 287.5C216.6 288.4 213.8 290.6 207.2 288.8L206.5 288.5Z" fill="#34323C"/>
<path d="M113.4 271.2V277.4L98.8 273.4V275.8L113.2 279.7V285.9L98.8 282V290.8L89.4 288.3V264.7L113.4 271.2Z" fill="#34323C"/>
<path d="M124.6 297.8L115 295.2V271.6L124.6 274.2V297.8Z" fill="#34323C"/>
<path d="M137.4 277.7L148.3 292.5V280.5L157.9 283.1V306.8L148.2 304.2L136.1 288V301L126.5 298.4V274.9L137.4 277.7Z" fill="#34323C"/>
<path d="M184.6 290.5V296.7L169.5 292.7V295.1L184.4 299.1V305.2L169.5 301.2V303.8L184.8 307.9V314.2L160.1 307.6V284L184.6 290.5Z" fill="#34323C"/>
<path d="M197.8 294.1L194.5 308.7L188.8 307.2L185.5 290.8L197.8 294.1ZM196.3 317.2L187 314.7V307.9L196.3 310.4V317.2Z" fill="#34323C"/>
<path d="M148.8 342.1L86.4 325.9V330.9L148.8 347.1V342.1Z" fill="#34323C"/>
<path d="M148.8 351.1L86.4 334.9V339.9L148.8 356.1V351.1Z" fill="#34323C"/>
<path d="M148.8 360L86.3 344V349L148.7 365.2V360H148.8Z" fill="#34323C"/>
<path d="M148.8 369.1L86.4 352.9V357.9L148.8 374.1V369.1Z" fill="#34323C"/>
<path d="M148.8 378.1L86.4 361.9V367.1L148.8 383.3V378.1Z" fill="#34323C"/>
<path d="M148.8 315.1L86.4 298.9V304.1L148.8 320.3V315.1Z" fill="#34323C"/>
<path d="M148.8 324.1L86.4 307.8V313L148.8 329.2V324.1Z" fill="#34323C"/>
<path d="M148.8 333L86 316.8L86.2 321.8L148.7 338V333H148.8Z" fill="#34323C"/>
<path d="M158.2 344.6V349.8L224.4 366.9V361.9L158.2 344.6Z" fill="#34323C"/>
<path d="M158.2 353.6V358.8L224.4 375.9V370.9L158.2 353.6Z" fill="#34323C"/>
<path d="M158.2 362.5V367.7L224.4 384.8V379.8L158.2 362.5Z" fill="#34323C"/>
<path d="M158.2 371.5V376.7L224.4 393.9V388.7L158.2 371.5Z" fill="#34323C"/>
<path d="M158.2 380.5V385.7L224.4 402.9V397.7L158.2 380.5Z" fill="#34323C"/>
<path d="M158.2 317.5V322.7L224.4 339.8V334.6L158.2 317.5Z" fill="#34323C"/>
<path d="M158.2 326.6V331.8L224.4 348.9V343.7L158.2 326.6Z" fill="#34323C"/>
<path d="M158.2 335.5V340.7L224.4 357.8V352.6L158.2 335.5Z" fill="#34323C"/>
</svg>
