<svg width="66" height="65" viewBox="0 0 66 65" fill="none" xmlns="http://www.w3.org/2000/svg">
<path d="M50.179 15.5276C41.3194 18.2491 43.2407 33.7171 43.2407 33.7171L45.7645 33.8824C45.765 33.8849 43.5556 18.5698 50.179 15.5276Z" fill="#00DBA3" stroke="#32333D" stroke-width="0.894275" stroke-miterlimit="10" stroke-linecap="round" stroke-linejoin="round"/>
<path d="M48.4362 8.92912C49.5361 5.42065 48.9608 2.76283 47.3135 2.82059C44.6365 2.91619 46.5776 9.16866 46.5776 9.16866C46.5776 9.16866 44.8087 3.37838 42.5654 4.5706C40.0704 5.89672 45.3805 10.3113 45.3805 10.3113C45.3805 10.3113 40.2018 5.75691 39.4004 8.3263C38.5996 10.8983 44.6111 11.849 44.6111 11.849C44.6111 11.849 38.2296 10.3607 38.3233 12.9679C38.4093 15.3687 44.5399 13.7085 44.5399 13.7085C44.5399 13.7085 39.2506 15.6157 40.2683 17.227C41.286 18.8383 45.3461 15.1205 45.3461 15.1205C45.3461 15.1205 41.8419 20.0351 43.5585 20.8191C45.5149 21.7097 47.0399 16.3772 47.0319 16.3654C47.0319 16.3654 45.3264 22.4731 47.6598 22.3884C49.9933 22.3037 48.8048 15.9582 48.8048 15.9582C48.7994 15.9703 50.5844 21.5272 52.4721 20.4999C54.1276 19.5968 50.2815 14.9432 50.2815 14.9432C50.2815 14.9432 54.5522 19.1193 55.8558 17.1475C57.2756 15.0041 50.9849 13.4741 50.9849 13.4741C50.9849 13.4741 56.3103 14.4518 56.3103 12.5269C56.3102 10.6019 50.7829 11.6262 50.7829 11.6262C50.7829 11.6262 57.333 10.3602 56.1286 7.44905C55.1015 4.96117 49.9044 10.1437 49.9044 10.1437C49.9044 10.1437 54.8872 5.36259 52.3043 4.21811C49.9807 3.19489 48.4362 8.92912 48.4362 8.92912Z" fill="#FFA589" stroke="#32333D" stroke-width="0.894275" stroke-miterlimit="10" stroke-linecap="round" stroke-linejoin="round"/>
<path d="M49.0641 16.209C51.0988 15.7603 52.3845 13.747 51.9358 11.7123C51.4871 9.67754 49.4739 8.39178 47.4391 8.84049C45.4044 9.2892 44.1186 11.3025 44.5673 13.3372C45.0161 15.372 47.0293 16.6577 49.0641 16.209Z" fill="#FFEC00" stroke="#32333D" stroke-width="0.894275" stroke-miterlimit="10" stroke-linecap="round" stroke-linejoin="round"/>
<path d="M42.7486 37.6704C45.3618 47.2893 39.5913 57.2268 29.8652 59.8691C20.1392 62.5114 10.1324 56.8561 7.52235 47.2392C7.32479 46.5149 7.17591 45.7907 7.07313 45.0672C7.07313 45.0672 7.93481 48.0674 14.0014 49.5251C14.0014 49.5251 10.5343 49.1893 9.13315 44.5886C9.13315 44.5886 11.6917 47.1551 16.3653 47.041C16.3653 47.041 12.0538 46.5048 11.218 43.4259C11.218 43.4259 26.3429 50.8724 21.5503 37.6111" fill="#FF3D5E"/>
<path d="M42.7486 37.6704C45.3618 47.2893 39.5913 57.2268 29.8652 59.8691C20.1392 62.5114 10.1324 56.8561 7.52235 47.2392C7.32479 46.5149 7.17591 45.7907 7.07313 45.0672C7.07313 45.0672 7.93481 48.0674 14.0014 49.5251C14.0014 49.5251 10.5343 49.1893 9.13315 44.5886C9.13315 44.5886 11.6917 47.1551 16.3653 47.041C16.3653 47.041 12.0538 46.5048 11.218 43.4259C11.218 43.4259 26.3429 50.8724 21.5503 37.6111" stroke="#32333D" stroke-width="0.894275" stroke-miterlimit="10" stroke-linecap="round" stroke-linejoin="round"/>
<path d="M35.754 45.7073C38.2751 45.3947 40.6982 45.9985 42.6898 47.2572C40.9984 53.1833 36.2989 58.1209 29.8655 59.8668C29.0393 60.0922 28.2123 60.253 27.39 60.3613C26.9994 59.4607 26.726 58.4909 26.6003 57.4669C25.8782 51.6918 29.9783 46.4267 35.754 45.7073Z" fill="#FC8CF3" stroke="#32333D" stroke-width="0.894275" stroke-miterlimit="10" stroke-linecap="round" stroke-linejoin="round"/>
<path d="M32.0194 33.8969L39.292 35.4049L44.8675 37.5657L46.0596 39.3061L40.7371 46.1384L28.8901 41.4432L32.0194 33.8969Z" fill="#FF3D5E"/>
<path d="M47.3716 37.2543C47.3716 37.2543 46.4989 46.7092 38.2832 48.5993C30.0262 50.4986 27.5083 46.3874 27.5083 46.3874" fill="#FF3D5E"/>
<path d="M47.3716 37.2543C47.3716 37.2543 46.4989 46.7092 38.2832 48.5993C30.0262 50.4986 27.5083 46.3874 27.5083 46.3874" stroke="#32333D" stroke-width="0.894275" stroke-miterlimit="10" stroke-linecap="round" stroke-linejoin="round"/>
<path d="M34.559 34.3726C34.559 34.3726 40.0955 37.9261 48.523 27.1026C48.523 27.1026 48.6154 30.8808 45.2261 35.9242C45.2261 35.9242 47.856 34.5358 49.8083 32.5508C49.8083 32.5508 48.7041 37.0821 44.9086 39.4494" fill="#FF3D5E"/>
<path d="M34.559 34.3726C34.559 34.3726 40.0955 37.9261 48.523 27.1026C48.523 27.1026 48.6154 30.8808 45.2261 35.9242C45.2261 35.9242 47.856 34.5358 49.8083 32.5508C49.8083 32.5508 48.7041 37.0821 44.9086 39.4494" stroke="#32333D" stroke-width="0.894275" stroke-miterlimit="10" stroke-linecap="round" stroke-linejoin="round"/>
<path d="M39.1272 26.4846C39.1272 26.4846 41.4192 24.7896 41.0964 22.5168L38.1422 23.0845L39.6606 20.211C39.6606 20.211 36.905 21.0538 32.7378 19.6153L31.5027 23.9079L36.9576 28.5014L39.1272 26.4846Z" fill="#FFA589" stroke="#32333D" stroke-width="0.894275" stroke-miterlimit="10" stroke-linecap="round" stroke-linejoin="round"/>
<path d="M30.4291 38.1648C36.5457 36.5037 40.3679 30.9732 38.9663 25.812C37.5647 20.6508 31.47 17.8134 25.3534 19.4745C19.2368 21.1355 15.4145 26.666 16.8161 31.8272C18.2177 36.9884 24.3124 39.8258 30.4291 38.1648Z" fill="#FF3D5E" stroke="#32333D" stroke-width="0.894275" stroke-miterlimit="10" stroke-linecap="round" stroke-linejoin="round"/>
<path d="M29.5084 19.0184C29.5084 19.0184 21.0061 18.371 18.9309 17.4687C16.8556 16.5664 20.566 20.3227 20.566 20.3227C20.566 20.3227 16.3938 20.3938 19.8575 24.2207" fill="#FF3D5E"/>
<path d="M29.5084 19.0184C29.5084 19.0184 21.0061 18.371 18.9309 17.4687C16.8556 16.5664 20.566 20.3227 20.566 20.3227C20.566 20.3227 16.3938 20.3938 19.8575 24.2207" stroke="#32333D" stroke-width="0.894275" stroke-miterlimit="10" stroke-linecap="round" stroke-linejoin="round"/>
<path d="M35.0328 25.3383C34.6905 24.8406 34.2718 24.3273 33.7913 23.8277C31.9256 21.8897 29.8179 20.8892 29.0865 21.5939C28.3551 22.2986 29.274 24.4426 31.1397 26.3806C31.6203 26.8803 32.1167 27.3169 32.6018 27.6776C32.7851 27.1235 33.0926 26.6177 33.5257 26.2032C33.9588 25.7887 34.4715 25.5026 35.0328 25.3383Z" fill="white" stroke="#32333D" stroke-width="0.894275" stroke-miterlimit="10" stroke-linecap="round" stroke-linejoin="round"/>
<path d="M31.3024 21.9697C31.3196 21.974 31.3374 21.9809 31.3571 21.9847C31.8679 22.0694 32.3853 22.4419 32.831 22.6978C32.9237 22.7504 33.0067 22.8078 33.087 22.8658C33.3189 23.1201 33.5441 23.3814 33.78 23.6294C33.6061 24.3247 32.973 24.8375 32.2251 24.8294C31.3497 24.8197 30.6478 24.1012 30.6575 23.2258C30.6649 22.7078 30.9165 22.2549 31.3024 21.9697Z" fill="#32333D"/>
</svg>
