<svg width="65" height="61" viewBox="0 0 65 61" fill="none" xmlns="http://www.w3.org/2000/svg">
<path d="M21.9453 41.2422C10.8922 52.3849 -3.66732 56.6699 -18.9519 53.8969" stroke="#32333D" stroke-width="11.194" stroke-miterlimit="10" stroke-linecap="round" stroke-linejoin="round"/>
<path d="M15.7135 35.0664C15.8376 34.9858 15.9486 34.8902 16.0463 34.7743C16.1698 34.6078 16.3177 34.4499 16.41 34.2646C16.4919 34.0963 16.5865 33.8623 16.6263 33.6869C16.6739 33.4571 16.6895 33.1977 16.6778 32.9676C16.6706 32.7962 16.6163 32.6289 16.5974 32.4585C16.5439 31.9149 16.2787 31.4647 15.8484 31.1041C15.6585 30.9431 17.1796 30.3766 16.2021 30.6512C17.067 30.4082 16.1266 30.3385 16.1203 30.3337C15.7897 28.798 14.805 27.6841 14.9458 26.1186C15.2488 22.7277 15.7539 19.3462 16.2056 15.964C16.147 15.8938 16.0995 15.8173 16.0636 15.7344C15.6753 14.9938 15.6335 14.23 15.053 13.6082C15.4907 13.4852 14.9411 13.0278 14.8895 12.9731C14.6531 12.7462 14.0396 13.0386 14.0264 12.7119C14.0215 12.6478 14.0283 12.5827 14.0406 12.5118C13.0881 11.4383 12.2698 10.2618 12.0384 8.86278C11.7842 7.32056 12.4563 5.73606 13.8954 4.81107C16.9267 2.87263 20.7902 4.30248 22.6652 6.75306C23.8302 8.28123 24.4325 10.1159 25.024 11.8871C25.3091 12.7494 25.5436 13.6483 25.898 14.4885C26.0861 14.9345 26.1167 15.0232 26.6354 15.0699C27.16 15.116 27.7453 15.0279 28.2709 15.0095C30.6497 14.9118 33.0279 14.8089 35.4067 14.7112C37.7203 14.6138 40.078 14.5502 42.3476 14.032C46.4913 13.0888 49.6971 11.5408 54.0389 12.6445C54.2925 12.7086 54.1749 13.7386 55.1818 12.8895C55.6689 13.6054 56.6379 13.6005 57.2023 14.2452C58.1368 15.3149 58.4646 16.1366 59.511 17.1214C58.4845 17.0287 58.5892 17.944 58.6676 18.0393C58.857 18.6573 59.8982 20.6836 60.2469 19.9792C61.0673 21.9563 60.2883 22.8672 61.1377 24.8365C61.5131 25.7179 62.089 26.9665 62.6036 27.7338C62.8097 28.8018 63.2076 28.0649 62.585 29.0592C61.6408 30.5704 61.3254 31.2553 59.5314 31.1789C57.5173 31.0892 55.9224 31.6418 53.9273 31.4913C52.7899 31.4067 51.6127 31.6533 50.4906 31.8469C49.1874 32.0721 46.9015 31.3608 45.5984 31.5861C44.9088 31.7046 45.2002 32.7385 44.5118 32.8731C44.4711 32.882 44.1307 32.9221 43.9453 32.9757C44.002 33.0192 43.9266 33.2729 43.9192 33.408C43.8475 34.3279 42.9301 34.8283 42.3063 35.5755C40.9725 37.1794 39.3096 38.4764 37.3093 39.1864C35.3439 39.888 33.259 40.2667 31.1685 40.3395C30.9387 41.128 30.6422 41.8953 30.0523 42.5428C29.3807 43.2834 28.4377 43.8054 27.4544 44.1106C26.2341 44.49 24.7521 44.6984 23.3951 44.5306C21.4744 44.578 19.5406 43.9922 18.0094 42.63C15.8555 40.7141 15.2656 38.2656 15.6406 35.5833C15.6922 35.4069 15.703 35.2393 15.7135 35.0664Z" fill="white"/>
<path d="M37.6857 27.3014C37.6857 27.3014 28.8574 25.8492 27.9043 32.0815" stroke="#32333D" stroke-width="3" stroke-miterlimit="10" stroke-linecap="round" stroke-linejoin="round"/>
<path d="M18.9027 34.4859C17.1856 32.6386 14.748 29.1564 15.3347 24.6662C16.2223 17.8741 18.4115 14.7619 13.1895 11.2513C7.96723 7.73561 16.1469 3.0155 20.2946 4.81554C24.4422 6.61559 26.349 16.0267 26.349 16.0267C26.349 16.0267 31.3356 12.8805 37.4194 15.5239C37.4194 15.5239 55.2734 7.66005 58.7296 16.8061" stroke="#32333D" stroke-width="3" stroke-miterlimit="10" stroke-linecap="round" stroke-linejoin="round"/>
<path d="M18.1055 33.5724C17.7675 33.8395 17.5332 34.0819 17.2763 34.4191C15.1986 37.1238 16.6308 41.1259 20.4708 43.3581C24.3112 45.5953 29.1122 45.2165 31.1899 42.5118C31.6615 41.903 31.9469 41.2282 32.0721 40.5212" stroke="#32333D" stroke-width="3" stroke-miterlimit="10" stroke-linecap="round" stroke-linejoin="round"/>
<path d="M41.9689 20.4507C41.9689 20.4507 60.733 12.2831 60.3018 23.9885" stroke="#32333D" stroke-width="3" stroke-miterlimit="10" stroke-linecap="round" stroke-linejoin="round"/>
<path d="M45.3726 26.5652C45.3726 26.5652 61.1603 21.1596 62.6334 27.8079C64.1066 34.4562 44.8354 31.4938 44.8354 31.4938C44.8354 31.4938 41.7679 41.4949 27.3084 39.8354" stroke="#32333D" stroke-width="3" stroke-miterlimit="10" stroke-linecap="round" stroke-linejoin="round"/>
</svg>
