<svg width="216" height="53" viewBox="0 0 216 53" fill="none" xmlns="http://www.w3.org/2000/svg">
<path fill-rule="evenodd" clip-rule="evenodd" d="M123.298 0.175777C129.741 0.175777 132.231 3.01675 132.231 9.11041V17.5611H124.686V10.1504C124.686 8.41773 124.338 7.10261 122.467 7.10261C120.596 7.10261 120.18 8.27919 120.18 10.7046V11.6704C120.18 14.5797 120.736 16.1738 123.368 19.5729L128.356 26.008C131.891 30.5855 132.994 33.2177 132.994 39.0343V40.6928C132.994 48.2441 129.741 52.7475 122.881 52.7475H121.359C115.125 52.7475 111.8 49.3543 111.8 42.9816V32.6597H119.556V41.6665C119.556 44.0255 120.321 45.2704 122.122 45.2704C123.991 45.2704 124.686 44.0255 124.686 40.8333V39.6587C124.686 35.9865 124.338 34.6675 121.497 30.9992L116.512 24.6265C113.187 20.3299 112.213 17.007 112.213 11.8811V10.2168C112.213 3.36407 115.681 0.175777 121.841 0.175777H123.298ZM147.345 0.65968H159.675C166.186 0.65968 167.919 4.0548 167.919 9.03821V16.9407C167.919 21.2314 166.049 23.3114 164.038 24.0743C166.116 24.7631 168.541 26.4938 168.541 31.6236V42.7728C168.541 48.246 166.116 52.1953 160.227 52.1953H147.345V0.65968ZM155.175 7.6587V21.0246H157.528C159.606 21.0246 160.227 19.5748 160.227 17.4226V10.9133C160.227 8.83334 159.675 7.6587 157.528 7.6587H155.177H155.175ZM155.175 28.7182V44.9211H157.528C160.02 44.9211 160.576 43.7426 160.576 41.4597V32.0392C160.576 29.8928 160.02 28.7182 157.528 28.7182H155.177H155.175ZM179.536 0.65968V44.2324H185.718V52.1933H171.708V0.663582H179.536V0.65968ZM204.996 0.65968V8.14261H196.088V21.647H203.027V29.4753H196.088V44.367H205.228V52.1972H188.266V0.65968H204.996ZM135.731 52.1953H143.558V0.65968H135.733L135.731 52.1953ZM211.07 0.65968V1.74651H210.114V8.14261H208.988V1.74651H208.032V0.65968H211.07ZM211.392 0.65968H212.847L213.392 4.61285L213.944 0.65968H215.302V8.14261H214.235V3.30358L213.552 8.14261H213.099L212.406 3.30358V8.14261H211.392V0.65968ZM12.0514 0.657729H22.0943L25.8348 27.8811L29.6455 0.657729H38.9977V52.1953H31.6533V18.8763L26.9431 52.1953H23.827L19.0465 18.8763V52.1953H12.0514V0.657729ZM50.4319 32.648V52.1953H42.6055V0.65968H55.0016C60.5431 0.65968 63.0368 3.01675 63.0368 9.18065V23.2255C63.0368 29.325 60.3363 32.648 55.0016 32.648H50.4319ZM50.4319 25.2411H52.4397C54.7928 25.2411 55.1421 23.5748 55.1421 21.4948V11.1865C55.1421 9.18066 54.7265 7.6548 52.4397 7.6548H50.4319V25.2411ZM86.586 40.6948C86.586 47.9007 84.1646 52.8197 76.6153 52.8197H75.2963C67.8172 52.8197 65.185 47.9007 65.185 40.6948V12.0197C65.185 4.88407 67.8855 0.171875 75.226 0.171875H76.545C84.1646 0.171875 86.586 4.88407 86.586 11.9514V40.6928V40.6948ZM78.625 11.6021C78.625 8.90553 77.7197 7.6548 75.9226 7.6548C73.9128 7.6548 73.1519 8.97187 73.1519 11.6041V41.2548C73.1519 43.4694 73.7763 45.1963 75.9909 45.1963C78.0728 45.1963 78.625 43.4694 78.625 41.2548V11.606V11.6021ZM100.165 0.175777C106.606 0.175777 109.101 3.01675 109.101 9.11041V17.5611H101.55V10.1504C101.55 8.41773 101.205 7.10261 99.3333 7.10261C97.4602 7.10261 97.0485 8.27919 97.0485 10.7046V11.6704C97.0485 14.5797 97.6007 16.1738 100.235 19.5729L105.22 26.008C108.752 30.5855 109.864 33.2177 109.864 39.0343V40.6928C109.864 48.2441 106.606 52.7475 99.7489 52.7475H98.2231C91.9909 52.7475 88.666 49.3543 88.666 42.9816V32.6597H96.4221V41.6665C96.4221 44.0255 97.185 45.2704 98.986 45.2704C100.859 45.2704 101.548 44.0255 101.548 40.8333V39.6587C101.548 35.9865 101.205 34.6675 98.3616 30.9992L93.3763 24.6265C90.0514 20.3299 89.0836 17.007 89.0836 11.8811V10.2168C89.0836 3.36407 92.547 0.175777 98.7089 0.175777H100.165ZM0.675781 52.1953H8.50017V0.65968H0.675781V52.1953Z" fill="black"/>
</svg>
