<svg width="326" height="237" viewBox="0 0 326 237" fill="none" xmlns="http://www.w3.org/2000/svg">
<path d="M163 231.954C189.22 232.016 214.458 231.335 235.693 229.916C256.869 228.502 274.243 226.343 284.626 223.393C296.673 219.994 307.649 211.788 311.159 202.85C314.357 194.914 316.749 182.203 318.364 167.328C319.987 152.388 320.846 135.078 320.903 117.841C320.96 100.605 320.215 83.4049 318.62 68.6884C317.032 54.0477 314.581 41.6275 311.115 34.1052C307.175 25.459 296.871 16.8985 284.583 13.654L284.579 13.6528L284.574 13.6515C262.091 7.8137 213.148 5.04309 163 5.04309C112.854 5.04309 63.9141 7.81344 41.4295 13.6507C29.0242 16.837 18.8165 25.4734 14.8839 34.1083C11.418 41.6309 8.96744 54.0494 7.38042 68.6884C5.78496 83.4049 5.03987 100.605 5.09678 117.841C5.15369 135.078 6.01283 152.388 7.63572 167.328C9.25227 182.21 11.6448 194.926 14.8452 202.861H14.8453C18.4421 211.777 29.3097 219.99 41.3766 223.394C51.8024 226.343 69.1749 228.501 90.3412 229.916C111.564 231.335 136.78 232.016 163 231.954ZM163 231.954C162.998 231.954 162.996 231.954 162.995 231.954L163 229.779L163.006 231.954C163.004 231.954 163.002 231.954 163 231.954Z" stroke="#FFEC00" stroke-width="10"/>
</svg>
