<svg width="700" height="532" viewBox="0 0 700 532" fill="none" xmlns="http://www.w3.org/2000/svg">
<path d="M347 520.661C403.788 520.802 458.451 519.255 504.442 516.03C550.306 512.816 587.936 507.91 610.424 501.207C636.515 493.482 660.286 474.834 667.89 454.522C674.816 436.487 679.995 407.601 683.495 373.796C687.01 339.846 688.87 300.507 688.993 261.336C689.117 222.167 687.504 183.079 684.048 149.636C680.61 116.364 675.302 88.1391 667.793 71.0443C659.261 51.3956 636.943 31.9418 610.33 24.5685L610.321 24.5658L610.31 24.5629C561.615 11.2963 455.613 5 347 5C238.392 5 132.396 11.2957 83.6975 24.561C56.8296 31.802 34.7212 51.4284 26.2038 71.0515C18.6974 88.1469 13.3898 116.368 9.95257 149.636C6.49705 183.079 4.88331 222.167 5.00655 261.336C5.12981 300.507 6.99057 339.846 10.5055 373.796C14.0067 407.616 19.1885 436.513 26.1201 454.546H26.1203C33.9103 474.809 57.448 493.472 83.5828 501.208C106.164 507.91 143.79 512.815 189.633 516.03C235.598 519.255 290.212 520.802 347 520.661ZM347 520.661C346.996 520.661 346.992 520.661 346.988 520.661L347 515.719L347.012 520.661C347.008 520.661 347.004 520.661 347 520.661Z" stroke="#FFEC00" stroke-width="10"/>
</svg>
